<?xml version="1.0" encoding="utf-8"?>
<!-- Generator: Adobe Illustrator 18.0.0, SVG Export Plug-In . SVG Version: 6.00 Build 0)  -->
<!DOCTYPE svg PUBLIC "-//W3C//DTD SVG 1.1//EN" "http://www.w3.org/Graphics/SVG/1.1/DTD/svg11.dtd">
<svg version="1.1" id="Layer_1" xmlns="http://www.w3.org/2000/svg" xmlns:xlink="http://www.w3.org/1999/xlink" x="0px" y="0px"
	 viewBox="0 0 1280 600" enable-background="new 0 0 1280 600" xml:space="preserve">
<pattern  y="-60" width="72" height="72" patternUnits="userSpaceOnUse" id="_x31_0_lpi_50_x25_" viewBox="72.2 -72 72 72" overflow="visible">
	<g>
		<polygon fill="none" points="72.2,-72 144.2,-72 144.2,0 72.2,0 		"/>
		<g>
			<line fill="none" stroke="#000000" stroke-width="3.6" x1="144" y1="-3.6" x2="216.5" y2="-3.6"/>
			<line fill="none" stroke="#000000" stroke-width="3.6" x1="144" y1="-18" x2="216.5" y2="-18"/>
			<line fill="none" stroke="#000000" stroke-width="3.6" x1="144" y1="-32.4" x2="216.5" y2="-32.4"/>
			<line fill="none" stroke="#000000" stroke-width="3.6" x1="144" y1="-46.8" x2="216.5" y2="-46.8"/>
			<line fill="none" stroke="#000000" stroke-width="3.6" x1="144" y1="-61.2" x2="216.5" y2="-61.2"/>
			<line fill="none" stroke="#000000" stroke-width="3.6" x1="144" y1="-10.8" x2="216.5" y2="-10.8"/>
			<line fill="none" stroke="#000000" stroke-width="3.6" x1="144" y1="-25.2" x2="216.5" y2="-25.2"/>
			<line fill="none" stroke="#000000" stroke-width="3.6" x1="144" y1="-39.6" x2="216.5" y2="-39.6"/>
			<line fill="none" stroke="#000000" stroke-width="3.6" x1="144" y1="-54" x2="216.5" y2="-54"/>
			<line fill="none" stroke="#000000" stroke-width="3.6" x1="144" y1="-68.4" x2="216.5" y2="-68.4"/>
		</g>
		<g>
			<line fill="none" stroke="#000000" stroke-width="3.6" x1="72" y1="-3.6" x2="144.5" y2="-3.6"/>
			<line fill="none" stroke="#000000" stroke-width="3.6" x1="72" y1="-18" x2="144.5" y2="-18"/>
			<line fill="none" stroke="#000000" stroke-width="3.6" x1="72" y1="-32.4" x2="144.5" y2="-32.4"/>
			<line fill="none" stroke="#000000" stroke-width="3.6" x1="72" y1="-46.8" x2="144.5" y2="-46.8"/>
			<line fill="none" stroke="#000000" stroke-width="3.6" x1="72" y1="-61.2" x2="144.5" y2="-61.2"/>
			<line fill="none" stroke="#000000" stroke-width="3.6" x1="72" y1="-10.8" x2="144.5" y2="-10.8"/>
			<line fill="none" stroke="#000000" stroke-width="3.6" x1="72" y1="-25.2" x2="144.5" y2="-25.2"/>
			<line fill="none" stroke="#000000" stroke-width="3.6" x1="72" y1="-39.6" x2="144.5" y2="-39.6"/>
			<line fill="none" stroke="#000000" stroke-width="3.6" x1="72" y1="-54" x2="144.5" y2="-54"/>
			<line fill="none" stroke="#000000" stroke-width="3.6" x1="72" y1="-68.4" x2="144.5" y2="-68.4"/>
		</g>
		<g>
			<line fill="none" stroke="#000000" stroke-width="3.6" x1="0" y1="-3.6" x2="72.5" y2="-3.6"/>
			<line fill="none" stroke="#000000" stroke-width="3.6" x1="0" y1="-18" x2="72.5" y2="-18"/>
			<line fill="none" stroke="#000000" stroke-width="3.6" x1="0" y1="-32.4" x2="72.5" y2="-32.4"/>
			<line fill="none" stroke="#000000" stroke-width="3.6" x1="0" y1="-46.8" x2="72.5" y2="-46.8"/>
			<line fill="none" stroke="#000000" stroke-width="3.6" x1="0" y1="-61.2" x2="72.5" y2="-61.2"/>
			<line fill="none" stroke="#000000" stroke-width="3.6" x1="0" y1="-10.8" x2="72.5" y2="-10.8"/>
			<line fill="none" stroke="#000000" stroke-width="3.6" x1="0" y1="-25.2" x2="72.5" y2="-25.2"/>
			<line fill="none" stroke="#000000" stroke-width="3.6" x1="0" y1="-39.6" x2="72.5" y2="-39.6"/>
			<line fill="none" stroke="#000000" stroke-width="3.6" x1="0" y1="-54" x2="72.5" y2="-54"/>
			<line fill="none" stroke="#000000" stroke-width="3.6" x1="0" y1="-68.4" x2="72.5" y2="-68.4"/>
		</g>
	</g>
</pattern>
<g>
	<line fill="none" stroke="#000000" stroke-width="0.7692" stroke-miterlimit="10" x1="98.6" y1="427.1" x2="1083.7" y2="427.1"/>
	<line fill="none" stroke="#000000" stroke-width="0.7692" stroke-miterlimit="10" x1="98.6" y1="448" x2="98.6" y2="406.2"/>
	<line fill="none" stroke="#000000" stroke-width="0.7692" stroke-miterlimit="10" x1="180.7" y1="437.1" x2="180.7" y2="417.1"/>
	<line fill="none" stroke="#000000" stroke-width="0.7692" stroke-miterlimit="10" x1="262.8" y1="437.1" x2="262.8" y2="417.1"/>
	<line fill="none" stroke="#000000" stroke-width="0.7692" stroke-miterlimit="10" x1="344.9" y1="437.1" x2="344.9" y2="417.1"/>
	<line fill="none" stroke="#000000" stroke-width="0.7692" stroke-miterlimit="10" x1="427" y1="448" x2="427" y2="406.2"/>
	<line fill="none" stroke="#000000" stroke-width="0.7692" stroke-miterlimit="10" x1="509.1" y1="437.1" x2="509.1" y2="417.1"/>
	<line fill="none" stroke="#000000" stroke-width="0.7692" stroke-miterlimit="10" x1="591.1" y1="437.1" x2="591.1" y2="417.1"/>
	<line fill="none" stroke="#000000" stroke-width="0.7692" stroke-miterlimit="10" x1="673.2" y1="437.1" x2="673.2" y2="417.1"/>
	<line fill="none" stroke="#000000" stroke-width="0.7692" stroke-miterlimit="10" x1="755.3" y1="448" x2="755.3" y2="406.2"/>
	<line fill="none" stroke="#000000" stroke-width="0.7692" stroke-miterlimit="10" x1="837.4" y1="437.1" x2="837.4" y2="417.1"/>
	<line fill="none" stroke="#000000" stroke-width="0.7692" stroke-miterlimit="10" x1="919.5" y1="437.1" x2="919.5" y2="417.1"/>
	<line fill="none" stroke="#000000" stroke-width="0.7692" stroke-miterlimit="10" x1="1001.6" y1="437.1" x2="1001.6" y2="417.1"/>
	<line fill="none" stroke="#000000" stroke-width="0.7692" stroke-miterlimit="10" x1="1083.7" y1="448" x2="1083.7" y2="406.2"/>
</g>
<g>
	<path d="M88.7,478.4l0.8-0.9c0.7,0.6,1.4,1,2.3,1c0.8,0,1.3-0.4,1.3-0.9v0c0-0.5-0.3-0.8-1.7-1.1c-1.6-0.4-2.4-0.8-2.4-2.2v0
		c0-1.3,1-2.1,2.5-2.1c1.1,0,1.9,0.3,2.7,0.9l-0.7,1c-0.7-0.5-1.3-0.8-2-0.8c-0.8,0-1.2,0.4-1.2,0.9v0c0,0.6,0.3,0.8,1.7,1.2
		c1.6,0.4,2.4,0.9,2.4,2.1v0c0,1.4-1.1,2.2-2.6,2.2C90.6,479.6,89.6,479.2,88.7,478.4z"/>
	<path d="M95.9,472.2h5.4v1.2h-4.2v1.9h3.7v1.2h-3.7v2h4.2v1.2h-5.5V472.2z"/>
	<path d="M102.9,472.2h2.9c1.7,0,2.8,1,2.8,2.5v0c0,1.6-1.3,2.5-2.9,2.5h-1.5v2.4h-1.3V472.2z M105.7,476c1,0,1.6-0.5,1.6-1.3v0
		c0-0.9-0.6-1.3-1.6-1.3h-1.5v2.6H105.7z"/>
</g>
<g>
	<path d="M415.9,475.9L415.9,475.9c0-2.1,1.6-3.8,3.8-3.8c2.3,0,3.8,1.7,3.8,3.8v0c0,2.1-1.6,3.8-3.8,3.8S415.9,477.9,415.9,475.9z
		 M422.2,475.9L422.2,475.9c0-1.4-1-2.6-2.5-2.6s-2.5,1.2-2.5,2.6v0c0,1.4,1,2.6,2.5,2.6S422.2,477.3,422.2,475.9z"/>
	<path d="M424.8,475.9L424.8,475.9c0-2.1,1.6-3.8,3.8-3.8c1.4,0,2.2,0.5,2.9,1.1l-0.8,1c-0.6-0.5-1.2-0.9-2.1-0.9
		c-1.4,0-2.4,1.2-2.4,2.6v0c0,1.4,1,2.6,2.4,2.6c0.9,0,1.5-0.4,2.1-1l0.8,0.8c-0.8,0.8-1.6,1.3-3,1.3
		C426.4,479.6,424.8,478,424.8,475.9z"/>
	<path d="M434.6,473.4h-2.3v-1.2h6v1.2h-2.3v6.1h-1.3V473.4z"/>
</g>
<g>
	<path d="M744,472.2h1.2l3.9,5.1v-5.1h1.3v7.3h-1.1l-4-5.2v5.2H744V472.2z"/>
	<path d="M751.9,475.9L751.9,475.9c0-2.1,1.6-3.8,3.8-3.8s3.8,1.7,3.8,3.8v0c0,2.1-1.6,3.8-3.8,3.8S751.9,477.9,751.9,475.9z
		 M758.2,475.9L758.2,475.9c0-1.4-1-2.6-2.5-2.6s-2.5,1.2-2.5,2.6v0c0,1.4,1,2.6,2.5,2.6S758.2,477.3,758.2,475.9z"/>
	<path d="M760.1,472.2h1.4l2.2,5.6l2.2-5.6h1.4l-3.1,7.4h-1.1L760.1,472.2z"/>
</g>
<g>
	<path d="M1073.1,472.2h2.7c2.3,0,3.9,1.6,3.9,3.6v0c0,2.1-1.6,3.7-3.9,3.7h-2.7V472.2z M1075.9,478.3c1.5,0,2.5-1,2.5-2.5v0
		c0-1.4-1-2.5-2.5-2.5h-1.4v5H1075.9z"/>
	<path d="M1081.3,472.2h5.4v1.2h-4.2v1.9h3.7v1.2h-3.7v2h4.2v1.2h-5.5V472.2z"/>
	<path d="M1088,475.9L1088,475.9c0-2.1,1.6-3.8,3.8-3.8c1.4,0,2.2,0.5,2.9,1.1l-0.8,1c-0.6-0.5-1.2-0.9-2.1-0.9
		c-1.4,0-2.4,1.2-2.4,2.6v0c0,1.4,1,2.6,2.4,2.6c0.9,0,1.5-0.4,2.1-1l0.8,0.8c-0.8,0.8-1.6,1.3-3,1.3
		C1089.6,479.6,1088,478,1088,475.9z"/>
</g>
<g>
	<g>
		<rect x="98.6" y="238.5" opacity="0.4" width="327.9" height="12"/>
		<g>
			<path d="M99.5,258.2h2.7c2.3,0,3.9,1.6,3.9,3.6v0c0,2.1-1.6,3.7-3.9,3.7h-2.7V258.2z M102.2,264.4c1.5,0,2.5-1,2.5-2.5v0
				c0-1.4-1-2.5-2.5-2.5h-1.4v5H102.2z"/>
			<path d="M107.7,258.2h5.4v1.2H109v1.9h3.7v1.2H109v2h4.2v1.2h-5.5V258.2z"/>
			<path d="M114.2,264.5l0.8-0.9c0.7,0.6,1.4,1,2.3,1c0.8,0,1.3-0.4,1.3-0.9v0c0-0.5-0.3-0.8-1.7-1.1c-1.6-0.4-2.4-0.8-2.4-2.2v0
				c0-1.3,1-2.1,2.5-2.1c1.1,0,1.9,0.3,2.7,0.9l-0.7,1c-0.7-0.5-1.3-0.8-2-0.8c-0.8,0-1.2,0.4-1.2,0.9v0c0,0.6,0.3,0.8,1.7,1.2
				c1.6,0.4,2.4,0.9,2.4,2.1v0c0,1.4-1.1,2.2-2.6,2.2C116.1,265.6,115.1,265.3,114.2,264.5z"/>
			<path d="M121.5,258.2h1.3v7.3h-1.3V258.2z"/>
			<path d="M124.4,261.9L124.4,261.9c0-2.1,1.6-3.8,3.8-3.8c1.3,0,2.1,0.4,2.8,1l-0.8,1c-0.6-0.5-1.1-0.8-2.1-0.8
				c-1.4,0-2.4,1.2-2.4,2.6v0c0,1.5,1,2.6,2.5,2.6c0.7,0,1.3-0.2,1.8-0.6v-1.4h-1.9v-1.1h3.1v3.1c-0.7,0.6-1.8,1.1-3.1,1.1
				C125.9,265.7,124.4,264,124.4,261.9z"/>
			<path d="M132.9,258.2h1.2l3.9,5.1v-5.1h1.3v7.3h-1.1l-4-5.2v5.2h-1.3V258.2z"/>
			<path d="M144.4,258.2h3.3c0.9,0,1.6,0.3,2.1,0.7c0.4,0.4,0.6,0.9,0.6,1.6v0c0,1.2-0.7,1.9-1.8,2.2l2,2.8h-1.5l-1.8-2.6h-1.6v2.6
				h-1.3V258.2z M147.5,261.8c0.9,0,1.5-0.5,1.5-1.2v0c0-0.8-0.6-1.2-1.5-1.2h-1.9v2.5H147.5z"/>
			<path d="M151.9,258.2h5.4v1.2h-4.2v1.9h3.7v1.2h-3.7v2h4.2v1.2h-5.5V258.2z"/>
			<path d="M158.5,264.5l0.8-0.9c0.7,0.6,1.4,1,2.3,1c0.8,0,1.3-0.4,1.3-0.9v0c0-0.5-0.3-0.8-1.7-1.1c-1.6-0.4-2.4-0.8-2.4-2.2v0
				c0-1.3,1-2.1,2.5-2.1c1.1,0,1.9,0.3,2.7,0.9l-0.7,1c-0.7-0.5-1.3-0.8-2-0.8c-0.8,0-1.2,0.4-1.2,0.9v0c0,0.6,0.3,0.8,1.7,1.2
				c1.6,0.4,2.4,0.9,2.4,2.1v0c0,1.4-1.1,2.2-2.6,2.2C160.4,265.6,159.3,265.3,158.5,264.5z"/>
			<path d="M165.7,258.2h5.4v1.2H167v1.9h3.7v1.2H167v2h4.2v1.2h-5.5V258.2z"/>
			<path d="M175.3,258.2h1.2l3.2,7.4h-1.4l-0.7-1.8h-3.5l-0.8,1.8h-1.3L175.3,258.2z M177.1,262.6l-1.3-2.9l-1.3,2.9H177.1z"/>
			<path d="M181,258.2h3.3c0.9,0,1.6,0.3,2.1,0.7c0.4,0.4,0.6,0.9,0.6,1.6v0c0,1.2-0.7,1.9-1.8,2.2l2,2.8h-1.5l-1.8-2.6h-1.6v2.6
				H181V258.2z M184.1,261.8c0.9,0,1.5-0.5,1.5-1.2v0c0-0.8-0.6-1.2-1.5-1.2h-1.9v2.5H184.1z"/>
			<path d="M188.2,261.9L188.2,261.9c0-2.1,1.6-3.8,3.8-3.8c1.4,0,2.2,0.5,2.9,1.1l-0.8,1c-0.6-0.5-1.2-0.9-2.1-0.9
				c-1.4,0-2.4,1.2-2.4,2.6v0c0,1.4,1,2.6,2.4,2.6c0.9,0,1.5-0.4,2.1-1l0.8,0.8c-0.8,0.8-1.6,1.3-3,1.3
				C189.8,265.7,188.2,264,188.2,261.9z"/>
			<path d="M196.3,258.2h1.3v3.1h3.5v-3.1h1.3v7.3h-1.3v-3.1h-3.5v3.1h-1.3V258.2z"/>
		</g>
	</g>
	<g>
		<g>
			<path d="M392,220.1c0-29.2,0-4.8,0-49.7"/>
			<g>
				<path fill="none" stroke="#000000" stroke-width="2" stroke-miterlimit="10" d="M392,220.1c0-29.2,0-4.8,0-49.7"/>
				<g>
					<polygon points="397,218.7 392,227.3 387.1,218.7 					"/>
				</g>
			</g>
		</g>
		<g>
			<path fill="none" stroke="#000000" stroke-width="2" stroke-miterlimit="10" d="M380.8,131.4h22.5v22.5h-22.5V131.4z
				 M386.8,137.5l10.5,10.5 M386.8,147.9l10.5-10.5"/>
			<g>
				<g>
					<path d="M411.4,133.1h3.7c1.1,0,1.9,0.3,2.4,0.8c0.4,0.5,0.7,1.1,0.7,1.8v0c0,1.4-0.8,2.2-2,2.5l2.3,3.2h-1.7l-2.1-2.9h-1.8
						v2.9h-1.5V133.1z M415,137.3c1.1,0,1.7-0.6,1.7-1.4v0c0-0.9-0.6-1.4-1.7-1.4h-2.1v2.8H415z"/>
					<path d="M420,133.1h6.2v1.3h-4.7v2.2h4.2v1.3h-4.2v2.3h4.8v1.3H420V133.1z"/>
					<path d="M427.5,140.3l0.9-1.1c0.8,0.7,1.6,1.1,2.7,1.1c0.9,0,1.5-0.4,1.5-1.1v0c0-0.6-0.3-0.9-1.9-1.3c-1.8-0.4-2.8-1-2.8-2.5
						v0c0-1.4,1.2-2.4,2.9-2.4c1.2,0,2.2,0.4,3,1.1l-0.8,1.1c-0.8-0.6-1.5-0.9-2.3-0.9c-0.9,0-1.4,0.4-1.4,1v0c0,0.6,0.4,0.9,2,1.3
						c1.8,0.4,2.7,1.1,2.7,2.5v0c0,1.6-1.2,2.5-3,2.5C429.7,141.7,428.5,141.2,427.5,140.3z"/>
					<path d="M435.8,133.1h6.2v1.3h-4.7v2.2h4.2v1.3h-4.2v2.3h4.8v1.3h-6.3V133.1z"/>
					<path d="M446.8,133.1h1.4l3.7,8.5h-1.6l-0.9-2h-4l-0.9,2h-1.5L446.8,133.1z M448.9,138.2l-1.5-3.4l-1.4,3.4H448.9z"/>
					<path d="M453.3,133.1h3.7c1.1,0,1.9,0.3,2.4,0.8c0.4,0.5,0.7,1.1,0.7,1.8v0c0,1.4-0.8,2.2-2,2.5l2.3,3.2h-1.7l-2.1-2.9h-1.8
						v2.9h-1.5V133.1z M456.9,137.3c1.1,0,1.7-0.6,1.7-1.4v0c0-0.9-0.6-1.4-1.7-1.4h-2.1v2.8H456.9z"/>
					<path d="M461.6,137.4L461.6,137.4c0-2.4,1.8-4.4,4.3-4.4c1.5,0,2.5,0.5,3.3,1.3l-0.9,1.1c-0.7-0.6-1.4-1-2.4-1
						c-1.6,0-2.8,1.3-2.8,3v0c0,1.6,1.2,3,2.8,3c1,0,1.7-0.4,2.4-1.1l0.9,1c-0.9,0.9-1.8,1.5-3.4,1.5
						C463.4,141.7,461.6,139.8,461.6,137.4z"/>
					<path d="M470.8,133.1h1.5v3.5h4v-3.5h1.5v8.4h-1.5V138h-4v3.5h-1.5V133.1z"/>
					<path d="M483.5,133.1h3.7c1.1,0,1.9,0.3,2.4,0.8c0.4,0.5,0.7,1.1,0.7,1.8v0c0,1.4-0.8,2.2-2,2.5l2.3,3.2h-1.7l-2.1-2.9H485v2.9
						h-1.5V133.1z M487.2,137.3c1.1,0,1.7-0.6,1.7-1.4v0c0-0.9-0.6-1.4-1.7-1.4H485v2.8H487.2z"/>
					<path d="M492.2,133.1h6.2v1.3h-4.7v2.2h4.2v1.3h-4.2v2.3h4.8v1.3h-6.3V133.1z"/>
					<path d="M500.3,133.1h3.3c2,0,3.2,1.1,3.2,2.8v0c0,1.9-1.5,2.9-3.4,2.9h-1.7v2.7h-1.5V133.1z M503.4,137.5
						c1.1,0,1.8-0.6,1.8-1.5v0c0-1-0.7-1.5-1.8-1.5h-1.7v3H503.4z"/>
					<path d="M507.9,137.4L507.9,137.4c0-2.4,1.8-4.4,4.4-4.4s4.4,2,4.4,4.3v0c0,2.4-1.8,4.3-4.4,4.3
						C509.7,141.7,507.9,139.7,507.9,137.4z M515.1,137.4L515.1,137.4c0-1.7-1.2-3-2.9-3c-1.7,0-2.8,1.3-2.8,3v0c0,1.6,1.2,3,2.9,3
						C514,140.3,515.1,139,515.1,137.4z"/>
					<path d="M518.5,133.1h3.7c1.1,0,1.9,0.3,2.4,0.8c0.4,0.5,0.7,1.1,0.7,1.8v0c0,1.4-0.8,2.2-2,2.5l2.3,3.2h-1.7l-2.1-2.9h-1.8
						v2.9h-1.5V133.1z M522.1,137.3c1.1,0,1.7-0.6,1.7-1.4v0c0-0.9-0.6-1.4-1.7-1.4h-2.1v2.8H522.1z"/>
					<path d="M529.2,134.5h-2.7v-1.4h6.8v1.4h-2.7v7h-1.5V134.5z"/>
				</g>
				<g>
					<path d="M410.6,150.7l0.5-0.4c0.4,0.6,0.8,0.9,1.4,0.9c0.7,0,1.2-0.5,1.2-1.5v-4.1h0.7v4.1c0,0.7-0.2,1.3-0.6,1.6
						c-0.3,0.3-0.8,0.5-1.3,0.5C411.5,151.8,410.9,151.3,410.6,150.7z"/>
					<path d="M415.9,149.1v-3.6h0.7v3.5c0,1.3,0.7,2.1,1.9,2.1c1.1,0,1.8-0.7,1.8-2v-3.6h0.7v3.5c0,1.8-1,2.7-2.5,2.7
						C416.9,151.8,415.9,150.9,415.9,149.1z"/>
					<path d="M422.6,145.6h0.6l3.8,4.9v-4.9h0.7v6.1h-0.5l-3.9-5v5h-0.7V145.6z"/>
					<path d="M429.5,145.6h4.4v0.6h-3.7v2.1h3.3v0.6h-3.3v2.1h3.8v0.6h-4.5V145.6z"/>
					<path d="M438.7,146.3l-1.2,0.4l-0.2-0.6l1.5-0.5h0.5v6.2h-0.7V146.3z"/>
					<path d="M440.7,151.2l2.2-2c0.9-0.8,1.3-1.3,1.3-1.9c0-0.7-0.6-1.2-1.2-1.2c-0.7,0-1.2,0.4-1.6,1l-0.5-0.4
						c0.6-0.8,1.1-1.3,2.2-1.3c1.1,0,1.9,0.7,1.9,1.7v0c0,0.9-0.5,1.4-1.5,2.4l-1.6,1.4h3.2v0.6h-4.3V151.2z"/>
				</g>
			</g>
		</g>
	</g>
</g>
<g>
	<g>
		<rect x="345.1" y="278.5" opacity="0.4" width="327.9" height="12"/>
		<g>
			<path d="M345.3,304.5l0.8-0.9c0.7,0.6,1.4,1,2.3,1c0.8,0,1.3-0.4,1.3-0.9v0c0-0.5-0.3-0.8-1.7-1.1c-1.6-0.4-2.4-0.8-2.4-2.2v0
				c0-1.3,1-2.1,2.5-2.1c1.1,0,1.9,0.3,2.7,0.9l-0.7,1c-0.7-0.5-1.3-0.8-2-0.8c-0.8,0-1.2,0.4-1.2,0.9v0c0,0.6,0.3,0.8,1.7,1.2
				c1.6,0.4,2.4,0.9,2.4,2.1v0c0,1.4-1.1,2.2-2.6,2.2C347.3,305.6,346.2,305.3,345.3,304.5z"/>
			<path d="M352.5,298.2h5.4v1.2h-4.2v1.9h3.7v1.2h-3.7v2h4.2v1.2h-5.5V298.2z"/>
			<path d="M359.6,298.2h3.3c0.9,0,1.6,0.3,2.1,0.7c0.4,0.4,0.6,0.9,0.6,1.6v0c0,1.2-0.7,1.9-1.8,2.2l2,2.8h-1.5l-1.8-2.6h-1.6v2.6
				h-1.3V298.2z M362.7,301.8c0.9,0,1.5-0.5,1.5-1.2v0c0-0.8-0.6-1.2-1.5-1.2h-1.9v2.5H362.7z"/>
			<path d="M366.3,298.2h1.4l2.2,5.6l2.2-5.6h1.4l-3.1,7.4h-1.1L366.3,298.2z"/>
			<path d="M374.9,298.2h1.3v7.3h-1.3V298.2z"/>
			<path d="M377.8,301.9L377.8,301.9c0-2.1,1.6-3.8,3.8-3.8c1.4,0,2.2,0.5,2.9,1.1l-0.8,1c-0.6-0.5-1.2-0.9-2.1-0.9
				c-1.4,0-2.4,1.2-2.4,2.6v0c0,1.4,1,2.6,2.4,2.6c0.9,0,1.5-0.4,2.1-1l0.8,0.8c-0.8,0.8-1.6,1.3-3,1.3
				C379.4,305.7,377.8,304,377.8,301.9z"/>
			<path d="M385.8,298.2h5.4v1.2h-4.2v1.9h3.7v1.2h-3.7v2h4.2v1.2h-5.5V298.2z"/>
			<path d="M396.1,298.2h1.3v7.3h-1.3V298.2z"/>
			<path d="M399.3,298.2h2.7c2.3,0,3.9,1.6,3.9,3.6v0c0,2.1-1.6,3.7-3.9,3.7h-2.7V298.2z M402.1,304.4c1.5,0,2.5-1,2.5-2.5v0
				c0-1.4-1-2.5-2.5-2.5h-1.4v5H402.1z"/>
			<path d="M407.5,298.2h5.4v1.2h-4.2v1.9h3.7v1.2h-3.7v2h4.2v1.2h-5.5V298.2z"/>
			<path d="M414.5,298.2h1.2l3.9,5.1v-5.1h1.3v7.3h-1.1l-4-5.2v5.2h-1.3V298.2z"/>
			<path d="M424.6,299.4h-2.3v-1.2h6v1.2h-2.3v6.1h-1.3V299.4z"/>
			<path d="M429.7,298.2h1.3v7.3h-1.3V298.2z"/>
			<path d="M434.7,299.4h-2.3v-1.2h6v1.2H436v6.1h-1.3V299.4z"/>
			<path d="M441.9,302.6l-2.9-4.4h1.5l2.1,3.2l2.1-3.2h1.5l-2.9,4.4v2.9h-1.3V302.6z"/>
		</g>
	</g>
	<g>
		<g>
			<path d="M638.5,260.1c0-29.2,0-4.8,0-49.7"/>
			<g>
				<path fill="none" stroke="#000000" stroke-width="2" stroke-miterlimit="10" d="M638.5,260.1c0-29.2,0-4.8,0-49.7"/>
				<g>
					<polygon points="643.5,258.7 638.5,267.3 633.5,258.7 					"/>
				</g>
			</g>
		</g>
		<g>
			<path fill="none" stroke="#000000" stroke-width="2" stroke-miterlimit="10" d="M627.3,171.4h22.5v22.5h-22.5V171.4z
				 M633.3,177.4l10.5,10.5 M633.3,187.9l10.5-10.5"/>
			<g>
				<g>
					<path d="M657.9,173.1h3.7c1.1,0,1.9,0.3,2.4,0.8c0.4,0.5,0.7,1.1,0.7,1.8v0c0,1.4-0.8,2.2-2,2.5l2.3,3.2h-1.7l-2.1-2.9h-1.8
						v2.9h-1.5V173.1z M661.5,177.3c1.1,0,1.7-0.6,1.7-1.4v0c0-0.9-0.6-1.4-1.7-1.4h-2.1v2.8H661.5z"/>
					<path d="M666.5,173.1h6.2v1.3H668v2.2h4.2v1.3H668v2.3h4.8v1.3h-6.3V173.1z"/>
					<path d="M674,180.3l0.9-1.1c0.8,0.7,1.6,1.1,2.7,1.1c0.9,0,1.5-0.4,1.5-1.1v0c0-0.6-0.3-0.9-1.9-1.3c-1.8-0.4-2.8-1-2.8-2.5v0
						c0-1.4,1.2-2.4,2.9-2.4c1.2,0,2.2,0.4,3,1.1l-0.8,1.1c-0.8-0.6-1.5-0.9-2.3-0.9c-0.9,0-1.4,0.4-1.4,1v0c0,0.6,0.4,0.9,2,1.3
						c1.8,0.4,2.7,1.1,2.7,2.5v0c0,1.6-1.2,2.5-3,2.5C676.2,181.6,675,181.2,674,180.3z"/>
					<path d="M682.2,173.1h6.2v1.3h-4.7v2.2h4.2v1.3h-4.2v2.3h4.8v1.3h-6.3V173.1z"/>
					<path d="M693.3,173.1h1.4l3.7,8.5h-1.6l-0.9-2h-4l-0.9,2h-1.5L693.3,173.1z M695.4,178.2l-1.5-3.4l-1.4,3.4H695.4z"/>
					<path d="M699.8,173.1h3.7c1.1,0,1.9,0.3,2.4,0.8c0.4,0.5,0.7,1.1,0.7,1.8v0c0,1.4-0.8,2.2-2,2.5l2.3,3.2h-1.7l-2.1-2.9h-1.8
						v2.9h-1.5V173.1z M703.4,177.3c1.1,0,1.7-0.6,1.7-1.4v0c0-0.9-0.6-1.4-1.7-1.4h-2.1v2.8H703.4z"/>
					<path d="M708.1,177.4L708.1,177.4c0-2.4,1.8-4.4,4.3-4.4c1.5,0,2.5,0.5,3.3,1.3l-0.9,1.1c-0.7-0.6-1.4-1-2.4-1
						c-1.6,0-2.8,1.3-2.8,3v0c0,1.6,1.2,3,2.8,3c1,0,1.7-0.4,2.4-1.1l0.9,1c-0.9,0.9-1.8,1.5-3.4,1.5
						C709.9,181.7,708.1,179.8,708.1,177.4z"/>
					<path d="M717.3,173.1h1.5v3.5h4v-3.5h1.5v8.4h-1.5V178h-4v3.5h-1.5V173.1z"/>
					<path d="M730,173.1h3.7c1.1,0,1.9,0.3,2.4,0.8c0.4,0.5,0.7,1.1,0.7,1.8v0c0,1.4-0.8,2.2-2,2.5l2.3,3.2h-1.7l-2.1-2.9h-1.8v2.9
						H730V173.1z M733.7,177.3c1.1,0,1.7-0.6,1.7-1.4v0c0-0.9-0.6-1.4-1.7-1.4h-2.1v2.8H733.7z"/>
					<path d="M738.7,173.1h6.2v1.3h-4.7v2.2h4.2v1.3h-4.2v2.3h4.8v1.3h-6.3V173.1z"/>
					<path d="M746.7,173.1h3.3c2,0,3.2,1.1,3.2,2.8v0c0,1.9-1.5,2.9-3.4,2.9h-1.7v2.7h-1.5V173.1z M749.9,177.5
						c1.1,0,1.8-0.6,1.8-1.5v0c0-1-0.7-1.5-1.8-1.5h-1.7v3H749.9z"/>
					<path d="M754.4,177.4L754.4,177.4c0-2.4,1.8-4.4,4.4-4.4c2.6,0,4.4,2,4.4,4.3v0c0,2.4-1.8,4.3-4.4,4.3
						C756.2,181.7,754.4,179.7,754.4,177.4z M761.6,177.4L761.6,177.4c0-1.7-1.2-3-2.9-3s-2.8,1.3-2.8,3v0c0,1.6,1.2,3,2.9,3
						S761.6,179,761.6,177.4z"/>
					<path d="M765,173.1h3.7c1.1,0,1.9,0.3,2.4,0.8c0.4,0.5,0.7,1.1,0.7,1.8v0c0,1.4-0.8,2.2-2,2.5l2.3,3.2h-1.7l-2.1-2.9h-1.8v2.9
						H765V173.1z M768.6,177.3c1.1,0,1.7-0.6,1.7-1.4v0c0-0.9-0.6-1.4-1.7-1.4h-2.1v2.8H768.6z"/>
					<path d="M775.7,174.5H773v-1.4h6.8v1.4h-2.7v7h-1.5V174.5z"/>
				</g>
				<g>
					<path d="M657,190.7l0.5-0.4c0.4,0.6,0.8,0.9,1.4,0.9c0.7,0,1.2-0.5,1.2-1.5v-4.1h0.7v4.1c0,0.7-0.2,1.3-0.6,1.6
						c-0.3,0.3-0.8,0.5-1.3,0.5C658,191.8,657.4,191.3,657,190.7z"/>
					<path d="M662.4,189.1v-3.6h0.7v3.5c0,1.3,0.7,2.1,1.9,2.1c1.1,0,1.8-0.7,1.8-2v-3.6h0.7v3.5c0,1.8-1,2.7-2.5,2.7
						C663.4,191.8,662.4,190.9,662.4,189.1z"/>
					<path d="M669.1,185.6h0.6l3.8,4.9v-4.9h0.7v6.1h-0.5l-3.9-5v5h-0.7V185.6z"/>
					<path d="M676,185.6h4.4v0.6h-3.7v2.1h3.3v0.6h-3.3v2.1h3.8v0.6H676V185.6z"/>
					<path d="M685.2,186.3l-1.2,0.4l-0.2-0.6l1.5-0.5h0.5v6.2h-0.7V186.3z"/>
					<path d="M687.1,191.2l2.2-2c0.9-0.8,1.3-1.3,1.3-1.9c0-0.7-0.6-1.2-1.2-1.2c-0.7,0-1.2,0.4-1.6,1l-0.5-0.4
						c0.5-0.8,1.1-1.3,2.2-1.3c1.1,0,1.9,0.7,1.9,1.7v0c0,0.9-0.5,1.4-1.5,2.4l-1.6,1.4h3.2v0.6h-4.3V191.2z"/>
				</g>
			</g>
		</g>
	</g>
</g>
<g>
	<g>
		<rect x="427.5" y="318.5" opacity="0.4" width="327.9" height="12"/>
		<g>
			<path d="M428.4,338.2h2.7c2.3,0,3.9,1.6,3.9,3.6v0c0,2.1-1.6,3.7-3.9,3.7h-2.7V338.2z M431.2,344.4c1.5,0,2.5-1,2.5-2.5v0
				c0-1.4-1-2.5-2.5-2.5h-1.4v5H431.2z"/>
			<path d="M436.6,338.2h5.4v1.2h-4.2v1.9h3.7v1.2h-3.7v2h4.2v1.2h-5.5V338.2z"/>
			<path d="M443.2,344.5l0.8-0.9c0.7,0.6,1.4,1,2.3,1c0.8,0,1.3-0.4,1.3-0.9v0c0-0.5-0.3-0.8-1.7-1.1c-1.6-0.4-2.4-0.8-2.4-2.2v0
				c0-1.3,1-2.1,2.5-2.1c1.1,0,1.9,0.3,2.7,0.9l-0.7,1c-0.7-0.5-1.3-0.8-2-0.8c-0.8,0-1.2,0.4-1.2,0.9v0c0,0.6,0.3,0.8,1.7,1.2
				c1.6,0.4,2.4,0.9,2.4,2.1v0c0,1.4-1.1,2.2-2.6,2.2C445.1,345.6,444.1,345.2,443.2,344.5z"/>
			<path d="M450.4,338.2h1.3v7.3h-1.3V338.2z"/>
			<path d="M453.4,341.9L453.4,341.9c0-2.1,1.6-3.8,3.8-3.8c1.3,0,2.1,0.4,2.8,1l-0.8,1c-0.6-0.5-1.1-0.8-2.1-0.8
				c-1.4,0-2.4,1.2-2.4,2.6v0c0,1.5,1,2.6,2.5,2.6c0.7,0,1.3-0.2,1.8-0.6v-1.4h-1.9v-1.1h3.1v3.1c-0.7,0.6-1.8,1.1-3.1,1.1
				C454.9,345.7,453.4,344,453.4,341.9z"/>
			<path d="M461.9,338.2h1.2l3.9,5.1v-5.1h1.3v7.3h-1.1l-4-5.2v5.2h-1.3V338.2z"/>
			<path d="M473.3,338.2h3.3c0.9,0,1.6,0.3,2.1,0.7c0.4,0.4,0.6,0.9,0.6,1.6v0c0,1.2-0.7,1.9-1.8,2.2l2,2.8H478l-1.8-2.6h-1.6v2.6
				h-1.3V338.2z M476.5,341.8c0.9,0,1.5-0.5,1.5-1.2v0c0-0.8-0.6-1.2-1.5-1.2h-1.9v2.5H476.5z"/>
			<path d="M480.9,338.2h5.4v1.2h-4.2v1.9h3.7v1.2h-3.7v2h4.2v1.2h-5.5V338.2z"/>
			<path d="M487.4,344.5l0.8-0.9c0.7,0.6,1.4,1,2.3,1c0.8,0,1.3-0.4,1.3-0.9v0c0-0.5-0.3-0.8-1.7-1.1c-1.6-0.4-2.4-0.8-2.4-2.2v0
				c0-1.3,1-2.1,2.5-2.1c1.1,0,1.9,0.3,2.7,0.9l-0.7,1c-0.7-0.5-1.3-0.8-2-0.8c-0.8,0-1.2,0.4-1.2,0.9v0c0,0.6,0.3,0.8,1.7,1.2
				c1.6,0.4,2.4,0.9,2.4,2.1v0c0,1.4-1.1,2.2-2.6,2.2C489.4,345.6,488.3,345.2,487.4,344.5z"/>
			<path d="M494.6,338.2h5.4v1.2h-4.2v1.9h3.7v1.2h-3.7v2h4.2v1.2h-5.5V338.2z"/>
			<path d="M504.3,338.1h1.2l3.2,7.4h-1.4l-0.7-1.8h-3.5l-0.8,1.8H501L504.3,338.1z M506.1,342.6l-1.3-2.9l-1.3,2.9H506.1z"/>
			<path d="M509.9,338.2h3.3c0.9,0,1.6,0.3,2.1,0.7c0.4,0.4,0.6,0.9,0.6,1.6v0c0,1.2-0.7,1.9-1.8,2.2l2,2.8h-1.5l-1.8-2.6h-1.6v2.6
				h-1.3V338.2z M513.1,341.8c0.9,0,1.5-0.5,1.5-1.2v0c0-0.8-0.6-1.2-1.5-1.2h-1.9v2.5H513.1z"/>
			<path d="M517.2,341.9L517.2,341.9c0-2.1,1.6-3.8,3.8-3.8c1.4,0,2.2,0.5,2.9,1.1l-0.8,1c-0.6-0.5-1.2-0.9-2.1-0.9
				c-1.4,0-2.4,1.2-2.4,2.6v0c0,1.4,1,2.6,2.4,2.6c0.9,0,1.5-0.4,2.1-1l0.8,0.8c-0.8,0.8-1.6,1.3-3,1.3
				C518.8,345.7,517.2,344,517.2,341.9z"/>
			<path d="M525.3,338.2h1.3v3.1h3.5v-3.1h1.3v7.3H530v-3.1h-3.5v3.1h-1.3V338.2z"/>
		</g>
	</g>
	<g>
		<g>
			<path d="M720.9,300.1c0-29.2,0-4.8,0-49.7"/>
			<g>
				<path fill="none" stroke="#000000" stroke-width="2" stroke-miterlimit="10" d="M720.9,300.1c0-29.2,0-4.8,0-49.7"/>
				<g>
					<polygon points="725.9,298.7 720.9,307.3 715.9,298.7 					"/>
				</g>
			</g>
		</g>
		<g>
			<path fill="none" stroke="#000000" stroke-width="2" stroke-miterlimit="10" d="M709.7,211.4h22.5v22.5h-22.5V211.4z
				 M715.7,217.4l10.5,10.5 M715.7,227.9l10.5-10.5"/>
			<g>
				<g>
					<path d="M740.3,213.1h3.7c1.1,0,1.9,0.3,2.4,0.8c0.4,0.5,0.7,1.1,0.7,1.8v0c0,1.4-0.8,2.2-2,2.5l2.3,3.2h-1.7l-2.1-2.9h-1.8
						v2.9h-1.5V213.1z M743.9,217.3c1.1,0,1.7-0.6,1.7-1.4v0c0-0.9-0.6-1.4-1.7-1.4h-2.1v2.8H743.9z"/>
					<path d="M748.9,213.1h6.2v1.3h-4.7v2.2h4.2v1.3h-4.2v2.3h4.8v1.3h-6.3V213.1z"/>
					<path d="M756.4,220.3l0.9-1.1c0.8,0.7,1.6,1.1,2.7,1.1c0.9,0,1.5-0.4,1.5-1.1v0c0-0.6-0.3-0.9-1.9-1.3c-1.8-0.4-2.8-1-2.8-2.5
						v0c0-1.4,1.2-2.4,2.9-2.4c1.2,0,2.2,0.4,3,1.1l-0.8,1.1c-0.8-0.6-1.5-0.9-2.3-0.9c-0.9,0-1.4,0.4-1.4,1v0c0,0.6,0.4,0.9,2,1.3
						c1.8,0.4,2.7,1.1,2.7,2.5v0c0,1.6-1.2,2.5-3,2.5C758.6,221.6,757.4,221.2,756.4,220.3z"/>
					<path d="M764.7,213.1h6.2v1.3h-4.7v2.2h4.2v1.3h-4.2v2.3h4.8v1.3h-6.3V213.1z"/>
					<path d="M775.7,213.1h1.4l3.7,8.5h-1.6l-0.9-2h-4l-0.9,2H772L775.7,213.1z M777.8,218.2l-1.5-3.4l-1.4,3.4H777.8z"/>
					<path d="M782.2,213.1h3.7c1.1,0,1.9,0.3,2.4,0.8c0.4,0.5,0.7,1.1,0.7,1.8v0c0,1.4-0.8,2.2-2,2.5l2.3,3.2h-1.7l-2.1-2.9h-1.8
						v2.9h-1.5V213.1z M785.8,217.3c1.1,0,1.7-0.6,1.7-1.4v0c0-0.9-0.6-1.4-1.7-1.4h-2.1v2.8H785.8z"/>
					<path d="M790.5,217.3L790.5,217.3c0-2.4,1.8-4.4,4.3-4.4c1.5,0,2.5,0.5,3.3,1.3l-0.9,1.1c-0.7-0.6-1.4-1-2.4-1
						c-1.6,0-2.8,1.3-2.8,3v0c0,1.6,1.2,3,2.8,3c1,0,1.7-0.4,2.4-1.1l0.9,1c-0.9,0.9-1.8,1.5-3.4,1.5
						C792.3,221.7,790.5,219.8,790.5,217.3z"/>
					<path d="M799.7,213.1h1.5v3.5h4v-3.5h1.5v8.4h-1.5V218h-4v3.5h-1.5V213.1z"/>
					<path d="M812.4,213.1h3.7c1.1,0,1.9,0.3,2.4,0.8c0.4,0.5,0.7,1.1,0.7,1.8v0c0,1.4-0.8,2.2-2,2.5l2.3,3.2h-1.7l-2.1-2.9h-1.8
						v2.9h-1.5V213.1z M816.1,217.3c1.1,0,1.7-0.6,1.7-1.4v0c0-0.9-0.6-1.4-1.7-1.4h-2.1v2.8H816.1z"/>
					<path d="M821.1,213.1h6.2v1.3h-4.7v2.2h4.2v1.3h-4.2v2.3h4.8v1.3h-6.3V213.1z"/>
					<path d="M829.1,213.1h3.3c2,0,3.2,1.1,3.2,2.8v0c0,1.9-1.5,2.9-3.4,2.9h-1.7v2.7h-1.5V213.1z M832.3,217.5
						c1.1,0,1.8-0.6,1.8-1.5v0c0-1-0.7-1.5-1.8-1.5h-1.7v3H832.3z"/>
					<path d="M836.8,217.3L836.8,217.3c0-2.4,1.8-4.4,4.4-4.4c2.6,0,4.4,2,4.4,4.3v0c0,2.4-1.8,4.3-4.4,4.3
						C838.6,221.7,836.8,219.7,836.8,217.3z M844,217.3L844,217.3c0-1.7-1.2-3-2.9-3s-2.8,1.3-2.8,3v0c0,1.6,1.2,3,2.9,3
						S844,219,844,217.3z"/>
					<path d="M847.4,213.1h3.7c1.1,0,1.9,0.3,2.4,0.8c0.4,0.5,0.7,1.1,0.7,1.8v0c0,1.4-0.8,2.2-2,2.5l2.3,3.2h-1.7l-2.1-2.9h-1.8
						v2.9h-1.5V213.1z M851,217.3c1.1,0,1.7-0.6,1.7-1.4v0c0-0.9-0.6-1.4-1.7-1.4h-2.1v2.8H851z"/>
					<path d="M858.1,214.5h-2.7v-1.4h6.8v1.4h-2.7v7h-1.5V214.5z"/>
				</g>
				<g>
					<path d="M739.5,230.7l0.5-0.4c0.4,0.6,0.8,0.9,1.4,0.9c0.7,0,1.2-0.5,1.2-1.5v-4.1h0.7v4.1c0,0.7-0.2,1.3-0.6,1.6
						c-0.3,0.3-0.8,0.5-1.3,0.5C740.4,231.8,739.8,231.3,739.5,230.7z"/>
					<path d="M744.8,229.1v-3.6h0.7v3.5c0,1.3,0.7,2.1,1.9,2.1c1.1,0,1.8-0.7,1.8-2v-3.6h0.7v3.5c0,1.8-1,2.7-2.5,2.7
						C745.8,231.8,744.8,230.9,744.8,229.1z"/>
					<path d="M751.5,225.6h0.6l3.8,4.9v-4.9h0.7v6.1h-0.5l-3.9-5v5h-0.7V225.6z"/>
					<path d="M758.4,225.6h4.4v0.6h-3.7v2.1h3.3v0.6h-3.3v2.1h3.8v0.6h-4.5V225.6z"/>
					<path d="M767.6,226.3l-1.2,0.4l-0.2-0.6l1.5-0.5h0.5v6.2h-0.7V226.3z"/>
					<path d="M769.6,231.2l2.2-2c0.9-0.8,1.3-1.3,1.3-1.9c0-0.7-0.6-1.2-1.2-1.2c-0.7,0-1.2,0.4-1.6,1l-0.5-0.4
						c0.5-0.8,1.1-1.3,2.2-1.3c1.1,0,1.9,0.7,1.9,1.7v0c0,0.9-0.5,1.4-1.5,2.4l-1.6,1.4h3.2v0.6h-4.3V231.2z"/>
				</g>
			</g>
		</g>
	</g>
</g>
<g>
	<g>
		
			<pattern  id="SVGID_1_" xlink:href="#_x31_0_lpi_50_x25_" patternTransform="matrix(0.7071 -0.7071 0.7071 0.7071 2922.7549 -7380.5996)">
		</pattern>
		<rect x="673.8" y="358.4" opacity="0.2" fill="url(#SVGID_1_)" width="409.7" height="12"/>
		<g>
			<path d="M674,378.2h5.4v1.2h-4.2v1.9h3.7v1.2h-3.7v2h4.2v1.2H674V378.2z"/>
			<path d="M683.2,381.8l-2.6-3.6h1.5l1.8,2.6l1.8-2.6h1.5l-2.6,3.6l2.7,3.8h-1.5l-1.9-2.8l-1.9,2.8h-1.5L683.2,381.8z"/>
			<path d="M688.7,378.2h2.9c1.7,0,2.8,1,2.8,2.5v0c0,1.6-1.3,2.5-2.9,2.5H690v2.4h-1.3V378.2z M691.5,382c1,0,1.6-0.5,1.6-1.3v0
				c0-0.9-0.6-1.3-1.6-1.3H690v2.6H691.5z"/>
			<path d="M695.7,378.2h5.4v1.2H697v1.9h3.7v1.2H697v2h4.2v1.2h-5.5V378.2z"/>
			<path d="M702.7,378.2h3.3c0.9,0,1.6,0.3,2.1,0.7c0.4,0.4,0.6,0.9,0.6,1.6v0c0,1.2-0.7,1.9-1.8,2.2l2,2.8h-1.5l-1.8-2.6H704v2.6
				h-1.3V378.2z M705.9,381.8c0.9,0,1.5-0.5,1.5-1.2v0c0-0.8-0.6-1.2-1.5-1.2H704v2.5H705.9z"/>
			<path d="M710.4,378.2h1.3v7.3h-1.3V378.2z"/>
			<path d="M713.6,378.2h5.4v1.2h-4.2v1.9h3.7v1.2h-3.7v2h4.2v1.2h-5.5V378.2z"/>
			<path d="M720.6,378.2h1.2l3.9,5.1v-5.1h1.3v7.3H726l-4-5.2v5.2h-1.3V378.2z"/>
			<path d="M728.6,381.9L728.6,381.9c0-2.1,1.6-3.8,3.8-3.8c1.4,0,2.2,0.5,2.9,1.1l-0.8,1c-0.6-0.5-1.2-0.9-2.1-0.9
				c-1.4,0-2.4,1.2-2.4,2.6v0c0,1.4,1,2.6,2.4,2.6c0.9,0,1.5-0.4,2.1-1l0.8,0.8c-0.8,0.8-1.6,1.3-3,1.3
				C730.2,385.6,728.6,384,728.6,381.9z"/>
			<path d="M736.7,378.2h5.4v1.2h-4.2v1.9h3.7v1.2h-3.7v2h4.2v1.2h-5.5V378.2z"/>
			<path d="M746.8,378.2h2.7c2.3,0,3.9,1.6,3.9,3.6v0c0,2.1-1.6,3.7-3.9,3.7h-2.7V378.2z M749.6,384.3c1.5,0,2.5-1,2.5-2.5v0
				c0-1.4-1-2.5-2.5-2.5h-1.4v5H749.6z"/>
			<path d="M755,378.2h5.4v1.2h-4.2v1.9h3.7v1.2h-3.7v2h4.2v1.2H755V378.2z"/>
			<path d="M761.5,384.5l0.8-0.9c0.7,0.6,1.4,1,2.3,1c0.8,0,1.3-0.4,1.3-0.9v0c0-0.5-0.3-0.8-1.7-1.1c-1.6-0.4-2.4-0.8-2.4-2.2v0
				c0-1.3,1-2.1,2.5-2.1c1.1,0,1.9,0.3,2.7,0.9l-0.7,1c-0.7-0.5-1.3-0.8-2-0.8c-0.8,0-1.2,0.4-1.2,0.9v0c0,0.6,0.3,0.8,1.7,1.2
				c1.6,0.4,2.4,0.9,2.4,2.1v0c0,1.4-1.1,2.2-2.6,2.2C763.5,385.6,762.4,385.2,761.5,384.5z"/>
			<path d="M768.8,378.2h1.3v7.3h-1.3V378.2z"/>
			<path d="M771.7,381.9L771.7,381.9c0-2.1,1.6-3.8,3.8-3.8c1.3,0,2.1,0.4,2.8,1l-0.8,1c-0.6-0.5-1.1-0.8-2.1-0.8
				c-1.4,0-2.4,1.2-2.4,2.6v0c0,1.5,1,2.6,2.5,2.6c0.7,0,1.3-0.2,1.8-0.6v-1.4h-1.9v-1.1h3.1v3.1c-0.7,0.6-1.8,1.1-3.1,1.1
				C773.3,385.6,771.7,384,771.7,381.9z"/>
			<path d="M780.3,378.2h1.2l3.9,5.1v-5.1h1.3v7.3h-1.1l-4-5.2v5.2h-1.3V378.2z"/>
		</g>
	</g>
	<g>
		<g>
			<path d="M1049,340.1c0-29.2,0-4.8,0-49.7"/>
			<g>
				<path fill="none" stroke="#000000" stroke-width="2" stroke-miterlimit="10" d="M1049,340.1c0-29.2,0-4.8,0-49.7"/>
				<g>
					<polygon points="1053.9,338.7 1049,347.3 1044,338.7 					"/>
				</g>
			</g>
		</g>
		<g>
			<path fill="none" stroke="#000000" stroke-width="2" stroke-miterlimit="10" d="M1037.7,251.4h22.5v22.5h-22.5V251.4z
				 M1043.7,257.4l10.5,10.5 M1043.7,267.9l10.5-10.5"/>
			<g>
				<g>
					<path d="M1068.3,253.1h3.7c1.1,0,1.9,0.3,2.4,0.8c0.4,0.5,0.7,1.1,0.7,1.8v0c0,1.4-0.8,2.2-2,2.5l2.3,3.2h-1.7l-2.1-2.9h-1.8
						v2.9h-1.5V253.1z M1071.9,257.3c1.1,0,1.7-0.6,1.7-1.4v0c0-0.9-0.6-1.4-1.7-1.4h-2.1v2.8H1071.9z"/>
					<path d="M1077,253.1h6.2v1.3h-4.7v2.2h4.2v1.3h-4.2v2.3h4.8v1.3h-6.3V253.1z"/>
					<path d="M1084.4,260.3l0.9-1.1c0.8,0.7,1.6,1.1,2.7,1.1c0.9,0,1.5-0.4,1.5-1.1v0c0-0.6-0.3-0.9-1.9-1.3c-1.8-0.4-2.8-1-2.8-2.5
						v0c0-1.4,1.2-2.4,2.9-2.4c1.2,0,2.2,0.4,3,1.1l-0.8,1.1c-0.8-0.6-1.5-0.9-2.3-0.9c-0.9,0-1.4,0.4-1.4,1v0c0,0.6,0.4,0.9,2,1.3
						c1.8,0.4,2.7,1.1,2.7,2.5v0c0,1.6-1.2,2.5-3,2.5C1086.7,261.6,1085.5,261.2,1084.4,260.3z"/>
					<path d="M1092.7,253.1h6.2v1.3h-4.7v2.2h4.2v1.3h-4.2v2.3h4.8v1.3h-6.3V253.1z"/>
					<path d="M1103.7,253.1h1.4l3.7,8.5h-1.6l-0.9-2h-4l-0.9,2h-1.5L1103.7,253.1z M1105.8,258.2l-1.5-3.4l-1.4,3.4H1105.8z"/>
					<path d="M1110.2,253.1h3.7c1.1,0,1.9,0.3,2.4,0.8c0.4,0.5,0.7,1.1,0.7,1.8v0c0,1.4-0.8,2.2-2,2.5l2.3,3.2h-1.7l-2.1-2.9h-1.8
						v2.9h-1.5V253.1z M1113.8,257.3c1.1,0,1.7-0.6,1.7-1.4v0c0-0.9-0.6-1.4-1.7-1.4h-2.1v2.8H1113.8z"/>
					<path d="M1118.5,257.3L1118.5,257.3c0-2.4,1.8-4.4,4.3-4.4c1.5,0,2.5,0.5,3.3,1.3l-0.9,1.1c-0.7-0.6-1.4-1-2.4-1
						c-1.6,0-2.8,1.3-2.8,3v0c0,1.6,1.2,3,2.8,3c1,0,1.7-0.4,2.4-1.1l0.9,1c-0.9,0.9-1.8,1.5-3.4,1.5
						C1120.3,261.7,1118.5,259.7,1118.5,257.3z"/>
					<path d="M1127.7,253.1h1.5v3.5h4v-3.5h1.5v8.4h-1.5V258h-4v3.5h-1.5V253.1z"/>
					<path d="M1140.5,253.1h3.7c1.1,0,1.9,0.3,2.4,0.8c0.4,0.5,0.7,1.1,0.7,1.8v0c0,1.4-0.8,2.2-2,2.5l2.3,3.2h-1.7l-2.1-2.9h-1.8
						v2.9h-1.5V253.1z M1144.1,257.3c1.1,0,1.7-0.6,1.7-1.4v0c0-0.9-0.6-1.4-1.7-1.4h-2.1v2.8H1144.1z"/>
					<path d="M1149.1,253.1h6.2v1.3h-4.7v2.2h4.2v1.3h-4.2v2.3h4.8v1.3h-6.3V253.1z"/>
					<path d="M1157.2,253.1h3.3c2,0,3.2,1.1,3.2,2.8v0c0,1.9-1.5,2.9-3.4,2.9h-1.7v2.7h-1.5V253.1z M1160.4,257.5
						c1.1,0,1.8-0.6,1.8-1.5v0c0-1-0.7-1.5-1.8-1.5h-1.7v3H1160.4z"/>
					<path d="M1164.8,257.3L1164.8,257.3c0-2.4,1.8-4.4,4.4-4.4c2.6,0,4.4,2,4.4,4.3v0c0,2.4-1.8,4.3-4.4,4.3
						C1166.6,261.7,1164.8,259.7,1164.8,257.3z M1172.1,257.3L1172.1,257.3c0-1.7-1.2-3-2.9-3s-2.8,1.3-2.8,3v0c0,1.6,1.2,3,2.9,3
						S1172.1,259,1172.1,257.3z"/>
					<path d="M1175.4,253.1h3.7c1.1,0,1.9,0.3,2.4,0.8c0.4,0.5,0.7,1.1,0.7,1.8v0c0,1.4-0.8,2.2-2,2.5l2.3,3.2h-1.7l-2.1-2.9h-1.8
						v2.9h-1.5V253.1z M1179,257.3c1.1,0,1.7-0.6,1.7-1.4v0c0-0.9-0.6-1.4-1.7-1.4h-2.1v2.8H1179z"/>
					<path d="M1186.1,254.5h-2.7v-1.4h6.8v1.4h-2.7v7h-1.5V254.5z"/>
				</g>
				<g>
					<path d="M1067.5,270.7l0.5-0.4c0.4,0.6,0.8,0.9,1.4,0.9c0.7,0,1.2-0.5,1.2-1.5v-4.1h0.7v4.1c0,0.7-0.2,1.3-0.6,1.6
						c-0.3,0.3-0.8,0.5-1.3,0.5C1068.5,271.8,1067.9,271.3,1067.5,270.7z"/>
					<path d="M1072.8,269.1v-3.6h0.7v3.5c0,1.3,0.7,2.1,1.9,2.1c1.1,0,1.8-0.7,1.8-2v-3.6h0.7v3.5c0,1.8-1,2.7-2.5,2.7
						C1073.8,271.8,1072.8,270.9,1072.8,269.1z"/>
					<path d="M1079.5,265.6h0.6l3.8,4.9v-4.9h0.7v6.1h-0.5l-3.9-5v5h-0.7V265.6z"/>
					<path d="M1086.4,265.6h4.4v0.6h-3.7v2.1h3.3v0.6h-3.3v2.1h3.8v0.6h-4.5V265.6z"/>
					<path d="M1095.6,266.2l-1.2,0.4l-0.2-0.6l1.5-0.5h0.5v6.2h-0.7V266.2z"/>
					<path d="M1097.6,271.2l2.2-2c0.9-0.8,1.3-1.3,1.3-1.9c0-0.7-0.6-1.2-1.2-1.2c-0.7,0-1.2,0.4-1.6,1l-0.5-0.4
						c0.5-0.8,1.1-1.3,2.2-1.3c1.1,0,1.9,0.7,1.9,1.7v0c0,0.9-0.5,1.4-1.5,2.4l-1.6,1.4h3.2v0.6h-4.3V271.2z"/>
				</g>
			</g>
		</g>
	</g>
</g>
</svg>
