<?xml version="1.0" encoding="utf-8"?>
<!-- Generator: Adobe Illustrator 18.0.0, SVG Export Plug-In . SVG Version: 6.00 Build 0)  -->
<!DOCTYPE svg PUBLIC "-//W3C//DTD SVG 1.1//EN" "http://www.w3.org/Graphics/SVG/1.1/DTD/svg11.dtd">
<svg version="1.1" id="Layer_1" xmlns="http://www.w3.org/2000/svg" xmlns:xlink="http://www.w3.org/1999/xlink" x="0px" y="0px"
	 viewBox="0 0 1280 473" enable-background="new 0 0 1280 473" xml:space="preserve">
<symbol  id="Document" viewBox="-24.5 -16.3 24.5 34.1">
	<line fill="none" stroke="#000000" stroke-width="2" stroke-miterlimit="10" x1="-19.7" y1="-10" x2="-4.9" y2="-10"/>
	<line fill="none" stroke="#000000" stroke-width="2" stroke-miterlimit="10" x1="-19.7" y1="-5.2" x2="-4.9" y2="-5.2"/>
	<line fill="none" stroke="#000000" stroke-width="2" stroke-miterlimit="10" x1="-19.7" y1="-0.4" x2="-4.9" y2="-0.4"/>
	<line fill="none" stroke="#000000" stroke-width="2" stroke-miterlimit="10" x1="-19.7" y1="4.4" x2="-4.9" y2="4.4"/>
	<line fill="none" stroke="#000000" stroke-width="2" stroke-miterlimit="10" x1="-19.7" y1="9.2" x2="-13.8" y2="9.2"/>
	<g>
		<polygon fill="none" stroke="#000000" stroke-width="2" stroke-miterlimit="10" points="-1,10.5 -1,-15.3 -23.5,-15.3 -23.5,16.9 
			-7.1,16.9 		"/>
	</g>
	<polyline fill="none" stroke="#000000" stroke-width="2" stroke-miterlimit="10" points="-8.4,16.9 -8.4,9.2 -0.9,9.2 	"/>
</symbol>
<symbol  id="Document_-_Brand_Strategy" viewBox="-24.4 -16.3 24.5 34.1">
	<path fill="none" stroke="#000000" stroke-width="2" stroke-miterlimit="10" d="M-0.8,10.5v-25.8h-22.5v32.1H-7L-0.8,10.5z
		 M-8.2,16.9V9.2h7.4"/>
	<g>
		<path d="M-12.1,0.8l2.3-3.9h-4.5L-12.1,0.8 M-12.1,4.8l-5.7-9.9l11.4,0L-12.1,4.8L-12.1,4.8z"/>
	</g>
</symbol>
<symbol  id="Document_-_Quant" viewBox="-24.5 -16.3 24.5 34.1">
	<line fill="none" stroke="#000000" stroke-width="2" stroke-miterlimit="10" x1="-6.1" y1="-9.2" x2="-6.1" y2="-3.4"/>
	<line fill="none" stroke="#000000" stroke-width="2" stroke-miterlimit="10" x1="-9.9" y1="-9.2" x2="-9.9" y2="2.4"/>
	<line fill="none" stroke="#000000" stroke-width="2" stroke-miterlimit="10" x1="-13.7" y1="-9.2" x2="-13.7" y2="5.6"/>
	<line fill="none" stroke="#000000" stroke-width="2" stroke-miterlimit="10" x1="-17.5" y1="-9.2" x2="-17.5" y2="-0.3"/>
	<g>
		<polygon fill="none" stroke="#000000" stroke-width="2" stroke-miterlimit="10" points="-1,10.5 -1,-15.3 -23.5,-15.3 -23.5,16.9 
			-7.1,16.9 		"/>
	</g>
	<polyline fill="none" stroke="#000000" stroke-width="2" stroke-miterlimit="10" points="-8.4,16.9 -8.4,9.2 -0.9,9.2 	"/>
</symbol>
<pattern  y="-1363" width="72" height="72" patternUnits="userSpaceOnUse" id="_x31_0_lpi_50_x25_" viewBox="72.2 -72 72 72" overflow="visible">
	<g>
		<polygon fill="none" points="72.2,-72 144.2,-72 144.2,0 72.2,0 		"/>
		<g>
			<line fill="none" stroke="#000000" stroke-width="3.6" x1="144" y1="-3.6" x2="216.5" y2="-3.6"/>
			<line fill="none" stroke="#000000" stroke-width="3.6" x1="144" y1="-18" x2="216.5" y2="-18"/>
			<line fill="none" stroke="#000000" stroke-width="3.6" x1="144" y1="-32.4" x2="216.5" y2="-32.4"/>
			<line fill="none" stroke="#000000" stroke-width="3.6" x1="144" y1="-46.8" x2="216.5" y2="-46.8"/>
			<line fill="none" stroke="#000000" stroke-width="3.6" x1="144" y1="-61.2" x2="216.5" y2="-61.2"/>
			<line fill="none" stroke="#000000" stroke-width="3.6" x1="144" y1="-10.8" x2="216.5" y2="-10.8"/>
			<line fill="none" stroke="#000000" stroke-width="3.6" x1="144" y1="-25.2" x2="216.5" y2="-25.2"/>
			<line fill="none" stroke="#000000" stroke-width="3.6" x1="144" y1="-39.6" x2="216.5" y2="-39.6"/>
			<line fill="none" stroke="#000000" stroke-width="3.6" x1="144" y1="-54" x2="216.5" y2="-54"/>
			<line fill="none" stroke="#000000" stroke-width="3.6" x1="144" y1="-68.4" x2="216.5" y2="-68.4"/>
		</g>
		<g>
			<line fill="none" stroke="#000000" stroke-width="3.6" x1="72" y1="-3.6" x2="144.5" y2="-3.6"/>
			<line fill="none" stroke="#000000" stroke-width="3.6" x1="72" y1="-18" x2="144.5" y2="-18"/>
			<line fill="none" stroke="#000000" stroke-width="3.6" x1="72" y1="-32.4" x2="144.5" y2="-32.4"/>
			<line fill="none" stroke="#000000" stroke-width="3.6" x1="72" y1="-46.8" x2="144.5" y2="-46.8"/>
			<line fill="none" stroke="#000000" stroke-width="3.6" x1="72" y1="-61.2" x2="144.5" y2="-61.2"/>
			<line fill="none" stroke="#000000" stroke-width="3.6" x1="72" y1="-10.8" x2="144.5" y2="-10.8"/>
			<line fill="none" stroke="#000000" stroke-width="3.6" x1="72" y1="-25.2" x2="144.5" y2="-25.2"/>
			<line fill="none" stroke="#000000" stroke-width="3.6" x1="72" y1="-39.6" x2="144.5" y2="-39.6"/>
			<line fill="none" stroke="#000000" stroke-width="3.6" x1="72" y1="-54" x2="144.5" y2="-54"/>
			<line fill="none" stroke="#000000" stroke-width="3.6" x1="72" y1="-68.4" x2="144.5" y2="-68.4"/>
		</g>
		<g>
			<line fill="none" stroke="#000000" stroke-width="3.6" x1="0" y1="-3.6" x2="72.5" y2="-3.6"/>
			<line fill="none" stroke="#000000" stroke-width="3.6" x1="0" y1="-18" x2="72.5" y2="-18"/>
			<line fill="none" stroke="#000000" stroke-width="3.6" x1="0" y1="-32.4" x2="72.5" y2="-32.4"/>
			<line fill="none" stroke="#000000" stroke-width="3.6" x1="0" y1="-46.8" x2="72.5" y2="-46.8"/>
			<line fill="none" stroke="#000000" stroke-width="3.6" x1="0" y1="-61.2" x2="72.5" y2="-61.2"/>
			<line fill="none" stroke="#000000" stroke-width="3.6" x1="0" y1="-10.8" x2="72.5" y2="-10.8"/>
			<line fill="none" stroke="#000000" stroke-width="3.6" x1="0" y1="-25.2" x2="72.5" y2="-25.2"/>
			<line fill="none" stroke="#000000" stroke-width="3.6" x1="0" y1="-39.6" x2="72.5" y2="-39.6"/>
			<line fill="none" stroke="#000000" stroke-width="3.6" x1="0" y1="-54" x2="72.5" y2="-54"/>
			<line fill="none" stroke="#000000" stroke-width="3.6" x1="0" y1="-68.4" x2="72.5" y2="-68.4"/>
		</g>
	</g>
</pattern>
<g>
	<line fill="none" stroke="#000000" stroke-width="0.7692" stroke-miterlimit="10" x1="146.6" y1="381" x2="1131.7" y2="381"/>
	<line fill="none" stroke="#000000" stroke-width="0.7692" stroke-miterlimit="10" x1="146.6" y1="401.9" x2="146.6" y2="360.2"/>
	<line fill="none" stroke="#000000" stroke-width="0.7692" stroke-miterlimit="10" x1="228.7" y1="391.1" x2="228.7" y2="371"/>
	<line fill="none" stroke="#000000" stroke-width="0.7692" stroke-miterlimit="10" x1="310.8" y1="391.1" x2="310.8" y2="371"/>
	<line fill="none" stroke="#000000" stroke-width="0.7692" stroke-miterlimit="10" x1="392.9" y1="391.1" x2="392.9" y2="371"/>
	<line fill="none" stroke="#000000" stroke-width="0.7692" stroke-miterlimit="10" x1="475" y1="401.9" x2="475" y2="360.2"/>
	<line fill="none" stroke="#000000" stroke-width="0.7692" stroke-miterlimit="10" x1="557.1" y1="391.1" x2="557.1" y2="371"/>
	<line fill="none" stroke="#000000" stroke-width="0.7692" stroke-miterlimit="10" x1="639.1" y1="391.1" x2="639.1" y2="371"/>
	<line fill="none" stroke="#000000" stroke-width="0.7692" stroke-miterlimit="10" x1="721.2" y1="391.1" x2="721.2" y2="371"/>
	<line fill="none" stroke="#000000" stroke-width="0.7692" stroke-miterlimit="10" x1="803.3" y1="401.9" x2="803.3" y2="360.2"/>
	<line fill="none" stroke="#000000" stroke-width="0.7692" stroke-miterlimit="10" x1="885.4" y1="391.1" x2="885.4" y2="371"/>
	<line fill="none" stroke="#000000" stroke-width="0.7692" stroke-miterlimit="10" x1="967.5" y1="391.1" x2="967.5" y2="371"/>
	<line fill="none" stroke="#000000" stroke-width="0.7692" stroke-miterlimit="10" x1="1049.6" y1="391.1" x2="1049.6" y2="371"/>
	<line fill="none" stroke="#000000" stroke-width="0.7692" stroke-miterlimit="10" x1="1131.7" y1="401.9" x2="1131.7" y2="192.4"/>
</g>
<g>
	<path d="M136.7,432.4l0.8-0.9c0.7,0.6,1.4,1,2.3,1c0.8,0,1.3-0.4,1.3-0.9v0c0-0.5-0.3-0.8-1.7-1.1c-1.6-0.4-2.4-0.8-2.4-2.2v0
		c0-1.3,1-2.1,2.5-2.1c1.1,0,1.9,0.3,2.7,0.9l-0.7,1c-0.7-0.5-1.3-0.8-2-0.8c-0.8,0-1.2,0.4-1.2,0.9v0c0,0.6,0.3,0.8,1.7,1.2
		c1.6,0.4,2.4,0.9,2.4,2.1v0c0,1.4-1.1,2.2-2.6,2.2C138.6,433.5,137.6,433.2,136.7,432.4z"/>
	<path d="M143.9,426.1h5.4v1.2h-4.2v1.9h3.7v1.2h-3.7v2h4.2v1.2h-5.5V426.1z"/>
	<path d="M150.9,426.1h2.9c1.7,0,2.8,1,2.8,2.5v0c0,1.6-1.3,2.5-2.9,2.5h-1.5v2.4h-1.3V426.1z M153.7,429.9c1,0,1.6-0.5,1.6-1.3v0
		c0-0.9-0.6-1.3-1.6-1.3h-1.5v2.6H153.7z"/>
</g>
<g>
	<path d="M463.9,429.8L463.9,429.8c0-2.1,1.6-3.8,3.8-3.8c2.3,0,3.8,1.7,3.8,3.8v0c0,2.1-1.6,3.8-3.8,3.8S463.9,431.9,463.9,429.8z
		 M470.2,429.8L470.2,429.8c0-1.4-1-2.6-2.5-2.6s-2.5,1.2-2.5,2.6v0c0,1.4,1,2.6,2.5,2.6S470.2,431.2,470.2,429.8z"/>
	<path d="M472.8,429.8L472.8,429.8c0-2.1,1.6-3.8,3.8-3.8c1.4,0,2.2,0.5,2.9,1.1l-0.8,1c-0.6-0.5-1.2-0.9-2.1-0.9
		c-1.4,0-2.4,1.2-2.4,2.6v0c0,1.4,1,2.6,2.4,2.6c0.9,0,1.5-0.4,2.1-1l0.8,0.8c-0.8,0.8-1.6,1.3-3,1.3
		C474.4,433.6,472.8,431.9,472.8,429.8z"/>
	<path d="M482.6,427.3h-2.3v-1.2h6v1.2h-2.3v6.1h-1.3V427.3z"/>
</g>
<g>
	<path d="M792,426.1h1.2l3.9,5.1v-5.1h1.3v7.3h-1.1l-4-5.2v5.2H792V426.1z"/>
	<path d="M799.9,429.8L799.9,429.8c0-2.1,1.6-3.8,3.8-3.8s3.8,1.7,3.8,3.8v0c0,2.1-1.6,3.8-3.8,3.8S799.9,431.9,799.9,429.8z
		 M806.2,429.8L806.2,429.8c0-1.4-1-2.6-2.5-2.6s-2.5,1.2-2.5,2.6v0c0,1.4,1,2.6,2.5,2.6S806.2,431.2,806.2,429.8z"/>
	<path d="M808.1,426.1h1.4l2.2,5.6l2.2-5.6h1.4l-3.1,7.4h-1.1L808.1,426.1z"/>
</g>
<g>
	<path d="M1121.1,426.1h2.7c2.3,0,3.9,1.6,3.9,3.6v0c0,2.1-1.6,3.7-3.9,3.7h-2.7V426.1z M1123.9,432.3c1.5,0,2.5-1,2.5-2.5v0
		c0-1.4-1-2.5-2.5-2.5h-1.4v5H1123.9z"/>
	<path d="M1129.3,426.1h5.4v1.2h-4.2v1.9h3.7v1.2h-3.7v2h4.2v1.2h-5.5V426.1z"/>
	<path d="M1136,429.8L1136,429.8c0-2.1,1.6-3.8,3.8-3.8c1.4,0,2.2,0.5,2.9,1.1l-0.8,1c-0.6-0.5-1.2-0.9-2.1-0.9
		c-1.4,0-2.4,1.2-2.4,2.6v0c0,1.4,1,2.6,2.4,2.6c0.9,0,1.5-0.4,2.1-1l0.8,0.8c-0.8,0.8-1.6,1.3-3,1.3
		C1137.6,433.6,1136,431.9,1136,429.8z"/>
</g>
<g>
	<rect x="148" y="216.9" opacity="0.4" width="159.8" height="12"/>
	<g>
		<path d="M148.6,240.3L148.6,240.3c0-2.1,1.6-3.8,3.8-3.8c2.3,0,3.8,1.7,3.8,3.8v0c0,2.1-1.6,3.8-3.8,3.8S148.6,242.3,148.6,240.3z
			 M154.9,240.3L154.9,240.3c0-1.4-1-2.6-2.5-2.6s-2.5,1.2-2.5,2.6v0c0,1.4,1,2.6,2.5,2.6S154.9,241.7,154.9,240.3z"/>
		<path d="M157.9,236.6h3.3c0.8,0,1.5,0.2,1.9,0.7c0.3,0.3,0.5,0.7,0.5,1.2v0c0,0.9-0.5,1.4-1,1.6c0.9,0.3,1.5,0.8,1.5,1.8v0
			c0,1.3-1.1,2-2.7,2h-3.4V236.6z M160.9,239.7c0.8,0,1.4-0.3,1.4-1v0c0-0.6-0.5-0.9-1.3-0.9h-1.9v2H160.9z M161.3,242.8
			c0.9,0,1.4-0.3,1.4-1v0c0-0.6-0.5-1-1.5-1h-2v2H161.3z"/>
		<path d="M164.9,242.9l0.8-0.9c0.7,0.6,1.4,1,2.3,1c0.8,0,1.3-0.4,1.3-0.9v0c0-0.5-0.3-0.8-1.7-1.1c-1.6-0.4-2.4-0.8-2.4-2.2v0
			c0-1.3,1-2.1,2.5-2.1c1.1,0,1.9,0.3,2.7,0.9l-0.7,1c-0.7-0.5-1.3-0.8-2-0.8c-0.8,0-1.2,0.4-1.2,0.9v0c0,0.6,0.3,0.8,1.7,1.2
			c1.6,0.4,2.4,0.9,2.4,2.1v0c0,1.4-1.1,2.2-2.6,2.2C166.9,244,165.8,243.6,164.9,242.9z"/>
		<path d="M172.1,236.6h5.4v1.2h-4.2v1.9h3.7v1.2h-3.7v2h4.2v1.2h-5.5V236.6z"/>
		<path d="M179.1,236.6h3.3c0.9,0,1.6,0.3,2.1,0.7c0.4,0.4,0.6,0.9,0.6,1.6v0c0,1.2-0.7,1.9-1.8,2.2l2,2.8h-1.5l-1.8-2.6h-1.6v2.6
			h-1.3V236.6z M182.3,240.2c0.9,0,1.5-0.5,1.5-1.2v0c0-0.8-0.6-1.2-1.5-1.2h-1.9v2.5H182.3z"/>
		<path d="M185.9,236.6h1.4l2.2,5.6l2.2-5.6h1.4l-3.1,7.4h-1.1L185.9,236.6z"/>
		<path d="M194.4,236.6h5.4v1.2h-4.2v1.9h3.7v1.2h-3.7v2h4.2v1.2h-5.5V236.6z"/>
	</g>
</g>
<g>
	<rect x="314" y="216.9" opacity="0.4" width="160.8" height="12"/>
	<g>
		<path d="M315,236.6h1.3v7.3H315V236.6z"/>
		<path d="M318.3,236.6h1.2l3.9,5.1v-5.1h1.3v7.3h-1.1l-4-5.2v5.2h-1.3V236.6z"/>
		<path d="M332.3,243.4c-0.6,0.4-1.4,0.7-2.2,0.7c-2.3,0-3.8-1.7-3.8-3.8v0c0-2.1,1.6-3.8,3.8-3.8c2.3,0,3.8,1.7,3.8,3.8v0
			c0,0.8-0.3,1.6-0.7,2.3l0.8,0.7l-0.8,0.9L332.3,243.4z M331.3,242.5l-1.3-1.1l0.8-0.9l1.3,1.2c0.3-0.4,0.4-0.9,0.4-1.4v0
			c0-1.4-1-2.6-2.5-2.6s-2.5,1.2-2.5,2.6v0c0,1.4,1,2.6,2.5,2.6C330.5,242.9,331,242.7,331.3,242.5z"/>
		<path d="M335.3,240.8v-4.2h1.3v4.2c0,1.4,0.7,2.1,1.9,2.1c1.1,0,1.8-0.7,1.8-2v-4.2h1.3v4.2c0,2.2-1.2,3.3-3.2,3.3
			C336.6,244,335.3,242.9,335.3,240.8z"/>
		<path d="M343.5,236.6h1.3v7.3h-1.3V236.6z"/>
		<path d="M346.7,236.6h3.3c0.9,0,1.6,0.3,2.1,0.7c0.4,0.4,0.6,0.9,0.6,1.6v0c0,1.2-0.7,1.9-1.8,2.2l2,2.8h-1.5l-1.8-2.6H348v2.6
			h-1.3V236.6z M349.9,240.2c0.9,0,1.5-0.5,1.5-1.2v0c0-0.8-0.6-1.2-1.5-1.2H348v2.5H349.9z"/>
		<path d="M354.3,236.6h5.4v1.2h-4.2v1.9h3.7v1.2h-3.7v2h4.2v1.2h-5.5V236.6z"/>
	</g>
</g>
<g>
	<path d="M26.8,227.3l1.2-1.4c1.1,0.9,2.1,1.5,3.5,1.5c1.2,0,2-0.6,2-1.4v0c0-0.8-0.4-1.2-2.5-1.7c-2.4-0.6-3.7-1.3-3.7-3.3v0
		c0-1.9,1.6-3.2,3.8-3.2c1.6,0,2.9,0.5,4.1,1.4l-1.1,1.5c-1-0.8-2-1.2-3-1.2c-1.2,0-1.8,0.6-1.8,1.3v0c0,0.9,0.5,1.2,2.7,1.8
		c2.4,0.6,3.6,1.4,3.6,3.3v0c0,2.1-1.6,3.3-4,3.3C29.8,229.1,28.2,228.5,26.8,227.3z"/>
	<path d="M40.3,219.5h-3.6v-1.8h9.1v1.8h-3.6v9.4h-2V219.5z"/>
	<path d="M48,217.7h5c1.4,0,2.5,0.4,3.2,1.1c0.6,0.6,0.9,1.4,0.9,2.4v0c0,1.8-1.1,2.9-2.7,3.4l3,4.2h-2.3l-2.8-3.9h-2.5v3.9h-2
		V217.7z M52.8,223.2c1.4,0,2.3-0.7,2.3-1.9v0c0-1.2-0.9-1.9-2.3-1.9h-2.9v3.8H52.8z"/>
	<path d="M63.5,217.6h1.8l4.9,11.3h-2.1l-1.1-2.7h-5.3l-1.2,2.7h-2L63.5,217.6z M66.3,224.4l-1.9-4.5l-1.9,4.5H66.3z"/>
	<path d="M73.5,219.5h-3.6v-1.8H79v1.8h-3.6v9.4h-2V219.5z"/>
	<path d="M81.1,217.7h8.3v1.8h-6.3v2.9h5.6v1.8h-5.6v3h6.4v1.8h-8.4V217.7z"/>
	<path d="M91.3,223.3L91.3,223.3c0-3.2,2.4-5.8,5.8-5.8c2,0,3.2,0.5,4.3,1.5l-1.2,1.5c-0.9-0.7-1.7-1.2-3.1-1.2
		c-2.1,0-3.6,1.8-3.6,4v0c0,2.3,1.5,4,3.8,4c1.1,0,2-0.3,2.7-0.8v-2.1H97v-1.7h4.8v4.7c-1.1,0.9-2.7,1.7-4.7,1.7
		C93.6,229.1,91.3,226.6,91.3,223.3z"/>
	<path d="M107.2,224.5l-4.4-6.8h2.3l3.1,5l3.2-5h2.3l-4.4,6.7v4.5h-2V224.5z"/>
</g>
<g opacity="0.4">
	<path d="M51.6,288.3h4.2c3.5,0,6,2.4,6,5.6v0c0,3.2-2.4,5.6-6,5.6h-4.2V288.3z M55.8,297.7c2.4,0,3.9-1.6,3.9-3.8v0
		c0-2.2-1.5-3.8-3.9-3.8h-2.2v7.6H55.8z"/>
	<path d="M64.1,288.3h8.3v1.8h-6.3v2.9h5.6v1.8h-5.6v3h6.4v1.8h-8.4V288.3z"/>
	<path d="M74.1,297.9l1.2-1.4c1.1,0.9,2.1,1.5,3.5,1.5c1.2,0,2-0.6,2-1.4v0c0-0.8-0.4-1.2-2.5-1.7c-2.4-0.6-3.7-1.3-3.7-3.3v0
		c0-1.9,1.6-3.2,3.8-3.2c1.6,0,2.9,0.5,4.1,1.4l-1.1,1.5c-1-0.8-2-1.2-3-1.2c-1.2,0-1.8,0.6-1.8,1.3v0c0,0.9,0.5,1.2,2.7,1.8
		c2.4,0.6,3.6,1.4,3.6,3.3v0c0,2.1-1.6,3.3-4,3.3C77,299.7,75.4,299.1,74.1,297.9z"/>
	<path d="M85.2,288.3h2v11.2h-2V288.3z"/>
	<path d="M89.7,294L89.7,294c0-3.2,2.4-5.8,5.8-5.8c2,0,3.2,0.5,4.3,1.5l-1.2,1.5c-0.9-0.7-1.7-1.2-3.1-1.2c-2.1,0-3.6,1.8-3.6,4v0
		c0,2.3,1.5,4,3.8,4c1.1,0,2-0.3,2.7-0.8V295h-2.9v-1.7h4.8v4.7c-1.1,0.9-2.7,1.7-4.7,1.7C92,299.7,89.7,297.2,89.7,294z"/>
	<path d="M102.7,288.3h1.8l6,7.7v-7.7h1.9v11.2h-1.6l-6.2-8v8h-1.9V288.3z"/>
</g>
<g>
	<rect x="481.7" y="216.4" opacity="0.4" width="403.1" height="12"/>
	<g>
		<path d="M482.2,242.4l0.8-0.9c0.7,0.6,1.4,1,2.3,1c0.8,0,1.3-0.4,1.3-0.9v0c0-0.5-0.3-0.8-1.7-1.1c-1.6-0.4-2.4-0.8-2.4-2.2v0
			c0-1.3,1-2.1,2.5-2.1c1.1,0,1.9,0.3,2.7,0.9l-0.7,1c-0.7-0.5-1.3-0.8-2-0.8c-0.8,0-1.2,0.4-1.2,0.9v0c0,0.6,0.3,0.8,1.7,1.2
			c1.6,0.4,2.4,0.9,2.4,2.1v0c0,1.4-1.1,2.2-2.6,2.2C484.1,243.6,483.1,243.2,482.2,242.4z"/>
		<path d="M491,237.3h-2.3v-1.2h6v1.2h-2.3v6.1H491V237.3z"/>
		<path d="M496,236.1h3.3c0.9,0,1.6,0.3,2.1,0.7c0.4,0.4,0.6,0.9,0.6,1.6v0c0,1.2-0.7,1.9-1.8,2.2l2,2.8h-1.5l-1.8-2.6h-1.6v2.6H496
			V236.1z M499.2,239.8c0.9,0,1.5-0.5,1.5-1.2v0c0-0.8-0.6-1.2-1.5-1.2h-1.9v2.5H499.2z"/>
		<path d="M506.2,236.1h1.2l3.2,7.4h-1.4l-0.7-1.8H505l-0.8,1.8H503L506.2,236.1z M508,240.6l-1.3-2.9l-1.3,2.9H508z"/>
		<path d="M512.7,237.3h-2.3v-1.2h6v1.2H514v6.1h-1.3V237.3z"/>
		<path d="M517.7,236.1h5.4v1.2H519v1.9h3.7v1.2H519v2h4.2v1.2h-5.5V236.1z"/>
		<path d="M524.4,239.8L524.4,239.8c0-2.1,1.6-3.8,3.8-3.8c1.3,0,2.1,0.4,2.8,1l-0.8,1c-0.6-0.5-1.1-0.8-2.1-0.8
			c-1.4,0-2.4,1.2-2.4,2.6v0c0,1.5,1,2.6,2.5,2.6c0.7,0,1.3-0.2,1.8-0.6v-1.4h-1.9v-1.1h3.1v3.1c-0.7,0.6-1.8,1.1-3.1,1.1
			C525.9,243.6,524.4,242,524.4,239.8z"/>
		<path d="M533,236.1h1.3v7.3H533V236.1z"/>
		<path d="M536,242.5l4.3-5.2h-4.2v-1.1h5.9v1l-4.3,5.2h4.3v1.1h-6V242.5z"/>
		<path d="M543.6,236.1h5.4v1.2h-4.2v1.9h3.7v1.2h-3.7v2h4.2v1.2h-5.5V236.1z"/>
	</g>
</g>
<g opacity="0.4">
	<rect x="229.9" y="288.5" opacity="0.4" width="160.8" height="12"/>
	<g>
		<path d="M230.5,311.9L230.5,311.9c0-2.1,1.6-3.8,3.8-3.8c1.4,0,2.2,0.5,2.9,1.1l-0.8,1c-0.6-0.5-1.2-0.9-2.1-0.9
			c-1.4,0-2.4,1.2-2.4,2.6v0c0,1.4,1,2.6,2.4,2.6c0.9,0,1.5-0.4,2.1-1l0.8,0.8c-0.8,0.8-1.6,1.3-3,1.3
			C232.1,315.7,230.5,314,230.5,311.9z"/>
		<path d="M241.2,308.2h1.2l3.2,7.4h-1.4l-0.7-1.8H240l-0.8,1.8h-1.3L241.2,308.2z M243,312.7l-1.3-2.9l-1.3,2.9H243z"/>
		<path d="M246.9,308.2h2.9c1.7,0,2.8,1,2.8,2.5v0c0,1.6-1.3,2.5-2.9,2.5h-1.5v2.4h-1.3V308.2z M249.6,312c1,0,1.6-0.5,1.6-1.3v0
			c0-0.9-0.6-1.3-1.6-1.3h-1.5v2.6H249.6z"/>
		<path d="M255.7,309.4h-2.3v-1.2h6v1.2H257v6.1h-1.3V309.4z"/>
		<path d="M260.5,312.5v-4.2h1.3v4.2c0,1.4,0.7,2.1,1.9,2.1c1.1,0,1.8-0.7,1.8-2v-4.2h1.3v4.2c0,2.2-1.2,3.3-3.2,3.3
			C261.7,315.7,260.5,314.6,260.5,312.5z"/>
		<path d="M268.6,308.2h3.3c0.9,0,1.6,0.3,2.1,0.7c0.4,0.4,0.6,0.9,0.6,1.6v0c0,1.2-0.7,1.9-1.8,2.2l2,2.8h-1.5l-1.8-2.6h-1.6v2.6
			h-1.3V308.2z M271.8,311.9c0.9,0,1.5-0.5,1.5-1.2v0c0-0.8-0.6-1.2-1.5-1.2h-1.9v2.5H271.8z"/>
		<path d="M276.2,308.2h5.4v1.2h-4.2v1.9h3.7v1.2h-3.7v2h4.2v1.2h-5.5V308.2z"/>
	</g>
	<g>
		<rect x="395.1" y="288.5" opacity="0.4" width="241.8" height="12"/>
		<g>
			<path d="M396.1,308.2h2.9c1.7,0,2.8,1,2.8,2.5v0c0,1.6-1.3,2.5-2.9,2.5h-1.5v2.4h-1.3V308.2z M398.8,312c1,0,1.6-0.5,1.6-1.3v0
				c0-0.9-0.6-1.3-1.6-1.3h-1.5v2.6H398.8z"/>
			<path d="M403.1,308.2h3.3c0.9,0,1.6,0.3,2.1,0.7c0.4,0.4,0.6,0.9,0.6,1.6v0c0,1.2-0.7,1.9-1.8,2.2l2,2.8h-1.5L406,313h-1.6v2.6
				h-1.3V308.2z M406.2,311.9c0.9,0,1.5-0.5,1.5-1.2v0c0-0.8-0.6-1.2-1.5-1.2h-1.9v2.5H406.2z"/>
			<path d="M410.3,311.9L410.3,311.9c0-2.1,1.6-3.8,3.8-3.8c2.3,0,3.8,1.7,3.8,3.8v0c0,2.1-1.6,3.8-3.8,3.8S410.3,314,410.3,311.9z
				 M416.6,311.9L416.6,311.9c0-1.4-1-2.6-2.5-2.6s-2.5,1.2-2.5,2.6v0c0,1.4,1,2.6,2.5,2.6S416.6,313.3,416.6,311.9z"/>
			<path d="M420.9,309.4h-2.3v-1.2h6v1.2h-2.3v6.1h-1.3V309.4z"/>
			<path d="M425.2,311.9L425.2,311.9c0-2.1,1.6-3.8,3.8-3.8c2.3,0,3.8,1.7,3.8,3.8v0c0,2.1-1.6,3.8-3.8,3.8S425.2,314,425.2,311.9z
				 M431.5,311.9L431.5,311.9c0-1.4-1-2.6-2.5-2.6s-2.5,1.2-2.5,2.6v0c0,1.4,1,2.6,2.5,2.6S431.5,313.3,431.5,311.9z"/>
			<path d="M435.8,309.4h-2.3v-1.2h6v1.2h-2.3v6.1h-1.3V309.4z"/>
			<path d="M443,312.7l-2.9-4.4h1.5l2.1,3.2l2.1-3.2h1.5l-2.9,4.4v2.9H443V312.7z"/>
			<path d="M448.3,308.2h2.9c1.7,0,2.8,1,2.8,2.5v0c0,1.6-1.3,2.5-2.9,2.5h-1.5v2.4h-1.3V308.2z M451.1,312c1,0,1.6-0.5,1.6-1.3v0
				c0-0.9-0.6-1.3-1.6-1.3h-1.5v2.6H451.1z"/>
			<path d="M455.3,308.2h5.4v1.2h-4.2v1.9h3.7v1.2h-3.7v2h4.2v1.2h-5.5V308.2z"/>
		</g>
	</g>
	<g>
		<rect x="643.1" y="288.5" opacity="0.4" width="488.6" height="12"/>
		<g>
			<path d="M643.7,311.9L643.7,311.9c0-2.1,1.6-3.8,3.8-3.8c1.4,0,2.2,0.5,2.9,1.1l-0.8,1c-0.6-0.5-1.2-0.9-2.1-0.9
				c-1.4,0-2.4,1.2-2.4,2.6v0c0,1.4,1,2.6,2.4,2.6c0.9,0,1.5-0.4,2.1-1l0.8,0.8c-0.8,0.8-1.6,1.3-3,1.3
				C645.3,315.7,643.7,314,643.7,311.9z"/>
			<path d="M651.2,311.9L651.2,311.9c0-2.1,1.6-3.8,3.8-3.8c2.3,0,3.8,1.7,3.8,3.8v0c0,2.1-1.6,3.8-3.8,3.8S651.2,314,651.2,311.9z
				 M657.6,311.9L657.6,311.9c0-1.4-1-2.6-2.5-2.6s-2.5,1.2-2.5,2.6v0c0,1.4,1,2.6,2.5,2.6S657.6,313.3,657.6,311.9z"/>
			<path d="M660.5,308.2h1.2l3.9,5.1v-5.1h1.3v7.3h-1.1l-4-5.2v5.2h-1.3V308.2z"/>
			<path d="M668.3,314.5l0.8-0.9c0.7,0.6,1.4,1,2.3,1c0.8,0,1.3-0.4,1.3-0.9v0c0-0.5-0.3-0.8-1.7-1.1c-1.6-0.4-2.4-0.8-2.4-2.2v0
				c0-1.3,1-2.1,2.5-2.1c1.1,0,1.9,0.3,2.7,0.9l-0.7,1c-0.7-0.5-1.3-0.8-2-0.8c-0.8,0-1.2,0.4-1.2,0.9v0c0,0.6,0.3,0.8,1.7,1.2
				c1.6,0.4,2.4,0.9,2.4,2.1v0c0,1.4-1.1,2.2-2.6,2.2C670.2,315.7,669.1,315.3,668.3,314.5z"/>
			<path d="M677.1,309.4h-2.3v-1.2h6v1.2h-2.3v6.1h-1.3V309.4z"/>
			<path d="M682.1,308.2h3.3c0.9,0,1.6,0.3,2.1,0.7c0.4,0.4,0.6,0.9,0.6,1.6v0c0,1.2-0.7,1.9-1.8,2.2l2,2.8h-1.5L685,313h-1.6v2.6
				h-1.3V308.2z M685.3,311.9c0.9,0,1.5-0.5,1.5-1.2v0c0-0.8-0.6-1.2-1.5-1.2h-1.9v2.5H685.3z"/>
			<path d="M689.6,312.5v-4.2h1.3v4.2c0,1.4,0.7,2.1,1.9,2.1c1.1,0,1.8-0.7,1.8-2v-4.2h1.3v4.2c0,2.2-1.2,3.3-3.2,3.3
				C690.8,315.7,689.6,314.6,689.6,312.5z"/>
			<path d="M697.3,311.9L697.3,311.9c0-2.1,1.6-3.8,3.8-3.8c1.4,0,2.2,0.5,2.9,1.1l-0.8,1c-0.6-0.5-1.2-0.9-2.1-0.9
				c-1.4,0-2.4,1.2-2.4,2.6v0c0,1.4,1,2.6,2.4,2.6c0.9,0,1.5-0.4,2.1-1l0.8,0.8c-0.8,0.8-1.6,1.3-3,1.3
				C698.9,315.7,697.3,314,697.3,311.9z"/>
			<path d="M707.1,309.4h-2.3v-1.2h6v1.2h-2.3v6.1h-1.3V309.4z"/>
		</g>
	</g>
</g>
<g>
	<rect x="1049.6" y="215.4" opacity="0.4" width="82.1" height="12"/>
	<g>
		<path d="M1050.5,235.1h1.3v3.1h3.5v-3.1h1.3v7.3h-1.3v-3.1h-3.5v3.1h-1.3V235.1z"/>
		<path d="M1058.4,239.3v-4.2h1.3v4.2c0,1.4,0.7,2.1,1.9,2.1c1.1,0,1.8-0.7,1.8-2v-4.2h1.3v4.2c0,2.2-1.2,3.3-3.2,3.3
			C1059.6,242.5,1058.4,241.4,1058.4,239.3z"/>
		<path d="M1065.9,241.4l0.8-0.9c0.7,0.6,1.4,1,2.3,1c0.8,0,1.3-0.4,1.3-0.9v0c0-0.5-0.3-0.8-1.7-1.1c-1.6-0.4-2.4-0.8-2.4-2.2v0
			c0-1.3,1-2.1,2.5-2.1c1.1,0,1.9,0.3,2.7,0.9l-0.7,1c-0.7-0.5-1.3-0.8-2-0.8c-0.8,0-1.2,0.4-1.2,0.9v0c0,0.6,0.3,0.8,1.7,1.2
			c1.6,0.4,2.4,0.9,2.4,2.1v0c0,1.4-1.1,2.2-2.6,2.2C1067.9,242.5,1066.8,242.1,1065.9,241.4z"/>
		<path d="M1074.8,236.3h-2.3v-1.2h6v1.2h-2.3v6.1h-1.3V236.3z"/>
		<path d="M1079.8,235.1h1.3v6.2h3.9v1.2h-5.1V235.1z"/>
		<path d="M1086.3,235.1h5.4v1.2h-4.2v1.9h3.7v1.2h-3.7v2h4.2v1.2h-5.5V235.1z"/>
	</g>
	<g>
		<path d="M1180.3,253.1h1.3v6.2h3.9v1.2h-5.1V253.1z"/>
		<path d="M1189.4,253h1.2l3.2,7.4h-1.4l-0.7-1.8h-3.5l-0.8,1.8h-1.3L1189.4,253z M1191.3,257.5l-1.3-2.9l-1.3,2.9H1191.3z"/>
		<path d="M1194.7,257.3v-4.2h1.3v4.2c0,1.4,0.7,2.1,1.9,2.1c1.1,0,1.8-0.7,1.8-2v-4.2h1.3v4.2c0,2.2-1.2,3.3-3.2,3.3
			C1195.9,260.5,1194.7,259.4,1194.7,257.3z"/>
		<path d="M1202.8,253.1h1.2l3.9,5.1v-5.1h1.3v7.3h-1.1l-4-5.2v5.2h-1.3V253.1z"/>
		<path d="M1210.7,256.8L1210.7,256.8c0-2.1,1.6-3.8,3.8-3.8c1.4,0,2.2,0.5,2.9,1.1l-0.8,1c-0.6-0.5-1.2-0.9-2.1-0.9
			c-1.4,0-2.4,1.2-2.4,2.6v0c0,1.4,1,2.6,2.4,2.6c0.9,0,1.5-0.4,2.1-1l0.8,0.8c-0.8,0.8-1.6,1.3-3,1.3
			C1212.3,260.6,1210.7,258.9,1210.7,256.8z"/>
		<path d="M1218.8,253.1h1.3v3.1h3.5v-3.1h1.3v7.3h-1.3v-3.1h-3.5v3.1h-1.3V253.1z"/>
	</g>
</g>
<line opacity="0.4" fill="none" stroke="#000000" stroke-miterlimit="10" x1="141.5" y1="222.9" x2="120" y2="222.9"/>
<line opacity="0.4" fill="none" stroke="#000000" stroke-miterlimit="10" x1="1041" y1="223" x2="893.1" y2="223"/>
<line opacity="0.4" fill="none" stroke="#000000" stroke-miterlimit="10" x1="223.8" y1="294.5" x2="120" y2="294.5"/>
<pattern  id="SVGID_1_" xlink:href="#_x31_0_lpi_50_x25_" patternTransform="matrix(0.7071 -0.7071 0.7071 0.7071 2091.1975 -6270.5107)">
</pattern>
<rect x="1140.7" y="212.8" opacity="0.1" fill="url(#SVGID_1_)" width="125.9" height="87.8"/>
<g>
	<g>
		<path d="M300.5,202.4c0-29.2,0-4.8,0-49.7"/>
		<g>
			<path fill="none" stroke="#000000" stroke-width="2" stroke-miterlimit="10" d="M300.5,202.4c0-29.2,0-4.8,0-49.7"/>
			<g>
				<polygon points="305.5,201 300.5,209.6 295.5,201 				"/>
			</g>
		</g>
	</g>
	<g>
		<g>
			<g>
				<path d="M319.9,115.4h1.5v8.4h-1.5V115.4z"/>
				<path d="M323.6,115.4h1.4l4.5,5.8v-5.8h1.5v8.4h-1.2l-4.6-6v6h-1.5V115.4z"/>
				<path d="M332.6,122.6l0.9-1.1c0.8,0.7,1.6,1.1,2.7,1.1c0.9,0,1.5-0.4,1.5-1.1v0c0-0.6-0.3-0.9-1.9-1.3c-1.8-0.4-2.8-1-2.8-2.5v0
					c0-1.4,1.2-2.4,2.9-2.4c1.2,0,2.2,0.4,3,1.1l-0.8,1.1c-0.8-0.6-1.5-0.9-2.3-0.9c-0.9,0-1.4,0.4-1.4,1v0c0,0.6,0.4,0.9,2,1.3
					c1.8,0.4,2.7,1.1,2.7,2.5v0c0,1.6-1.2,2.5-3,2.5C334.8,123.9,333.6,123.5,332.6,122.6z"/>
				<path d="M340.9,115.4h1.5v8.4h-1.5V115.4z"/>
				<path d="M344.2,119.6L344.2,119.6c0-2.4,1.8-4.4,4.3-4.4c1.5,0,2.4,0.4,3.2,1.1l-0.9,1.1c-0.6-0.6-1.3-0.9-2.4-0.9
					c-1.5,0-2.7,1.4-2.7,3v0c0,1.7,1.1,3,2.9,3c0.8,0,1.5-0.3,2-0.6v-1.6h-2.1v-1.3h3.6v3.5c-0.8,0.7-2,1.3-3.5,1.3
					C346,124,344.2,122.1,344.2,119.6z"/>
				<path d="M354,115.4h1.5v3.5h4v-3.5h1.5v8.4h-1.5v-3.5h-4v3.5H354V115.4z"/>
				<path d="M365.2,116.8h-2.7v-1.4h6.8v1.4h-2.7v7h-1.5V116.8z"/>
				<path d="M374.5,115.4h3.7c1.1,0,1.9,0.3,2.4,0.8c0.4,0.5,0.7,1.1,0.7,1.8v0c0,1.4-0.8,2.2-2,2.5l2.3,3.2h-1.7l-2.1-2.9H376v2.9
					h-1.5V115.4z M378.1,119.6c1.1,0,1.7-0.6,1.7-1.4v0c0-0.9-0.6-1.4-1.7-1.4H376v2.8H378.1z"/>
				<path d="M383.2,115.4h6.2v1.3h-4.7v2.2h4.2v1.3h-4.2v2.3h4.8v1.3h-6.3V115.4z"/>
				<path d="M391.2,115.4h3.3c2,0,3.2,1.1,3.2,2.8v0c0,1.9-1.5,2.9-3.4,2.9h-1.7v2.7h-1.5V115.4z M394.4,119.8
					c1.1,0,1.8-0.6,1.8-1.5v0c0-1-0.7-1.5-1.8-1.5h-1.7v3H394.4z"/>
				<path d="M398.9,119.6L398.9,119.6c0-2.4,1.8-4.4,4.4-4.4c2.6,0,4.4,2,4.4,4.3v0c0,2.4-1.8,4.3-4.4,4.3
					C400.7,124,398.9,122,398.9,119.6z M406.1,119.6L406.1,119.6c0-1.7-1.2-3-2.9-3s-2.8,1.3-2.8,3v0c0,1.6,1.2,3,2.9,3
					S406.1,121.3,406.1,119.6z"/>
				<path d="M409.4,115.4h3.7c1.1,0,1.9,0.3,2.4,0.8c0.4,0.5,0.7,1.1,0.7,1.8v0c0,1.4-0.8,2.2-2,2.5l2.3,3.2h-1.7l-2.1-2.9h-1.8v2.9
					h-1.5V115.4z M413.1,119.6c1.1,0,1.7-0.6,1.7-1.4v0c0-0.9-0.6-1.4-1.7-1.4h-2.1v2.8H413.1z"/>
				<path d="M420.1,116.8h-2.7v-1.4h6.8v1.4h-2.7v7h-1.5V116.8z"/>
			</g>
			<g>
				<path d="M321.6,128.4h0.6l2.6,5.6h-0.7l-0.7-1.5h-3l-0.7,1.5h-0.6L321.6,128.4z M323.2,131.9l-1.3-2.9l-1.3,2.9H323.2z"/>
				<path d="M326.8,128.4h2.4c0.7,0,1.2,0.2,1.6,0.6c0.3,0.3,0.4,0.7,0.4,1.1v0c0,0.9-0.6,1.5-1.5,1.6l1.7,2.3h-0.8l-1.6-2.2h-1.6
					v2.2h-0.6V128.4z M329.2,131.2c0.8,0,1.4-0.4,1.4-1.2v0c0-0.7-0.5-1.1-1.4-1.1h-1.7v2.3H329.2z"/>
				<path d="M333.3,131.2L333.3,131.2c0-1.6,1.2-2.9,2.8-2.9c1,0,1.6,0.4,2.2,0.9l-0.4,0.5c-0.5-0.4-1-0.8-1.8-0.8
					c-1.2,0-2.2,1-2.2,2.3v0c0,1.3,0.9,2.3,2.2,2.3c0.8,0,1.3-0.3,1.8-0.8l0.4,0.4c-0.6,0.6-1.2,1-2.2,1
					C334.5,134.1,333.3,132.8,333.3,131.2z"/>
				<path d="M340.4,128.4h0.6v2.5h3.2v-2.5h0.6v5.6h-0.6v-2.5h-3.2v2.5h-0.6V128.4z"/>
				<path d="M347.5,128.4h4v0.6h-3.4v1.9h3.1v0.6h-3.1v2h3.5v0.6h-4.1V128.4z"/>
				<path d="M355.3,129h-1.9v-0.6h4.4v0.6h-1.9v5h-0.6V129z"/>
				<path d="M361.7,131.8l-2.3-3.4h0.8l1.9,2.8l1.9-2.8h0.7l-2.3,3.4v2.2h-0.6V131.8z"/>
				<path d="M366.6,128.4h2.1c1.3,0,2.1,0.7,2.1,1.8v0c0,1.2-1,1.8-2.2,1.8h-1.4v2h-0.6V128.4z M368.6,131.4c0.9,0,1.5-0.5,1.5-1.2
					v0c0-0.8-0.6-1.2-1.5-1.2h-1.4v2.5H368.6z"/>
				<path d="M372.9,128.4h4v0.6h-3.4v1.9h3.1v0.6h-3.1v2h3.5v0.6h-4.1V128.4z"/>
				<path d="M378.9,133.2l0.4-0.5c0.6,0.5,1.1,0.8,1.9,0.8c0.8,0,1.2-0.4,1.2-1v0c0-0.5-0.3-0.8-1.5-1.1c-1.3-0.3-1.9-0.7-1.9-1.6v0
					c0-0.9,0.8-1.5,1.8-1.5c0.8,0,1.4,0.2,2,0.7l-0.4,0.5c-0.5-0.4-1-0.6-1.6-0.6c-0.7,0-1.2,0.4-1.2,0.9v0c0,0.5,0.3,0.8,1.5,1.1
					c1.2,0.3,1.8,0.7,1.8,1.6v0c0,1-0.8,1.6-1.9,1.6C380.3,134.1,379.6,133.8,378.9,133.2z"/>
			</g>
		</g>
		
			<use xlink:href="#Document"  width="24.5" height="34.1" x="-24.5" y="-16.3" transform="matrix(1 0 0 -1 312.7724 124.0492)" overflow="visible"/>
	</g>
</g>
<g>
	<g>
		<path d="M875.8,202.4c0-29.2,0-4.8,0-49.7"/>
		<g>
			<path fill="none" stroke="#000000" stroke-width="2" stroke-miterlimit="10" d="M875.8,202.4c0-29.2,0-4.8,0-49.7"/>
			<g>
				<polygon points="880.8,201 875.8,209.6 870.9,201 				"/>
			</g>
		</g>
	</g>
	<g>
		
			<use xlink:href="#Document"  width="24.5" height="34.1" x="-24.5" y="-16.3" transform="matrix(1 0 0 -1 888.1046 124.9599)" overflow="visible"/>
		<g>
			<g>
				<path d="M895.2,115.4h1.6l2.6,4l2.6-4h1.6v8.4h-1.5v-6l-2.7,4h0l-2.6-3.9v6h-1.5V115.4z"/>
				<path d="M908.6,115.4h1.4l3.7,8.5h-1.6l-0.9-2h-4l-0.9,2h-1.5L908.6,115.4z M910.7,120.5l-1.5-3.4l-1.4,3.4H910.7z"/>
				<path d="M915.1,115.4h3.7c1.1,0,1.9,0.3,2.4,0.8c0.4,0.5,0.7,1.1,0.7,1.8v0c0,1.4-0.8,2.2-2,2.5l2.3,3.2h-1.7l-2.1-2.9h-1.8v2.9
					h-1.5V115.4z M918.7,119.6c1.1,0,1.7-0.6,1.7-1.4v0c0-0.9-0.6-1.4-1.7-1.4h-2.1v2.8H918.7z"/>
				<path d="M923.7,115.4h1.5v4.2l4-4.2h1.8l-3.5,3.6l3.6,4.8h-1.8l-2.9-3.8l-1.3,1.3v2.4h-1.5V115.4z"/>
				<path d="M932.4,115.4h6.2v1.3h-4.7v2.2h4.2v1.3h-4.2v2.3h4.8v1.3h-6.3V115.4z"/>
				<path d="M942.5,116.8h-2.7v-1.4h6.8v1.4H944v7h-1.5V116.8z"/>
				<path d="M948.3,115.4h1.5v8.4h-1.5V115.4z"/>
				<path d="M952.1,115.4h1.4l4.5,5.8v-5.8h1.5v8.4h-1.2l-4.6-6v6h-1.5V115.4z"/>
				<path d="M961.2,119.6L961.2,119.6c0-2.4,1.8-4.4,4.3-4.4c1.5,0,2.4,0.4,3.2,1.1l-0.9,1.1c-0.6-0.6-1.3-0.9-2.4-0.9
					c-1.5,0-2.7,1.4-2.7,3v0c0,1.7,1.1,3,2.9,3c0.8,0,1.5-0.3,2-0.6v-1.6h-2.1v-1.3h3.6v3.5c-0.8,0.7-2,1.3-3.5,1.3
					C962.9,124,961.2,122.1,961.2,119.6z"/>
				<path d="M974.5,115.4h3.3c2,0,3.2,1.1,3.2,2.8v0c0,1.9-1.5,2.9-3.4,2.9H976v2.7h-1.5V115.4z M977.7,119.8c1.1,0,1.8-0.6,1.8-1.5
					v0c0-1-0.7-1.5-1.8-1.5H976v3H977.7z"/>
				<path d="M982.6,115.4h1.5v7.1h4.4v1.3h-5.9V115.4z"/>
				<path d="M993,115.4h1.4l3.7,8.5h-1.6l-0.9-2h-4l-0.9,2h-1.5L993,115.4z M995.1,120.5l-1.5-3.4l-1.4,3.4H995.1z"/>
				<path d="M999.5,115.4h1.4l4.5,5.8v-5.8h1.5v8.4h-1.2l-4.6-6v6h-1.5V115.4z"/>
			</g>
			<g>
				<path d="M894.6,131.2L894.6,131.2c0-1.6,1.2-2.9,2.8-2.9c1,0,1.6,0.4,2.2,0.9l-0.4,0.5c-0.5-0.4-1-0.8-1.8-0.8
					c-1.2,0-2.2,1-2.2,2.3v0c0,1.3,0.9,2.3,2.2,2.3c0.8,0,1.3-0.3,1.8-0.8l0.4,0.4c-0.6,0.6-1.2,1-2.2,1
					C895.8,134.1,894.6,132.8,894.6,131.2z"/>
				<path d="M901.7,128.4h0.6v2.5h3.2v-2.5h0.6v5.6h-0.6v-2.5h-3.2v2.5h-0.6V128.4z"/>
				<path d="M910.9,128.4h0.6l2.6,5.6h-0.7l-0.7-1.5h-3L909,134h-0.6L910.9,128.4z M912.4,131.9l-1.3-2.9l-1.3,2.9H912.4z"/>
				<path d="M916.1,128.4h0.6l3.5,4.5v-4.5h0.6v5.6h-0.5l-3.6-4.6v4.6h-0.6V128.4z"/>
				<path d="M923.3,128.4h0.6l3.5,4.5v-4.5h0.6v5.6h-0.5l-3.6-4.6v4.6h-0.6V128.4z"/>
				<path d="M930.6,128.4h4v0.6h-3.4v1.9h3.1v0.6h-3.1v2h3.5v0.6h-4.1V128.4z"/>
				<path d="M936.9,128.4h0.6v5h3.2v0.6h-3.8V128.4z"/>
				<path d="M942.5,133.2l0.4-0.5c0.6,0.5,1.1,0.8,1.9,0.8c0.8,0,1.2-0.4,1.2-1v0c0-0.5-0.3-0.8-1.5-1.1c-1.3-0.3-1.9-0.7-1.9-1.6v0
					c0-0.9,0.8-1.5,1.8-1.5c0.8,0,1.4,0.2,2,0.7l-0.4,0.5c-0.5-0.4-1-0.6-1.6-0.6c-0.7,0-1.2,0.4-1.2,0.9v0c0,0.5,0.3,0.8,1.5,1.1
					c1.2,0.3,1.8,0.7,1.8,1.6v0c0,1-0.8,1.6-1.9,1.6C943.9,134.1,943.2,133.8,942.5,133.2z"/>
			</g>
		</g>
	</g>
</g>
<g>
	<g>
		<path d="M638.5,202.4c0-29.2,0-4.8,0-49.7"/>
		<g>
			<path fill="none" stroke="#000000" stroke-width="2" stroke-miterlimit="10" d="M638.5,202.4c0-29.2,0-4.8,0-49.7"/>
			<g>
				<polygon points="643.5,201 638.5,209.6 633.5,201 				"/>
			</g>
		</g>
	</g>
	<g>
		<g>
			<g>
				<path d="M657.8,115.4h3.8c1,0,1.7,0.3,2.2,0.7c0.4,0.4,0.6,0.8,0.6,1.4v0c0,1-0.6,1.5-1.2,1.9c1,0.3,1.7,0.9,1.7,2v0
					c0,1.5-1.2,2.3-3.1,2.3h-3.9V115.4z M661.3,119c0.9,0,1.6-0.4,1.6-1.1v0c0-0.7-0.5-1.1-1.5-1.1h-2.1v2.2H661.3z M661.7,122.5
					c1,0,1.6-0.4,1.6-1.2v0c0-0.7-0.6-1.1-1.7-1.1h-2.3v2.3H661.7z"/>
				<path d="M666.5,115.4h3.7c1.1,0,1.9,0.3,2.4,0.8c0.4,0.5,0.7,1.1,0.7,1.8v0c0,1.4-0.8,2.2-2,2.5l2.3,3.2h-1.7l-2.1-2.9H668v2.9
					h-1.5V115.4z M670.1,119.6c1.1,0,1.7-0.6,1.7-1.4v0c0-0.9-0.6-1.4-1.7-1.4H668v2.8H670.1z"/>
				<path d="M678.2,115.4h1.4l3.7,8.5h-1.6l-0.9-2h-4l-0.9,2h-1.5L678.2,115.4z M680.3,120.5l-1.5-3.4l-1.4,3.4H680.3z"/>
				<path d="M684.7,115.4h1.4l4.5,5.8v-5.8h1.5v8.4h-1.2l-4.6-6v6h-1.5V115.4z"/>
				<path d="M694.1,115.4h3.1c2.6,0,4.5,1.8,4.5,4.2v0c0,2.4-1.8,4.2-4.5,4.2h-3.1V115.4z M697.3,122.5c1.8,0,2.9-1.2,2.9-2.8v0
					c0-1.6-1.2-2.9-2.9-2.9h-1.7v5.7H697.3z"/>
				<path d="M706.6,122.6l0.9-1.1c0.8,0.7,1.6,1.1,2.7,1.1c0.9,0,1.5-0.4,1.5-1.1v0c0-0.6-0.3-0.9-1.9-1.3c-1.8-0.4-2.8-1-2.8-2.5v0
					c0-1.4,1.2-2.4,2.9-2.4c1.2,0,2.2,0.4,3,1.1l-0.8,1.1c-0.8-0.6-1.5-0.9-2.3-0.9c-0.9,0-1.4,0.4-1.4,1v0c0,0.6,0.4,0.9,2,1.3
					c1.8,0.4,2.7,1.1,2.7,2.5v0c0,1.6-1.2,2.5-3,2.5C708.8,123.9,707.6,123.5,706.6,122.6z"/>
				<path d="M716.7,116.8H714v-1.4h6.8v1.4h-2.7v7h-1.5V116.8z"/>
				<path d="M722.4,115.4h3.7c1.1,0,1.9,0.3,2.4,0.8c0.4,0.5,0.7,1.1,0.7,1.8v0c0,1.4-0.8,2.2-2,2.5l2.3,3.2h-1.7l-2.1-2.9h-1.8v2.9
					h-1.5V115.4z M726,119.6c1.1,0,1.7-0.6,1.7-1.4v0c0-0.9-0.6-1.4-1.7-1.4h-2.1v2.8H726z"/>
				<path d="M734,115.4h1.4l3.7,8.5h-1.6l-0.9-2h-4l-0.9,2h-1.5L734,115.4z M736.2,120.5l-1.5-3.4l-1.4,3.4H736.2z"/>
				<path d="M741.5,116.8h-2.7v-1.4h6.8v1.4H743v7h-1.5V116.8z"/>
				<path d="M747.2,115.4h6.2v1.3h-4.7v2.2h4.2v1.3h-4.2v2.3h4.8v1.3h-6.3V115.4z"/>
				<path d="M754.9,119.6L754.9,119.6c0-2.4,1.8-4.4,4.3-4.4c1.5,0,2.4,0.4,3.2,1.1l-0.9,1.1c-0.6-0.6-1.3-0.9-2.4-0.9
					c-1.5,0-2.7,1.4-2.7,3v0c0,1.7,1.1,3,2.9,3c0.8,0,1.5-0.3,2-0.6v-1.6h-2.1v-1.3h3.6v3.5c-0.8,0.7-2,1.3-3.5,1.3
					C756.6,124,754.9,122.1,754.9,119.6z"/>
				<path d="M766.8,120.5l-3.3-5.1h1.7l2.4,3.7l2.4-3.7h1.7l-3.3,5v3.3h-1.5V120.5z"/>
			</g>
			<g>
				<path d="M657.6,128.4h2.1c1.3,0,2.1,0.7,2.1,1.8v0c0,1.2-1,1.8-2.2,1.8h-1.4v2h-0.6V128.4z M659.6,131.4c0.9,0,1.5-0.5,1.5-1.2
					v0c0-0.8-0.6-1.2-1.5-1.2h-1.4v2.5H659.6z"/>
				<path d="M665.4,128.4h0.6l2.6,5.6h-0.7l-0.7-1.5h-3l-0.7,1.5h-0.6L665.4,128.4z M666.9,131.9l-1.3-2.9l-1.3,2.9H666.9z"/>
				<path d="M671.3,129h-1.9v-0.6h4.4v0.6H672v5h-0.6V129z"/>
				<path d="M677.5,129h-1.9v-0.6h4.4v0.6h-1.9v5h-0.6V129z"/>
				<path d="M682.1,128.4h4v0.6h-3.4v1.9h3.1v0.6h-3.1v2h3.5v0.6h-4.1V128.4z"/>
				<path d="M688.5,128.4h2.4c0.7,0,1.2,0.2,1.6,0.6c0.3,0.3,0.4,0.7,0.4,1.1v0c0,0.9-0.6,1.5-1.5,1.6l1.7,2.3h-0.8l-1.6-2.2h-1.6
					v2.2h-0.6V128.4z M690.8,131.2c0.8,0,1.4-0.4,1.4-1.2v0c0-0.7-0.5-1.1-1.4-1.1h-1.7v2.3H690.8z"/>
				<path d="M695.2,128.4h0.6l3.5,4.5v-4.5h0.6v5.6h-0.5l-3.6-4.6v4.6h-0.6V128.4z"/>
				<path d="M702.1,133.2l0.4-0.5c0.6,0.5,1.1,0.8,1.9,0.8c0.8,0,1.2-0.4,1.2-1v0c0-0.5-0.3-0.8-1.5-1.1c-1.3-0.3-1.9-0.7-1.9-1.6v0
					c0-0.9,0.8-1.5,1.8-1.5c0.8,0,1.4,0.2,2,0.7l-0.4,0.5c-0.5-0.4-1-0.6-1.6-0.6c-0.7,0-1.2,0.4-1.2,0.9v0c0,0.5,0.3,0.8,1.5,1.1
					c1.2,0.3,1.8,0.7,1.8,1.6v0c0,1-0.8,1.6-1.9,1.6C703.5,134.1,702.8,133.8,702.1,133.2z"/>
				<path d="M715.1,133.2c-0.5,0.6-1.1,0.9-1.8,0.9c-1,0-1.8-0.6-1.8-1.6v0c0-0.7,0.5-1.3,1.4-1.6c-0.4-0.4-0.6-0.8-0.6-1.2v0
					c0-0.7,0.6-1.3,1.5-1.3c0.8,0,1.4,0.6,1.4,1.3v0c0,0.7-0.5,1.2-1.3,1.5l1.3,1.3c0.2-0.4,0.5-0.8,0.7-1.2l0.5,0.2
					c-0.2,0.5-0.5,1-0.8,1.4l1,1l-0.5,0.4L715.1,133.2z M714.7,132.8l-1.5-1.5c-0.7,0.3-1.1,0.7-1.1,1.2v0c0,0.6,0.5,1.1,1.2,1.1
					C713.8,133.5,714.3,133.3,714.7,132.8z M714.5,129.6L714.5,129.6c0-0.5-0.3-0.8-0.8-0.8c-0.5,0-0.8,0.4-0.8,0.8v0
					c0,0.3,0.1,0.6,0.6,1C714.2,130.4,714.5,130.1,714.5,129.6z"/>
				<path d="M721.8,128.4h2.1c1.3,0,2.1,0.7,2.1,1.8v0c0,1.2-1,1.8-2.2,1.8h-1.4v2h-0.6V128.4z M723.8,131.4c0.9,0,1.5-0.5,1.5-1.2
					v0c0-0.8-0.6-1.2-1.5-1.2h-1.4v2.5H723.8z"/>
				<path d="M728.1,128.4h4v0.6h-3.4v1.9h3.1v0.6h-3.1v2h3.5v0.6h-4.1V128.4z"/>
				<path d="M734.4,128.4h2.4c0.7,0,1.2,0.2,1.6,0.6c0.3,0.3,0.4,0.7,0.4,1.1v0c0,0.9-0.6,1.5-1.5,1.6l1.7,2.3h-0.8l-1.6-2.2h-1.6
					v2.2h-0.6V128.4z M736.8,131.2c0.8,0,1.4-0.4,1.4-1.2v0c0-0.7-0.5-1.1-1.4-1.1h-1.7v2.3H736.8z"/>
				<path d="M740.8,133.2l0.4-0.5c0.6,0.5,1.1,0.8,1.9,0.8c0.8,0,1.2-0.4,1.2-1v0c0-0.5-0.3-0.8-1.5-1.1c-1.3-0.3-1.9-0.7-1.9-1.6v0
					c0-0.9,0.8-1.5,1.8-1.5c0.8,0,1.4,0.2,2,0.7l-0.4,0.5c-0.5-0.4-1-0.6-1.6-0.6c-0.7,0-1.2,0.4-1.2,0.9v0c0,0.5,0.3,0.8,1.5,1.1
					c1.2,0.3,1.8,0.7,1.8,1.6v0c0,1-0.8,1.6-1.9,1.6C742.2,134.1,741.5,133.8,740.8,133.2z"/>
				<path d="M747,131.2L747,131.2c0-1.6,1.2-2.9,2.9-2.9s2.8,1.3,2.8,2.9v0c0,1.5-1.2,2.9-2.9,2.9C748.2,134.1,747,132.7,747,131.2z
					 M752.1,131.2L752.1,131.2c0-1.3-0.9-2.3-2.2-2.3s-2.2,1-2.2,2.3v0c0,1.3,0.9,2.3,2.2,2.3S752.1,132.5,752.1,131.2z"/>
				<path d="M755,128.4h0.6l3.5,4.5v-4.5h0.6v5.6h-0.5l-3.6-4.6v4.6H755V128.4z"/>
				<path d="M764.4,128.4h0.6l2.6,5.6h-0.7l-0.7-1.5h-3l-0.7,1.5h-0.6L764.4,128.4z M765.9,131.9l-1.3-2.9l-1.3,2.9H765.9z"/>
				<path d="M769.6,128.4h0.6v5h3.2v0.6h-3.8V128.4z"/>
				<path d="M775.5,128.4h0.6v5.6h-0.6V128.4z"/>
				<path d="M780.3,129h-1.9v-0.6h4.4v0.6h-1.9v5h-0.6V129z"/>
				<path d="M786.7,131.8l-2.3-3.4h0.8l1.9,2.8l1.9-2.8h0.7l-2.3,3.4v2.2h-0.6V131.8z"/>
			</g>
		</g>
		
			<use xlink:href="#Document_-_Brand_Strategy"  width="24.5" height="34.1" x="-24.4" y="-16.3" transform="matrix(1 0 0 -1 650.7723 126.6587)" overflow="visible"/>
	</g>
</g>
<g>
	<g>
		<path d="M467.8,202.4c0-29.2,0-48.8,0-93.7"/>
		<g>
			<path fill="none" stroke="#000000" stroke-width="2" stroke-miterlimit="10" d="M467.8,202.4c0-29.2,0-48.8,0-93.7"/>
			<g>
				<polygon points="472.8,201 467.8,209.6 462.9,201 				"/>
			</g>
		</g>
	</g>
	<g>
		<g>
			<g>
				<path d="M493.7,79.2c-0.7,0.5-1.6,0.8-2.6,0.8c-2.6,0-4.4-2-4.4-4.3v0c0-2.4,1.8-4.3,4.4-4.3c2.6,0,4.4,2,4.4,4.3v0
					c0,0.9-0.3,1.8-0.9,2.6l1,0.8l-0.9,1.1L493.7,79.2z M492.6,78.2l-1.4-1.2l0.9-1.1l1.5,1.3c0.3-0.4,0.4-1,0.4-1.6v0
					c0-1.6-1.2-3-2.9-3s-2.8,1.3-2.8,3v0c0,1.6,1.2,3,2.9,3C491.8,78.6,492.2,78.4,492.6,78.2z"/>
				<path d="M497.2,76.3v-4.8h1.5v4.8c0,1.6,0.8,2.4,2.1,2.4c1.3,0,2.1-0.8,2.1-2.3v-4.8h1.5v4.8c0,2.5-1.4,3.8-3.6,3.8
					C498.6,79.9,497.2,78.7,497.2,76.3z"/>
				<path d="M509.1,71.4h1.4l3.7,8.5h-1.6l-0.9-2h-4l-0.9,2h-1.5L509.1,71.4z M511.2,76.5l-1.5-3.4l-1.4,3.4H511.2z"/>
				<path d="M515.6,71.4h1.4l4.5,5.8v-5.8h1.5v8.4h-1.2l-4.6-6v6h-1.5V71.4z"/>
				<path d="M527.2,72.8h-2.7v-1.4h6.8v1.4h-2.7v7h-1.5V72.8z"/>
				<path d="M533,71.4h1.5v8.4H533V71.4z"/>
				<path d="M538.8,72.8h-2.7v-1.4h6.8v1.4h-2.7v7h-1.5V72.8z"/>
				<path d="M546.4,71.4h1.4l3.7,8.5h-1.6l-0.9-2h-4l-0.9,2h-1.5L546.4,71.4z M548.5,76.5l-1.5-3.4l-1.4,3.4H548.5z"/>
				<path d="M553.9,72.8h-2.7v-1.4h6.8v1.4h-2.7v7h-1.5V72.8z"/>
				<path d="M559.6,71.4h1.5v8.4h-1.5V71.4z"/>
				<path d="M562.6,71.4h1.6l2.5,6.5l2.5-6.5h1.6l-3.5,8.5h-1.3L562.6,71.4z"/>
				<path d="M572.4,71.4h6.2v1.3h-4.7v2.2h4.2v1.3h-4.2v2.3h4.8v1.3h-6.3V71.4z"/>
				<path d="M584,71.4h3.7c1.1,0,1.9,0.3,2.4,0.8c0.4,0.5,0.7,1.1,0.7,1.8v0c0,1.4-0.8,2.2-2,2.5l2.3,3.2h-1.7l-2.1-2.9h-1.8v2.9
					H584V71.4z M587.6,75.6c1.1,0,1.7-0.6,1.7-1.4v0c0-0.9-0.6-1.4-1.7-1.4h-2.1v2.8H587.6z"/>
				<path d="M592.7,71.4h6.2v1.3h-4.7v2.2h4.2v1.3h-4.2v2.3h4.8v1.3h-6.3V71.4z"/>
				<path d="M600.7,71.4h3.3c2,0,3.2,1.1,3.2,2.8v0c0,1.9-1.5,2.9-3.4,2.9h-1.7v2.7h-1.5V71.4z M603.9,75.8c1.1,0,1.8-0.6,1.8-1.5v0
					c0-1-0.7-1.5-1.8-1.5h-1.7v3H603.9z"/>
				<path d="M608.4,75.6L608.4,75.6c0-2.4,1.8-4.4,4.4-4.4c2.6,0,4.4,2,4.4,4.3v0c0,2.4-1.8,4.3-4.4,4.3
					C610.2,80,608.4,78,608.4,75.6z M615.6,75.6L615.6,75.6c0-1.7-1.2-3-2.9-3s-2.8,1.3-2.8,3v0c0,1.6,1.2,3,2.9,3
					S615.6,77.3,615.6,75.6z"/>
				<path d="M618.9,71.4h3.7c1.1,0,1.9,0.3,2.4,0.8c0.4,0.5,0.7,1.1,0.7,1.8v0c0,1.4-0.8,2.2-2,2.5l2.3,3.2h-1.7l-2.1-2.9h-1.8v2.9
					h-1.5V71.4z M622.6,75.6c1.1,0,1.7-0.6,1.7-1.4v0c0-0.9-0.6-1.4-1.7-1.4h-2.1v2.8H622.6z"/>
				<path d="M629.6,72.8H627v-1.4h6.8v1.4h-2.7v7h-1.5V72.8z"/>
			</g>
			<g>
				<path d="M486.9,84.4h4V85h-3.4v1.9h3.1v0.6h-3.1v2h3.5V90h-4.1V84.4z"/>
				<path d="M494.9,87.1l-2.1-2.7h0.7l1.7,2.3l1.7-2.3h0.7l-2.1,2.7l2.2,2.9h-0.8l-1.8-2.4l-1.8,2.4h-0.7L494.9,87.1z"/>
				<path d="M500,84.4h2.1c1.3,0,2.1,0.7,2.1,1.8v0c0,1.2-1,1.8-2.2,1.8h-1.4v2H500V84.4z M502,87.4c0.9,0,1.5-0.5,1.5-1.2v0
					c0-0.8-0.6-1.2-1.5-1.2h-1.4v2.5H502z"/>
				<path d="M506.3,84.4h4V85h-3.4v1.9h3.1v0.6h-3.1v2h3.5V90h-4.1V84.4z"/>
				<path d="M512.3,87.2L512.3,87.2c0-1.6,1.2-2.9,2.8-2.9c1,0,1.6,0.4,2.2,0.9l-0.4,0.5c-0.5-0.4-1-0.8-1.8-0.8
					c-1.2,0-2.2,1-2.2,2.3v0c0,1.3,0.9,2.3,2.2,2.3c0.8,0,1.3-0.3,1.8-0.8l0.4,0.4c-0.6,0.6-1.2,1-2.2,1
					C513.5,90.1,512.3,88.8,512.3,87.2z"/>
				<path d="M520.9,85H519v-0.6h4.4V85h-1.9v5h-0.6V85z"/>
				<path d="M526.9,84.4h0.6l2.6,5.6h-0.7l-0.7-1.5h-3L525,90h-0.6L526.9,84.4z M528.5,87.9l-1.3-2.9l-1.3,2.9H528.5z"/>
				<path d="M532.9,85H531v-0.6h4.4V85h-1.9v5h-0.6V85z"/>
				<path d="M537.6,84.4h0.6V90h-0.6V84.4z"/>
				<path d="M540.6,87.2L540.6,87.2c0-1.6,1.2-2.9,2.9-2.9s2.8,1.3,2.8,2.9v0c0,1.5-1.2,2.9-2.9,2.9
					C541.8,90.1,540.6,88.7,540.6,87.2z M545.7,87.2L545.7,87.2c0-1.3-0.9-2.3-2.2-2.3s-2.2,1-2.2,2.3v0c0,1.3,0.9,2.3,2.2,2.3
					S545.7,88.5,545.7,87.2z"/>
				<path d="M548.6,84.4h0.6l3.5,4.5v-4.5h0.6V90h-0.5l-3.6-4.6V90h-0.6V84.4z"/>
				<path d="M555.5,89.2l0.4-0.5c0.6,0.5,1.1,0.8,1.9,0.8c0.8,0,1.2-0.4,1.2-1v0c0-0.5-0.3-0.8-1.5-1.1c-1.3-0.3-1.9-0.7-1.9-1.6v0
					c0-0.9,0.8-1.5,1.8-1.5c0.8,0,1.4,0.2,2,0.7l-0.4,0.5c-0.5-0.4-1-0.6-1.6-0.6c-0.7,0-1.2,0.4-1.2,0.9v0c0,0.5,0.3,0.8,1.5,1.1
					c1.2,0.3,1.8,0.7,1.8,1.6v0c0,1-0.8,1.6-1.9,1.6C556.9,90.1,556.2,89.8,555.5,89.2z"/>
				<path d="M568.5,89.2c-0.5,0.6-1.1,0.9-1.8,0.9c-1,0-1.8-0.6-1.8-1.6v0c0-0.7,0.5-1.3,1.4-1.6c-0.4-0.4-0.6-0.8-0.6-1.2v0
					c0-0.7,0.6-1.3,1.5-1.3c0.8,0,1.4,0.6,1.4,1.3v0c0,0.7-0.5,1.2-1.3,1.5l1.3,1.3c0.2-0.4,0.5-0.8,0.7-1.2l0.5,0.2
					c-0.2,0.5-0.5,1-0.8,1.4l1,1l-0.5,0.4L568.5,89.2z M568.1,88.8l-1.5-1.5c-0.7,0.3-1.1,0.7-1.1,1.2v0c0,0.6,0.5,1.1,1.2,1.1
					C567.2,89.5,567.7,89.3,568.1,88.8z M568,85.6L568,85.6c0-0.5-0.3-0.8-0.8-0.8c-0.5,0-0.8,0.4-0.8,0.8v0c0,0.3,0.1,0.6,0.6,1
					C567.6,86.4,568,86.1,568,85.6z"/>
				<path d="M575.2,84.4h1.9c1.8,0,3,1.2,3,2.8v0c0,1.6-1.2,2.8-3,2.8h-1.9V84.4z M577.2,89.4c1.4,0,2.3-1,2.3-2.2v0
					c0-1.2-0.9-2.2-2.3-2.2h-1.3v4.4H577.2z"/>
				<path d="M582.5,84.4h4V85h-3.4v1.9h3.1v0.6h-3.1v2h3.5V90h-4.1V84.4z"/>
				<path d="M588.4,89.2l0.4-0.5c0.6,0.5,1.1,0.8,1.9,0.8c0.8,0,1.2-0.4,1.2-1v0c0-0.5-0.3-0.8-1.5-1.1c-1.3-0.3-1.9-0.7-1.9-1.6v0
					c0-0.9,0.8-1.5,1.8-1.5c0.8,0,1.4,0.2,2,0.7l-0.4,0.5c-0.5-0.4-1-0.6-1.6-0.6c-0.7,0-1.2,0.4-1.2,0.9v0c0,0.5,0.3,0.8,1.5,1.1
					c1.2,0.3,1.8,0.7,1.8,1.6v0c0,1-0.8,1.6-1.9,1.6C589.8,90.1,589.1,89.8,588.4,89.2z"/>
				<path d="M594.9,84.4h0.6V90h-0.6V84.4z"/>
				<path d="M598.1,84.4h2.4c0.7,0,1.2,0.2,1.6,0.6c0.3,0.3,0.4,0.7,0.4,1.1v0c0,0.9-0.6,1.5-1.5,1.6l1.7,2.3H602l-1.6-2.2h-1.6V90
					h-0.6V84.4z M600.5,87.2c0.8,0,1.4-0.4,1.4-1.2v0c0-0.7-0.5-1.1-1.4-1.1h-1.7v2.3H600.5z"/>
				<path d="M604.9,84.4h4V85h-3.4v1.9h3.1v0.6h-3.1v2h3.5V90h-4.1V84.4z"/>
				<path d="M610.8,89.2l0.4-0.5c0.6,0.5,1.1,0.8,1.9,0.8c0.8,0,1.2-0.4,1.2-1v0c0-0.5-0.3-0.8-1.5-1.1c-1.3-0.3-1.9-0.7-1.9-1.6v0
					c0-0.9,0.8-1.5,1.8-1.5c0.8,0,1.4,0.2,2,0.7l-0.4,0.5c-0.5-0.4-1-0.6-1.6-0.6c-0.7,0-1.2,0.4-1.2,0.9v0c0,0.5,0.3,0.8,1.5,1.1
					c1.2,0.3,1.8,0.7,1.8,1.6v0c0,1-0.8,1.6-1.9,1.6C612.2,90.1,611.5,89.8,610.8,89.2z"/>
			</g>
		</g>
		
			<use xlink:href="#Document_-_Quant"  width="24.5" height="34.1" x="-24.5" y="-16.3" transform="matrix(1 0 0 -1 480.1046 80.2134)" overflow="visible"/>
	</g>
</g>
<g>
	<line opacity="0.4" fill="none" stroke="#000000" stroke-miterlimit="10" x1="151.2" y1="202" x2="151.2" y2="182.7"/>
	<g>
		<path d="M150.6,168h5.2v1.1h-4v1.9h3.5v1.1h-3.5v2.8h-1.2V168z"/>
		<path d="M157.2,168h1.2v7h-1.2V168z"/>
		<path d="M160.3,168h5.2v1.1h-4v1.8h3.5v1.1h-3.5v1.9h4v1.1h-5.2V168z"/>
		<path d="M167,168h1.2v5.9h3.7v1.1H167V168z"/>
		<path d="M173.2,168h2.6c2.2,0,3.7,1.5,3.7,3.5v0c0,2-1.5,3.5-3.7,3.5h-2.6V168z M175.8,173.9c1.5,0,2.4-1,2.4-2.4v0
			c0-1.4-1-2.4-2.4-2.4h-1.4v4.8H175.8z"/>
		<path d="M183.6,174l0.7-0.9c0.7,0.6,1.3,0.9,2.2,0.9c0.8,0,1.2-0.3,1.2-0.9v0c0-0.5-0.3-0.8-1.6-1.1c-1.5-0.4-2.3-0.8-2.3-2.1v0
			c0-1.2,1-2,2.4-2c1,0,1.8,0.3,2.5,0.9l-0.7,0.9c-0.6-0.5-1.3-0.7-1.9-0.7c-0.7,0-1.1,0.4-1.1,0.8v0c0,0.5,0.3,0.8,1.7,1.1
			c1.5,0.4,2.2,0.9,2.2,2v0c0,1.3-1,2.1-2.5,2.1C185.4,175.1,184.4,174.7,183.6,174z"/>
		<path d="M192,169.1h-2.2V168h5.7v1.1h-2.2v5.9H192V169.1z"/>
		<path d="M196.7,172v-4h1.2v4c0,1.3,0.7,2,1.8,2c1.1,0,1.8-0.7,1.8-1.9v-4h1.2v4c0,2.1-1.2,3.1-3,3.1
			C197.8,175.1,196.7,174.1,196.7,172z"/>
		<path d="M204.3,168h2.6c2.2,0,3.7,1.5,3.7,3.5v0c0,2-1.5,3.5-3.7,3.5h-2.6V168z M207,173.9c1.5,0,2.4-1,2.4-2.4v0
			c0-1.4-1-2.4-2.4-2.4h-1.4v4.8H207z"/>
		<path d="M213.6,172.2l-2.8-4.2h1.4l2,3.1l2-3.1h1.4l-2.8,4.2v2.8h-1.2V172.2z"/>
	</g>
</g>
<g>
	<line opacity="0.4" fill="none" stroke="#000000" stroke-miterlimit="10" x1="390.2" y1="202" x2="390.2" y2="182.7"/>
	<g>
		<path d="M346.3,168h1.2v5.9h3.7v1.1h-4.9V168z"/>
		<path d="M354.9,168h1.1l3.1,7h-1.3l-0.7-1.7h-3.3l-0.7,1.7h-1.3L354.9,168z M356.7,172.2l-1.2-2.8l-1.2,2.8H356.7z"/>
		<path d="M360,172v-4h1.2v4c0,1.3,0.7,2,1.8,2c1.1,0,1.8-0.7,1.8-1.9v-4h1.2v4c0,2.1-1.2,3.1-3,3.1C361.2,175.1,360,174.1,360,172z
			"/>
		<path d="M367.7,168h1.1l3.7,4.8V168h1.2v7h-1l-3.9-5v5h-1.2V168z"/>
		<path d="M375.3,171.5L375.3,171.5c0-2,1.5-3.6,3.6-3.6c1.3,0,2.1,0.5,2.7,1.1l-0.8,0.9c-0.6-0.5-1.2-0.9-2-0.9
			c-1.3,0-2.3,1.1-2.3,2.5v0c0,1.4,1,2.5,2.3,2.5c0.9,0,1.4-0.3,2-0.9l0.8,0.8c-0.7,0.8-1.5,1.2-2.8,1.2
			C376.8,175.1,375.3,173.5,375.3,171.5z"/>
		<path d="M383,168h1.2v2.9h3.3V168h1.2v7h-1.2v-2.9h-3.3v2.9H383V168z"/>
		<path d="M393.1,174l0.7-0.9c0.7,0.6,1.3,0.9,2.2,0.9c0.8,0,1.2-0.3,1.2-0.9v0c0-0.5-0.3-0.8-1.6-1.1c-1.5-0.4-2.3-0.8-2.3-2.1v0
			c0-1.2,1-2,2.4-2c1,0,1.8,0.3,2.5,0.9l-0.7,0.9c-0.6-0.5-1.3-0.7-1.9-0.7c-0.7,0-1.1,0.4-1.1,0.8v0c0,0.5,0.3,0.8,1.7,1.1
			c1.5,0.4,2.2,0.9,2.2,2v0c0,1.3-1,2.1-2.5,2.1C394.9,175.1,393.9,174.7,393.1,174z"/>
		<path d="M399.8,172v-4h1.2v4c0,1.3,0.7,2,1.8,2c1.1,0,1.8-0.7,1.8-1.9v-4h1.2v4c0,2.1-1.2,3.1-3,3.1
			C401,175.1,399.8,174.1,399.8,172z"/>
		<path d="M407.5,168h3.1c0.9,0,1.6,0.3,2,0.7c0.4,0.4,0.6,0.9,0.6,1.5v0c0,1.1-0.7,1.8-1.7,2.1l1.9,2.6H412l-1.7-2.4h-1.5v2.4h-1.2
			V168z M410.5,171.5c0.9,0,1.4-0.5,1.4-1.2v0c0-0.7-0.5-1.2-1.4-1.2h-1.8v2.3H410.5z"/>
		<path d="M414,168h1.4l2.1,5.4l2.1-5.4h1.3l-2.9,7h-1.1L414,168z"/>
		<path d="M422.1,168h5.2v1.1h-4v1.8h3.5v1.1h-3.5v1.9h4v1.1h-5.2V168z"/>
		<path d="M430.8,172.2L428,168h1.4l2,3.1l2-3.1h1.4l-2.8,4.2v2.8h-1.2V172.2z"/>
	</g>
</g>
<g>
	<line opacity="0.4" fill="none" stroke="#000000" stroke-miterlimit="10" x1="484.6" y1="202" x2="484.6" y2="182.7"/>
	<g>
		<path d="M485,174l0.7-0.9c0.7,0.6,1.3,0.9,2.2,0.9c0.8,0,1.2-0.3,1.2-0.9v0c0-0.5-0.3-0.8-1.6-1.1c-1.5-0.4-2.3-0.8-2.3-2.1v0
			c0-1.2,1-2,2.4-2c1,0,1.8,0.3,2.5,0.9l-0.7,0.9c-0.6-0.5-1.3-0.7-1.9-0.7c-0.7,0-1.1,0.4-1.1,0.8v0c0,0.5,0.3,0.8,1.7,1.1
			c1.5,0.4,2.2,0.9,2.2,2v0c0,1.3-1,2.1-2.5,2.1C486.9,175.1,485.9,174.7,485,174z"/>
		<path d="M493.5,169.1h-2.2V168h5.7v1.1h-2.2v5.9h-1.2V169.1z"/>
		<path d="M498.2,168h3.1c0.9,0,1.6,0.3,2,0.7c0.4,0.4,0.6,0.9,0.6,1.5v0c0,1.1-0.7,1.8-1.7,2.1l1.9,2.6h-1.4l-1.7-2.4h-1.5v2.4
			h-1.2V168z M501.2,171.5c0.9,0,1.4-0.5,1.4-1.2v0c0-0.7-0.5-1.2-1.4-1.2h-1.8v2.3H501.2z"/>
		<path d="M507.9,168h1.1l3.1,7h-1.3l-0.7-1.7h-3.3l-0.7,1.7h-1.3L507.9,168z M509.7,172.2l-1.2-2.8l-1.2,2.8H509.7z"/>
		<path d="M514.2,169.1H512V168h5.7v1.1h-2.2v5.9h-1.2V169.1z"/>
		<path d="M518.9,168h5.2v1.1h-4v1.8h3.5v1.1h-3.5v1.9h4v1.1h-5.2V168z"/>
		<path d="M525.3,171.5L525.3,171.5c0-2,1.5-3.6,3.6-3.6c1.2,0,2,0.3,2.7,0.9l-0.8,0.9c-0.5-0.5-1.1-0.7-2-0.7
			c-1.3,0-2.3,1.1-2.3,2.5v0c0,1.4,0.9,2.5,2.4,2.5c0.7,0,1.3-0.2,1.7-0.5v-1.3h-1.8v-1.1h3v2.9c-0.7,0.6-1.7,1.1-2.9,1.1
			C526.8,175.1,525.3,173.6,525.3,171.5z"/>
		<path d="M535.2,172.2l-2.8-4.2h1.4l2,3.1l2-3.1h1.4l-2.8,4.2v2.8h-1.2V172.2z"/>
		<path d="M543.3,168h1.2v3.5l3.3-3.5h1.5l-2.9,3l3,4H548l-2.4-3.1l-1.1,1.1v2h-1.2V168z"/>
		<path d="M550.6,168h1.2v7h-1.2V168z"/>
		<path d="M553.4,171.5L553.4,171.5c0-2,1.5-3.6,3.6-3.6c1.3,0,2.1,0.5,2.7,1.1l-0.8,0.9c-0.6-0.5-1.2-0.9-2-0.9
			c-1.3,0-2.3,1.1-2.3,2.5v0c0,1.4,1,2.5,2.3,2.5c0.9,0,1.4-0.3,2-0.9l0.8,0.8c-0.7,0.8-1.5,1.2-2.8,1.2
			C555,175.1,553.4,173.5,553.4,171.5z"/>
		<path d="M561.1,168h1.2v3.5l3.3-3.5h1.5l-2.9,3l3,4h-1.5l-2.4-3.1l-1.1,1.1v2h-1.2V168z"/>
		<path d="M567.5,171.5L567.5,171.5c0-2,1.5-3.6,3.7-3.6c2.1,0,3.6,1.6,3.6,3.6v0c0,2-1.5,3.6-3.7,3.6S567.5,173.5,567.5,171.5z
			 M573.6,171.5L573.6,171.5c0-1.4-1-2.5-2.4-2.5s-2.4,1.1-2.4,2.5v0c0,1.4,1,2.5,2.4,2.5S573.6,172.9,573.6,171.5z"/>
		<path d="M576.3,168h5.2v1.1h-4v1.9h3.5v1.1h-3.5v2.8h-1.2V168z"/>
		<path d="M582.9,168h5.2v1.1h-4v1.9h3.5v1.1h-3.5v2.8h-1.2V168z"/>
	</g>
</g>
<g>
	<line opacity="0.4" fill="none" stroke="#000000" stroke-miterlimit="10" x1="721.2" y1="202" x2="721.2" y2="182.7"/>
	<g>
		<path d="M722.1,168h1.3l2.1,3.3l2.1-3.3h1.3v7h-1.2v-5l-2.2,3.3h0l-2.2-3.3v5h-1.2V168z"/>
		<path d="M733.3,168h1.1l3.1,7h-1.3l-0.7-1.7h-3.3l-0.7,1.7h-1.3L733.3,168z M735.1,172.2l-1.2-2.8l-1.2,2.8H735.1z"/>
		<path d="M738.7,168h3.1c0.9,0,1.6,0.3,2,0.7c0.4,0.4,0.6,0.9,0.6,1.5v0c0,1.1-0.7,1.8-1.7,2.1l1.9,2.6h-1.4l-1.7-2.4h-1.5v2.4
			h-1.2V168z M741.7,171.5c0.9,0,1.4-0.5,1.4-1.2v0c0-0.7-0.5-1.2-1.4-1.2h-1.8v2.3H741.7z"/>
		<path d="M745.9,168h1.2v3.5l3.3-3.5h1.5l-2.9,3l3,4h-1.5l-2.4-3.1l-1.1,1.1v2h-1.2V168z"/>
		<path d="M753.2,168h5.2v1.1h-4v1.8h3.5v1.1h-3.5v1.9h4v1.1h-5.2V168z"/>
		<path d="M761.6,169.1h-2.2V168h5.7v1.1h-2.2v5.9h-1.2V169.1z"/>
		<path d="M766.4,168h1.2v7h-1.2V168z"/>
		<path d="M769.5,168h1.1l3.7,4.8V168h1.2v7h-1l-3.9-5v5h-1.2V168z"/>
		<path d="M777.1,171.5L777.1,171.5c0-2,1.5-3.6,3.6-3.6c1.2,0,2,0.3,2.7,0.9l-0.8,0.9c-0.5-0.5-1.1-0.7-2-0.7
			c-1.3,0-2.3,1.1-2.3,2.5v0c0,1.4,1,2.5,2.4,2.5c0.7,0,1.3-0.2,1.7-0.5v-1.3h-1.8v-1.1h3v2.9c-0.7,0.6-1.7,1.1-2.9,1.1
			C778.6,175.1,777.1,173.6,777.1,171.5z"/>
		<path d="M788.3,168h1.2v3.5l3.3-3.5h1.5l-2.9,3l3,4H793l-2.4-3.1l-1.1,1.1v2h-1.2V168z"/>
		<path d="M795.6,168h1.2v7h-1.2V168z"/>
		<path d="M798.4,171.5L798.4,171.5c0-2,1.5-3.6,3.6-3.6c1.3,0,2.1,0.5,2.7,1.1l-0.8,0.9c-0.6-0.5-1.2-0.9-2-0.9
			c-1.3,0-2.3,1.1-2.3,2.5v0c0,1.4,1,2.5,2.3,2.5c0.9,0,1.4-0.3,2-0.9l0.8,0.8c-0.7,0.8-1.5,1.2-2.8,1.2
			C799.9,175.1,798.4,173.5,798.4,171.5z"/>
		<path d="M806.1,168h1.2v3.5l3.3-3.5h1.5l-2.9,3l3,4h-1.5l-2.4-3.1l-1.1,1.1v2h-1.2V168z"/>
		<path d="M812.5,171.5L812.5,171.5c0-2,1.5-3.6,3.7-3.6s3.6,1.6,3.6,3.6v0c0,2-1.5,3.6-3.7,3.6C814,175.1,812.5,173.5,812.5,171.5z
			 M818.5,171.5L818.5,171.5c0-1.4-1-2.5-2.4-2.5c-1.4,0-2.4,1.1-2.4,2.5v0c0,1.4,1,2.5,2.4,2.5C817.5,174,818.5,172.9,818.5,171.5z
			"/>
		<path d="M821.3,168h5.2v1.1h-4v1.9h3.5v1.1h-3.5v2.8h-1.2V168z"/>
		<path d="M827.9,168h5.2v1.1h-4v1.9h3.5v1.1h-3.5v2.8h-1.2V168z"/>
	</g>
</g>
</svg>
