<?xml version="1.0" encoding="utf-8"?>
<!-- Generator: Adobe Illustrator 18.0.0, SVG Export Plug-In . SVG Version: 6.00 Build 0)  -->
<!DOCTYPE svg PUBLIC "-//W3C//DTD SVG 1.1//EN" "http://www.w3.org/Graphics/SVG/1.1/DTD/svg11.dtd">
<svg version="1.1" id="Layer_1" xmlns="http://www.w3.org/2000/svg" xmlns:xlink="http://www.w3.org/1999/xlink" x="0px" y="0px"
	 viewBox="0 0 1280 324" enable-background="new 0 0 1280 324" xml:space="preserve">
<pattern  y="-950" width="72" height="72" patternUnits="userSpaceOnUse" id="_x31_0_lpi_50_x25_" viewBox="72.2 -72 72 72" overflow="visible">
	<g>
		<polygon fill="none" points="72.2,-72 144.2,-72 144.2,0 72.2,0 		"/>
		<g>
			<line fill="none" stroke="#000000" stroke-width="3.6" x1="144" y1="-3.6" x2="216.5" y2="-3.6"/>
			<line fill="none" stroke="#000000" stroke-width="3.6" x1="144" y1="-18" x2="216.5" y2="-18"/>
			<line fill="none" stroke="#000000" stroke-width="3.6" x1="144" y1="-32.4" x2="216.5" y2="-32.4"/>
			<line fill="none" stroke="#000000" stroke-width="3.6" x1="144" y1="-46.8" x2="216.5" y2="-46.8"/>
			<line fill="none" stroke="#000000" stroke-width="3.6" x1="144" y1="-61.2" x2="216.5" y2="-61.2"/>
			<line fill="none" stroke="#000000" stroke-width="3.6" x1="144" y1="-10.8" x2="216.5" y2="-10.8"/>
			<line fill="none" stroke="#000000" stroke-width="3.6" x1="144" y1="-25.2" x2="216.5" y2="-25.2"/>
			<line fill="none" stroke="#000000" stroke-width="3.6" x1="144" y1="-39.6" x2="216.5" y2="-39.6"/>
			<line fill="none" stroke="#000000" stroke-width="3.6" x1="144" y1="-54" x2="216.5" y2="-54"/>
			<line fill="none" stroke="#000000" stroke-width="3.6" x1="144" y1="-68.4" x2="216.5" y2="-68.4"/>
		</g>
		<g>
			<line fill="none" stroke="#000000" stroke-width="3.6" x1="72" y1="-3.6" x2="144.5" y2="-3.6"/>
			<line fill="none" stroke="#000000" stroke-width="3.6" x1="72" y1="-18" x2="144.5" y2="-18"/>
			<line fill="none" stroke="#000000" stroke-width="3.6" x1="72" y1="-32.4" x2="144.5" y2="-32.4"/>
			<line fill="none" stroke="#000000" stroke-width="3.6" x1="72" y1="-46.8" x2="144.5" y2="-46.8"/>
			<line fill="none" stroke="#000000" stroke-width="3.6" x1="72" y1="-61.2" x2="144.5" y2="-61.2"/>
			<line fill="none" stroke="#000000" stroke-width="3.6" x1="72" y1="-10.8" x2="144.5" y2="-10.8"/>
			<line fill="none" stroke="#000000" stroke-width="3.6" x1="72" y1="-25.2" x2="144.5" y2="-25.2"/>
			<line fill="none" stroke="#000000" stroke-width="3.6" x1="72" y1="-39.6" x2="144.5" y2="-39.6"/>
			<line fill="none" stroke="#000000" stroke-width="3.6" x1="72" y1="-54" x2="144.5" y2="-54"/>
			<line fill="none" stroke="#000000" stroke-width="3.6" x1="72" y1="-68.4" x2="144.5" y2="-68.4"/>
		</g>
		<g>
			<line fill="none" stroke="#000000" stroke-width="3.6" x1="0" y1="-3.6" x2="72.5" y2="-3.6"/>
			<line fill="none" stroke="#000000" stroke-width="3.6" x1="0" y1="-18" x2="72.5" y2="-18"/>
			<line fill="none" stroke="#000000" stroke-width="3.6" x1="0" y1="-32.4" x2="72.5" y2="-32.4"/>
			<line fill="none" stroke="#000000" stroke-width="3.6" x1="0" y1="-46.8" x2="72.5" y2="-46.8"/>
			<line fill="none" stroke="#000000" stroke-width="3.6" x1="0" y1="-61.2" x2="72.5" y2="-61.2"/>
			<line fill="none" stroke="#000000" stroke-width="3.6" x1="0" y1="-10.8" x2="72.5" y2="-10.8"/>
			<line fill="none" stroke="#000000" stroke-width="3.6" x1="0" y1="-25.2" x2="72.5" y2="-25.2"/>
			<line fill="none" stroke="#000000" stroke-width="3.6" x1="0" y1="-39.6" x2="72.5" y2="-39.6"/>
			<line fill="none" stroke="#000000" stroke-width="3.6" x1="0" y1="-54" x2="72.5" y2="-54"/>
			<line fill="none" stroke="#000000" stroke-width="3.6" x1="0" y1="-68.4" x2="72.5" y2="-68.4"/>
		</g>
	</g>
</pattern>
<g>
	<line fill="none" stroke="#000000" stroke-width="0.7692" stroke-miterlimit="10" x1="146.6" y1="232" x2="1131.7" y2="232"/>
	<line fill="none" stroke="#000000" stroke-width="0.7692" stroke-miterlimit="10" x1="146.6" y1="252.9" x2="146.6" y2="211.2"/>
	<line fill="none" stroke="#000000" stroke-width="0.7692" stroke-miterlimit="10" x1="228.7" y1="242.1" x2="228.7" y2="222"/>
	<line fill="none" stroke="#000000" stroke-width="0.7692" stroke-miterlimit="10" x1="310.8" y1="242.1" x2="310.8" y2="222"/>
	<line fill="none" stroke="#000000" stroke-width="0.7692" stroke-miterlimit="10" x1="392.9" y1="242.1" x2="392.9" y2="222"/>
	<line fill="none" stroke="#000000" stroke-width="0.7692" stroke-miterlimit="10" x1="475" y1="252.9" x2="475" y2="211.2"/>
	<line fill="none" stroke="#000000" stroke-width="0.7692" stroke-miterlimit="10" x1="557.1" y1="242.1" x2="557.1" y2="222"/>
	<line fill="none" stroke="#000000" stroke-width="0.7692" stroke-miterlimit="10" x1="639.1" y1="242.1" x2="639.1" y2="222"/>
	<line fill="none" stroke="#000000" stroke-width="0.7692" stroke-miterlimit="10" x1="721.2" y1="242.1" x2="721.2" y2="222"/>
	<line fill="none" stroke="#000000" stroke-width="0.7692" stroke-miterlimit="10" x1="803.3" y1="252.9" x2="803.3" y2="211.2"/>
	<line fill="none" stroke="#000000" stroke-width="0.7692" stroke-miterlimit="10" x1="885.4" y1="242.1" x2="885.4" y2="222"/>
	<line fill="none" stroke="#000000" stroke-width="0.7692" stroke-miterlimit="10" x1="967.5" y1="242.1" x2="967.5" y2="222"/>
	<line fill="none" stroke="#000000" stroke-width="0.7692" stroke-miterlimit="10" x1="1049.6" y1="242.1" x2="1049.6" y2="222"/>
	<line fill="none" stroke="#000000" stroke-width="0.7692" stroke-miterlimit="10" x1="1131.7" y1="269.2" x2="1131.7" y2="194.9"/>
</g>
<g>
	<path d="M136.7,283.4l0.8-0.9c0.7,0.6,1.4,1,2.3,1c0.8,0,1.3-0.4,1.3-0.9v0c0-0.5-0.3-0.8-1.7-1.1c-1.6-0.4-2.4-0.8-2.4-2.2v0
		c0-1.3,1-2.1,2.5-2.1c1.1,0,1.9,0.3,2.7,0.9l-0.7,1c-0.7-0.5-1.3-0.8-2-0.8c-0.8,0-1.2,0.4-1.2,0.9v0c0,0.6,0.3,0.8,1.7,1.2
		c1.6,0.4,2.4,0.9,2.4,2.1v0c0,1.4-1.1,2.2-2.6,2.2C138.6,284.5,137.6,284.2,136.7,283.4z"/>
	<path d="M143.9,277.1h5.4v1.2h-4.2v1.9h3.7v1.2h-3.7v2h4.2v1.2h-5.5V277.1z"/>
	<path d="M150.9,277.1h2.9c1.7,0,2.8,1,2.8,2.5v0c0,1.6-1.3,2.5-2.9,2.5h-1.5v2.4h-1.3V277.1z M153.7,280.9c1,0,1.6-0.5,1.6-1.3v0
		c0-0.9-0.6-1.3-1.6-1.3h-1.5v2.6H153.7z"/>
</g>
<g>
	<path d="M463.9,280.8L463.9,280.8c0-2.1,1.6-3.8,3.8-3.8c2.3,0,3.8,1.7,3.8,3.8v0c0,2.1-1.6,3.8-3.8,3.8S463.9,282.9,463.9,280.8z
		 M470.2,280.8L470.2,280.8c0-1.4-1-2.6-2.5-2.6s-2.5,1.2-2.5,2.6v0c0,1.4,1,2.6,2.5,2.6S470.2,282.2,470.2,280.8z"/>
	<path d="M472.8,280.8L472.8,280.8c0-2.1,1.6-3.8,3.8-3.8c1.4,0,2.2,0.5,2.9,1.1l-0.8,1c-0.6-0.5-1.2-0.9-2.1-0.9
		c-1.4,0-2.4,1.2-2.4,2.6v0c0,1.4,1,2.6,2.4,2.6c0.9,0,1.5-0.4,2.1-1l0.8,0.8c-0.8,0.8-1.6,1.3-3,1.3
		C474.4,284.6,472.8,282.9,472.8,280.8z"/>
	<path d="M482.6,278.3h-2.3v-1.2h6v1.2h-2.3v6.1h-1.3V278.3z"/>
</g>
<g>
	<path d="M792,277.1h1.2l3.9,5.1v-5.1h1.3v7.3h-1.1l-4-5.2v5.2H792V277.1z"/>
	<path d="M799.9,280.8L799.9,280.8c0-2.1,1.6-3.8,3.8-3.8s3.8,1.7,3.8,3.8v0c0,2.1-1.6,3.8-3.8,3.8S799.9,282.9,799.9,280.8z
		 M806.2,280.8L806.2,280.8c0-1.4-1-2.6-2.5-2.6s-2.5,1.2-2.5,2.6v0c0,1.4,1,2.6,2.5,2.6S806.2,282.2,806.2,280.8z"/>
	<path d="M808.1,277.1h1.4l2.2,5.6l2.2-5.6h1.4l-3.1,7.4h-1.1L808.1,277.1z"/>
</g>
<g>
	<path d="M1121.1,277.1h2.7c2.3,0,3.9,1.6,3.9,3.6v0c0,2.1-1.6,3.7-3.9,3.7h-2.7V277.1z M1123.9,283.3c1.5,0,2.5-1,2.5-2.5v0
		c0-1.4-1-2.5-2.5-2.5h-1.4v5H1123.9z"/>
	<path d="M1129.3,277.1h5.4v1.2h-4.2v1.9h3.7v1.2h-3.7v2h4.2v1.2h-5.5V277.1z"/>
	<path d="M1136,280.8L1136,280.8c0-2.1,1.6-3.8,3.8-3.8c1.4,0,2.2,0.5,2.9,1.1l-0.8,1c-0.6-0.5-1.2-0.9-2.1-0.9
		c-1.4,0-2.4,1.2-2.4,2.6v0c0,1.4,1,2.6,2.4,2.6c0.9,0,1.5-0.4,2.1-1l0.8,0.8c-0.8,0.8-1.6,1.3-3,1.3
		C1137.6,284.6,1136,282.9,1136,280.8z"/>
</g>
<g>
	<rect x="148" y="67.9" opacity="0.4" width="159.8" height="12"/>
	<g>
		<path d="M148.6,91.3L148.6,91.3c0-2.1,1.6-3.8,3.8-3.8c2.3,0,3.8,1.7,3.8,3.8v0c0,2.1-1.6,3.8-3.8,3.8S148.6,93.3,148.6,91.3z
			 M154.9,91.3L154.9,91.3c0-1.4-1-2.6-2.5-2.6s-2.5,1.2-2.5,2.6v0c0,1.4,1,2.6,2.5,2.6S154.9,92.7,154.9,91.3z"/>
		<path d="M157.9,87.6h3.3c0.8,0,1.5,0.2,1.9,0.7c0.3,0.3,0.5,0.7,0.5,1.2v0c0,0.9-0.5,1.4-1,1.6c0.9,0.3,1.5,0.8,1.5,1.8v0
			c0,1.3-1.1,2-2.7,2h-3.4V87.6z M160.9,90.7c0.8,0,1.4-0.3,1.4-1v0c0-0.6-0.5-0.9-1.3-0.9h-1.9v2H160.9z M161.3,93.8
			c0.9,0,1.4-0.3,1.4-1v0c0-0.6-0.5-1-1.5-1h-2v2H161.3z"/>
		<path d="M164.9,93.9l0.8-0.9c0.7,0.6,1.4,1,2.3,1c0.8,0,1.3-0.4,1.3-0.9v0c0-0.5-0.3-0.8-1.7-1.1c-1.6-0.4-2.4-0.8-2.4-2.2v0
			c0-1.3,1-2.1,2.5-2.1c1.1,0,1.9,0.3,2.7,0.9l-0.7,1c-0.7-0.5-1.3-0.8-2-0.8c-0.8,0-1.2,0.4-1.2,0.9v0c0,0.6,0.3,0.8,1.7,1.2
			c1.6,0.4,2.4,0.9,2.4,2.1v0c0,1.4-1.1,2.2-2.6,2.2C166.9,95,165.8,94.6,164.9,93.9z"/>
		<path d="M172.1,87.6h5.4v1.2h-4.2v1.9h3.7v1.2h-3.7v2h4.2v1.2h-5.5V87.6z"/>
		<path d="M179.1,87.6h3.3c0.9,0,1.6,0.3,2.1,0.7c0.4,0.4,0.6,0.9,0.6,1.6v0c0,1.2-0.7,1.9-1.8,2.2l2,2.8h-1.5l-1.8-2.6h-1.6v2.6
			h-1.3V87.6z M182.3,91.2c0.9,0,1.5-0.5,1.5-1.2v0c0-0.8-0.6-1.2-1.5-1.2h-1.9v2.5H182.3z"/>
		<path d="M185.9,87.6h1.4l2.2,5.6l2.2-5.6h1.4l-3.1,7.4h-1.1L185.9,87.6z"/>
		<path d="M194.4,87.6h5.4v1.2h-4.2v1.9h3.7v1.2h-3.7v2h4.2v1.2h-5.5V87.6z"/>
	</g>
</g>
<g>
	<rect x="314" y="67.9" opacity="0.4" width="160.8" height="12"/>
	<g>
		<path d="M315,87.6h1.3v7.3H315V87.6z"/>
		<path d="M318.3,87.6h1.2l3.9,5.1v-5.1h1.3v7.3h-1.1l-4-5.2v5.2h-1.3V87.6z"/>
		<path d="M332.3,94.4c-0.6,0.4-1.4,0.7-2.2,0.7c-2.3,0-3.8-1.7-3.8-3.8v0c0-2.1,1.6-3.8,3.8-3.8c2.3,0,3.8,1.7,3.8,3.8v0
			c0,0.8-0.3,1.6-0.7,2.3l0.8,0.7l-0.8,0.9L332.3,94.4z M331.3,93.5l-1.3-1.1l0.8-0.9l1.3,1.2c0.3-0.4,0.4-0.9,0.4-1.4v0
			c0-1.4-1-2.6-2.5-2.6s-2.5,1.2-2.5,2.6v0c0,1.4,1,2.6,2.5,2.6C330.5,93.9,331,93.7,331.3,93.5z"/>
		<path d="M335.3,91.8v-4.2h1.3v4.2c0,1.4,0.7,2.1,1.9,2.1c1.1,0,1.8-0.7,1.8-2v-4.2h1.3v4.2c0,2.2-1.2,3.3-3.2,3.3
			C336.6,95,335.3,93.9,335.3,91.8z"/>
		<path d="M343.5,87.6h1.3v7.3h-1.3V87.6z"/>
		<path d="M346.7,87.6h3.3c0.9,0,1.6,0.3,2.1,0.7c0.4,0.4,0.6,0.9,0.6,1.6v0c0,1.2-0.7,1.9-1.8,2.2l2,2.8h-1.5l-1.8-2.6H348v2.6
			h-1.3V87.6z M349.9,91.2c0.9,0,1.5-0.5,1.5-1.2v0c0-0.8-0.6-1.2-1.5-1.2H348v2.5H349.9z"/>
		<path d="M354.3,87.6h5.4v1.2h-4.2v1.9h3.7v1.2h-3.7v2h4.2v1.2h-5.5V87.6z"/>
	</g>
</g>
<rect x="229.9" y="139.5" opacity="0.4" width="160.8" height="12"/>
<g>
	<path d="M230.5,162.9L230.5,162.9c0-2.1,1.6-3.8,3.8-3.8c1.4,0,2.2,0.5,2.9,1.1l-0.8,1c-0.6-0.5-1.2-0.9-2.1-0.9
		c-1.4,0-2.4,1.2-2.4,2.6v0c0,1.4,1,2.6,2.4,2.6c0.9,0,1.5-0.4,2.1-1l0.8,0.8c-0.8,0.8-1.6,1.3-3,1.3
		C232.1,166.7,230.5,165,230.5,162.9z"/>
	<path d="M241.2,159.2h1.2l3.2,7.4h-1.4l-0.7-1.8H240l-0.8,1.8h-1.3L241.2,159.2z M243,163.7l-1.3-2.9l-1.3,2.9H243z"/>
	<path d="M246.9,159.2h2.9c1.7,0,2.8,1,2.8,2.5v0c0,1.6-1.3,2.5-2.9,2.5h-1.5v2.4h-1.3V159.2z M249.6,163c1,0,1.6-0.5,1.6-1.3v0
		c0-0.9-0.6-1.3-1.6-1.3h-1.5v2.6H249.6z"/>
	<path d="M255.7,160.4h-2.3v-1.2h6v1.2H257v6.1h-1.3V160.4z"/>
	<path d="M260.5,163.5v-4.2h1.3v4.2c0,1.4,0.7,2.1,1.9,2.1c1.1,0,1.8-0.7,1.8-2v-4.2h1.3v4.2c0,2.2-1.2,3.3-3.2,3.3
		C261.7,166.7,260.5,165.6,260.5,163.5z"/>
	<path d="M268.6,159.2h3.3c0.9,0,1.6,0.3,2.1,0.7c0.4,0.4,0.6,0.9,0.6,1.6v0c0,1.2-0.7,1.9-1.8,2.2l2,2.8h-1.5l-1.8-2.6h-1.6v2.6
		h-1.3V159.2z M271.8,162.9c0.9,0,1.5-0.5,1.5-1.2v0c0-0.8-0.6-1.2-1.5-1.2h-1.9v2.5H271.8z"/>
	<path d="M276.2,159.2h5.4v1.2h-4.2v1.9h3.7v1.2h-3.7v2h4.2v1.2h-5.5V159.2z"/>
</g>
<g opacity="0.4">
	<path d="M56.9,76.8l0.8-0.9c0.7,0.6,1.4,1,2.3,1c0.8,0,1.3-0.4,1.3-0.9v0c0-0.5-0.3-0.8-1.7-1.1c-1.6-0.4-2.4-0.8-2.4-2.2v0
		c0-1.3,1-2.1,2.5-2.1c1.1,0,1.9,0.3,2.7,0.9l-0.7,1c-0.7-0.5-1.3-0.8-2-0.8c-0.8,0-1.2,0.4-1.2,0.9v0c0,0.6,0.3,0.8,1.7,1.2
		c1.6,0.4,2.4,0.9,2.4,2.1v0c0,1.4-1.1,2.2-2.6,2.2C58.8,78,57.8,77.6,56.9,76.8z"/>
	<path d="M65.7,71.7h-2.3v-1.2h6v1.2H67v6.1h-1.3V71.7z"/>
	<path d="M70.7,70.6H74c0.9,0,1.6,0.3,2.1,0.7c0.4,0.4,0.6,0.9,0.6,1.6v0c0,1.2-0.7,1.9-1.8,2.2l2,2.8h-1.5l-1.8-2.6H72v2.6h-1.3
		V70.6z M73.9,74.2c0.9,0,1.5-0.5,1.5-1.2v0c0-0.8-0.6-1.2-1.5-1.2H72v2.5H73.9z"/>
	<path d="M80.9,70.5h1.2l3.2,7.4h-1.4l-0.7-1.8h-3.5L79,77.9h-1.3L80.9,70.5z M82.7,75L81.5,72L80.2,75H82.7z"/>
	<path d="M87.4,71.7h-2.3v-1.2h6v1.2h-2.3v6.1h-1.3V71.7z"/>
	<path d="M92.4,70.6h5.4v1.2h-4.2v1.9h3.7v1.2h-3.7v2h4.2v1.2h-5.5V70.6z"/>
	<path d="M99.1,74.2L99.1,74.2c0-2.1,1.6-3.8,3.8-3.8c1.3,0,2.1,0.4,2.8,1l-0.8,1c-0.6-0.5-1.1-0.8-2.1-0.8c-1.4,0-2.4,1.2-2.4,2.6
		v0c0,1.5,1,2.6,2.5,2.6c0.7,0,1.3-0.2,1.8-0.6v-1.4h-1.9v-1.1h3.1v3.1c-0.7,0.6-1.8,1.1-3.1,1.1C100.6,78,99.1,76.4,99.1,74.2z"/>
	<path d="M109.5,75l-2.9-4.4h1.5l2.1,3.2l2.1-3.2h1.5l-2.9,4.4v2.9h-1.3V75z"/>
</g>
<g>
	<rect x="395.1" y="139.5" opacity="0.4" width="326.1" height="12"/>
	<g>
		<path d="M396.1,159.2h2.9c1.7,0,2.8,1,2.8,2.5v0c0,1.6-1.3,2.5-2.9,2.5h-1.5v2.4h-1.3V159.2z M398.8,163c1,0,1.6-0.5,1.6-1.3v0
			c0-0.9-0.6-1.3-1.6-1.3h-1.5v2.6H398.8z"/>
		<path d="M403.1,159.2h3.3c0.9,0,1.6,0.3,2.1,0.7c0.4,0.4,0.6,0.9,0.6,1.6v0c0,1.2-0.7,1.9-1.8,2.2l2,2.8h-1.5L406,164h-1.6v2.6
			h-1.3V159.2z M406.2,162.9c0.9,0,1.5-0.5,1.5-1.2v0c0-0.8-0.6-1.2-1.5-1.2h-1.9v2.5H406.2z"/>
		<path d="M410.3,162.9L410.3,162.9c0-2.1,1.6-3.8,3.8-3.8c2.3,0,3.8,1.7,3.8,3.8v0c0,2.1-1.6,3.8-3.8,3.8S410.3,165,410.3,162.9z
			 M416.6,162.9L416.6,162.9c0-1.4-1-2.6-2.5-2.6s-2.5,1.2-2.5,2.6v0c0,1.4,1,2.6,2.5,2.6S416.6,164.3,416.6,162.9z"/>
		<path d="M420.9,160.4h-2.3v-1.2h6v1.2h-2.3v6.1h-1.3V160.4z"/>
		<path d="M425.2,162.9L425.2,162.9c0-2.1,1.6-3.8,3.8-3.8c2.3,0,3.8,1.7,3.8,3.8v0c0,2.1-1.6,3.8-3.8,3.8S425.2,165,425.2,162.9z
			 M431.5,162.9L431.5,162.9c0-1.4-1-2.6-2.5-2.6s-2.5,1.2-2.5,2.6v0c0,1.4,1,2.6,2.5,2.6S431.5,164.3,431.5,162.9z"/>
		<path d="M435.8,160.4h-2.3v-1.2h6v1.2h-2.3v6.1h-1.3V160.4z"/>
		<path d="M443,163.7l-2.9-4.4h1.5l2.1,3.2l2.1-3.2h1.5l-2.9,4.4v2.9H443V163.7z"/>
		<path d="M448.3,159.2h2.9c1.7,0,2.8,1,2.8,2.5v0c0,1.6-1.3,2.5-2.9,2.5h-1.5v2.4h-1.3V159.2z M451.1,163c1,0,1.6-0.5,1.6-1.3v0
			c0-0.9-0.6-1.3-1.6-1.3h-1.5v2.6H451.1z"/>
		<path d="M455.3,159.2h5.4v1.2h-4.2v1.9h3.7v1.2h-3.7v2h4.2v1.2h-5.5V159.2z"/>
	</g>
</g>
<g>
	<rect x="558.7" y="67.4" opacity="0.4" width="326.1" height="12"/>
	<g>
		<path d="M559.2,93.4l0.8-0.9c0.7,0.6,1.4,1,2.3,1c0.8,0,1.3-0.4,1.3-0.9v0c0-0.5-0.3-0.8-1.7-1.1c-1.6-0.4-2.4-0.8-2.4-2.2v0
			c0-1.3,1-2.1,2.5-2.1c1.1,0,1.9,0.3,2.7,0.9l-0.7,1c-0.7-0.5-1.3-0.8-2-0.8c-0.8,0-1.2,0.4-1.2,0.9v0c0,0.6,0.3,0.8,1.7,1.2
			c1.6,0.4,2.4,0.9,2.4,2.1v0c0,1.4-1.1,2.2-2.6,2.2C561.1,94.6,560.1,94.2,559.2,93.4z"/>
		<path d="M568,88.3h-2.3v-1.2h6v1.2h-2.3v6.1H568V88.3z"/>
		<path d="M573,87.1h3.3c0.9,0,1.6,0.3,2.1,0.7c0.4,0.4,0.6,0.9,0.6,1.6v0c0,1.2-0.7,1.9-1.8,2.2l2,2.8h-1.5l-1.8-2.6h-1.6v2.6H573
			V87.1z M576.2,90.8c0.9,0,1.5-0.5,1.5-1.2v0c0-0.8-0.6-1.2-1.5-1.2h-1.9v2.5H576.2z"/>
		<path d="M583.2,87.1h1.2l3.2,7.4h-1.4l-0.7-1.8H582l-0.8,1.8H580L583.2,87.1z M585,91.6l-1.3-2.9l-1.3,2.9H585z"/>
		<path d="M589.7,88.3h-2.3v-1.2h6v1.2H591v6.1h-1.3V88.3z"/>
		<path d="M594.7,87.1h5.4v1.2H596v1.9h3.7v1.2H596v2h4.2v1.2h-5.5V87.1z"/>
		<path d="M601.4,90.8L601.4,90.8c0-2.1,1.6-3.8,3.8-3.8c1.3,0,2.1,0.4,2.8,1l-0.8,1c-0.6-0.5-1.1-0.8-2.1-0.8
			c-1.4,0-2.4,1.2-2.4,2.6v0c0,1.5,1,2.6,2.5,2.6c0.7,0,1.3-0.2,1.8-0.6v-1.4h-1.9v-1.1h3.1v3.1c-0.7,0.6-1.8,1.1-3.1,1.1
			C602.9,94.6,601.4,93,601.4,90.8z"/>
		<path d="M610,87.1h1.3v7.3H610V87.1z"/>
		<path d="M613,93.5l4.3-5.2h-4.2v-1.1h5.9v1l-4.3,5.2h4.3v1.1h-6V93.5z"/>
		<path d="M620.6,87.1h5.4v1.2h-4.2v1.9h3.7v1.2h-3.7v2h4.2v1.2h-5.5V87.1z"/>
	</g>
</g>
<g>
	<rect x="727.4" y="139.5" opacity="0.4" width="404.2" height="12"/>
	<g>
		<path d="M728.1,162.9L728.1,162.9c0-2.1,1.6-3.8,3.8-3.8c1.4,0,2.2,0.5,2.9,1.1l-0.8,1c-0.6-0.5-1.2-0.9-2.1-0.9
			c-1.4,0-2.4,1.2-2.4,2.6v0c0,1.4,1,2.6,2.4,2.6c0.9,0,1.5-0.4,2.1-1l0.8,0.8c-0.8,0.8-1.6,1.3-3,1.3
			C729.6,166.7,728.1,165,728.1,162.9z"/>
		<path d="M735.6,162.9L735.6,162.9c0-2.1,1.6-3.8,3.8-3.8c2.3,0,3.8,1.7,3.8,3.8v0c0,2.1-1.6,3.8-3.8,3.8S735.6,165,735.6,162.9z
			 M741.9,162.9L741.9,162.9c0-1.4-1-2.6-2.5-2.6s-2.5,1.2-2.5,2.6v0c0,1.4,1,2.6,2.5,2.6S741.9,164.3,741.9,162.9z"/>
		<path d="M744.8,159.2h1.2l3.9,5.1v-5.1h1.3v7.3h-1.1l-4-5.2v5.2h-1.3V159.2z"/>
		<path d="M752.6,165.5l0.8-0.9c0.7,0.6,1.4,1,2.3,1c0.8,0,1.3-0.4,1.3-0.9v0c0-0.5-0.3-0.8-1.7-1.1c-1.6-0.4-2.4-0.8-2.4-2.2v0
			c0-1.3,1-2.1,2.5-2.1c1.1,0,1.9,0.3,2.7,0.9l-0.7,1c-0.7-0.5-1.3-0.8-2-0.8c-0.8,0-1.2,0.4-1.2,0.9v0c0,0.6,0.3,0.8,1.7,1.2
			c1.6,0.4,2.4,0.9,2.4,2.1v0c0,1.4-1.1,2.2-2.6,2.2C754.5,166.7,753.5,166.3,752.6,165.5z"/>
		<path d="M761.4,160.4h-2.3v-1.2h6v1.2h-2.3v6.1h-1.3V160.4z"/>
		<path d="M766.4,159.2h3.3c0.9,0,1.6,0.3,2.1,0.7c0.4,0.4,0.6,0.9,0.6,1.6v0c0,1.2-0.7,1.9-1.8,2.2l2,2.8h-1.5l-1.8-2.6h-1.6v2.6
			h-1.3V159.2z M769.6,162.9c0.9,0,1.5-0.5,1.5-1.2v0c0-0.8-0.6-1.2-1.5-1.2h-1.9v2.5H769.6z"/>
		<path d="M773.9,163.5v-4.2h1.3v4.2c0,1.4,0.7,2.1,1.9,2.1c1.1,0,1.8-0.7,1.8-2v-4.2h1.3v4.2c0,2.2-1.2,3.3-3.2,3.3
			C775.1,166.7,773.9,165.6,773.9,163.5z"/>
		<path d="M781.6,162.9L781.6,162.9c0-2.1,1.6-3.8,3.8-3.8c1.4,0,2.2,0.5,2.9,1.1l-0.8,1c-0.6-0.5-1.2-0.9-2.1-0.9
			c-1.4,0-2.4,1.2-2.4,2.6v0c0,1.4,1,2.6,2.4,2.6c0.9,0,1.5-0.4,2.1-1l0.8,0.8c-0.8,0.8-1.6,1.3-3,1.3
			C783.2,166.7,781.6,165,781.6,162.9z"/>
		<path d="M791.5,160.4h-2.3v-1.2h6v1.2h-2.3v6.1h-1.3V160.4z"/>
	</g>
</g>
<g>
	<rect x="1049.6" y="66.4" opacity="0.4" width="82.1" height="12"/>
	<g>
		<path d="M1050.5,86.1h1.3v3.1h3.5v-3.1h1.3v7.3h-1.3v-3.1h-3.5v3.1h-1.3V86.1z"/>
		<path d="M1058.4,90.3v-4.2h1.3v4.2c0,1.4,0.7,2.1,1.9,2.1c1.1,0,1.8-0.7,1.8-2v-4.2h1.3v4.2c0,2.2-1.2,3.3-3.2,3.3
			C1059.6,93.5,1058.4,92.4,1058.4,90.3z"/>
		<path d="M1065.9,92.4l0.8-0.9c0.7,0.6,1.4,1,2.3,1c0.8,0,1.3-0.4,1.3-0.9v0c0-0.5-0.3-0.8-1.7-1.1c-1.6-0.4-2.4-0.8-2.4-2.2v0
			c0-1.3,1-2.1,2.5-2.1c1.1,0,1.9,0.3,2.7,0.9l-0.7,1c-0.7-0.5-1.3-0.8-2-0.8c-0.8,0-1.2,0.4-1.2,0.9v0c0,0.6,0.3,0.8,1.7,1.2
			c1.6,0.4,2.4,0.9,2.4,2.1v0c0,1.4-1.1,2.2-2.6,2.2C1067.9,93.5,1066.8,93.1,1065.9,92.4z"/>
		<path d="M1074.8,87.3h-2.3v-1.2h6v1.2h-2.3v6.1h-1.3V87.3z"/>
		<path d="M1079.8,86.1h1.3v6.2h3.9v1.2h-5.1V86.1z"/>
		<path d="M1086.3,86.1h5.4v1.2h-4.2v1.9h3.7v1.2h-3.7v2h4.2v1.2h-5.5V86.1z"/>
	</g>
	<g>
		<path d="M1180.3,104.1h1.3v6.2h3.9v1.2h-5.1V104.1z"/>
		<path d="M1189.4,104h1.2l3.2,7.4h-1.4l-0.7-1.8h-3.5l-0.8,1.8h-1.3L1189.4,104z M1191.3,108.5l-1.3-2.9l-1.3,2.9H1191.3z"/>
		<path d="M1194.7,108.3v-4.2h1.3v4.2c0,1.4,0.7,2.1,1.9,2.1c1.1,0,1.8-0.7,1.8-2v-4.2h1.3v4.2c0,2.2-1.2,3.3-3.2,3.3
			C1195.9,111.5,1194.7,110.4,1194.7,108.3z"/>
		<path d="M1202.8,104.1h1.2l3.9,5.1v-5.1h1.3v7.3h-1.1l-4-5.2v5.2h-1.3V104.1z"/>
		<path d="M1210.7,107.8L1210.7,107.8c0-2.1,1.6-3.8,3.8-3.8c1.4,0,2.2,0.5,2.9,1.1l-0.8,1c-0.6-0.5-1.2-0.9-2.1-0.9
			c-1.4,0-2.4,1.2-2.4,2.6v0c0,1.4,1,2.6,2.4,2.6c0.9,0,1.5-0.4,2.1-1l0.8,0.8c-0.8,0.8-1.6,1.3-3,1.3
			C1212.3,111.6,1210.7,109.9,1210.7,107.8z"/>
		<path d="M1218.8,104.1h1.3v3.1h3.5v-3.1h1.3v7.3h-1.3v-3.1h-3.5v3.1h-1.3V104.1z"/>
	</g>
</g>
<line opacity="0.4" fill="none" stroke="#000000" stroke-miterlimit="10" x1="141.5" y1="73.9" x2="120" y2="73.9"/>
<line opacity="0.4" fill="none" stroke="#000000" stroke-miterlimit="10" x1="549.2" y1="73.9" x2="486.1" y2="73.9"/>
<line opacity="0.4" fill="none" stroke="#000000" stroke-miterlimit="10" x1="1041" y1="74" x2="893.1" y2="74"/>
<g opacity="0.4">
	<path d="M73.1,142.1h2.7c2.3,0,3.9,1.6,3.9,3.6v0c0,2.1-1.6,3.7-3.9,3.7h-2.7V142.1z M75.8,148.3c1.5,0,2.5-1,2.5-2.5v0
		c0-1.4-1-2.5-2.5-2.5h-1.4v5H75.8z"/>
	<path d="M81.3,142.1h5.4v1.2h-4.2v1.9h3.7v1.2h-3.7v2h4.2v1.2h-5.5V142.1z"/>
	<path d="M87.8,148.4l0.8-0.9c0.7,0.6,1.4,1,2.3,1c0.8,0,1.3-0.4,1.3-0.9v0c0-0.5-0.3-0.8-1.7-1.1c-1.6-0.4-2.4-0.8-2.4-2.2v0
		c0-1.3,1-2.1,2.5-2.1c1.1,0,1.9,0.3,2.7,0.9l-0.7,1c-0.7-0.5-1.3-0.8-2-0.8c-0.8,0-1.2,0.4-1.2,0.9v0c0,0.6,0.3,0.8,1.7,1.2
		c1.6,0.4,2.4,0.9,2.4,2.1v0c0,1.4-1.1,2.2-2.6,2.2C89.8,149.6,88.7,149.2,87.8,148.4z"/>
	<path d="M95.1,142.1h1.3v7.3h-1.3V142.1z"/>
	<path d="M98,145.8L98,145.8c0-2.1,1.6-3.8,3.8-3.8c1.3,0,2.1,0.4,2.8,1l-0.8,1c-0.6-0.5-1.1-0.8-2.1-0.8c-1.4,0-2.4,1.2-2.4,2.6v0
		c0,1.5,1,2.6,2.5,2.6c0.7,0,1.3-0.2,1.8-0.6v-1.4h-1.9v-1.1h3.1v3.1c-0.7,0.6-1.8,1.1-3.1,1.1C99.5,149.6,98,147.9,98,145.8z"/>
	<path d="M106.6,142.1h1.2l3.9,5.1v-5.1h1.3v7.3h-1.1l-4-5.2v5.2h-1.3V142.1z"/>
</g>
<line opacity="0.4" fill="none" stroke="#000000" stroke-miterlimit="10" x1="223.8" y1="145.5" x2="120" y2="145.5"/>
<pattern  id="SVGID_1_" xlink:href="#_x31_0_lpi_50_x25_" patternTransform="matrix(0.7071 -0.7071 0.7071 0.7071 2488.5913 -6997.1167)">
</pattern>
<rect x="1140.7" y="63.8" opacity="0.1" fill="url(#SVGID_1_)" width="125.9" height="87.8"/>
</svg>
