<?xml version="1.0" encoding="utf-8"?>
<!-- Generator: Adobe Illustrator 18.0.0, SVG Export Plug-In . SVG Version: 6.00 Build 0)  -->
<!DOCTYPE svg PUBLIC "-//W3C//DTD SVG 1.1//EN" "http://www.w3.org/Graphics/SVG/1.1/DTD/svg11.dtd">
<svg version="1.1" id="Layer_1" xmlns="http://www.w3.org/2000/svg" xmlns:xlink="http://www.w3.org/1999/xlink" x="0px" y="0px"
	 viewBox="0 0 900 400" enable-background="new 0 0 900 400" xml:space="preserve">
<g opacity="0.2">
	<path d="M147.3,235.9h7.2c4.2,0,6.9,2.4,6.9,6.1v0.1c0,4.1-3.3,6.2-7.3,6.2h-3.6v5.8h-3.2V235.9z M154.2,245.3
		c2.4,0,3.9-1.4,3.9-3.2V242c0-2.1-1.5-3.2-3.9-3.2h-3.7v6.5H154.2z"/>
	<path d="M174.4,235.7h3l8,18.3H182l-1.8-4.4h-8.6l-1.9,4.4h-3.3L174.4,235.7z M179,246.8l-3.1-7.3l-3.1,7.3H179z"/>
	<path d="M192.2,251.4l1.9-2.3c1.7,1.5,3.5,2.4,5.7,2.4c2,0,3.2-0.9,3.2-2.3v-0.1c0-1.3-0.7-2-4.1-2.8c-3.9-0.9-6.1-2.1-6.1-5.4
		v-0.1c0-3.1,2.6-5.3,6.2-5.3c2.7,0,4.8,0.8,6.6,2.3l-1.7,2.4c-1.6-1.2-3.3-1.9-4.9-1.9c-1.9,0-3,1-3,2.2v0.1c0,1.4,0.8,2,4.3,2.9
		c3.8,0.9,5.8,2.3,5.8,5.3v0.1c0,3.4-2.7,5.4-6.5,5.4C197,254.3,194.4,253.4,192.2,251.4z"/>
	<path d="M219.3,238.8h-5.8v-3h14.8v3h-5.8v15.2h-3.2V238.8z"/>
</g>
<g>
	<path d="M374.7,235.9h7.2c4.2,0,6.9,2.4,6.9,6.1v0.1c0,4.1-3.3,6.2-7.3,6.2h-3.6v5.8h-3.2V235.9z M381.6,245.3
		c2.4,0,3.9-1.4,3.9-3.2V242c0-2.1-1.5-3.2-3.9-3.2h-3.7v6.5H381.6z"/>
	<path d="M397.2,235.9h8.1c2.3,0,4.1,0.7,5.2,1.8c1,1,1.5,2.3,1.5,3.9v0.1c0,3-1.8,4.8-4.3,5.5l4.9,6.9h-3.8l-4.5-6.3h-4v6.3h-3.2
		V235.9z M405.1,244.9c2.3,0,3.7-1.2,3.7-3v-0.1c0-1.9-1.4-3-3.8-3h-4.7v6.1H405.1z"/>
	<path d="M421.2,235.9h13.5v2.9h-10.3v4.7h9.1v2.9h-9.1v4.9h10.4v2.9h-13.6V235.9z"/>
	<path d="M442.6,251.4l1.9-2.3c1.7,1.5,3.5,2.4,5.7,2.4c2,0,3.2-0.9,3.2-2.3v-0.1c0-1.3-0.7-2-4.1-2.8c-3.9-0.9-6.1-2.1-6.1-5.4
		v-0.1c0-3.1,2.6-5.3,6.2-5.3c2.7,0,4.8,0.8,6.6,2.3l-1.7,2.4c-1.6-1.2-3.3-1.9-4.9-1.9c-1.9,0-3,1-3,2.2v0.1c0,1.4,0.8,2,4.3,2.9
		c3.8,0.9,5.8,2.3,5.8,5.3v0.1c0,3.4-2.7,5.4-6.5,5.4C447.4,254.3,444.8,253.4,442.6,251.4z"/>
	<path d="M465.7,235.9h13.5v2.9h-10.3v4.7h9.1v2.9h-9.1v4.9h10.4v2.9h-13.6V235.9z"/>
	<path d="M488.3,235.9h3l9.7,12.6v-12.6h3.1v18.2h-2.7l-10-12.9v12.9h-3.1V235.9z"/>
	<path d="M518.5,238.8h-5.8v-3h14.8v3h-5.8v15.2h-3.2V238.8z"/>
</g>
<g opacity="0.2">
	<path d="M635.2,235.9h13.5v2.9h-10.3v5h9.2v2.9h-9.2v7.4h-3.2V235.9z"/>
	<path d="M657.1,246.3v-10.5h3.2v10.3c0,3.4,1.7,5.2,4.6,5.2c2.8,0,4.6-1.7,4.6-5.1v-10.5h3.2v10.3c0,5.4-3.1,8.2-7.8,8.2
		C660.1,254.3,657.1,251.6,657.1,246.3z"/>
	<path d="M686.7,238.8H681v-3h14.8v3H690v15.2h-3.2V238.8z"/>
	<path d="M704,246.3v-10.5h3.2v10.3c0,3.4,1.7,5.2,4.6,5.2c2.8,0,4.6-1.7,4.6-5.1v-10.5h3.2v10.3c0,5.4-3.1,8.2-7.8,8.2
		C707,254.3,704,251.6,704,246.3z"/>
	<path d="M729.2,235.9h8.1c2.3,0,4.1,0.7,5.2,1.8c1,1,1.5,2.3,1.5,3.9v0.1c0,3-1.8,4.8-4.3,5.5l4.9,6.9h-3.8l-4.5-6.3h-4v6.3h-3.2
		V235.9z M737,244.9c2.3,0,3.7-1.2,3.7-3v-0.1c0-1.9-1.4-3-3.8-3h-4.7v6.1H737z"/>
	<path d="M753.1,235.9h13.5v2.9h-10.3v4.7h9.1v2.9h-9.1v4.9h10.4v2.9h-13.6V235.9z"/>
</g>
<g opacity="0.2">
	<line fill="none" stroke="#000000" stroke-width="3.2481" stroke-miterlimit="10" x1="26" y1="149" x2="864" y2="149"/>
	<line fill="none" stroke="#000000" stroke-width="3.2481" stroke-miterlimit="10" x1="450.4" y1="180.4" x2="450.4" y2="114.4"/>
</g>
<rect x="321.7" y="134.9" fill="none" stroke="#000000" stroke-width="3.2595" stroke-miterlimit="10" width="257.3" height="28.1"/>
<g>
</g>
<g>
</g>
<g>
</g>
<g>
</g>
<g>
</g>
<g>
</g>
</svg>
