<?xml version="1.0" encoding="utf-8"?>
<!-- Generator: Adobe Illustrator 18.0.0, SVG Export Plug-In . SVG Version: 6.00 Build 0)  -->
<!DOCTYPE svg PUBLIC "-//W3C//DTD SVG 1.1//EN" "http://www.w3.org/Graphics/SVG/1.1/DTD/svg11.dtd">
<svg version="1.1" id="Layer_1" xmlns="http://www.w3.org/2000/svg" xmlns:xlink="http://www.w3.org/1999/xlink" x="0px" y="0px"
	 viewBox="0 0 200 200" enable-background="new 0 0 200 200" xml:space="preserve">
<g>
</g>
<g>
	<path d="M1025.3,191.3l5.6-2.9v0.8l-4.7,2.4v0l4.7,2.4v0.8l-5.6-2.9V191.3z"/>
	<path d="M1032.4,193.7c0.3,0.2,0.9,0.4,1.4,0.4c0.8,0,1.1-0.4,1.1-0.9c0-0.5-0.3-0.8-1.1-1.1c-1-0.4-1.5-0.9-1.5-1.6
		c0-0.9,0.8-1.7,2-1.7c0.6,0,1.1,0.2,1.4,0.4l-0.3,0.8c-0.2-0.1-0.6-0.3-1.2-0.3c-0.6,0-1,0.4-1,0.8c0,0.5,0.3,0.7,1.1,1
		c1,0.4,1.5,0.9,1.5,1.8c0,1-0.8,1.7-2.2,1.7c-0.6,0-1.2-0.2-1.6-0.4L1032.4,193.7z"/>
	<path d="M1037.3,190.9c0-0.7,0-1.3,0-1.9h0.9l0,1h0c0.4-0.7,1.1-1.1,2.1-1.1c1.4,0,2.5,1.2,2.5,3c0,2.1-1.3,3.1-2.6,3.1
		c-0.8,0-1.4-0.3-1.8-0.9h0v3.2h-1V190.9z M1038.3,192.4c0,0.2,0,0.3,0,0.4c0.2,0.7,0.8,1.2,1.6,1.2c1.1,0,1.8-0.9,1.8-2.2
		c0-1.2-0.6-2.2-1.7-2.2c-0.7,0-1.4,0.5-1.6,1.3c0,0.1-0.1,0.3-0.1,0.4V192.4z"/>
	<path d="M1047.3,194.8l-0.1-0.7h0c-0.3,0.5-0.9,0.9-1.8,0.9c-1.2,0-1.8-0.8-1.8-1.7c0-1.4,1.2-2.2,3.5-2.2V191
		c0-0.5-0.1-1.3-1.3-1.3c-0.5,0-1.1,0.2-1.5,0.4l-0.2-0.7c0.5-0.3,1.2-0.5,1.9-0.5c1.8,0,2.2,1.2,2.2,2.4v2.2c0,0.5,0,1,0.1,1.4
		H1047.3z M1047.1,191.8c-1.2,0-2.5,0.2-2.5,1.3c0,0.7,0.5,1,1,1c0.8,0,1.2-0.5,1.4-1c0-0.1,0.1-0.2,0.1-0.3V191.8z"/>
	<path d="M1049.9,190.6c0-0.6,0-1.1,0-1.6h0.9l0.1,1h0c0.3-0.6,1-1.1,1.9-1.1c0.8,0,2.1,0.5,2.1,2.5v3.5h-1.1v-3.3
		c0-0.9-0.3-1.7-1.3-1.7c-0.7,0-1.2,0.5-1.4,1.1c0,0.1-0.1,0.3-0.1,0.5v3.5h-1.1V190.6z"/>
	<path d="M1058.9,193.7c0.3,0.2,0.9,0.4,1.4,0.4c0.8,0,1.1-0.4,1.1-0.9c0-0.5-0.3-0.8-1.1-1.1c-1-0.4-1.5-0.9-1.5-1.6
		c0-0.9,0.8-1.7,2-1.7c0.6,0,1.1,0.2,1.4,0.4l-0.3,0.8c-0.2-0.1-0.6-0.3-1.2-0.3c-0.6,0-1,0.4-1,0.8c0,0.5,0.3,0.7,1.1,1
		c1,0.4,1.5,0.9,1.5,1.8c0,1-0.8,1.7-2.2,1.7c-0.6,0-1.2-0.2-1.6-0.4L1058.9,193.7z"/>
	<path d="M1065.1,187.3v1.7h1.5v0.8h-1.5v3.1c0,0.7,0.2,1.1,0.8,1.1c0.3,0,0.5,0,0.6-0.1l0,0.8c-0.2,0.1-0.5,0.1-0.9,0.1
		c-0.5,0-0.9-0.2-1.1-0.4c-0.3-0.3-0.4-0.8-0.4-1.5v-3.2h-0.9V189h0.9v-1.4L1065.1,187.3z"/>
	<path d="M1068.3,189l1.3,3.4c0.1,0.4,0.3,0.8,0.4,1.2h0c0.1-0.3,0.2-0.8,0.4-1.2l1.2-3.4h1.1l-1.6,4.1c-0.8,2-1.3,3-2,3.6
		c-0.5,0.5-1,0.6-1.3,0.7l-0.3-0.9c0.3-0.1,0.6-0.3,0.9-0.5c0.3-0.2,0.6-0.6,0.9-1.2c0-0.1,0.1-0.2,0.1-0.3c0-0.1,0-0.1-0.1-0.3
		l-2.1-5.3H1068.3z"/>
	<path d="M1073.6,186.3h1.1v8.5h-1.1V186.3z"/>
	<path d="M1077,192.1c0,1.4,0.9,2,2,2c0.8,0,1.2-0.1,1.6-0.3l0.2,0.8c-0.4,0.2-1,0.4-1.9,0.4c-1.8,0-2.9-1.2-2.9-2.9s1-3.1,2.7-3.1
		c1.9,0,2.4,1.7,2.4,2.7c0,0.2,0,0.4,0,0.5H1077z M1080.1,191.3c0-0.7-0.3-1.7-1.5-1.7c-1.1,0-1.5,1-1.6,1.7H1080.1z"/>
	<path d="M1082,190.7V190h6.2v0.7H1082z M1082,193.1v-0.7h6.2v0.7H1082z"/>
	<path d="M1090.3,186.6l-0.2,2.9h-0.6l-0.2-2.9H1090.3z M1092.1,186.6l-0.2,2.9h-0.6l-0.2-2.9H1092.1z"/>
	<path d="M1094,194.8v-5h-0.8V189h0.8v-0.3c0-0.8,0.3-1.5,0.8-2c0.5-0.4,1.1-0.6,1.9-0.6c0.7,0,1.3,0.1,1.7,0.4v8.3h-1v-7.7
		c-0.2-0.1-0.5-0.2-0.9-0.2c-1.1,0-1.5,0.8-1.5,1.7v0.3h1.4v0.8h-1.4v5H1094z"/>
	<path d="M1105.4,191.8c0,2.1-1.5,3.1-2.9,3.1c-1.6,0-2.8-1.2-2.8-3c0-1.9,1.3-3.1,2.9-3.1C1104.3,188.9,1105.4,190.1,1105.4,191.8z
		 M1100.8,191.9c0,1.3,0.7,2.2,1.8,2.2c1,0,1.8-0.9,1.8-2.3c0-1-0.5-2.2-1.7-2.2C1101.4,189.6,1100.8,190.8,1100.8,191.9z"/>
	<path d="M1110,194.8l-0.1-0.7h0c-0.3,0.5-0.9,0.9-1.8,0.9c-1.2,0-1.8-0.8-1.8-1.7c0-1.4,1.2-2.2,3.5-2.2V191c0-0.5-0.1-1.3-1.3-1.3
		c-0.5,0-1.1,0.2-1.5,0.4l-0.2-0.7c0.5-0.3,1.2-0.5,1.9-0.5c1.8,0,2.2,1.2,2.2,2.4v2.2c0,0.5,0,1,0.1,1.4H1110z M1109.8,191.8
		c-1.2,0-2.5,0.2-2.5,1.3c0,0.7,0.5,1,1,1c0.8,0,1.2-0.5,1.4-1c0-0.1,0.1-0.2,0.1-0.3V191.8z"/>
	<path d="M1113.8,187.3v1.7h1.5v0.8h-1.5v3.1c0,0.7,0.2,1.1,0.8,1.1c0.3,0,0.5,0,0.6-0.1l0,0.8c-0.2,0.1-0.5,0.1-0.9,0.1
		c-0.5,0-0.9-0.2-1.1-0.4c-0.3-0.3-0.4-0.8-0.4-1.5v-3.2h-0.9V189h0.9v-1.4L1113.8,187.3z"/>
	<path d="M1116.2,189.9c0-0.4,0.3-0.8,0.7-0.8s0.7,0.3,0.7,0.8c0,0.4-0.3,0.7-0.7,0.7C1116.5,190.7,1116.2,190.4,1116.2,189.9z
		 M1116.2,194.2c0-0.4,0.3-0.8,0.7-0.8s0.7,0.3,0.7,0.8c0,0.4-0.3,0.7-0.7,0.7C1116.5,194.9,1116.2,194.6,1116.2,194.2z"/>
	<path d="M1119,186.3h1.1v8.5h-1.1V186.3z"/>
	<path d="M1122.4,192.1c0,1.4,0.9,2,2,2c0.8,0,1.2-0.1,1.6-0.3l0.2,0.8c-0.4,0.2-1,0.4-1.9,0.4c-1.8,0-2.9-1.2-2.9-2.9
		s1-3.1,2.7-3.1c1.9,0,2.4,1.7,2.4,2.7c0,0.2,0,0.4,0,0.5H1122.4z M1125.5,191.3c0-0.7-0.3-1.7-1.5-1.7c-1.1,0-1.5,1-1.6,1.7H1125.5
		z"/>
	<path d="M1127.9,194.8v-5h-0.8V189h0.8v-0.3c0-0.8,0.2-1.6,0.7-2c0.4-0.4,0.9-0.5,1.4-0.5c0.4,0,0.7,0.1,0.9,0.2l-0.1,0.8
		c-0.2-0.1-0.4-0.1-0.7-0.1c-0.9,0-1.1,0.8-1.1,1.7v0.3h1.4v0.8h-1.4v5H1127.9z"/>
	<path d="M1132.7,187.3v1.7h1.5v0.8h-1.5v3.1c0,0.7,0.2,1.1,0.8,1.1c0.3,0,0.5,0,0.6-0.1l0,0.8c-0.2,0.1-0.5,0.1-0.9,0.1
		c-0.5,0-0.9-0.2-1.1-0.4c-0.3-0.3-0.4-0.8-0.4-1.5v-3.2h-0.9V189h0.9v-1.4L1132.7,187.3z"/>
	<path d="M1134.7,196.3c0.3-0.7,0.6-2,0.7-2.9l1.2-0.1c-0.3,1-0.8,2.4-1.2,2.9L1134.7,196.3z M1135.2,189.9c0-0.4,0.3-0.8,0.7-0.8
		c0.4,0,0.7,0.3,0.7,0.8c0,0.4-0.3,0.7-0.7,0.7C1135.5,190.7,1135.2,190.4,1135.2,189.9z"/>
	<path d="M1140.9,189l0.8,3c0.2,0.6,0.3,1.2,0.4,1.8h0c0.1-0.6,0.3-1.2,0.5-1.8l0.9-3h0.9l0.9,2.9c0.2,0.7,0.4,1.3,0.5,1.9h0
		c0.1-0.6,0.3-1.2,0.4-1.9l0.8-2.9h1l-1.9,5.8h-1l-0.9-2.8c-0.2-0.6-0.4-1.2-0.5-1.9h0c-0.1,0.7-0.3,1.3-0.5,1.9l-0.9,2.8h-1
		l-1.8-5.8H1140.9z"/>
	<path d="M1150.4,187.4c0,0.4-0.3,0.6-0.7,0.6c-0.4,0-0.6-0.3-0.6-0.6c0-0.4,0.3-0.7,0.7-0.7C1150.2,186.7,1150.4,187,1150.4,187.4z
		 M1149.3,194.8V189h1.1v5.8H1149.3z"/>
	<path d="M1157.1,186.3v7c0,0.5,0,1.1,0,1.5h-0.9l0-1h0c-0.3,0.6-1,1.1-2,1.1c-1.4,0-2.5-1.2-2.5-3c0-1.9,1.2-3.1,2.6-3.1
		c0.9,0,1.5,0.4,1.8,0.9h0v-3.5H1157.1z M1156,191.3c0-0.1,0-0.3,0-0.4c-0.2-0.7-0.7-1.2-1.5-1.2c-1.1,0-1.7,1-1.7,2.2
		c0,1.2,0.6,2.1,1.7,2.1c0.7,0,1.4-0.5,1.5-1.3c0-0.1,0-0.3,0-0.5V191.3z"/>
	<path d="M1160.1,187.3v1.7h1.5v0.8h-1.5v3.1c0,0.7,0.2,1.1,0.8,1.1c0.3,0,0.5,0,0.6-0.1l0,0.8c-0.2,0.1-0.5,0.1-0.9,0.1
		c-0.5,0-0.9-0.2-1.1-0.4c-0.3-0.3-0.4-0.8-0.4-1.5v-3.2h-0.9V189h0.9v-1.4L1160.1,187.3z"/>
	<path d="M1162.8,186.3h1.1v3.6h0c0.2-0.3,0.4-0.6,0.8-0.7c0.3-0.2,0.7-0.3,1.1-0.3c0.8,0,2,0.5,2,2.5v3.5h-1.1v-3.3
		c0-0.9-0.3-1.7-1.3-1.7c-0.7,0-1.2,0.5-1.4,1.1c-0.1,0.1-0.1,0.3-0.1,0.5v3.5h-1.1V186.3z"/>
	<path d="M1169.2,189.9c0-0.4,0.3-0.8,0.7-0.8s0.7,0.3,0.7,0.8c0,0.4-0.3,0.7-0.7,0.7C1169.5,190.7,1169.2,190.4,1169.2,189.9z
		 M1169.2,194.2c0-0.4,0.3-0.8,0.7-0.8s0.7,0.3,0.7,0.8c0,0.4-0.3,0.7-0.7,0.7C1169.5,194.9,1169.2,194.6,1169.2,194.2z"/>
	<path d="M1174.2,194.8v-0.6l0.8-0.8c2-1.9,2.9-2.9,2.9-4.1c0-0.8-0.4-1.5-1.5-1.5c-0.7,0-1.3,0.4-1.7,0.7l-0.3-0.7
		c0.5-0.5,1.3-0.8,2.2-0.8c1.7,0,2.4,1.2,2.4,2.3c0,1.4-1,2.6-2.7,4.2l-0.6,0.6v0h3.5v0.9H1174.2z"/>
	<path d="M1185,187.9h-3l-0.3,2c0.2,0,0.3,0,0.6,0c0.6,0,1.2,0.1,1.7,0.4c0.6,0.3,1.1,1,1.1,2c0,1.5-1.2,2.7-2.9,2.7
		c-0.9,0-1.6-0.2-1.9-0.5l0.3-0.8c0.3,0.2,1,0.4,1.7,0.4c1,0,1.8-0.6,1.8-1.7c0-1-0.7-1.7-2.2-1.7c-0.4,0-0.8,0-1.1,0.1l0.5-3.7h3.7
		V187.9z"/>
	<path d="M1190,189.2c0,1.6-0.9,2.5-1.9,2.5c-1,0-1.8-0.8-1.8-2.4c0-1.6,0.9-2.4,1.9-2.4C1189.3,186.9,1190,187.7,1190,189.2z
		 M1187.1,189.3c0,1,0.3,1.8,1,1.8c0.7,0,1-0.7,1-1.8c0-0.9-0.3-1.7-1-1.7C1187.5,187.5,1187.1,188.3,1187.1,189.3z M1188,194.9
		l4.6-8.1h0.7l-4.6,8.1H1188z M1195.1,192.4c0,1.6-0.9,2.5-1.9,2.5c-1,0-1.8-0.8-1.8-2.3c0-1.6,0.9-2.4,1.9-2.4
		C1194.4,190.1,1195.1,190.9,1195.1,192.4z M1192.2,192.5c0,1,0.4,1.8,1,1.8c0.7,0,1-0.7,1-1.8c0-0.9-0.3-1.7-1-1.7
		C1192.6,190.7,1192.2,191.5,1192.2,192.5z"/>
	<path d="M1197.1,186.6l-0.2,2.9h-0.6l-0.2-2.9H1197.1z M1198.9,186.6l-0.2,2.9h-0.6l-0.2-2.9H1198.9z"/>
	<path d="M1205.8,191.9l-5.6,2.9V194l4.7-2.4v0l-4.7-2.4v-0.8l5.6,2.9V191.9z"/>
	<path d="M1207.8,194.8l0.3-2.4h-1v-0.7h1.1l0.2-1.7h-1v-0.7h1.1l0.3-2.3h0.7l-0.3,2.3h1.2l0.3-2.3h0.7l-0.3,2.3h1v0.7h-1.1
		l-0.2,1.7h1v0.7h-1.1l-0.3,2.4h-0.7l0.3-2.4h-1.2l-0.3,2.4H1207.8z M1210.1,191.7l0.2-1.7h-1.2l-0.2,1.7H1210.1z"/>
	<path d="M1216.1,186.8c0.6-0.1,1.4-0.2,2.2-0.2c1.5,0,2.6,0.3,3.3,1c0.7,0.7,1.1,1.6,1.1,2.9c0,1.3-0.4,2.4-1.2,3.1
		c-0.8,0.8-2,1.2-3.6,1.2c-0.7,0-1.4,0-1.9-0.1V186.8z M1217.1,194c0.3,0,0.6,0.1,1.1,0.1c2.2,0,3.4-1.2,3.4-3.4
		c0-1.9-1.1-3.1-3.3-3.1c-0.5,0-0.9,0-1.2,0.1V194z"/>
	<path d="M1224.6,192.1c0,1.4,0.9,2,2,2c0.8,0,1.2-0.1,1.6-0.3l0.2,0.8c-0.4,0.2-1,0.4-1.9,0.4c-1.8,0-2.9-1.2-2.9-2.9
		s1-3.1,2.7-3.1c1.9,0,2.4,1.7,2.4,2.7c0,0.2,0,0.4,0,0.5H1224.6z M1227.7,191.3c0-0.7-0.3-1.7-1.5-1.7c-1.1,0-1.5,1-1.6,1.7H1227.7
		z"/>
	<path d="M1229.9,193.7c0.3,0.2,0.9,0.4,1.4,0.4c0.8,0,1.1-0.4,1.1-0.9c0-0.5-0.3-0.8-1.1-1.1c-1-0.4-1.5-0.9-1.5-1.6
		c0-0.9,0.8-1.7,2-1.7c0.6,0,1.1,0.2,1.4,0.4l-0.3,0.8c-0.2-0.1-0.6-0.3-1.2-0.3c-0.6,0-1,0.4-1,0.8c0,0.5,0.3,0.7,1.1,1
		c1,0.4,1.5,0.9,1.5,1.8c0,1-0.8,1.7-2.2,1.7c-0.6,0-1.2-0.2-1.6-0.4L1229.9,193.7z"/>
	<path d="M1236,187.4c0,0.4-0.3,0.6-0.7,0.6c-0.4,0-0.6-0.3-0.6-0.6c0-0.4,0.3-0.7,0.7-0.7C1235.7,186.7,1236,187,1236,187.4z
		 M1234.8,194.8V189h1.1v5.8H1234.8z"/>
	<path d="M1242.6,189c0,0.4,0,0.9,0,1.6v3.4c0,1.3-0.3,2.1-0.8,2.7c-0.6,0.5-1.4,0.7-2.1,0.7c-0.7,0-1.5-0.2-1.9-0.5l0.3-0.8
		c0.4,0.2,1,0.5,1.7,0.5c1.1,0,1.9-0.6,1.9-2v-0.6h0c-0.3,0.5-0.9,1-1.8,1c-1.4,0-2.5-1.2-2.5-2.8c0-2,1.3-3.1,2.6-3.1
		c1,0,1.6,0.5,1.8,1h0l0-0.9H1242.6z M1241.5,191.3c0-0.2,0-0.3-0.1-0.5c-0.2-0.6-0.7-1.1-1.5-1.1c-1,0-1.7,0.9-1.7,2.2
		c0,1.1,0.6,2.1,1.7,2.1c0.6,0,1.2-0.4,1.5-1.1c0.1-0.2,0.1-0.4,0.1-0.6V191.3z"/>
	<path d="M1244.3,190.6c0-0.6,0-1.1,0-1.6h0.9l0.1,1h0c0.3-0.6,1-1.1,1.9-1.1c0.8,0,2.1,0.5,2.1,2.5v3.5h-1.1v-3.3
		c0-0.9-0.3-1.7-1.3-1.7c-0.7,0-1.2,0.5-1.4,1.1c0,0.1-0.1,0.3-0.1,0.5v3.5h-1.1V190.6z"/>
	<path d="M1253.5,186.8c0.5-0.1,1.3-0.2,2-0.2c1.1,0,1.8,0.2,2.3,0.7c0.4,0.4,0.6,0.9,0.6,1.5c0,1.1-0.7,1.8-1.5,2.1v0
		c0.6,0.2,1,0.8,1.2,1.6c0.3,1.1,0.5,1.9,0.6,2.2h-1.1c-0.1-0.2-0.3-0.9-0.5-1.9c-0.2-1.1-0.7-1.5-1.6-1.6h-1v3.5h-1V186.8z
		 M1254.5,190.5h1.1c1.1,0,1.8-0.6,1.8-1.5c0-1-0.8-1.5-1.9-1.5c-0.5,0-0.9,0-1,0.1V190.5z"/>
	<path d="M1260.6,192.1c0,1.4,0.9,2,2,2c0.8,0,1.2-0.1,1.6-0.3l0.2,0.8c-0.4,0.2-1,0.4-1.9,0.4c-1.8,0-2.9-1.2-2.9-2.9
		s1-3.1,2.7-3.1c1.9,0,2.4,1.7,2.4,2.7c0,0.2,0,0.4,0,0.5H1260.6z M1263.7,191.3c0-0.7-0.3-1.7-1.5-1.7c-1.1,0-1.5,1-1.6,1.7H1263.7
		z"/>
	<path d="M1265.8,193.7c0.3,0.2,0.9,0.4,1.4,0.4c0.8,0,1.1-0.4,1.1-0.9c0-0.5-0.3-0.8-1.1-1.1c-1-0.4-1.5-0.9-1.5-1.6
		c0-0.9,0.8-1.7,2-1.7c0.6,0,1.1,0.2,1.4,0.4l-0.3,0.8c-0.2-0.1-0.6-0.3-1.2-0.3c-0.6,0-1,0.4-1,0.8c0,0.5,0.3,0.7,1.1,1
		c1,0.4,1.5,0.9,1.5,1.8c0,1-0.8,1.7-2.2,1.7c-0.6,0-1.2-0.2-1.6-0.4L1265.8,193.7z"/>
	<path d="M1271.3,192.1c0,1.4,0.9,2,2,2c0.8,0,1.2-0.1,1.6-0.3l0.2,0.8c-0.4,0.2-1,0.4-1.9,0.4c-1.8,0-2.9-1.2-2.9-2.9
		s1-3.1,2.7-3.1c1.9,0,2.4,1.7,2.4,2.7c0,0.2,0,0.4,0,0.5H1271.3z M1274.4,191.3c0-0.7-0.3-1.7-1.5-1.7c-1.1,0-1.5,1-1.6,1.7H1274.4
		z"/>
	<path d="M1280,194.8l-0.1-0.7h0c-0.3,0.5-0.9,0.9-1.8,0.9c-1.2,0-1.8-0.8-1.8-1.7c0-1.4,1.2-2.2,3.5-2.2V191c0-0.5-0.1-1.3-1.3-1.3
		c-0.5,0-1.1,0.2-1.5,0.4l-0.2-0.7c0.5-0.3,1.2-0.5,1.9-0.5c1.8,0,2.2,1.2,2.2,2.4v2.2c0,0.5,0,1,0.1,1.4H1280z M1279.8,191.8
		c-1.2,0-2.5,0.2-2.5,1.3c0,0.7,0.5,1,1,1c0.8,0,1.2-0.5,1.4-1c0-0.1,0.1-0.2,0.1-0.3V191.8z"/>
	<path d="M1282.5,190.8c0-0.7,0-1.3,0-1.8h0.9l0,1.1h0c0.3-0.8,0.9-1.3,1.6-1.3c0.1,0,0.2,0,0.3,0v1c-0.1,0-0.2,0-0.4,0
		c-0.7,0-1.3,0.6-1.4,1.4c0,0.1,0,0.3,0,0.5v3.1h-1V190.8z"/>
	<path d="M1290.5,194.6c-0.3,0.1-0.9,0.3-1.7,0.3c-1.8,0-2.9-1.2-2.9-3c0-1.8,1.2-3.1,3.1-3.1c0.6,0,1.2,0.2,1.5,0.3l-0.2,0.8
		c-0.3-0.1-0.6-0.3-1.2-0.3c-1.3,0-2.1,1-2.1,2.2c0,1.3,0.9,2.2,2,2.2c0.6,0,1-0.2,1.3-0.3L1290.5,194.6z"/>
	<path d="M1291.7,186.3h1.1v3.6h0c0.2-0.3,0.4-0.6,0.8-0.7c0.3-0.2,0.7-0.3,1.1-0.3c0.8,0,2,0.5,2,2.5v3.5h-1.1v-3.3
		c0-0.9-0.3-1.7-1.3-1.7c-0.7,0-1.2,0.5-1.4,1.1c-0.1,0.1-0.1,0.3-0.1,0.5v3.5h-1.1V186.3z"/>
	<path d="M1301.2,194.8l0.3-2.4h-1v-0.7h1.1l0.2-1.7h-1v-0.7h1.1l0.3-2.3h0.7l-0.3,2.3h1.2l0.3-2.3h0.7l-0.3,2.3h1v0.7h-1.1
		l-0.2,1.7h1v0.7h-1.1l-0.3,2.4h-0.7l0.3-2.4h-1.2l-0.3,2.4H1301.2z M1303.5,191.7l0.2-1.7h-1.2l-0.2,1.7H1303.5z"/>
	<path d="M1306.8,191.3l5.6-2.9v0.8l-4.7,2.4v0l4.7,2.4v0.8l-5.6-2.9V191.3z"/>
	<path d="M1313.1,195.3l3.3-8.7h0.8l-3.4,8.7H1313.1z"/>
	<path d="M1318,193.7c0.3,0.2,0.9,0.4,1.4,0.4c0.8,0,1.1-0.4,1.1-0.9c0-0.5-0.3-0.8-1.1-1.1c-1-0.4-1.5-0.9-1.5-1.6
		c0-0.9,0.8-1.7,2-1.7c0.6,0,1.1,0.2,1.4,0.4l-0.3,0.8c-0.2-0.1-0.6-0.3-1.2-0.3c-0.6,0-1,0.4-1,0.8c0,0.5,0.3,0.7,1.1,1
		c1,0.4,1.5,0.9,1.5,1.8c0,1-0.8,1.7-2.2,1.7c-0.6,0-1.2-0.2-1.6-0.4L1318,193.7z"/>
	<path d="M1322.9,190.9c0-0.7,0-1.3,0-1.9h0.9l0,1h0c0.4-0.7,1.1-1.1,2.1-1.1c1.4,0,2.5,1.2,2.5,3c0,2.1-1.3,3.1-2.6,3.1
		c-0.8,0-1.4-0.3-1.8-0.9h0v3.2h-1V190.9z M1323.9,192.4c0,0.2,0,0.3,0,0.4c0.2,0.7,0.8,1.2,1.6,1.2c1.1,0,1.8-0.9,1.8-2.2
		c0-1.2-0.6-2.2-1.7-2.2c-0.7,0-1.4,0.5-1.6,1.3c0,0.1-0.1,0.3-0.1,0.4V192.4z"/>
	<path d="M1332.9,194.8l-0.1-0.7h0c-0.3,0.5-0.9,0.9-1.8,0.9c-1.2,0-1.8-0.8-1.8-1.7c0-1.4,1.2-2.2,3.5-2.2V191
		c0-0.5-0.1-1.3-1.3-1.3c-0.5,0-1.1,0.2-1.5,0.4l-0.2-0.7c0.5-0.3,1.2-0.5,1.9-0.5c1.8,0,2.2,1.2,2.2,2.4v2.2c0,0.5,0,1,0.1,1.4
		H1332.9z M1332.8,191.8c-1.2,0-2.5,0.2-2.5,1.3c0,0.7,0.5,1,1,1c0.8,0,1.2-0.5,1.4-1c0-0.1,0.1-0.2,0.1-0.3V191.8z"/>
	<path d="M1335.5,190.6c0-0.6,0-1.1,0-1.6h0.9l0.1,1h0c0.3-0.6,1-1.1,1.9-1.1c0.8,0,2.1,0.5,2.1,2.5v3.5h-1.1v-3.3
		c0-0.9-0.3-1.7-1.3-1.7c-0.7,0-1.2,0.5-1.4,1.1c0,0.1-0.1,0.3-0.1,0.5v3.5h-1.1V190.6z"/>
	<path d="M1347.7,191.9l-5.6,2.9V194l4.7-2.4v0l-4.7-2.4v-0.8l5.6,2.9V191.9z"/>
	<path d="M1025.3,205.7l5.6-2.9v0.8l-4.7,2.4v0l4.7,2.4v0.8l-5.6-2.9V205.7z"/>
	<path d="M1032.4,208.1c0.3,0.2,0.9,0.4,1.4,0.4c0.8,0,1.1-0.4,1.1-0.9c0-0.5-0.3-0.8-1.1-1.1c-1-0.4-1.5-0.9-1.5-1.6
		c0-0.9,0.8-1.7,2-1.7c0.6,0,1.1,0.2,1.4,0.4l-0.3,0.8c-0.2-0.1-0.6-0.3-1.2-0.3c-0.6,0-1,0.4-1,0.8c0,0.5,0.3,0.7,1.1,1
		c1,0.4,1.5,0.9,1.5,1.8c0,1-0.8,1.7-2.2,1.7c-0.6,0-1.2-0.2-1.6-0.4L1032.4,208.1z"/>
	<path d="M1037.3,205.3c0-0.7,0-1.3,0-1.9h0.9l0,1h0c0.4-0.7,1.1-1.1,2.1-1.1c1.4,0,2.5,1.2,2.5,3c0,2.1-1.3,3.1-2.6,3.1
		c-0.8,0-1.4-0.3-1.8-0.9h0v3.2h-1V205.3z M1038.3,206.8c0,0.2,0,0.3,0,0.4c0.2,0.7,0.8,1.2,1.6,1.2c1.1,0,1.8-0.9,1.8-2.2
		c0-1.2-0.6-2.2-1.7-2.2c-0.7,0-1.4,0.5-1.6,1.3c0,0.1-0.1,0.3-0.1,0.4V206.8z"/>
	<path d="M1047.3,209.2l-0.1-0.7h0c-0.3,0.5-0.9,0.9-1.8,0.9c-1.2,0-1.8-0.8-1.8-1.7c0-1.4,1.2-2.2,3.5-2.2v-0.1
		c0-0.5-0.1-1.3-1.3-1.3c-0.5,0-1.1,0.2-1.5,0.4l-0.2-0.7c0.5-0.3,1.2-0.5,1.9-0.5c1.8,0,2.2,1.2,2.2,2.4v2.2c0,0.5,0,1,0.1,1.4
		H1047.3z M1047.1,206.2c-1.2,0-2.5,0.2-2.5,1.3c0,0.7,0.5,1,1,1c0.8,0,1.2-0.5,1.4-1c0-0.1,0.1-0.2,0.1-0.3V206.2z"/>
	<path d="M1049.9,205c0-0.6,0-1.1,0-1.6h0.9l0.1,1h0c0.3-0.6,1-1.1,1.9-1.1c0.8,0,2.1,0.5,2.1,2.5v3.5h-1.1v-3.3
		c0-0.9-0.3-1.7-1.3-1.7c-0.7,0-1.2,0.5-1.4,1.1c0,0.1-0.1,0.3-0.1,0.5v3.5h-1.1V205z"/>
	<path d="M1058.9,208.1c0.3,0.2,0.9,0.4,1.4,0.4c0.8,0,1.1-0.4,1.1-0.9c0-0.5-0.3-0.8-1.1-1.1c-1-0.4-1.5-0.9-1.5-1.6
		c0-0.9,0.8-1.7,2-1.7c0.6,0,1.1,0.2,1.4,0.4l-0.3,0.8c-0.2-0.1-0.6-0.3-1.2-0.3c-0.6,0-1,0.4-1,0.8c0,0.5,0.3,0.7,1.1,1
		c1,0.4,1.5,0.9,1.5,1.8c0,1-0.8,1.7-2.2,1.7c-0.6,0-1.2-0.2-1.6-0.4L1058.9,208.1z"/>
	<path d="M1065.1,201.7v1.7h1.5v0.8h-1.5v3.1c0,0.7,0.2,1.1,0.8,1.1c0.3,0,0.5,0,0.6-0.1l0,0.8c-0.2,0.1-0.5,0.1-0.9,0.1
		c-0.5,0-0.9-0.2-1.1-0.4c-0.3-0.3-0.4-0.8-0.4-1.5v-3.2h-0.9v-0.8h0.9V202L1065.1,201.7z"/>
	<path d="M1068.3,203.4l1.3,3.4c0.1,0.4,0.3,0.8,0.4,1.2h0c0.1-0.3,0.2-0.8,0.4-1.2l1.2-3.4h1.1l-1.6,4.1c-0.8,2-1.3,3-2,3.6
		c-0.5,0.5-1,0.6-1.3,0.7l-0.3-0.9c0.3-0.1,0.6-0.3,0.9-0.5c0.3-0.2,0.6-0.6,0.9-1.2c0-0.1,0.1-0.2,0.1-0.3c0-0.1,0-0.1-0.1-0.3
		l-2.1-5.3H1068.3z"/>
	<path d="M1073.6,200.7h1.1v8.5h-1.1V200.7z"/>
	<path d="M1077,206.5c0,1.4,0.9,2,2,2c0.8,0,1.2-0.1,1.6-0.3l0.2,0.8c-0.4,0.2-1,0.4-1.9,0.4c-1.8,0-2.9-1.2-2.9-2.9s1-3.1,2.7-3.1
		c1.9,0,2.4,1.7,2.4,2.7c0,0.2,0,0.4,0,0.5H1077z M1080.1,205.7c0-0.7-0.3-1.7-1.5-1.7c-1.1,0-1.5,1-1.6,1.7H1080.1z"/>
	<path d="M1082,205.2v-0.7h6.2v0.7H1082z M1082,207.5v-0.7h6.2v0.7H1082z"/>
	<path d="M1090.3,201l-0.2,2.9h-0.6l-0.2-2.9H1090.3z M1092.1,201l-0.2,2.9h-0.6l-0.2-2.9H1092.1z"/>
	<path d="M1094,209.2v-5h-0.8v-0.8h0.8v-0.3c0-0.8,0.3-1.5,0.8-2c0.5-0.4,1.1-0.6,1.9-0.6c0.7,0,1.3,0.1,1.7,0.4v8.3h-1v-7.7
		c-0.2-0.1-0.5-0.2-0.9-0.2c-1.1,0-1.5,0.8-1.5,1.7v0.3h1.4v0.8h-1.4v5H1094z"/>
	<path d="M1105.4,206.2c0,2.1-1.5,3.1-2.9,3.1c-1.6,0-2.8-1.2-2.8-3c0-1.9,1.3-3.1,2.9-3.1C1104.3,203.3,1105.4,204.5,1105.4,206.2z
		 M1100.8,206.3c0,1.3,0.7,2.2,1.8,2.2c1,0,1.8-0.9,1.8-2.3c0-1-0.5-2.2-1.7-2.2C1101.4,204,1100.8,205.2,1100.8,206.3z"/>
	<path d="M1110,209.2l-0.1-0.7h0c-0.3,0.5-0.9,0.9-1.8,0.9c-1.2,0-1.8-0.8-1.8-1.7c0-1.4,1.2-2.2,3.5-2.2v-0.1
		c0-0.5-0.1-1.3-1.3-1.3c-0.5,0-1.1,0.2-1.5,0.4l-0.2-0.7c0.5-0.3,1.2-0.5,1.9-0.5c1.8,0,2.2,1.2,2.2,2.4v2.2c0,0.5,0,1,0.1,1.4
		H1110z M1109.8,206.2c-1.2,0-2.5,0.2-2.5,1.3c0,0.7,0.5,1,1,1c0.8,0,1.2-0.5,1.4-1c0-0.1,0.1-0.2,0.1-0.3V206.2z"/>
	<path d="M1113.8,201.7v1.7h1.5v0.8h-1.5v3.1c0,0.7,0.2,1.1,0.8,1.1c0.3,0,0.5,0,0.6-0.1l0,0.8c-0.2,0.1-0.5,0.1-0.9,0.1
		c-0.5,0-0.9-0.2-1.1-0.4c-0.3-0.3-0.4-0.8-0.4-1.5v-3.2h-0.9v-0.8h0.9V202L1113.8,201.7z"/>
	<path d="M1116.2,204.3c0-0.4,0.3-0.8,0.7-0.8s0.7,0.3,0.7,0.8c0,0.4-0.3,0.7-0.7,0.7C1116.5,205.1,1116.2,204.8,1116.2,204.3z
		 M1116.2,208.6c0-0.4,0.3-0.8,0.7-0.8s0.7,0.3,0.7,0.8c0,0.4-0.3,0.7-0.7,0.7C1116.5,209.3,1116.2,209,1116.2,208.6z"/>
	<path d="M1119,200.7h1.1v8.5h-1.1V200.7z"/>
	<path d="M1122.4,206.5c0,1.4,0.9,2,2,2c0.8,0,1.2-0.1,1.6-0.3l0.2,0.8c-0.4,0.2-1,0.4-1.9,0.4c-1.8,0-2.9-1.2-2.9-2.9
		s1-3.1,2.7-3.1c1.9,0,2.4,1.7,2.4,2.7c0,0.2,0,0.4,0,0.5H1122.4z M1125.5,205.7c0-0.7-0.3-1.7-1.5-1.7c-1.1,0-1.5,1-1.6,1.7H1125.5
		z"/>
	<path d="M1127.9,209.2v-5h-0.8v-0.8h0.8v-0.3c0-0.8,0.2-1.6,0.7-2c0.4-0.4,0.9-0.5,1.4-0.5c0.4,0,0.7,0.1,0.9,0.2l-0.1,0.8
		c-0.2-0.1-0.4-0.1-0.7-0.1c-0.9,0-1.1,0.8-1.1,1.7v0.3h1.4v0.8h-1.4v5H1127.9z"/>
	<path d="M1132.7,201.7v1.7h1.5v0.8h-1.5v3.1c0,0.7,0.2,1.1,0.8,1.1c0.3,0,0.5,0,0.6-0.1l0,0.8c-0.2,0.1-0.5,0.1-0.9,0.1
		c-0.5,0-0.9-0.2-1.1-0.4c-0.3-0.3-0.4-0.8-0.4-1.5v-3.2h-0.9v-0.8h0.9V202L1132.7,201.7z"/>
	<path d="M1134.7,210.7c0.3-0.7,0.6-2,0.7-2.9l1.2-0.1c-0.3,1-0.8,2.4-1.2,2.9L1134.7,210.7z M1135.2,204.3c0-0.4,0.3-0.8,0.7-0.8
		c0.4,0,0.7,0.3,0.7,0.8c0,0.4-0.3,0.7-0.7,0.7C1135.5,205.1,1135.2,204.8,1135.2,204.3z"/>
	<path d="M1140.9,203.4l0.8,3c0.2,0.6,0.3,1.2,0.4,1.8h0c0.1-0.6,0.3-1.2,0.5-1.8l0.9-3h0.9l0.9,2.9c0.2,0.7,0.4,1.3,0.5,1.9h0
		c0.1-0.6,0.3-1.2,0.4-1.9l0.8-2.9h1l-1.9,5.8h-1l-0.9-2.8c-0.2-0.6-0.4-1.2-0.5-1.9h0c-0.1,0.7-0.3,1.3-0.5,1.9l-0.9,2.8h-1
		l-1.8-5.8H1140.9z"/>
	<path d="M1150.4,201.8c0,0.4-0.3,0.6-0.7,0.6c-0.4,0-0.6-0.3-0.6-0.6c0-0.4,0.3-0.7,0.7-0.7
		C1150.2,201.1,1150.4,201.4,1150.4,201.8z M1149.3,209.2v-5.8h1.1v5.8H1149.3z"/>
	<path d="M1157.1,200.7v7c0,0.5,0,1.1,0,1.5h-0.9l0-1h0c-0.3,0.6-1,1.1-2,1.1c-1.4,0-2.5-1.2-2.5-3c0-1.9,1.2-3.1,2.6-3.1
		c0.9,0,1.5,0.4,1.8,0.9h0v-3.5H1157.1z M1156,205.7c0-0.1,0-0.3,0-0.4c-0.2-0.7-0.7-1.2-1.5-1.2c-1.1,0-1.7,1-1.7,2.2
		c0,1.2,0.6,2.1,1.7,2.1c0.7,0,1.4-0.5,1.5-1.3c0-0.1,0-0.3,0-0.5V205.7z"/>
	<path d="M1160.1,201.7v1.7h1.5v0.8h-1.5v3.1c0,0.7,0.2,1.1,0.8,1.1c0.3,0,0.5,0,0.6-0.1l0,0.8c-0.2,0.1-0.5,0.1-0.9,0.1
		c-0.5,0-0.9-0.2-1.1-0.4c-0.3-0.3-0.4-0.8-0.4-1.5v-3.2h-0.9v-0.8h0.9V202L1160.1,201.7z"/>
	<path d="M1162.8,200.7h1.1v3.6h0c0.2-0.3,0.4-0.6,0.8-0.7c0.3-0.2,0.7-0.3,1.1-0.3c0.8,0,2,0.5,2,2.5v3.5h-1.1v-3.3
		c0-0.9-0.3-1.7-1.3-1.7c-0.7,0-1.2,0.5-1.4,1.1c-0.1,0.1-0.1,0.3-0.1,0.5v3.5h-1.1V200.7z"/>
	<path d="M1169.2,204.3c0-0.4,0.3-0.8,0.7-0.8s0.7,0.3,0.7,0.8c0,0.4-0.3,0.7-0.7,0.7C1169.5,205.1,1169.2,204.8,1169.2,204.3z
		 M1169.2,208.6c0-0.4,0.3-0.8,0.7-0.8s0.7,0.3,0.7,0.8c0,0.4-0.3,0.7-0.7,0.7C1169.5,209.3,1169.2,209,1169.2,208.6z"/>
	<path d="M1174.2,209.2v-0.6l0.8-0.8c2-1.9,2.9-2.9,2.9-4.1c0-0.8-0.4-1.5-1.5-1.5c-0.7,0-1.3,0.4-1.7,0.7l-0.3-0.7
		c0.5-0.5,1.3-0.8,2.2-0.8c1.7,0,2.4,1.2,2.4,2.3c0,1.4-1,2.6-2.7,4.2l-0.6,0.6v0h3.5v0.9H1174.2z"/>
	<path d="M1185,202.3h-3l-0.3,2c0.2,0,0.3,0,0.6,0c0.6,0,1.2,0.1,1.7,0.4c0.6,0.3,1.1,1,1.1,2c0,1.5-1.2,2.7-2.9,2.7
		c-0.9,0-1.6-0.2-1.9-0.5l0.3-0.8c0.3,0.2,1,0.4,1.7,0.4c1,0,1.8-0.6,1.8-1.7c0-1-0.7-1.7-2.2-1.7c-0.4,0-0.8,0-1.1,0.1l0.5-3.7h3.7
		V202.3z"/>
	<path d="M1190,203.6c0,1.6-0.9,2.5-1.9,2.5c-1,0-1.8-0.8-1.8-2.4c0-1.6,0.9-2.4,1.9-2.4C1189.3,201.3,1190,202.1,1190,203.6z
		 M1187.1,203.7c0,1,0.3,1.8,1,1.8c0.7,0,1-0.7,1-1.8c0-0.9-0.3-1.7-1-1.7C1187.5,201.9,1187.1,202.7,1187.1,203.7z M1188,209.3
		l4.6-8.1h0.7l-4.6,8.1H1188z M1195.1,206.8c0,1.6-0.9,2.5-1.9,2.5c-1,0-1.8-0.8-1.8-2.3c0-1.6,0.9-2.4,1.9-2.4
		C1194.4,204.5,1195.1,205.3,1195.1,206.8z M1192.2,206.9c0,1,0.4,1.8,1,1.8c0.7,0,1-0.7,1-1.8c0-0.9-0.3-1.7-1-1.7
		C1192.6,205.1,1192.2,205.9,1192.2,206.9z"/>
	<path d="M1197.1,201l-0.2,2.9h-0.6l-0.2-2.9H1197.1z M1198.9,201l-0.2,2.9h-0.6l-0.2-2.9H1198.9z"/>
	<path d="M1205.8,206.3l-5.6,2.9v-0.8l4.7-2.4v0l-4.7-2.4v-0.8l5.6,2.9V206.3z"/>
	<path d="M1207.8,209.2l0.3-2.4h-1v-0.7h1.1l0.2-1.7h-1v-0.7h1.1l0.3-2.3h0.7l-0.3,2.3h1.2l0.3-2.3h0.7l-0.3,2.3h1v0.7h-1.1
		l-0.2,1.7h1v0.7h-1.1l-0.3,2.4h-0.7l0.3-2.4h-1.2l-0.3,2.4H1207.8z M1210.1,206.1l0.2-1.7h-1.2l-0.2,1.7H1210.1z"/>
	<path d="M1215.9,207.9c0.5,0.3,1.2,0.5,1.9,0.5c1.1,0,1.7-0.6,1.7-1.4c0-0.8-0.4-1.2-1.5-1.6c-1.3-0.5-2.1-1.2-2.1-2.3
		c0-1.3,1-2.2,2.6-2.2c0.8,0,1.4,0.2,1.8,0.4l-0.3,0.9c-0.3-0.1-0.8-0.4-1.5-0.4c-1.1,0-1.5,0.7-1.5,1.2c0,0.8,0.5,1.1,1.6,1.6
		c1.4,0.5,2.1,1.2,2.1,2.4c0,1.2-0.9,2.3-2.8,2.3c-0.8,0-1.6-0.2-2.1-0.5L1215.9,207.9z"/>
	<path d="M1222.6,206.5c0,1.4,0.9,2,2,2c0.8,0,1.2-0.1,1.6-0.3l0.2,0.8c-0.4,0.2-1,0.4-1.9,0.4c-1.8,0-2.9-1.2-2.9-2.9
		s1-3.1,2.7-3.1c1.9,0,2.4,1.7,2.4,2.7c0,0.2,0,0.4,0,0.5H1222.6z M1225.7,205.7c0-0.7-0.3-1.7-1.5-1.7c-1.1,0-1.5,1-1.6,1.7H1225.7
		z"/>
	<path d="M1228,205.2c0-0.7,0-1.3,0-1.8h0.9l0,1.1h0c0.3-0.8,0.9-1.3,1.6-1.3c0.1,0,0.2,0,0.3,0v1c-0.1,0-0.2,0-0.4,0
		c-0.7,0-1.3,0.6-1.4,1.4c0,0.1,0,0.3,0,0.5v3.1h-1V205.2z"/>
	<path d="M1232.7,203.4l1.1,3.3c0.2,0.5,0.3,1,0.5,1.5h0c0.1-0.5,0.3-1,0.5-1.5l1.1-3.3h1.1l-2.3,5.8h-1l-2.2-5.8H1232.7z"/>
	<path d="M1239.2,201.8c0,0.4-0.3,0.6-0.7,0.6c-0.4,0-0.6-0.3-0.6-0.6c0-0.4,0.3-0.7,0.7-0.7
		C1238.9,201.1,1239.2,201.4,1239.2,201.8z M1238,209.2v-5.8h1.1v5.8H1238z"/>
	<path d="M1245,209c-0.3,0.1-0.9,0.3-1.7,0.3c-1.8,0-2.9-1.2-2.9-3c0-1.8,1.2-3.1,3.1-3.1c0.6,0,1.2,0.2,1.5,0.3l-0.2,0.8
		c-0.3-0.1-0.6-0.3-1.2-0.3c-1.3,0-2.1,1-2.1,2.2c0,1.3,0.9,2.2,2,2.2c0.6,0,1-0.2,1.3-0.3L1245,209z"/>
	<path d="M1246.7,206.5c0,1.4,0.9,2,2,2c0.8,0,1.2-0.1,1.6-0.3l0.2,0.8c-0.4,0.2-1,0.4-1.9,0.4c-1.8,0-2.9-1.2-2.9-2.9
		s1-3.1,2.7-3.1c1.9,0,2.4,1.7,2.4,2.7c0,0.2,0,0.4,0,0.5H1246.7z M1249.8,205.7c0-0.7-0.3-1.7-1.5-1.7c-1.1,0-1.5,1-1.6,1.7H1249.8
		z"/>
	<path d="M1255.8,201.1v8.1h-1v-8.1H1255.8z"/>
	<path d="M1262.6,200.7v7c0,0.5,0,1.1,0,1.5h-0.9l0-1h0c-0.3,0.6-1,1.1-2,1.1c-1.4,0-2.5-1.2-2.5-3c0-1.9,1.2-3.1,2.6-3.1
		c0.9,0,1.5,0.4,1.8,0.9h0v-3.5H1262.6z M1261.5,205.7c0-0.1,0-0.3,0-0.4c-0.2-0.7-0.7-1.2-1.5-1.2c-1.1,0-1.7,1-1.7,2.2
		c0,1.2,0.6,2.1,1.7,2.1c0.7,0,1.4-0.5,1.5-1.3c0-0.1,0-0.3,0-0.5V205.7z"/>
	<path d="M1264.9,206.5c0,1.4,0.9,2,2,2c0.8,0,1.2-0.1,1.6-0.3l0.2,0.8c-0.4,0.2-1,0.4-1.9,0.4c-1.8,0-2.9-1.2-2.9-2.9
		s1-3.1,2.7-3.1c1.9,0,2.4,1.7,2.4,2.7c0,0.2,0,0.4,0,0.5H1264.9z M1268,205.7c0-0.7-0.3-1.7-1.5-1.7c-1.1,0-1.5,1-1.6,1.7H1268z"/>
	<path d="M1270.3,205c0-0.6,0-1.1,0-1.6h0.9l0.1,1h0c0.3-0.6,1-1.1,1.9-1.1c0.8,0,2.1,0.5,2.1,2.5v3.5h-1.1v-3.3
		c0-0.9-0.3-1.7-1.3-1.7c-0.7,0-1.2,0.5-1.4,1.1c0,0.1-0.1,0.3-0.1,0.5v3.5h-1.1V205z"/>
	<path d="M1278.2,201.7v1.7h1.5v0.8h-1.5v3.1c0,0.7,0.2,1.1,0.8,1.1c0.3,0,0.5,0,0.6-0.1l0,0.8c-0.2,0.1-0.5,0.1-0.9,0.1
		c-0.5,0-0.9-0.2-1.1-0.4c-0.3-0.3-0.4-0.8-0.4-1.5v-3.2h-0.9v-0.8h0.9V202L1278.2,201.7z"/>
	<path d="M1282.1,201.8c0,0.4-0.3,0.6-0.7,0.6c-0.4,0-0.6-0.3-0.6-0.6c0-0.4,0.3-0.7,0.7-0.7
		C1281.8,201.1,1282.1,201.4,1282.1,201.8z M1280.9,209.2v-5.8h1.1v5.8H1280.9z"/>
	<path d="M1285,201.7v1.7h1.5v0.8h-1.5v3.1c0,0.7,0.2,1.1,0.8,1.1c0.3,0,0.5,0,0.6-0.1l0,0.8c-0.2,0.1-0.5,0.1-0.9,0.1
		c-0.5,0-0.9-0.2-1.1-0.4c-0.3-0.3-0.4-0.8-0.4-1.5v-3.2h-0.9v-0.8h0.9V202L1285,201.7z"/>
	<path d="M1288.2,203.4l1.3,3.4c0.1,0.4,0.3,0.8,0.4,1.2h0c0.1-0.3,0.2-0.8,0.4-1.2l1.2-3.4h1.1l-1.6,4.1c-0.8,2-1.3,3-2,3.6
		c-0.5,0.5-1,0.6-1.3,0.7l-0.3-0.9c0.3-0.1,0.6-0.3,0.9-0.5c0.3-0.2,0.6-0.6,0.9-1.2c0-0.1,0.1-0.2,0.1-0.3c0-0.1,0-0.1-0.1-0.3
		l-2.1-5.3H1288.2z"/>
	<path d="M1296.2,209.2l0.3-2.4h-1v-0.7h1.1l0.2-1.7h-1v-0.7h1.1l0.3-2.3h0.7l-0.3,2.3h1.2l0.3-2.3h0.7l-0.3,2.3h1v0.7h-1.1
		l-0.2,1.7h1v0.7h-1.1l-0.3,2.4h-0.7l0.3-2.4h-1.2l-0.3,2.4H1296.2z M1298.6,206.1l0.2-1.7h-1.2l-0.2,1.7H1298.6z"/>
	<path d="M1301.9,205.7l5.6-2.9v0.8l-4.7,2.4v0l4.7,2.4v0.8l-5.6-2.9V205.7z"/>
	<path d="M1308.2,209.7l3.3-8.7h0.8l-3.4,8.7H1308.2z"/>
	<path d="M1313.1,208.1c0.3,0.2,0.9,0.4,1.4,0.4c0.8,0,1.1-0.4,1.1-0.9c0-0.5-0.3-0.8-1.1-1.1c-1-0.4-1.5-0.9-1.5-1.6
		c0-0.9,0.8-1.7,2-1.7c0.6,0,1.1,0.2,1.4,0.4l-0.3,0.8c-0.2-0.1-0.6-0.3-1.2-0.3c-0.6,0-1,0.4-1,0.8c0,0.5,0.3,0.7,1.1,1
		c1,0.4,1.5,0.9,1.5,1.8c0,1-0.8,1.7-2.2,1.7c-0.6,0-1.2-0.2-1.6-0.4L1313.1,208.1z"/>
	<path d="M1318,205.3c0-0.7,0-1.3,0-1.9h0.9l0,1h0c0.4-0.7,1.1-1.1,2.1-1.1c1.4,0,2.5,1.2,2.5,3c0,2.1-1.3,3.1-2.6,3.1
		c-0.8,0-1.4-0.3-1.8-0.9h0v3.2h-1V205.3z M1319,206.8c0,0.2,0,0.3,0,0.4c0.2,0.7,0.8,1.2,1.6,1.2c1.1,0,1.8-0.9,1.8-2.2
		c0-1.2-0.6-2.2-1.7-2.2c-0.7,0-1.4,0.5-1.6,1.3c0,0.1-0.1,0.3-0.1,0.4V206.8z"/>
	<path d="M1328,209.2l-0.1-0.7h0c-0.3,0.5-0.9,0.9-1.8,0.9c-1.2,0-1.8-0.8-1.8-1.7c0-1.4,1.2-2.2,3.5-2.2v-0.1
		c0-0.5-0.1-1.3-1.3-1.3c-0.5,0-1.1,0.2-1.5,0.4l-0.2-0.7c0.5-0.3,1.2-0.5,1.9-0.5c1.8,0,2.2,1.2,2.2,2.4v2.2c0,0.5,0,1,0.1,1.4
		H1328z M1327.9,206.2c-1.2,0-2.5,0.2-2.5,1.3c0,0.7,0.5,1,1,1c0.8,0,1.2-0.5,1.4-1c0-0.1,0.1-0.2,0.1-0.3V206.2z"/>
	<path d="M1330.6,205c0-0.6,0-1.1,0-1.6h0.9l0.1,1h0c0.3-0.6,1-1.1,1.9-1.1c0.8,0,2.1,0.5,2.1,2.5v3.5h-1.1v-3.3
		c0-0.9-0.3-1.7-1.3-1.7c-0.7,0-1.2,0.5-1.4,1.1c0,0.1-0.1,0.3-0.1,0.5v3.5h-1.1V205z"/>
	<path d="M1342.7,206.3l-5.6,2.9v-0.8l4.7-2.4v0l-4.7-2.4v-0.8l5.6,2.9V206.3z"/>
	<path d="M1025.3,220.1l5.6-2.9v0.8l-4.7,2.4v0l4.7,2.4v0.8l-5.6-2.9V220.1z"/>
	<path d="M1032.4,222.5c0.3,0.2,0.9,0.4,1.4,0.4c0.8,0,1.1-0.4,1.1-0.9c0-0.5-0.3-0.8-1.1-1.1c-1-0.4-1.5-0.9-1.5-1.6
		c0-0.9,0.8-1.7,2-1.7c0.6,0,1.1,0.2,1.4,0.4l-0.3,0.8c-0.2-0.1-0.6-0.3-1.2-0.3c-0.6,0-1,0.4-1,0.8c0,0.5,0.3,0.7,1.1,1
		c1,0.4,1.5,0.9,1.5,1.8c0,1-0.8,1.7-2.2,1.7c-0.6,0-1.2-0.2-1.6-0.4L1032.4,222.5z"/>
	<path d="M1037.3,219.7c0-0.7,0-1.3,0-1.9h0.9l0,1h0c0.4-0.7,1.1-1.1,2.1-1.1c1.4,0,2.5,1.2,2.5,3c0,2.1-1.3,3.1-2.6,3.1
		c-0.8,0-1.4-0.3-1.8-0.9h0v3.2h-1V219.7z M1038.3,221.2c0,0.2,0,0.3,0,0.4c0.2,0.7,0.8,1.2,1.6,1.2c1.1,0,1.8-0.9,1.8-2.2
		c0-1.2-0.6-2.2-1.7-2.2c-0.7,0-1.4,0.5-1.6,1.3c0,0.1-0.1,0.3-0.1,0.4V221.2z"/>
	<path d="M1047.3,223.6l-0.1-0.7h0c-0.3,0.5-0.9,0.9-1.8,0.9c-1.2,0-1.8-0.8-1.8-1.7c0-1.4,1.2-2.2,3.5-2.2v-0.1
		c0-0.5-0.1-1.3-1.3-1.3c-0.5,0-1.1,0.2-1.5,0.4l-0.2-0.7c0.5-0.3,1.2-0.5,1.9-0.5c1.8,0,2.2,1.2,2.2,2.4v2.2c0,0.5,0,1,0.1,1.4
		H1047.3z M1047.1,220.6c-1.2,0-2.5,0.2-2.5,1.3c0,0.7,0.5,1,1,1c0.8,0,1.2-0.5,1.4-1c0-0.1,0.1-0.2,0.1-0.3V220.6z"/>
	<path d="M1049.9,219.4c0-0.6,0-1.1,0-1.6h0.9l0.1,1h0c0.3-0.6,1-1.1,1.9-1.1c0.8,0,2.1,0.5,2.1,2.5v3.5h-1.1v-3.3
		c0-0.9-0.3-1.7-1.3-1.7c-0.7,0-1.2,0.5-1.4,1.1c0,0.1-0.1,0.3-0.1,0.5v3.5h-1.1V219.4z"/>
	<path d="M1058.9,222.5c0.3,0.2,0.9,0.4,1.4,0.4c0.8,0,1.1-0.4,1.1-0.9c0-0.5-0.3-0.8-1.1-1.1c-1-0.4-1.5-0.9-1.5-1.6
		c0-0.9,0.8-1.7,2-1.7c0.6,0,1.1,0.2,1.4,0.4l-0.3,0.8c-0.2-0.1-0.6-0.3-1.2-0.3c-0.6,0-1,0.4-1,0.8c0,0.5,0.3,0.7,1.1,1
		c1,0.4,1.5,0.9,1.5,1.8c0,1-0.8,1.7-2.2,1.7c-0.6,0-1.2-0.2-1.6-0.4L1058.9,222.5z"/>
	<path d="M1065.1,216.1v1.7h1.5v0.8h-1.5v3.1c0,0.7,0.2,1.1,0.8,1.1c0.3,0,0.5,0,0.6-0.1l0,0.8c-0.2,0.1-0.5,0.1-0.9,0.1
		c-0.5,0-0.9-0.2-1.1-0.4c-0.3-0.3-0.4-0.8-0.4-1.5v-3.2h-0.9v-0.8h0.9v-1.4L1065.1,216.1z"/>
	<path d="M1068.3,217.8l1.3,3.4c0.1,0.4,0.3,0.8,0.4,1.2h0c0.1-0.3,0.2-0.8,0.4-1.2l1.2-3.4h1.1l-1.6,4.1c-0.8,2-1.3,3-2,3.6
		c-0.5,0.5-1,0.6-1.3,0.7l-0.3-0.9c0.3-0.1,0.6-0.3,0.9-0.5c0.3-0.2,0.6-0.6,0.9-1.2c0-0.1,0.1-0.2,0.1-0.3c0-0.1,0-0.1-0.1-0.3
		l-2.1-5.3H1068.3z"/>
	<path d="M1073.6,215.1h1.1v8.5h-1.1V215.1z"/>
	<path d="M1077,220.9c0,1.4,0.9,2,2,2c0.8,0,1.2-0.1,1.6-0.3l0.2,0.8c-0.4,0.2-1,0.4-1.9,0.4c-1.8,0-2.9-1.2-2.9-2.9s1-3.1,2.7-3.1
		c1.9,0,2.4,1.7,2.4,2.7c0,0.2,0,0.4,0,0.5H1077z M1080.1,220.1c0-0.7-0.3-1.7-1.5-1.7c-1.1,0-1.5,1-1.6,1.7H1080.1z"/>
	<path d="M1082,219.5v-0.7h6.2v0.7H1082z M1082,221.9v-0.7h6.2v0.7H1082z"/>
	<path d="M1090.3,215.4l-0.2,2.9h-0.6l-0.2-2.9H1090.3z M1092.1,215.4l-0.2,2.9h-0.6l-0.2-2.9H1092.1z"/>
	<path d="M1094,223.6v-5h-0.8v-0.8h0.8v-0.3c0-0.8,0.3-1.5,0.8-2c0.5-0.4,1.1-0.6,1.9-0.6c0.7,0,1.3,0.1,1.7,0.4v8.3h-1v-7.7
		c-0.2-0.1-0.5-0.2-0.9-0.2c-1.1,0-1.5,0.8-1.5,1.7v0.3h1.4v0.8h-1.4v5H1094z"/>
	<path d="M1105.4,220.6c0,2.1-1.5,3.1-2.9,3.1c-1.6,0-2.8-1.2-2.8-3c0-1.9,1.3-3.1,2.9-3.1C1104.3,217.7,1105.4,218.9,1105.4,220.6z
		 M1100.8,220.7c0,1.3,0.7,2.2,1.8,2.2c1,0,1.8-0.9,1.8-2.3c0-1-0.5-2.2-1.7-2.2C1101.4,218.4,1100.8,219.6,1100.8,220.7z"/>
	<path d="M1110,223.6l-0.1-0.7h0c-0.3,0.5-0.9,0.9-1.8,0.9c-1.2,0-1.8-0.8-1.8-1.7c0-1.4,1.2-2.2,3.5-2.2v-0.1
		c0-0.5-0.1-1.3-1.3-1.3c-0.5,0-1.1,0.2-1.5,0.4l-0.2-0.7c0.5-0.3,1.2-0.5,1.9-0.5c1.8,0,2.2,1.2,2.2,2.4v2.2c0,0.5,0,1,0.1,1.4
		H1110z M1109.8,220.6c-1.2,0-2.5,0.2-2.5,1.3c0,0.7,0.5,1,1,1c0.8,0,1.2-0.5,1.4-1c0-0.1,0.1-0.2,0.1-0.3V220.6z"/>
	<path d="M1113.8,216.1v1.7h1.5v0.8h-1.5v3.1c0,0.7,0.2,1.1,0.8,1.1c0.3,0,0.5,0,0.6-0.1l0,0.8c-0.2,0.1-0.5,0.1-0.9,0.1
		c-0.5,0-0.9-0.2-1.1-0.4c-0.3-0.3-0.4-0.8-0.4-1.5v-3.2h-0.9v-0.8h0.9v-1.4L1113.8,216.1z"/>
	<path d="M1116.2,218.7c0-0.4,0.3-0.8,0.7-0.8s0.7,0.3,0.7,0.8c0,0.4-0.3,0.7-0.7,0.7C1116.5,219.5,1116.2,219.2,1116.2,218.7z
		 M1116.2,223c0-0.4,0.3-0.8,0.7-0.8s0.7,0.3,0.7,0.8c0,0.4-0.3,0.7-0.7,0.7C1116.5,223.7,1116.2,223.4,1116.2,223z"/>
	<path d="M1119,215.1h1.1v8.5h-1.1V215.1z"/>
	<path d="M1122.4,220.9c0,1.4,0.9,2,2,2c0.8,0,1.2-0.1,1.6-0.3l0.2,0.8c-0.4,0.2-1,0.4-1.9,0.4c-1.8,0-2.9-1.2-2.9-2.9
		s1-3.1,2.7-3.1c1.9,0,2.4,1.7,2.4,2.7c0,0.2,0,0.4,0,0.5H1122.4z M1125.5,220.1c0-0.7-0.3-1.7-1.5-1.7c-1.1,0-1.5,1-1.6,1.7H1125.5
		z"/>
	<path d="M1127.9,223.6v-5h-0.8v-0.8h0.8v-0.3c0-0.8,0.2-1.6,0.7-2c0.4-0.4,0.9-0.5,1.4-0.5c0.4,0,0.7,0.1,0.9,0.2l-0.1,0.8
		c-0.2-0.1-0.4-0.1-0.7-0.1c-0.9,0-1.1,0.8-1.1,1.7v0.3h1.4v0.8h-1.4v5H1127.9z"/>
	<path d="M1132.7,216.1v1.7h1.5v0.8h-1.5v3.1c0,0.7,0.2,1.1,0.8,1.1c0.3,0,0.5,0,0.6-0.1l0,0.8c-0.2,0.1-0.5,0.1-0.9,0.1
		c-0.5,0-0.9-0.2-1.1-0.4c-0.3-0.3-0.4-0.8-0.4-1.5v-3.2h-0.9v-0.8h0.9v-1.4L1132.7,216.1z"/>
	<path d="M1134.7,225.1c0.3-0.7,0.6-2,0.7-2.9l1.2-0.1c-0.3,1-0.8,2.4-1.2,2.9L1134.7,225.1z M1135.2,218.7c0-0.4,0.3-0.8,0.7-0.8
		c0.4,0,0.7,0.3,0.7,0.8c0,0.4-0.3,0.7-0.7,0.7C1135.5,219.5,1135.2,219.2,1135.2,218.7z"/>
	<path d="M1140.9,217.8l0.8,3c0.2,0.6,0.3,1.2,0.4,1.8h0c0.1-0.6,0.3-1.2,0.5-1.8l0.9-3h0.9l0.9,2.9c0.2,0.7,0.4,1.3,0.5,1.9h0
		c0.1-0.6,0.3-1.2,0.4-1.9l0.8-2.9h1l-1.9,5.8h-1l-0.9-2.8c-0.2-0.6-0.4-1.2-0.5-1.9h0c-0.1,0.7-0.3,1.3-0.5,1.9l-0.9,2.8h-1
		l-1.8-5.8H1140.9z"/>
	<path d="M1150.4,216.2c0,0.4-0.3,0.6-0.7,0.6c-0.4,0-0.6-0.3-0.6-0.6c0-0.4,0.3-0.7,0.7-0.7
		C1150.2,215.5,1150.4,215.8,1150.4,216.2z M1149.3,223.6v-5.8h1.1v5.8H1149.3z"/>
	<path d="M1157.1,215.1v7c0,0.5,0,1.1,0,1.5h-0.9l0-1h0c-0.3,0.6-1,1.1-2,1.1c-1.4,0-2.5-1.2-2.5-3c0-1.9,1.2-3.1,2.6-3.1
		c0.9,0,1.5,0.4,1.8,0.9h0v-3.5H1157.1z M1156,220.1c0-0.1,0-0.3,0-0.4c-0.2-0.7-0.7-1.2-1.5-1.2c-1.1,0-1.7,1-1.7,2.2
		c0,1.2,0.6,2.1,1.7,2.1c0.7,0,1.4-0.5,1.5-1.3c0-0.1,0-0.3,0-0.5V220.1z"/>
	<path d="M1160.1,216.1v1.7h1.5v0.8h-1.5v3.1c0,0.7,0.2,1.1,0.8,1.1c0.3,0,0.5,0,0.6-0.1l0,0.8c-0.2,0.1-0.5,0.1-0.9,0.1
		c-0.5,0-0.9-0.2-1.1-0.4c-0.3-0.3-0.4-0.8-0.4-1.5v-3.2h-0.9v-0.8h0.9v-1.4L1160.1,216.1z"/>
	<path d="M1162.8,215.1h1.1v3.6h0c0.2-0.3,0.4-0.6,0.8-0.7c0.3-0.2,0.7-0.3,1.1-0.3c0.8,0,2,0.5,2,2.5v3.5h-1.1v-3.3
		c0-0.9-0.3-1.7-1.3-1.7c-0.7,0-1.2,0.5-1.4,1.1c-0.1,0.1-0.1,0.3-0.1,0.5v3.5h-1.1V215.1z"/>
	<path d="M1169.2,218.7c0-0.4,0.3-0.8,0.7-0.8s0.7,0.3,0.7,0.8c0,0.4-0.3,0.7-0.7,0.7C1169.5,219.5,1169.2,219.2,1169.2,218.7z
		 M1169.2,223c0-0.4,0.3-0.8,0.7-0.8s0.7,0.3,0.7,0.8c0,0.4-0.3,0.7-0.7,0.7C1169.5,223.7,1169.2,223.4,1169.2,223z"/>
	<path d="M1174.2,223.6v-0.6l0.8-0.8c2-1.9,2.9-2.9,2.9-4.1c0-0.8-0.4-1.5-1.5-1.5c-0.7,0-1.3,0.4-1.7,0.7l-0.3-0.7
		c0.5-0.5,1.3-0.8,2.2-0.8c1.7,0,2.4,1.2,2.4,2.3c0,1.4-1,2.6-2.7,4.2l-0.6,0.6v0h3.5v0.9H1174.2z"/>
	<path d="M1185,216.7h-3l-0.3,2c0.2,0,0.3,0,0.6,0c0.6,0,1.2,0.1,1.7,0.4c0.6,0.3,1.1,1,1.1,2c0,1.5-1.2,2.7-2.9,2.7
		c-0.9,0-1.6-0.2-1.9-0.5l0.3-0.8c0.3,0.2,1,0.4,1.7,0.4c1,0,1.8-0.6,1.8-1.7c0-1-0.7-1.7-2.2-1.7c-0.4,0-0.8,0-1.1,0.1l0.5-3.7h3.7
		V216.7z"/>
	<path d="M1190,218c0,1.6-0.9,2.5-1.9,2.5c-1,0-1.8-0.8-1.8-2.4c0-1.6,0.9-2.4,1.9-2.4C1189.3,215.7,1190,216.5,1190,218z
		 M1187.1,218.1c0,1,0.3,1.8,1,1.8c0.7,0,1-0.7,1-1.8c0-0.9-0.3-1.7-1-1.7C1187.5,216.3,1187.1,217.1,1187.1,218.1z M1188,223.7
		l4.6-8.1h0.7l-4.6,8.1H1188z M1195.1,221.2c0,1.6-0.9,2.5-1.9,2.5c-1,0-1.8-0.8-1.8-2.3c0-1.6,0.9-2.4,1.9-2.4
		C1194.4,218.9,1195.1,219.7,1195.1,221.2z M1192.2,221.3c0,1,0.4,1.8,1,1.8c0.7,0,1-0.7,1-1.8c0-0.9-0.3-1.7-1-1.7
		C1192.6,219.5,1192.2,220.3,1192.2,221.3z"/>
	<path d="M1197.1,215.4l-0.2,2.9h-0.6l-0.2-2.9H1197.1z M1198.9,215.4l-0.2,2.9h-0.6l-0.2-2.9H1198.9z"/>
	<path d="M1205.8,220.7l-5.6,2.9v-0.8l4.7-2.4v0l-4.7-2.4v-0.8l5.6,2.9V220.7z"/>
	<path d="M1207.8,223.6l0.3-2.4h-1v-0.7h1.1l0.2-1.7h-1v-0.7h1.1l0.3-2.3h0.7l-0.3,2.3h1.2l0.3-2.3h0.7l-0.3,2.3h1v0.7h-1.1
		l-0.2,1.7h1v0.7h-1.1l-0.3,2.4h-0.7l0.3-2.4h-1.2l-0.3,2.4H1207.8z M1210.1,220.5l0.2-1.7h-1.2l-0.2,1.7H1210.1z"/>
	<path d="M1222.9,220c-0.1-1.1-0.1-2.5-0.1-3.5h0c-0.3,0.9-0.6,2-1,3.1l-1.4,3.9h-0.8l-1.3-3.8c-0.4-1.1-0.7-2.2-0.9-3.1h0
		c0,1-0.1,2.4-0.2,3.6l-0.2,3.5h-1l0.6-8.1h1.3l1.4,3.9c0.3,1,0.6,1.9,0.8,2.7h0c0.2-0.8,0.5-1.7,0.9-2.7l1.4-3.9h1.3l0.5,8.1h-1
		L1222.9,220z"/>
	<path d="M1229,223.6l-0.1-0.7h0c-0.3,0.5-0.9,0.9-1.8,0.9c-1.2,0-1.8-0.8-1.8-1.7c0-1.4,1.2-2.2,3.5-2.2v-0.1
		c0-0.5-0.1-1.3-1.3-1.3c-0.5,0-1.1,0.2-1.5,0.4l-0.2-0.7c0.5-0.3,1.2-0.5,1.9-0.5c1.8,0,2.2,1.2,2.2,2.4v2.2c0,0.5,0,1,0.1,1.4
		H1229z M1228.8,220.6c-1.2,0-2.5,0.2-2.5,1.3c0,0.7,0.5,1,1,1c0.8,0,1.2-0.5,1.4-1c0-0.1,0.1-0.2,0.1-0.3V220.6z"/>
	<path d="M1231.5,219.6c0-0.7,0-1.3,0-1.8h0.9l0,1.1h0c0.3-0.8,0.9-1.3,1.6-1.3c0.1,0,0.2,0,0.3,0v1c-0.1,0-0.2,0-0.4,0
		c-0.7,0-1.3,0.6-1.4,1.4c0,0.1,0,0.3,0,0.5v3.1h-1V219.6z"/>
	<path d="M1236.5,220.4L1236.5,220.4c0.2-0.2,0.4-0.5,0.5-0.7l1.7-2h1.3l-2.2,2.4l2.6,3.4h-1.3l-2-2.8l-0.5,0.6v2.2h-1v-8.5h1V220.4
		z"/>
	<path d="M1241.7,220.9c0,1.4,0.9,2,2,2c0.8,0,1.2-0.1,1.6-0.3l0.2,0.8c-0.4,0.2-1,0.4-1.9,0.4c-1.8,0-2.9-1.2-2.9-2.9
		s1-3.1,2.7-3.1c1.9,0,2.4,1.7,2.4,2.7c0,0.2,0,0.4,0,0.5H1241.7z M1244.8,220.1c0-0.7-0.3-1.7-1.5-1.7c-1.1,0-1.5,1-1.6,1.7H1244.8
		z"/>
	<path d="M1248.4,216.1v1.7h1.5v0.8h-1.5v3.1c0,0.7,0.2,1.1,0.8,1.1c0.3,0,0.5,0,0.6-0.1l0,0.8c-0.2,0.1-0.5,0.1-0.9,0.1
		c-0.5,0-0.9-0.2-1.1-0.4c-0.3-0.3-0.4-0.8-0.4-1.5v-3.2h-0.9v-0.8h0.9v-1.4L1248.4,216.1z"/>
	<path d="M1252.3,216.2c0,0.4-0.3,0.6-0.7,0.6c-0.4,0-0.6-0.3-0.6-0.6c0-0.4,0.3-0.7,0.7-0.7C1252,215.5,1252.3,215.8,1252.3,216.2z
		 M1251.1,223.6v-5.8h1.1v5.8H1251.1z"/>
	<path d="M1253.9,219.4c0-0.6,0-1.1,0-1.6h0.9l0.1,1h0c0.3-0.6,1-1.1,1.9-1.1c0.8,0,2.1,0.5,2.1,2.5v3.5h-1.1v-3.3
		c0-0.9-0.3-1.7-1.3-1.7c-0.7,0-1.2,0.5-1.4,1.1c0,0.1-0.1,0.3-0.1,0.5v3.5h-1.1V219.4z"/>
	<path d="M1265.6,217.8c0,0.4,0,0.9,0,1.6v3.4c0,1.3-0.3,2.1-0.8,2.7c-0.6,0.5-1.4,0.7-2.1,0.7c-0.7,0-1.5-0.2-1.9-0.5l0.3-0.8
		c0.4,0.2,1,0.5,1.7,0.5c1.1,0,1.9-0.6,1.9-2v-0.6h0c-0.3,0.5-0.9,1-1.8,1c-1.4,0-2.5-1.2-2.5-2.8c0-2,1.3-3.1,2.6-3.1
		c1,0,1.6,0.5,1.8,1h0l0-0.9H1265.6z M1264.5,220.1c0-0.2,0-0.3-0.1-0.5c-0.2-0.6-0.7-1.1-1.5-1.1c-1,0-1.7,0.9-1.7,2.2
		c0,1.1,0.6,2.1,1.7,2.1c0.6,0,1.2-0.4,1.5-1.1c0.1-0.2,0.1-0.4,0.1-0.6V220.1z"/>
	<path d="M1269.7,222.3c0.5,0.3,1.2,0.5,1.9,0.5c1.1,0,1.7-0.6,1.7-1.4c0-0.8-0.4-1.2-1.5-1.6c-1.3-0.5-2.1-1.2-2.1-2.3
		c0-1.3,1-2.2,2.6-2.2c0.8,0,1.4,0.2,1.8,0.4l-0.3,0.9c-0.3-0.1-0.8-0.4-1.5-0.4c-1.1,0-1.5,0.7-1.5,1.2c0,0.8,0.5,1.1,1.6,1.6
		c1.4,0.5,2.1,1.2,2.1,2.4c0,1.2-0.9,2.3-2.8,2.3c-0.8,0-1.6-0.2-2.1-0.5L1269.7,222.3z"/>
	<path d="M1276.9,216.2c0,0.4-0.3,0.6-0.7,0.6c-0.4,0-0.6-0.3-0.6-0.6c0-0.4,0.3-0.7,0.7-0.7
		C1276.7,215.5,1276.9,215.8,1276.9,216.2z M1275.7,223.6v-5.8h1.1v5.8H1275.7z"/>
	<path d="M1279.8,216.1v1.7h1.5v0.8h-1.5v3.1c0,0.7,0.2,1.1,0.8,1.1c0.3,0,0.5,0,0.6-0.1l0,0.8c-0.2,0.1-0.5,0.1-0.9,0.1
		c-0.5,0-0.9-0.2-1.1-0.4c-0.3-0.3-0.4-0.8-0.4-1.5v-3.2h-0.9v-0.8h0.9v-1.4L1279.8,216.1z"/>
	<path d="M1283,220.9c0,1.4,0.9,2,2,2c0.8,0,1.2-0.1,1.6-0.3l0.2,0.8c-0.4,0.2-1,0.4-1.9,0.4c-1.8,0-2.9-1.2-2.9-2.9s1-3.1,2.7-3.1
		c1.9,0,2.4,1.7,2.4,2.7c0,0.2,0,0.4,0,0.5H1283z M1286.1,220.1c0-0.7-0.3-1.7-1.5-1.7c-1.1,0-1.5,1-1.6,1.7H1286.1z"/>
	<path d="M1291.2,223.6l0.3-2.4h-1v-0.7h1.1l0.2-1.7h-1v-0.7h1.1l0.3-2.3h0.7l-0.3,2.3h1.2l0.3-2.3h0.7l-0.3,2.3h1v0.7h-1.1
		l-0.2,1.7h1v0.7h-1.1l-0.3,2.4h-0.7l0.3-2.4h-1.2l-0.3,2.4H1291.2z M1293.6,220.5l0.2-1.7h-1.2l-0.2,1.7H1293.6z"/>
	<path d="M1296.9,220.1l5.6-2.9v0.8l-4.7,2.4v0l4.7,2.4v0.8l-5.6-2.9V220.1z"/>
	<path d="M1303.2,224.1l3.3-8.7h0.8l-3.4,8.7H1303.2z"/>
	<path d="M1308.1,222.5c0.3,0.2,0.9,0.4,1.4,0.4c0.8,0,1.1-0.4,1.1-0.9c0-0.5-0.3-0.8-1.1-1.1c-1-0.4-1.5-0.9-1.5-1.6
		c0-0.9,0.8-1.7,2-1.7c0.6,0,1.1,0.2,1.4,0.4l-0.3,0.8c-0.2-0.1-0.6-0.3-1.2-0.3c-0.6,0-1,0.4-1,0.8c0,0.5,0.3,0.7,1.1,1
		c1,0.4,1.5,0.9,1.5,1.8c0,1-0.8,1.7-2.2,1.7c-0.6,0-1.2-0.2-1.6-0.4L1308.1,222.5z"/>
	<path d="M1313,219.7c0-0.7,0-1.3,0-1.9h0.9l0,1h0c0.4-0.7,1.1-1.1,2.1-1.1c1.4,0,2.5,1.2,2.5,3c0,2.1-1.3,3.1-2.6,3.1
		c-0.8,0-1.4-0.3-1.8-0.9h0v3.2h-1V219.7z M1314,221.2c0,0.2,0,0.3,0,0.4c0.2,0.7,0.8,1.2,1.6,1.2c1.1,0,1.8-0.9,1.8-2.2
		c0-1.2-0.6-2.2-1.7-2.2c-0.7,0-1.4,0.5-1.6,1.3c0,0.1-0.1,0.3-0.1,0.4V221.2z"/>
	<path d="M1323,223.6l-0.1-0.7h0c-0.3,0.5-0.9,0.9-1.8,0.9c-1.2,0-1.8-0.8-1.8-1.7c0-1.4,1.2-2.2,3.5-2.2v-0.1
		c0-0.5-0.1-1.3-1.3-1.3c-0.5,0-1.1,0.2-1.5,0.4l-0.2-0.7c0.5-0.3,1.2-0.5,1.9-0.5c1.8,0,2.2,1.2,2.2,2.4v2.2c0,0.5,0,1,0.1,1.4
		H1323z M1322.9,220.6c-1.2,0-2.5,0.2-2.5,1.3c0,0.7,0.5,1,1,1c0.8,0,1.2-0.5,1.4-1c0-0.1,0.1-0.2,0.1-0.3V220.6z"/>
	<path d="M1325.6,219.4c0-0.6,0-1.1,0-1.6h0.9l0.1,1h0c0.3-0.6,1-1.1,1.9-1.1c0.8,0,2.1,0.5,2.1,2.5v3.5h-1.1v-3.3
		c0-0.9-0.3-1.7-1.3-1.7c-0.7,0-1.2,0.5-1.4,1.1c0,0.1-0.1,0.3-0.1,0.5v3.5h-1.1V219.4z"/>
	<path d="M1337.7,220.7l-5.6,2.9v-0.8l4.7-2.4v0l-4.7-2.4v-0.8l5.6,2.9V220.7z"/>
	<path d="M1025.3,234.5l5.6-2.9v0.8l-4.7,2.4v0l4.7,2.4v0.8l-5.6-2.9V234.5z"/>
	<path d="M1032.4,236.9c0.3,0.2,0.9,0.4,1.4,0.4c0.8,0,1.1-0.4,1.1-0.9c0-0.5-0.3-0.8-1.1-1.1c-1-0.4-1.5-0.9-1.5-1.6
		c0-0.9,0.8-1.7,2-1.7c0.6,0,1.1,0.2,1.4,0.4l-0.3,0.8c-0.2-0.1-0.6-0.3-1.2-0.3c-0.6,0-1,0.4-1,0.8c0,0.5,0.3,0.7,1.1,1
		c1,0.4,1.5,0.9,1.5,1.8c0,1-0.8,1.7-2.2,1.7c-0.6,0-1.2-0.2-1.6-0.4L1032.4,236.9z"/>
	<path d="M1037.3,234.1c0-0.7,0-1.3,0-1.9h0.9l0,1h0c0.4-0.7,1.1-1.1,2.1-1.1c1.4,0,2.5,1.2,2.5,3c0,2.1-1.3,3.1-2.6,3.1
		c-0.8,0-1.4-0.3-1.8-0.9h0v3.2h-1V234.1z M1038.3,235.6c0,0.2,0,0.3,0,0.4c0.2,0.7,0.8,1.2,1.6,1.2c1.1,0,1.8-0.9,1.8-2.2
		c0-1.2-0.6-2.2-1.7-2.2c-0.7,0-1.4,0.5-1.6,1.3c0,0.1-0.1,0.3-0.1,0.4V235.6z"/>
	<path d="M1047.3,238l-0.1-0.7h0c-0.3,0.5-0.9,0.9-1.8,0.9c-1.2,0-1.8-0.8-1.8-1.7c0-1.4,1.2-2.2,3.5-2.2v-0.1
		c0-0.5-0.1-1.3-1.3-1.3c-0.5,0-1.1,0.2-1.5,0.4l-0.2-0.7c0.5-0.3,1.2-0.5,1.9-0.5c1.8,0,2.2,1.2,2.2,2.4v2.2c0,0.5,0,1,0.1,1.4
		H1047.3z M1047.1,235c-1.2,0-2.5,0.2-2.5,1.3c0,0.7,0.5,1,1,1c0.8,0,1.2-0.5,1.4-1c0-0.1,0.1-0.2,0.1-0.3V235z"/>
	<path d="M1049.9,233.8c0-0.6,0-1.1,0-1.6h0.9l0.1,1h0c0.3-0.6,1-1.1,1.9-1.1c0.8,0,2.1,0.5,2.1,2.5v3.5h-1.1v-3.3
		c0-0.9-0.3-1.7-1.3-1.7c-0.7,0-1.2,0.5-1.4,1.1c0,0.1-0.1,0.3-0.1,0.5v3.5h-1.1V233.8z"/>
	<path d="M1058.9,236.9c0.3,0.2,0.9,0.4,1.4,0.4c0.8,0,1.1-0.4,1.1-0.9c0-0.5-0.3-0.8-1.1-1.1c-1-0.4-1.5-0.9-1.5-1.6
		c0-0.9,0.8-1.7,2-1.7c0.6,0,1.1,0.2,1.4,0.4l-0.3,0.8c-0.2-0.1-0.6-0.3-1.2-0.3c-0.6,0-1,0.4-1,0.8c0,0.5,0.3,0.7,1.1,1
		c1,0.4,1.5,0.9,1.5,1.8c0,1-0.8,1.7-2.2,1.7c-0.6,0-1.2-0.2-1.6-0.4L1058.9,236.9z"/>
	<path d="M1065.1,230.5v1.7h1.5v0.8h-1.5v3.1c0,0.7,0.2,1.1,0.8,1.1c0.3,0,0.5,0,0.6-0.1l0,0.8c-0.2,0.1-0.5,0.1-0.9,0.1
		c-0.5,0-0.9-0.2-1.1-0.4c-0.3-0.3-0.4-0.8-0.4-1.5V233h-0.9v-0.8h0.9v-1.4L1065.1,230.5z"/>
	<path d="M1068.3,232.2l1.3,3.4c0.1,0.4,0.3,0.8,0.4,1.2h0c0.1-0.3,0.2-0.8,0.4-1.2l1.2-3.4h1.1l-1.6,4.1c-0.8,2-1.3,3-2,3.6
		c-0.5,0.5-1,0.6-1.3,0.7l-0.3-0.9c0.3-0.1,0.6-0.3,0.9-0.5c0.3-0.2,0.6-0.6,0.9-1.2c0-0.1,0.1-0.2,0.1-0.3c0-0.1,0-0.1-0.1-0.3
		l-2.1-5.3H1068.3z"/>
	<path d="M1073.6,229.5h1.1v8.5h-1.1V229.5z"/>
	<path d="M1077,235.3c0,1.4,0.9,2,2,2c0.8,0,1.2-0.1,1.6-0.3l0.2,0.8c-0.4,0.2-1,0.4-1.9,0.4c-1.8,0-2.9-1.2-2.9-2.9s1-3.1,2.7-3.1
		c1.9,0,2.4,1.7,2.4,2.7c0,0.2,0,0.4,0,0.5H1077z M1080.1,234.5c0-0.7-0.3-1.7-1.5-1.7c-1.1,0-1.5,1-1.6,1.7H1080.1z"/>
	<path d="M1082,233.9v-0.7h6.2v0.7H1082z M1082,236.3v-0.7h6.2v0.7H1082z"/>
	<path d="M1090.3,229.8l-0.2,2.9h-0.6l-0.2-2.9H1090.3z M1092.1,229.8l-0.2,2.9h-0.6l-0.2-2.9H1092.1z"/>
	<path d="M1094,238v-5h-0.8v-0.8h0.8v-0.3c0-0.8,0.3-1.5,0.8-2c0.5-0.4,1.1-0.6,1.9-0.6c0.7,0,1.3,0.1,1.7,0.4v8.3h-1v-7.7
		c-0.2-0.1-0.5-0.2-0.9-0.2c-1.1,0-1.5,0.8-1.5,1.7v0.3h1.4v0.8h-1.4v5H1094z"/>
	<path d="M1105.4,235c0,2.1-1.5,3.1-2.9,3.1c-1.6,0-2.8-1.2-2.8-3c0-1.9,1.3-3.1,2.9-3.1C1104.3,232.1,1105.4,233.3,1105.4,235z
		 M1100.8,235.1c0,1.3,0.7,2.2,1.8,2.2c1,0,1.8-0.9,1.8-2.3c0-1-0.5-2.2-1.7-2.2C1101.4,232.8,1100.8,234,1100.8,235.1z"/>
	<path d="M1110,238l-0.1-0.7h0c-0.3,0.5-0.9,0.9-1.8,0.9c-1.2,0-1.8-0.8-1.8-1.7c0-1.4,1.2-2.2,3.5-2.2v-0.1c0-0.5-0.1-1.3-1.3-1.3
		c-0.5,0-1.1,0.2-1.5,0.4l-0.2-0.7c0.5-0.3,1.2-0.5,1.9-0.5c1.8,0,2.2,1.2,2.2,2.4v2.2c0,0.5,0,1,0.1,1.4H1110z M1109.8,235
		c-1.2,0-2.5,0.2-2.5,1.3c0,0.7,0.5,1,1,1c0.8,0,1.2-0.5,1.4-1c0-0.1,0.1-0.2,0.1-0.3V235z"/>
	<path d="M1113.8,230.5v1.7h1.5v0.8h-1.5v3.1c0,0.7,0.2,1.1,0.8,1.1c0.3,0,0.5,0,0.6-0.1l0,0.8c-0.2,0.1-0.5,0.1-0.9,0.1
		c-0.5,0-0.9-0.2-1.1-0.4c-0.3-0.3-0.4-0.8-0.4-1.5V233h-0.9v-0.8h0.9v-1.4L1113.8,230.5z"/>
	<path d="M1116.2,233.1c0-0.4,0.3-0.8,0.7-0.8s0.7,0.3,0.7,0.8c0,0.4-0.3,0.7-0.7,0.7C1116.5,233.9,1116.2,233.6,1116.2,233.1z
		 M1116.2,237.4c0-0.4,0.3-0.8,0.7-0.8s0.7,0.3,0.7,0.8c0,0.4-0.3,0.7-0.7,0.7C1116.5,238.1,1116.2,237.8,1116.2,237.4z"/>
	<path d="M1119,229.5h1.1v8.5h-1.1V229.5z"/>
	<path d="M1122.4,235.3c0,1.4,0.9,2,2,2c0.8,0,1.2-0.1,1.6-0.3l0.2,0.8c-0.4,0.2-1,0.4-1.9,0.4c-1.8,0-2.9-1.2-2.9-2.9
		s1-3.1,2.7-3.1c1.9,0,2.4,1.7,2.4,2.7c0,0.2,0,0.4,0,0.5H1122.4z M1125.5,234.5c0-0.7-0.3-1.7-1.5-1.7c-1.1,0-1.5,1-1.6,1.7H1125.5
		z"/>
	<path d="M1127.9,238v-5h-0.8v-0.8h0.8v-0.3c0-0.8,0.2-1.6,0.7-2c0.4-0.4,0.9-0.5,1.4-0.5c0.4,0,0.7,0.1,0.9,0.2l-0.1,0.8
		c-0.2-0.1-0.4-0.1-0.7-0.1c-0.9,0-1.1,0.8-1.1,1.7v0.3h1.4v0.8h-1.4v5H1127.9z"/>
	<path d="M1132.7,230.5v1.7h1.5v0.8h-1.5v3.1c0,0.7,0.2,1.1,0.8,1.1c0.3,0,0.5,0,0.6-0.1l0,0.8c-0.2,0.1-0.5,0.1-0.9,0.1
		c-0.5,0-0.9-0.2-1.1-0.4c-0.3-0.3-0.4-0.8-0.4-1.5V233h-0.9v-0.8h0.9v-1.4L1132.7,230.5z"/>
	<path d="M1134.7,239.5c0.3-0.7,0.6-2,0.7-2.9l1.2-0.1c-0.3,1-0.8,2.4-1.2,2.9L1134.7,239.5z M1135.2,233.1c0-0.4,0.3-0.8,0.7-0.8
		c0.4,0,0.7,0.3,0.7,0.8c0,0.4-0.3,0.7-0.7,0.7C1135.5,233.9,1135.2,233.6,1135.2,233.1z"/>
	<path d="M1140.9,232.2l0.8,3c0.2,0.6,0.3,1.2,0.4,1.8h0c0.1-0.6,0.3-1.2,0.5-1.8l0.9-3h0.9l0.9,2.9c0.2,0.7,0.4,1.3,0.5,1.9h0
		c0.1-0.6,0.3-1.2,0.4-1.9l0.8-2.9h1l-1.9,5.8h-1l-0.9-2.8c-0.2-0.6-0.4-1.2-0.5-1.9h0c-0.1,0.7-0.3,1.3-0.5,1.9l-0.9,2.8h-1
		l-1.8-5.8H1140.9z"/>
	<path d="M1150.4,230.6c0,0.4-0.3,0.6-0.7,0.6c-0.4,0-0.6-0.3-0.6-0.6c0-0.4,0.3-0.7,0.7-0.7
		C1150.2,229.9,1150.4,230.2,1150.4,230.6z M1149.3,238v-5.8h1.1v5.8H1149.3z"/>
	<path d="M1157.1,229.5v7c0,0.5,0,1.1,0,1.5h-0.9l0-1h0c-0.3,0.6-1,1.1-2,1.1c-1.4,0-2.5-1.2-2.5-3c0-1.9,1.2-3.1,2.6-3.1
		c0.9,0,1.5,0.4,1.8,0.9h0v-3.5H1157.1z M1156,234.5c0-0.1,0-0.3,0-0.4c-0.2-0.7-0.7-1.2-1.5-1.2c-1.1,0-1.7,1-1.7,2.2
		c0,1.2,0.6,2.1,1.7,2.1c0.7,0,1.4-0.5,1.5-1.3c0-0.1,0-0.3,0-0.5V234.5z"/>
	<path d="M1160.1,230.5v1.7h1.5v0.8h-1.5v3.1c0,0.7,0.2,1.1,0.8,1.1c0.3,0,0.5,0,0.6-0.1l0,0.8c-0.2,0.1-0.5,0.1-0.9,0.1
		c-0.5,0-0.9-0.2-1.1-0.4c-0.3-0.3-0.4-0.8-0.4-1.5V233h-0.9v-0.8h0.9v-1.4L1160.1,230.5z"/>
	<path d="M1162.8,229.5h1.1v3.6h0c0.2-0.3,0.4-0.6,0.8-0.7c0.3-0.2,0.7-0.3,1.1-0.3c0.8,0,2,0.5,2,2.5v3.5h-1.1v-3.3
		c0-0.9-0.3-1.7-1.3-1.7c-0.7,0-1.2,0.5-1.4,1.1c-0.1,0.1-0.1,0.3-0.1,0.5v3.5h-1.1V229.5z"/>
	<path d="M1169.2,233.1c0-0.4,0.3-0.8,0.7-0.8s0.7,0.3,0.7,0.8c0,0.4-0.3,0.7-0.7,0.7C1169.5,233.9,1169.2,233.6,1169.2,233.1z
		 M1169.2,237.4c0-0.4,0.3-0.8,0.7-0.8s0.7,0.3,0.7,0.8c0,0.4-0.3,0.7-0.7,0.7C1169.5,238.1,1169.2,237.8,1169.2,237.4z"/>
	<path d="M1174.2,238v-0.6l0.8-0.8c2-1.9,2.9-2.9,2.9-4.1c0-0.8-0.4-1.5-1.5-1.5c-0.7,0-1.3,0.4-1.7,0.7l-0.3-0.7
		c0.5-0.5,1.3-0.8,2.2-0.8c1.7,0,2.4,1.2,2.4,2.3c0,1.4-1,2.6-2.7,4.2l-0.6,0.6v0h3.5v0.9H1174.2z"/>
	<path d="M1185,231.1h-3l-0.3,2c0.2,0,0.3,0,0.6,0c0.6,0,1.2,0.1,1.7,0.4c0.6,0.3,1.1,1,1.1,2c0,1.5-1.2,2.7-2.9,2.7
		c-0.9,0-1.6-0.2-1.9-0.5l0.3-0.8c0.3,0.2,1,0.4,1.7,0.4c1,0,1.8-0.6,1.8-1.7c0-1-0.7-1.7-2.2-1.7c-0.4,0-0.8,0-1.1,0.1l0.5-3.7h3.7
		V231.1z"/>
	<path d="M1190,232.4c0,1.6-0.9,2.5-1.9,2.5c-1,0-1.8-0.8-1.8-2.4c0-1.6,0.9-2.4,1.9-2.4C1189.3,230.1,1190,230.9,1190,232.4z
		 M1187.1,232.5c0,1,0.3,1.8,1,1.8c0.7,0,1-0.7,1-1.8c0-0.9-0.3-1.7-1-1.7C1187.5,230.7,1187.1,231.5,1187.1,232.5z M1188,238.1
		l4.6-8.1h0.7l-4.6,8.1H1188z M1195.1,235.6c0,1.6-0.9,2.5-1.9,2.5c-1,0-1.8-0.8-1.8-2.3c0-1.6,0.9-2.4,1.9-2.4
		C1194.4,233.3,1195.1,234.1,1195.1,235.6z M1192.2,235.7c0,1,0.4,1.8,1,1.8c0.7,0,1-0.7,1-1.8c0-0.9-0.3-1.7-1-1.7
		C1192.6,233.9,1192.2,234.7,1192.2,235.7z"/>
	<path d="M1197.1,229.8l-0.2,2.9h-0.6l-0.2-2.9H1197.1z M1198.9,229.8l-0.2,2.9h-0.6l-0.2-2.9H1198.9z"/>
	<path d="M1205.8,235.1l-5.6,2.9v-0.8l4.7-2.4v0l-4.7-2.4v-0.8l5.6,2.9V235.1z"/>
	<path d="M1207.8,238l0.3-2.4h-1v-0.7h1.1l0.2-1.7h-1v-0.7h1.1l0.3-2.3h0.7l-0.3,2.3h1.2l0.3-2.3h0.7l-0.3,2.3h1v0.7h-1.1l-0.2,1.7
		h1v0.7h-1.1l-0.3,2.4h-0.7l0.3-2.4h-1.2l-0.3,2.4H1207.8z M1210.1,234.9l0.2-1.7h-1.2l-0.2,1.7H1210.1z"/>
	<path d="M1220.2,234.2h-3.1v2.9h3.5v0.9h-4.5v-8.1h4.4v0.9h-3.3v2.6h3.1V234.2z"/>
	<path d="M1222.4,232.2l0.8,1.2c0.2,0.3,0.4,0.6,0.6,0.9h0c0.2-0.3,0.4-0.6,0.6-1l0.8-1.2h1.1l-2,2.8l2,3h-1.2l-0.9-1.3
		c-0.2-0.3-0.4-0.7-0.6-1h0c-0.2,0.3-0.4,0.7-0.6,1l-0.8,1.3h-1.2l2.1-3l-2-2.8H1222.4z"/>
	<path d="M1227.5,234.1c0-0.7,0-1.3,0-1.9h0.9l0,1h0c0.4-0.7,1.1-1.1,2.1-1.1c1.4,0,2.5,1.2,2.5,3c0,2.1-1.3,3.1-2.6,3.1
		c-0.8,0-1.4-0.3-1.8-0.9h0v3.2h-1V234.1z M1228.5,235.6c0,0.2,0,0.3,0,0.4c0.2,0.7,0.8,1.2,1.6,1.2c1.1,0,1.8-0.9,1.8-2.2
		c0-1.2-0.6-2.2-1.7-2.2c-0.7,0-1.4,0.5-1.6,1.3c0,0.1-0.1,0.3-0.1,0.4V235.6z"/>
	<path d="M1234.3,229.5h1.1v8.5h-1.1V229.5z"/>
	<path d="M1240.4,238l-0.1-0.7h0c-0.3,0.5-0.9,0.9-1.8,0.9c-1.2,0-1.8-0.8-1.8-1.7c0-1.4,1.2-2.2,3.5-2.2v-0.1
		c0-0.5-0.1-1.3-1.3-1.3c-0.5,0-1.1,0.2-1.5,0.4l-0.2-0.7c0.5-0.3,1.2-0.5,1.9-0.5c1.8,0,2.2,1.2,2.2,2.4v2.2c0,0.5,0,1,0.1,1.4
		H1240.4z M1240.2,235c-1.2,0-2.5,0.2-2.5,1.3c0,0.7,0.5,1,1,1c0.8,0,1.2-0.5,1.4-1c0-0.1,0.1-0.2,0.1-0.3V235z"/>
	<path d="M1244.1,230.6c0,0.4-0.3,0.6-0.7,0.6c-0.4,0-0.6-0.3-0.6-0.6c0-0.4,0.3-0.7,0.7-0.7
		C1243.8,229.9,1244.1,230.2,1244.1,230.6z M1242.9,238v-5.8h1.1v5.8H1242.9z"/>
	<path d="M1245.7,233.8c0-0.6,0-1.1,0-1.6h0.9l0.1,1h0c0.3-0.6,1-1.1,1.9-1.1c0.8,0,2.1,0.5,2.1,2.5v3.5h-1.1v-3.3
		c0-0.9-0.3-1.7-1.3-1.7c-0.7,0-1.2,0.5-1.4,1.1c0,0.1-0.1,0.3-0.1,0.5v3.5h-1.1V233.8z"/>
	<path d="M1253,235.3c0,1.4,0.9,2,2,2c0.8,0,1.2-0.1,1.6-0.3l0.2,0.8c-0.4,0.2-1,0.4-1.9,0.4c-1.8,0-2.9-1.2-2.9-2.9s1-3.1,2.7-3.1
		c1.9,0,2.4,1.7,2.4,2.7c0,0.2,0,0.4,0,0.5H1253z M1256.1,234.5c0-0.7-0.3-1.7-1.5-1.7c-1.1,0-1.5,1-1.6,1.7H1256.1z"/>
	<path d="M1258.4,234c0-0.7,0-1.3,0-1.8h0.9l0,1.1h0c0.3-0.8,0.9-1.3,1.6-1.3c0.1,0,0.2,0,0.3,0v1c-0.1,0-0.2,0-0.4,0
		c-0.7,0-1.3,0.6-1.4,1.4c0,0.1,0,0.3,0,0.5v3.1h-1V234z"/>
	<path d="M1266.2,238l-2.6-8.1h1.1l1.3,4c0.3,1.1,0.6,2.1,0.9,3h0c0.2-0.9,0.6-2,0.9-3l1.4-4h1.1l-2.9,8.1H1266.2z"/>
	<path d="M1272.1,230.6c0,0.4-0.3,0.6-0.7,0.6c-0.4,0-0.6-0.3-0.6-0.6c0-0.4,0.3-0.7,0.7-0.7
		C1271.9,229.9,1272.1,230.2,1272.1,230.6z M1270.9,238v-5.8h1.1v5.8H1270.9z"/>
	<path d="M1278.8,229.5v7c0,0.5,0,1.1,0,1.5h-0.9l0-1h0c-0.3,0.6-1,1.1-2,1.1c-1.4,0-2.5-1.2-2.5-3c0-1.9,1.2-3.1,2.6-3.1
		c0.9,0,1.5,0.4,1.8,0.9h0v-3.5H1278.8z M1277.7,234.5c0-0.1,0-0.3,0-0.4c-0.2-0.7-0.7-1.2-1.5-1.2c-1.1,0-1.7,1-1.7,2.2
		c0,1.2,0.6,2.1,1.7,2.1c0.7,0,1.4-0.5,1.5-1.3c0-0.1,0-0.3,0-0.5V234.5z"/>
	<path d="M1281.1,235.3c0,1.4,0.9,2,2,2c0.8,0,1.2-0.1,1.6-0.3l0.2,0.8c-0.4,0.2-1,0.4-1.9,0.4c-1.8,0-2.9-1.2-2.9-2.9
		s1-3.1,2.7-3.1c1.9,0,2.4,1.7,2.4,2.7c0,0.2,0,0.4,0,0.5H1281.1z M1284.2,234.5c0-0.7-0.3-1.7-1.5-1.7c-1.1,0-1.5,1-1.6,1.7H1284.2
		z"/>
	<path d="M1291.8,235c0,2.1-1.5,3.1-2.9,3.1c-1.6,0-2.8-1.2-2.8-3c0-1.9,1.3-3.1,2.9-3.1C1290.7,232.1,1291.8,233.3,1291.8,235z
		 M1287.2,235.1c0,1.3,0.7,2.2,1.8,2.2c1,0,1.8-0.9,1.8-2.3c0-1-0.5-2.2-1.7-2.2C1287.7,232.8,1287.2,234,1287.2,235.1z"/>
	<path d="M1295.9,238l0.3-2.4h-1v-0.7h1.1l0.2-1.7h-1v-0.7h1.1l0.3-2.3h0.7l-0.3,2.3h1.2l0.3-2.3h0.7l-0.3,2.3h1v0.7h-1.1l-0.2,1.7
		h1v0.7h-1.1l-0.3,2.4h-0.7l0.3-2.4h-1.2l-0.3,2.4H1295.9z M1298.3,234.9l0.2-1.7h-1.2l-0.2,1.7H1298.3z"/>
	<path d="M1301.5,234.5l5.6-2.9v0.8l-4.7,2.4v0l4.7,2.4v0.8l-5.6-2.9V234.5z"/>
	<path d="M1307.9,238.5l3.3-8.7h0.8l-3.4,8.7H1307.9z"/>
	<path d="M1312.7,236.9c0.3,0.2,0.9,0.4,1.4,0.4c0.8,0,1.1-0.4,1.1-0.9c0-0.5-0.3-0.8-1.1-1.1c-1-0.4-1.5-0.9-1.5-1.6
		c0-0.9,0.8-1.7,2-1.7c0.6,0,1.1,0.2,1.4,0.4l-0.3,0.8c-0.2-0.1-0.6-0.3-1.2-0.3c-0.6,0-1,0.4-1,0.8c0,0.5,0.3,0.7,1.1,1
		c1,0.4,1.5,0.9,1.5,1.8c0,1-0.8,1.7-2.2,1.7c-0.6,0-1.2-0.2-1.6-0.4L1312.7,236.9z"/>
	<path d="M1317.6,234.1c0-0.7,0-1.3,0-1.9h0.9l0,1h0c0.4-0.7,1.1-1.1,2.1-1.1c1.4,0,2.5,1.2,2.5,3c0,2.1-1.3,3.1-2.6,3.1
		c-0.8,0-1.4-0.3-1.8-0.9h0v3.2h-1V234.1z M1318.7,235.6c0,0.2,0,0.3,0,0.4c0.2,0.7,0.8,1.2,1.6,1.2c1.1,0,1.8-0.9,1.8-2.2
		c0-1.2-0.6-2.2-1.7-2.2c-0.7,0-1.4,0.5-1.6,1.3c0,0.1-0.1,0.3-0.1,0.4V235.6z"/>
	<path d="M1327.7,238l-0.1-0.7h0c-0.3,0.5-0.9,0.9-1.8,0.9c-1.2,0-1.8-0.8-1.8-1.7c0-1.4,1.2-2.2,3.5-2.2v-0.1
		c0-0.5-0.1-1.3-1.3-1.3c-0.5,0-1.1,0.2-1.5,0.4l-0.2-0.7c0.5-0.3,1.2-0.5,1.9-0.5c1.8,0,2.2,1.2,2.2,2.4v2.2c0,0.5,0,1,0.1,1.4
		H1327.7z M1327.5,235c-1.2,0-2.5,0.2-2.5,1.3c0,0.7,0.5,1,1,1c0.8,0,1.2-0.5,1.4-1c0-0.1,0.1-0.2,0.1-0.3V235z"/>
	<path d="M1330.3,233.8c0-0.6,0-1.1,0-1.6h0.9l0.1,1h0c0.3-0.6,1-1.1,1.9-1.1c0.8,0,2.1,0.5,2.1,2.5v3.5h-1.1v-3.3
		c0-0.9-0.3-1.7-1.3-1.7c-0.7,0-1.2,0.5-1.4,1.1c0,0.1-0.1,0.3-0.1,0.5v3.5h-1.1V233.8z"/>
	<path d="M1342.4,235.1l-5.6,2.9v-0.8l4.7-2.4v0l-4.7-2.4v-0.8l5.6,2.9V235.1z"/>
</g>
<g>
	<path d="M836.8-72.6c0.6-0.1,1.4-0.2,2.2-0.2c1.5,0,2.6,0.3,3.3,1c0.7,0.7,1.1,1.6,1.1,2.9c0,1.3-0.4,2.4-1.2,3.1
		c-0.8,0.8-2,1.2-3.6,1.2c-0.7,0-1.4,0-1.9-0.1V-72.6z M837.9-65.4c0.3,0,0.6,0.1,1.1,0.1c2.2,0,3.4-1.2,3.4-3.4
		c0-1.9-1.1-3.1-3.3-3.1c-0.5,0-0.9,0-1.2,0.1V-65.4z"/>
	<path d="M845.4-67.3c0,1.4,0.9,2,2,2c0.8,0,1.2-0.1,1.6-0.3l0.2,0.8c-0.4,0.2-1,0.4-1.9,0.4c-1.8,0-2.9-1.2-2.9-2.9s1-3.1,2.7-3.1
		c1.9,0,2.4,1.7,2.4,2.7c0,0.2,0,0.4,0,0.5H845.4z M848.5-68c0-0.7-0.3-1.7-1.5-1.7c-1.1,0-1.5,1-1.6,1.7H848.5z"/>
	<path d="M850.7-65.7c0.3,0.2,0.9,0.4,1.4,0.4c0.8,0,1.1-0.4,1.1-0.9c0-0.5-0.3-0.8-1.1-1.1c-1-0.4-1.5-0.9-1.5-1.6
		c0-0.9,0.8-1.7,2-1.7c0.6,0,1.1,0.2,1.4,0.4l-0.3,0.8c-0.2-0.1-0.6-0.3-1.2-0.3c-0.6,0-1,0.4-1,0.8c0,0.5,0.3,0.7,1.1,1
		c1,0.4,1.5,0.9,1.5,1.8c0,1-0.8,1.7-2.2,1.7c-0.6,0-1.2-0.2-1.6-0.4L850.7-65.7z"/>
	<path d="M856.8-72c0,0.4-0.3,0.6-0.7,0.6c-0.4,0-0.6-0.3-0.6-0.6c0-0.4,0.3-0.7,0.7-0.7C856.5-72.7,856.8-72.4,856.8-72z
		 M855.6-64.6v-5.8h1.1v5.8H855.6z"/>
	<path d="M863.4-70.4c0,0.4,0,0.9,0,1.6v3.4c0,1.3-0.3,2.1-0.8,2.7c-0.6,0.5-1.4,0.7-2.1,0.7c-0.7,0-1.5-0.2-1.9-0.5l0.3-0.8
		c0.4,0.2,1,0.5,1.7,0.5c1.1,0,1.9-0.6,1.9-2v-0.6h0c-0.3,0.5-0.9,1-1.8,1c-1.4,0-2.5-1.2-2.5-2.8c0-2,1.3-3.1,2.6-3.1
		c1,0,1.6,0.5,1.8,1h0l0-0.9H863.4z M862.3-68.1c0-0.2,0-0.3-0.1-0.5c-0.2-0.6-0.7-1.1-1.5-1.1c-1,0-1.7,0.9-1.7,2.2
		c0,1.1,0.6,2.1,1.7,2.1c0.6,0,1.2-0.4,1.5-1.1c0.1-0.2,0.1-0.4,0.1-0.6V-68.1z"/>
	<path d="M865.1-68.8c0-0.6,0-1.1,0-1.6h0.9l0.1,1h0c0.3-0.6,1-1.1,1.9-1.1c0.8,0,2.1,0.5,2.1,2.5v3.5h-1.1v-3.3
		c0-0.9-0.3-1.7-1.3-1.7c-0.7,0-1.2,0.5-1.4,1.1c0,0.1-0.1,0.3-0.1,0.5v3.5h-1.1V-68.8z"/>
	<path d="M874.3-72.6c0.5-0.1,1.3-0.2,2-0.2c1.1,0,1.8,0.2,2.3,0.7c0.4,0.4,0.6,0.9,0.6,1.5c0,1.1-0.7,1.8-1.5,2.1v0
		c0.6,0.2,1,0.8,1.2,1.6c0.3,1.1,0.5,1.9,0.6,2.2h-1.1c-0.1-0.2-0.3-0.9-0.5-1.9c-0.2-1.1-0.7-1.5-1.6-1.6h-1v3.5h-1V-72.6z
		 M875.3-68.9h1.1c1.1,0,1.8-0.6,1.8-1.5c0-1-0.8-1.5-1.9-1.5c-0.5,0-0.9,0-1,0.1V-68.9z"/>
	<path d="M881.4-67.3c0,1.4,0.9,2,2,2c0.8,0,1.2-0.1,1.6-0.3l0.2,0.8c-0.4,0.2-1,0.4-1.9,0.4c-1.8,0-2.9-1.2-2.9-2.9s1-3.1,2.7-3.1
		c1.9,0,2.4,1.7,2.4,2.7c0,0.2,0,0.4,0,0.5H881.4z M884.5-68c0-0.7-0.3-1.7-1.5-1.7c-1.1,0-1.5,1-1.6,1.7H884.5z"/>
	<path d="M886.6-65.7c0.3,0.2,0.9,0.4,1.4,0.4c0.8,0,1.1-0.4,1.1-0.9c0-0.5-0.3-0.8-1.1-1.1c-1-0.4-1.5-0.9-1.5-1.6
		c0-0.9,0.8-1.7,2-1.7c0.6,0,1.1,0.2,1.4,0.4l-0.3,0.8c-0.2-0.1-0.6-0.3-1.2-0.3c-0.6,0-1,0.4-1,0.8c0,0.5,0.3,0.7,1.1,1
		c1,0.4,1.5,0.9,1.5,1.8c0,1-0.8,1.7-2.2,1.7c-0.6,0-1.2-0.2-1.6-0.4L886.6-65.7z"/>
	<path d="M892.1-67.3c0,1.4,0.9,2,2,2c0.8,0,1.2-0.1,1.6-0.3l0.2,0.8c-0.4,0.2-1,0.4-1.9,0.4c-1.8,0-2.9-1.2-2.9-2.9s1-3.1,2.7-3.1
		c1.9,0,2.4,1.7,2.4,2.7c0,0.2,0,0.4,0,0.5H892.1z M895.2-68c0-0.7-0.3-1.7-1.5-1.7c-1.1,0-1.5,1-1.6,1.7H895.2z"/>
	<path d="M900.8-64.6l-0.1-0.7h0c-0.3,0.5-0.9,0.9-1.8,0.9c-1.2,0-1.8-0.8-1.8-1.7c0-1.4,1.2-2.2,3.5-2.2v-0.1
		c0-0.5-0.1-1.3-1.3-1.3c-0.5,0-1.1,0.2-1.5,0.4l-0.2-0.7c0.5-0.3,1.2-0.5,1.9-0.5c1.8,0,2.2,1.2,2.2,2.4v2.2c0,0.5,0,1,0.1,1.4
		H900.8z M900.6-67.5c-1.2,0-2.5,0.2-2.5,1.3c0,0.7,0.5,1,1,1c0.8,0,1.2-0.5,1.4-1c0-0.1,0.1-0.2,0.1-0.3V-67.5z"/>
	<path d="M903.3-68.6c0-0.7,0-1.3,0-1.8h0.9l0,1.1h0c0.3-0.8,0.9-1.3,1.6-1.3c0.1,0,0.2,0,0.3,0v1c-0.1,0-0.2,0-0.4,0
		c-0.7,0-1.3,0.6-1.4,1.4c0,0.1,0,0.3,0,0.5v3.1h-1V-68.6z"/>
	<path d="M911.3-64.8c-0.3,0.1-0.9,0.3-1.7,0.3c-1.8,0-2.9-1.2-2.9-3c0-1.8,1.2-3.1,3.1-3.1c0.6,0,1.2,0.2,1.5,0.3l-0.2,0.8
		c-0.3-0.1-0.6-0.3-1.2-0.3c-1.3,0-2.1,1-2.1,2.2c0,1.3,0.9,2.2,2,2.2c0.6,0,1-0.2,1.3-0.3L911.3-64.8z"/>
	<path d="M912.5-73.1h1.1v3.6h0c0.2-0.3,0.4-0.6,0.8-0.7c0.3-0.2,0.7-0.3,1.1-0.3c0.8,0,2,0.5,2,2.5v3.5h-1.1v-3.3
		c0-0.9-0.3-1.7-1.3-1.7c-0.7,0-1.2,0.5-1.4,1.1c-0.1,0.1-0.1,0.3-0.1,0.5v3.5h-1.1V-73.1z"/>
</g>
<g>
	<path d="M1170-65.9c0.5,0.3,1.2,0.5,1.9,0.5c1.1,0,1.7-0.6,1.7-1.4c0-0.8-0.4-1.2-1.5-1.6c-1.3-0.5-2.1-1.2-2.1-2.3
		c0-1.3,1-2.2,2.6-2.2c0.8,0,1.4,0.2,1.8,0.4l-0.3,0.9c-0.3-0.1-0.8-0.4-1.5-0.4c-1.1,0-1.5,0.7-1.5,1.2c0,0.8,0.5,1.1,1.6,1.6
		c1.4,0.5,2.1,1.2,2.1,2.4c0,1.2-0.9,2.3-2.8,2.3c-0.8,0-1.6-0.2-2.1-0.5L1170-65.9z"/>
	<path d="M1176.7-67.3c0,1.4,0.9,2,2,2c0.8,0,1.2-0.1,1.6-0.3l0.2,0.8c-0.4,0.2-1,0.4-1.9,0.4c-1.8,0-2.9-1.2-2.9-2.9s1-3.1,2.7-3.1
		c1.9,0,2.4,1.7,2.4,2.7c0,0.2,0,0.4,0,0.5H1176.7z M1179.8-68c0-0.7-0.3-1.7-1.5-1.7c-1.1,0-1.5,1-1.6,1.7H1179.8z"/>
	<path d="M1182.1-68.6c0-0.7,0-1.3,0-1.8h0.9l0,1.1h0c0.3-0.8,0.9-1.3,1.6-1.3c0.1,0,0.2,0,0.3,0v1c-0.1,0-0.2,0-0.4,0
		c-0.7,0-1.3,0.6-1.4,1.4c0,0.1,0,0.3,0,0.5v3.1h-1V-68.6z"/>
	<path d="M1186.8-70.4l1.1,3.3c0.2,0.5,0.3,1,0.5,1.5h0c0.1-0.5,0.3-1,0.5-1.5l1.1-3.3h1.1l-2.3,5.8h-1l-2.2-5.8H1186.8z"/>
	<path d="M1193.3-72c0,0.4-0.3,0.6-0.7,0.6c-0.4,0-0.6-0.3-0.6-0.6c0-0.4,0.3-0.7,0.7-0.7C1193.1-72.7,1193.3-72.4,1193.3-72z
		 M1192.1-64.6v-5.8h1.1v5.8H1192.1z"/>
	<path d="M1199.1-64.8c-0.3,0.1-0.9,0.3-1.7,0.3c-1.8,0-2.9-1.2-2.9-3c0-1.8,1.2-3.1,3.1-3.1c0.6,0,1.2,0.2,1.5,0.3l-0.2,0.8
		c-0.3-0.1-0.6-0.3-1.2-0.3c-1.3,0-2.1,1-2.1,2.2c0,1.3,0.9,2.2,2,2.2c0.6,0,1-0.2,1.3-0.3L1199.1-64.8z"/>
	<path d="M1200.8-67.3c0,1.4,0.9,2,2,2c0.8,0,1.2-0.1,1.6-0.3l0.2,0.8c-0.4,0.2-1,0.4-1.9,0.4c-1.8,0-2.9-1.2-2.9-2.9s1-3.1,2.7-3.1
		c1.9,0,2.4,1.7,2.4,2.7c0,0.2,0,0.4,0,0.5H1200.8z M1203.9-68c0-0.7-0.3-1.7-1.5-1.7c-1.1,0-1.5,1-1.6,1.7H1203.9z"/>
	<path d="M1209.9-72.7v8.1h-1v-8.1H1209.9z"/>
	<path d="M1216.7-73.1v7c0,0.5,0,1.1,0,1.5h-0.9l0-1h0c-0.3,0.6-1,1.1-2,1.1c-1.4,0-2.5-1.2-2.5-3c0-1.9,1.2-3.1,2.6-3.1
		c0.9,0,1.5,0.4,1.8,0.9h0v-3.5H1216.7z M1215.6-68c0-0.1,0-0.3,0-0.4c-0.2-0.7-0.7-1.2-1.5-1.2c-1.1,0-1.7,1-1.7,2.2
		c0,1.2,0.6,2.1,1.7,2.1c0.7,0,1.4-0.5,1.5-1.3c0-0.1,0-0.3,0-0.5V-68z"/>
	<path d="M1219-67.3c0,1.4,0.9,2,2,2c0.8,0,1.2-0.1,1.6-0.3l0.2,0.8c-0.4,0.2-1,0.4-1.9,0.4c-1.8,0-2.9-1.2-2.9-2.9s1-3.1,2.7-3.1
		c1.9,0,2.4,1.7,2.4,2.7c0,0.2,0,0.4,0,0.5H1219z M1222.1-68c0-0.7-0.3-1.7-1.5-1.7c-1.1,0-1.5,1-1.6,1.7H1222.1z"/>
	<path d="M1224.5-68.8c0-0.6,0-1.1,0-1.6h0.9l0.1,1h0c0.3-0.6,1-1.1,1.9-1.1c0.8,0,2.1,0.5,2.1,2.5v3.5h-1.1v-3.3
		c0-0.9-0.3-1.7-1.3-1.7c-0.7,0-1.2,0.5-1.4,1.1c0,0.1-0.1,0.3-0.1,0.5v3.5h-1.1V-68.8z"/>
	<path d="M1232.3-72.1v1.7h1.5v0.8h-1.5v3.1c0,0.7,0.2,1.1,0.8,1.1c0.3,0,0.5,0,0.6-0.1l0,0.8c-0.2,0.1-0.5,0.1-0.9,0.1
		c-0.5,0-0.9-0.2-1.1-0.4c-0.3-0.3-0.4-0.8-0.4-1.5v-3.2h-0.9v-0.8h0.9v-1.4L1232.3-72.1z"/>
	<path d="M1236.2-72c0,0.4-0.3,0.6-0.7,0.6c-0.4,0-0.6-0.3-0.6-0.6c0-0.4,0.3-0.7,0.7-0.7C1236-72.7,1236.2-72.4,1236.2-72z
		 M1235-64.6v-5.8h1.1v5.8H1235z"/>
	<path d="M1239.1-72.1v1.7h1.5v0.8h-1.5v3.1c0,0.7,0.2,1.1,0.8,1.1c0.3,0,0.5,0,0.6-0.1l0,0.8c-0.2,0.1-0.5,0.1-0.9,0.1
		c-0.5,0-0.9-0.2-1.1-0.4c-0.3-0.3-0.4-0.8-0.4-1.5v-3.2h-0.9v-0.8h0.9v-1.4L1239.1-72.1z"/>
	<path d="M1242.3-70.4l1.3,3.4c0.1,0.4,0.3,0.8,0.4,1.2h0c0.1-0.3,0.2-0.8,0.4-1.2l1.2-3.4h1.1l-1.6,4.1c-0.8,2-1.3,3-2,3.6
		c-0.5,0.5-1,0.6-1.3,0.7l-0.3-0.9c0.3-0.1,0.6-0.3,0.9-0.5c0.3-0.2,0.6-0.6,0.9-1.2c0-0.1,0.1-0.2,0.1-0.3c0-0.1,0-0.1-0.1-0.3
		l-2.1-5.3H1242.3z"/>
</g>
<g>
	<path d="M1447.8-68.1c-0.1-1.1-0.1-2.5-0.1-3.5h0c-0.3,0.9-0.6,2-1,3.1l-1.4,3.9h-0.8l-1.3-3.9c-0.4-1.1-0.7-2.2-0.9-3.1h0
		c0,1-0.1,2.4-0.2,3.6l-0.2,3.5h-1l0.6-8.1h1.3l1.4,3.9c0.3,1,0.6,1.9,0.8,2.7h0c0.2-0.8,0.5-1.7,0.9-2.7l1.4-3.9h1.3l0.5,8.1h-1
		L1447.8-68.1z"/>
	<path d="M1453.9-64.6l-0.1-0.7h0c-0.3,0.5-0.9,0.9-1.8,0.9c-1.2,0-1.8-0.8-1.8-1.7c0-1.4,1.2-2.2,3.5-2.2v-0.1
		c0-0.5-0.1-1.3-1.3-1.3c-0.5,0-1.1,0.2-1.5,0.4l-0.2-0.7c0.5-0.3,1.2-0.5,1.9-0.5c1.8,0,2.2,1.2,2.2,2.4v2.2c0,0.5,0,1,0.1,1.4
		H1453.9z M1453.8-67.5c-1.2,0-2.5,0.2-2.5,1.3c0,0.7,0.5,1,1,1c0.8,0,1.2-0.5,1.4-1c0-0.1,0.1-0.2,0.1-0.3V-67.5z"/>
	<path d="M1456.5-68.6c0-0.7,0-1.3,0-1.8h0.9l0,1.1h0c0.3-0.8,0.9-1.3,1.6-1.3c0.1,0,0.2,0,0.3,0v1c-0.1,0-0.2,0-0.4,0
		c-0.7,0-1.3,0.6-1.4,1.4c0,0.1,0,0.3,0,0.5v3.1h-1V-68.6z"/>
	<path d="M1461.5-67.7L1461.5-67.7c0.2-0.2,0.4-0.5,0.5-0.7l1.7-2h1.3l-2.2,2.4l2.6,3.4h-1.3l-2-2.8l-0.5,0.6v2.2h-1v-8.5h1V-67.7z"
		/>
	<path d="M1466.7-67.3c0,1.4,0.9,2,2,2c0.8,0,1.2-0.1,1.6-0.3l0.2,0.8c-0.4,0.2-1,0.4-1.9,0.4c-1.8,0-2.9-1.2-2.9-2.9s1-3.1,2.7-3.1
		c1.9,0,2.4,1.7,2.4,2.7c0,0.2,0,0.4,0,0.5H1466.7z M1469.8-68c0-0.7-0.3-1.7-1.5-1.7c-1.1,0-1.5,1-1.6,1.7H1469.8z"/>
	<path d="M1473.4-72.1v1.7h1.5v0.8h-1.5v3.1c0,0.7,0.2,1.1,0.8,1.1c0.3,0,0.5,0,0.6-0.1l0,0.8c-0.2,0.1-0.5,0.1-0.9,0.1
		c-0.5,0-0.9-0.2-1.1-0.4c-0.3-0.3-0.4-0.8-0.4-1.5v-3.2h-0.9v-0.8h0.9v-1.4L1473.4-72.1z"/>
	<path d="M1477.2-72c0,0.4-0.3,0.6-0.7,0.6c-0.4,0-0.6-0.3-0.6-0.6c0-0.4,0.3-0.7,0.7-0.7C1477-72.7,1477.2-72.4,1477.2-72z
		 M1476.1-64.6v-5.8h1.1v5.8H1476.1z"/>
	<path d="M1478.9-68.8c0-0.6,0-1.1,0-1.6h0.9l0.1,1h0c0.3-0.6,1-1.1,1.9-1.1c0.8,0,2.1,0.5,2.1,2.5v3.5h-1.1v-3.3
		c0-0.9-0.3-1.7-1.3-1.7c-0.7,0-1.2,0.5-1.4,1.1c0,0.1-0.1,0.3-0.1,0.5v3.5h-1.1V-68.8z"/>
	<path d="M1490.5-70.4c0,0.4,0,0.9,0,1.6v3.4c0,1.3-0.3,2.1-0.8,2.7c-0.6,0.5-1.4,0.7-2.1,0.7c-0.7,0-1.5-0.2-1.9-0.5l0.3-0.8
		c0.4,0.2,1,0.5,1.7,0.5c1.1,0,1.9-0.6,1.9-2v-0.6h0c-0.3,0.5-0.9,1-1.8,1c-1.4,0-2.5-1.2-2.5-2.8c0-2,1.3-3.1,2.6-3.1
		c1,0,1.6,0.5,1.8,1h0l0-0.9H1490.5z M1489.4-68.1c0-0.2,0-0.3-0.1-0.5c-0.2-0.6-0.7-1.1-1.5-1.1c-1,0-1.7,0.9-1.7,2.2
		c0,1.1,0.6,2.1,1.7,2.1c0.6,0,1.2-0.4,1.5-1.1c0.1-0.2,0.1-0.4,0.1-0.6V-68.1z"/>
	<path d="M1494.7-65.9c0.5,0.3,1.2,0.5,1.9,0.5c1.1,0,1.7-0.6,1.7-1.4c0-0.8-0.4-1.2-1.5-1.6c-1.3-0.5-2.1-1.2-2.1-2.3
		c0-1.3,1-2.2,2.6-2.2c0.8,0,1.4,0.2,1.8,0.4l-0.3,0.9c-0.3-0.1-0.8-0.4-1.5-0.4c-1.1,0-1.5,0.7-1.5,1.2c0,0.8,0.5,1.1,1.6,1.6
		c1.4,0.5,2.1,1.2,2.1,2.4c0,1.2-0.9,2.3-2.8,2.3c-0.8,0-1.6-0.2-2.1-0.5L1494.7-65.9z"/>
	<path d="M1501.9-72c0,0.4-0.3,0.6-0.7,0.6c-0.4,0-0.6-0.3-0.6-0.6c0-0.4,0.3-0.7,0.7-0.7C1501.6-72.7,1501.9-72.4,1501.9-72z
		 M1500.7-64.6v-5.8h1.1v5.8H1500.7z"/>
	<path d="M1504.8-72.1v1.7h1.5v0.8h-1.5v3.1c0,0.7,0.2,1.1,0.8,1.1c0.3,0,0.5,0,0.6-0.1l0,0.8c-0.2,0.1-0.5,0.1-0.9,0.1
		c-0.5,0-0.9-0.2-1.1-0.4c-0.3-0.3-0.4-0.8-0.4-1.5v-3.2h-0.9v-0.8h0.9v-1.4L1504.8-72.1z"/>
	<path d="M1508-67.3c0,1.4,0.9,2,2,2c0.8,0,1.2-0.1,1.6-0.3l0.2,0.8c-0.4,0.2-1,0.4-1.9,0.4c-1.8,0-2.9-1.2-2.9-2.9s1-3.1,2.7-3.1
		c1.9,0,2.4,1.7,2.4,2.7c0,0.2,0,0.4,0,0.5H1508z M1511.1-68c0-0.7-0.3-1.7-1.5-1.7c-1.1,0-1.5,1-1.6,1.7H1511.1z"/>
</g>
<g>
	<path d="M1607.2-68.1c-0.1-1.1-0.1-2.5-0.1-3.5h0c-0.3,0.9-0.6,2-1,3.1l-1.4,3.9h-0.8l-1.3-3.9c-0.4-1.1-0.7-2.2-0.9-3.1h0
		c0,1-0.1,2.4-0.2,3.6l-0.2,3.5h-1l0.6-8.1h1.3l1.4,3.9c0.3,1,0.6,1.9,0.8,2.7h0c0.2-0.8,0.5-1.7,0.9-2.7l1.4-3.9h1.3l0.5,8.1h-1
		L1607.2-68.1z"/>
	<path d="M1613.3-64.6l-0.1-0.7h0c-0.3,0.5-0.9,0.9-1.8,0.9c-1.2,0-1.8-0.8-1.8-1.7c0-1.4,1.2-2.2,3.5-2.2v-0.1
		c0-0.5-0.1-1.3-1.3-1.3c-0.5,0-1.1,0.2-1.5,0.4L1610-70c0.5-0.3,1.2-0.5,1.9-0.5c1.8,0,2.2,1.2,2.2,2.4v2.2c0,0.5,0,1,0.1,1.4
		H1613.3z M1613.1-67.5c-1.2,0-2.5,0.2-2.5,1.3c0,0.7,0.5,1,1,1c0.8,0,1.2-0.5,1.4-1c0-0.1,0.1-0.2,0.1-0.3V-67.5z"/>
	<path d="M1615.9-68.6c0-0.7,0-1.3,0-1.8h0.9l0,1.1h0c0.3-0.8,0.9-1.3,1.6-1.3c0.1,0,0.2,0,0.3,0v1c-0.1,0-0.2,0-0.4,0
		c-0.7,0-1.3,0.6-1.4,1.4c0,0.1,0,0.3,0,0.5v3.1h-1V-68.6z"/>
	<path d="M1620.9-67.7L1620.9-67.7c0.2-0.2,0.4-0.5,0.5-0.7l1.7-2h1.3l-2.2,2.4l2.6,3.4h-1.3l-2-2.8l-0.5,0.6v2.2h-1v-8.5h1V-67.7z"
		/>
	<path d="M1626-67.3c0,1.4,0.9,2,2,2c0.8,0,1.2-0.1,1.6-0.3l0.2,0.8c-0.4,0.2-1,0.4-1.9,0.4c-1.8,0-2.9-1.2-2.9-2.9s1-3.1,2.7-3.1
		c1.9,0,2.4,1.7,2.4,2.7c0,0.2,0,0.4,0,0.5H1626z M1629.1-68c0-0.7-0.3-1.7-1.5-1.7c-1.1,0-1.5,1-1.6,1.7H1629.1z"/>
	<path d="M1632.7-72.1v1.7h1.5v0.8h-1.5v3.1c0,0.7,0.2,1.1,0.8,1.1c0.3,0,0.5,0,0.6-0.1l0,0.8c-0.2,0.1-0.5,0.1-0.9,0.1
		c-0.5,0-0.9-0.2-1.1-0.4c-0.3-0.3-0.4-0.8-0.4-1.5v-3.2h-0.9v-0.8h0.9v-1.4L1632.7-72.1z"/>
	<path d="M1636.6-72c0,0.4-0.3,0.6-0.7,0.6c-0.4,0-0.6-0.3-0.6-0.6c0-0.4,0.3-0.7,0.7-0.7C1636.4-72.7,1636.6-72.4,1636.6-72z
		 M1635.4-64.6v-5.8h1.1v5.8H1635.4z"/>
	<path d="M1638.3-68.8c0-0.6,0-1.1,0-1.6h0.9l0.1,1h0c0.3-0.6,1-1.1,1.9-1.1c0.8,0,2.1,0.5,2.1,2.5v3.5h-1.1v-3.3
		c0-0.9-0.3-1.7-1.3-1.7c-0.7,0-1.2,0.5-1.4,1.1c0,0.1-0.1,0.3-0.1,0.5v3.5h-1.1V-68.8z"/>
	<path d="M1649.9-70.4c0,0.4,0,0.9,0,1.6v3.4c0,1.3-0.3,2.1-0.8,2.7c-0.6,0.5-1.4,0.7-2.1,0.7c-0.7,0-1.5-0.2-1.9-0.5l0.3-0.8
		c0.4,0.2,1,0.5,1.7,0.5c1.1,0,1.9-0.6,1.9-2v-0.6h0c-0.3,0.5-0.9,1-1.8,1c-1.4,0-2.5-1.2-2.5-2.8c0-2,1.3-3.1,2.6-3.1
		c1,0,1.6,0.5,1.8,1h0l0-0.9H1649.9z M1648.8-68.1c0-0.2,0-0.3-0.1-0.5c-0.2-0.6-0.7-1.1-1.5-1.1c-1,0-1.7,0.9-1.7,2.2
		c0,1.1,0.6,2.1,1.7,2.1c0.6,0,1.2-0.4,1.5-1.1c0.1-0.2,0.1-0.4,0.1-0.6V-68.1z"/>
	<path d="M1654.1-65.9c0.5,0.3,1.2,0.5,1.9,0.5c1.1,0,1.7-0.6,1.7-1.4c0-0.8-0.4-1.2-1.5-1.6c-1.3-0.5-2.1-1.2-2.1-2.3
		c0-1.3,1-2.2,2.6-2.2c0.8,0,1.4,0.2,1.8,0.4l-0.3,0.9c-0.3-0.1-0.8-0.4-1.5-0.4c-1.1,0-1.5,0.7-1.5,1.2c0,0.8,0.5,1.1,1.6,1.6
		c1.4,0.5,2.1,1.2,2.1,2.4c0,1.2-0.9,2.3-2.8,2.3c-0.8,0-1.6-0.2-2.1-0.5L1654.1-65.9z"/>
	<path d="M1661.3-72c0,0.4-0.3,0.6-0.7,0.6c-0.4,0-0.6-0.3-0.6-0.6c0-0.4,0.3-0.7,0.7-0.7C1661-72.7,1661.3-72.4,1661.3-72z
		 M1660.1-64.6v-5.8h1.1v5.8H1660.1z"/>
	<path d="M1664.2-72.1v1.7h1.5v0.8h-1.5v3.1c0,0.7,0.2,1.1,0.8,1.1c0.3,0,0.5,0,0.6-0.1l0,0.8c-0.2,0.1-0.5,0.1-0.9,0.1
		c-0.5,0-0.9-0.2-1.1-0.4c-0.3-0.3-0.4-0.8-0.4-1.5v-3.2h-0.9v-0.8h0.9v-1.4L1664.2-72.1z"/>
	<path d="M1667.4-67.3c0,1.4,0.9,2,2,2c0.8,0,1.2-0.1,1.6-0.3l0.2,0.8c-0.4,0.2-1,0.4-1.9,0.4c-1.8,0-2.9-1.2-2.9-2.9s1-3.1,2.7-3.1
		c1.9,0,2.4,1.7,2.4,2.7c0,0.2,0,0.4,0,0.5H1667.4z M1670.5-68c0-0.7-0.3-1.7-1.5-1.7c-1.1,0-1.5,1-1.6,1.7H1670.5z"/>
</g>
<rect x="37.5" y="-243.8" fill="none" stroke="#000000" stroke-width="0.6201" stroke-miterlimit="10" width="115.6" height="115.6"/>
<line fill="none" stroke="#000000" stroke-width="0.6201" stroke-miterlimit="10" x1="122.1" y1="-159.1" x2="68.5" y2="-212.8"/>
<line fill="none" stroke="#000000" stroke-width="0.6201" stroke-miterlimit="10" x1="68.5" y1="-159.1" x2="122.1" y2="-212.8"/>
<line fill="none" stroke="#000000" stroke-width="0.6201" stroke-miterlimit="10" x1="122.1" y1="126.8" x2="68.5" y2="73.2"/>
<line fill="none" stroke="#000000" stroke-width="0.6201" stroke-miterlimit="10" x1="68.5" y1="126.8" x2="122.1" y2="73.2"/>
<circle fill="none" stroke="#000000" stroke-width="0.6201" stroke-miterlimit="10" cx="95.3" cy="100" r="57.8"/>
<g>
</g>
<g>
</g>
<g>
</g>
<g>
</g>
<g>
</g>
<g>
</g>
</svg>
