<?xml version="1.0" encoding="utf-8"?>
<!-- Generator: Adobe Illustrator 18.0.0, SVG Export Plug-In . SVG Version: 6.00 Build 0)  -->
<!DOCTYPE svg PUBLIC "-//W3C//DTD SVG 1.1//EN" "http://www.w3.org/Graphics/SVG/1.1/DTD/svg11.dtd">
<svg version="1.1" id="Layer_1" xmlns="http://www.w3.org/2000/svg" xmlns:xlink="http://www.w3.org/1999/xlink" x="0px" y="0px"
	 viewBox="0 0 1280 473" enable-background="new 0 0 1280 473" xml:space="preserve">
<symbol  id="Desktop" viewBox="-27.3 -15.6 28.5 25.6">
	<path fill="none" stroke="#000000" stroke-width="2" stroke-miterlimit="10" d="M-2.3-9.1h-21.9c-1.2,0-2.1,0.9-2.1,2.1V6.9
		c0,1.2,0.9,2.1,2.1,2.1h21.9c1.2,0,2.1-0.9,2.1-2.1V-7C-0.2-8.1-1.2-9.1-2.3-9.1z"/>
	<g>
		<path d="M-11.6-10.1c0.1-1,0.4-2.3,1.2-3.4h-5.7c0.8,1.1,1.1,2.3,1.2,3.4H-11.6 M-9.6-8.1h-1.8h-3.8h-1.8c0,0,0.9-5.7-4.3-5.7
			c0-0.5,0-1.6,0-1.6h3.8h8.4h3.8c0,0,0,1.1,0,1.6C-10.5-13.8-9.6-8.1-9.6-8.1L-9.6-8.1z"/>
	</g>
	
		<line fill="none" stroke="#000000" stroke-width="2" stroke-linecap="round" stroke-linejoin="round" stroke-miterlimit="10" x1="-2.3" y1="-14.6" x2="0.2" y2="-14.6"/>
	<g>
		<path d="M-13.3,1.2l2.3-3.9h-4.5L-13.3,1.2 M-13.3,5.2L-19-4.7l11.4,0L-13.3,5.2L-13.3,5.2z"/>
	</g>
</symbol>
<symbol  id="Identity" viewBox="-34.4 -13.4 33.4 28.9">
	<g>
		<path d="M-17.7,11.5l13.2-22.9h-26.5L-17.7,11.5 M-17.7,15.5l-16.7-28.9H-1L-17.7,15.5L-17.7,15.5z"/>
	</g>
	<g>
		<path d="M-22.6-0.9l9.8,0l-4.9-8.5L-22.6-0.9 M-26,1.1l8.3-14.5l8.3,14.5L-26,1.1L-26,1.1z"/>
	</g>
</symbol>
<symbol  id="Mobile" viewBox="-11.3 -15.6 12.1 25.6">
	<path fill="none" stroke="#000000" stroke-width="2" stroke-miterlimit="10" d="M-1.5-9.1H-9c-0.7,0-1.3,0.6-1.3,1.3V7.7
		C-10.3,8.4-9.7,9-9,9h7.5c0.7,0,1.3-0.6,1.3-1.3V-7.7C-0.2-8.5-0.8-9.1-1.5-9.1z"/>
	
		<line fill="none" stroke="#000000" stroke-width="2" stroke-linecap="round" stroke-linejoin="round" stroke-miterlimit="10" x1="-9.8" y1="-14.6" x2="-0.7" y2="-14.6"/>
	<g>
		<polygon points="-5.3,1.8 -7.1,-1.4 -3.4,-1.4 -5.3,1.8 		"/>
	</g>
</symbol>
<symbol  id="Photos" viewBox="-33.3 -12 34.1 23.6">
	<polygon fill="none" stroke="#000000" stroke-width="2" stroke-miterlimit="10" points="-0.2,-11 -32.3,-11 -32.3,7.1 -0.2,7.1 	
		"/>
	<path fill="none" stroke="#000000" stroke-width="2" stroke-miterlimit="10" d="M-25-2c0,4.8,3.9,8.8,8.8,8.8S-7.5,2.8-7.5-2
		s-3.9-8.8-8.8-8.8S-25-6.9-25-2z"/>
	<polygon fill="none" stroke="#000000" stroke-width="2" stroke-miterlimit="10" points="-9.3,10.6 -2.6,10.6 -2.6,7.1 -9.3,7.1 	
		"/>
	<line fill="none" stroke="#000000" stroke-width="2" stroke-miterlimit="10" x1="-26" y1="8.9" x2="-30" y2="8.9"/>
	<path fill="none" stroke="#000000" stroke-width="2" stroke-miterlimit="10" d="M-21.8-2c0,3.1,2.5,5.6,5.6,5.6s5.6-2.5,5.6-5.6
		s-2.5-5.6-5.6-5.6S-21.8-5.1-21.8-2z"/>
</symbol>
<pattern  y="-1919.4" width="72" height="72" patternUnits="userSpaceOnUse" id="_x31_0_lpi_50_x25_" viewBox="72.2 -72 72 72" overflow="visible">
	<g>
		<polygon fill="none" points="72.2,-72 144.2,-72 144.2,0 72.2,0 		"/>
		<g>
			<line fill="none" stroke="#000000" stroke-width="3.6" x1="144" y1="-3.6" x2="216.5" y2="-3.6"/>
			<line fill="none" stroke="#000000" stroke-width="3.6" x1="144" y1="-18" x2="216.5" y2="-18"/>
			<line fill="none" stroke="#000000" stroke-width="3.6" x1="144" y1="-32.4" x2="216.5" y2="-32.4"/>
			<line fill="none" stroke="#000000" stroke-width="3.6" x1="144" y1="-46.8" x2="216.5" y2="-46.8"/>
			<line fill="none" stroke="#000000" stroke-width="3.6" x1="144" y1="-61.2" x2="216.5" y2="-61.2"/>
			<line fill="none" stroke="#000000" stroke-width="3.6" x1="144" y1="-10.8" x2="216.5" y2="-10.8"/>
			<line fill="none" stroke="#000000" stroke-width="3.6" x1="144" y1="-25.2" x2="216.5" y2="-25.2"/>
			<line fill="none" stroke="#000000" stroke-width="3.6" x1="144" y1="-39.6" x2="216.5" y2="-39.6"/>
			<line fill="none" stroke="#000000" stroke-width="3.6" x1="144" y1="-54" x2="216.5" y2="-54"/>
			<line fill="none" stroke="#000000" stroke-width="3.6" x1="144" y1="-68.4" x2="216.5" y2="-68.4"/>
		</g>
		<g>
			<line fill="none" stroke="#000000" stroke-width="3.6" x1="72" y1="-3.6" x2="144.5" y2="-3.6"/>
			<line fill="none" stroke="#000000" stroke-width="3.6" x1="72" y1="-18" x2="144.5" y2="-18"/>
			<line fill="none" stroke="#000000" stroke-width="3.6" x1="72" y1="-32.4" x2="144.5" y2="-32.4"/>
			<line fill="none" stroke="#000000" stroke-width="3.6" x1="72" y1="-46.8" x2="144.5" y2="-46.8"/>
			<line fill="none" stroke="#000000" stroke-width="3.6" x1="72" y1="-61.2" x2="144.5" y2="-61.2"/>
			<line fill="none" stroke="#000000" stroke-width="3.6" x1="72" y1="-10.8" x2="144.5" y2="-10.8"/>
			<line fill="none" stroke="#000000" stroke-width="3.6" x1="72" y1="-25.2" x2="144.5" y2="-25.2"/>
			<line fill="none" stroke="#000000" stroke-width="3.6" x1="72" y1="-39.6" x2="144.5" y2="-39.6"/>
			<line fill="none" stroke="#000000" stroke-width="3.6" x1="72" y1="-54" x2="144.5" y2="-54"/>
			<line fill="none" stroke="#000000" stroke-width="3.6" x1="72" y1="-68.4" x2="144.5" y2="-68.4"/>
		</g>
		<g>
			<line fill="none" stroke="#000000" stroke-width="3.6" x1="0" y1="-3.6" x2="72.5" y2="-3.6"/>
			<line fill="none" stroke="#000000" stroke-width="3.6" x1="0" y1="-18" x2="72.5" y2="-18"/>
			<line fill="none" stroke="#000000" stroke-width="3.6" x1="0" y1="-32.4" x2="72.5" y2="-32.4"/>
			<line fill="none" stroke="#000000" stroke-width="3.6" x1="0" y1="-46.8" x2="72.5" y2="-46.8"/>
			<line fill="none" stroke="#000000" stroke-width="3.6" x1="0" y1="-61.2" x2="72.5" y2="-61.2"/>
			<line fill="none" stroke="#000000" stroke-width="3.6" x1="0" y1="-10.8" x2="72.5" y2="-10.8"/>
			<line fill="none" stroke="#000000" stroke-width="3.6" x1="0" y1="-25.2" x2="72.5" y2="-25.2"/>
			<line fill="none" stroke="#000000" stroke-width="3.6" x1="0" y1="-39.6" x2="72.5" y2="-39.6"/>
			<line fill="none" stroke="#000000" stroke-width="3.6" x1="0" y1="-54" x2="72.5" y2="-54"/>
			<line fill="none" stroke="#000000" stroke-width="3.6" x1="0" y1="-68.4" x2="72.5" y2="-68.4"/>
		</g>
	</g>
</pattern>
<g>
	<line fill="none" stroke="#000000" stroke-width="0.7692" stroke-miterlimit="10" x1="146.6" y1="381" x2="1131.7" y2="381"/>
	<line fill="none" stroke="#000000" stroke-width="0.7692" stroke-miterlimit="10" x1="146.6" y1="401.9" x2="146.6" y2="360.2"/>
	<line fill="none" stroke="#000000" stroke-width="0.7692" stroke-miterlimit="10" x1="228.7" y1="391.1" x2="228.7" y2="371"/>
	<line fill="none" stroke="#000000" stroke-width="0.7692" stroke-miterlimit="10" x1="310.8" y1="391.1" x2="310.8" y2="371"/>
	<line fill="none" stroke="#000000" stroke-width="0.7692" stroke-miterlimit="10" x1="392.9" y1="391.1" x2="392.9" y2="371"/>
	<line fill="none" stroke="#000000" stroke-width="0.7692" stroke-miterlimit="10" x1="475" y1="401.9" x2="475" y2="360.2"/>
	<line fill="none" stroke="#000000" stroke-width="0.7692" stroke-miterlimit="10" x1="557.1" y1="391.1" x2="557.1" y2="371"/>
	<line fill="none" stroke="#000000" stroke-width="0.7692" stroke-miterlimit="10" x1="639.1" y1="391.1" x2="639.1" y2="371"/>
	<line fill="none" stroke="#000000" stroke-width="0.7692" stroke-miterlimit="10" x1="721.2" y1="391.1" x2="721.2" y2="371"/>
	<line fill="none" stroke="#000000" stroke-width="0.7692" stroke-miterlimit="10" x1="803.3" y1="401.9" x2="803.3" y2="360.2"/>
	<line fill="none" stroke="#000000" stroke-width="0.7692" stroke-miterlimit="10" x1="885.4" y1="391.1" x2="885.4" y2="371"/>
	<line fill="none" stroke="#000000" stroke-width="0.7692" stroke-miterlimit="10" x1="967.5" y1="391.1" x2="967.5" y2="371"/>
	<line fill="none" stroke="#000000" stroke-width="0.7692" stroke-miterlimit="10" x1="1049.6" y1="391.1" x2="1049.6" y2="371"/>
	<line fill="none" stroke="#000000" stroke-width="0.7692" stroke-miterlimit="10" x1="1131.7" y1="401.9" x2="1131.7" y2="192.4"/>
</g>
<g>
	<path d="M136.7,432.4l0.8-0.9c0.7,0.6,1.4,1,2.3,1c0.8,0,1.3-0.4,1.3-0.9v0c0-0.5-0.3-0.8-1.7-1.1c-1.6-0.4-2.4-0.8-2.4-2.2v0
		c0-1.3,1-2.1,2.5-2.1c1.1,0,1.9,0.3,2.7,0.9l-0.7,1c-0.7-0.5-1.3-0.8-2-0.8c-0.8,0-1.2,0.4-1.2,0.9v0c0,0.6,0.3,0.8,1.7,1.2
		c1.6,0.4,2.4,0.9,2.4,2.1v0c0,1.4-1.1,2.2-2.6,2.2C138.6,433.5,137.6,433.2,136.7,432.4z"/>
	<path d="M143.9,426.1h5.4v1.2h-4.2v1.9h3.7v1.2h-3.7v2h4.2v1.2h-5.5V426.1z"/>
	<path d="M150.9,426.1h2.9c1.7,0,2.8,1,2.8,2.5v0c0,1.6-1.3,2.5-2.9,2.5h-1.5v2.4h-1.3V426.1z M153.7,429.9c1,0,1.6-0.5,1.6-1.3v0
		c0-0.9-0.6-1.3-1.6-1.3h-1.5v2.6H153.7z"/>
</g>
<g>
	<path d="M463.9,429.8L463.9,429.8c0-2.1,1.6-3.8,3.8-3.8c2.3,0,3.8,1.7,3.8,3.8v0c0,2.1-1.6,3.8-3.8,3.8S463.9,431.9,463.9,429.8z
		 M470.2,429.8L470.2,429.8c0-1.4-1-2.6-2.5-2.6s-2.5,1.2-2.5,2.6v0c0,1.4,1,2.6,2.5,2.6S470.2,431.2,470.2,429.8z"/>
	<path d="M472.8,429.8L472.8,429.8c0-2.1,1.6-3.8,3.8-3.8c1.4,0,2.2,0.5,2.9,1.1l-0.8,1c-0.6-0.5-1.2-0.9-2.1-0.9
		c-1.4,0-2.4,1.2-2.4,2.6v0c0,1.4,1,2.6,2.4,2.6c0.9,0,1.5-0.4,2.1-1l0.8,0.8c-0.8,0.8-1.6,1.3-3,1.3
		C474.4,433.6,472.8,431.9,472.8,429.8z"/>
	<path d="M482.6,427.3h-2.3v-1.2h6v1.2h-2.3v6.1h-1.3V427.3z"/>
</g>
<g>
	<path d="M792,426.1h1.2l3.9,5.1v-5.1h1.3v7.3h-1.1l-4-5.2v5.2H792V426.1z"/>
	<path d="M799.9,429.8L799.9,429.8c0-2.1,1.6-3.8,3.8-3.8s3.8,1.7,3.8,3.8v0c0,2.1-1.6,3.8-3.8,3.8S799.9,431.9,799.9,429.8z
		 M806.2,429.8L806.2,429.8c0-1.4-1-2.6-2.5-2.6s-2.5,1.2-2.5,2.6v0c0,1.4,1,2.6,2.5,2.6S806.2,431.2,806.2,429.8z"/>
	<path d="M808.1,426.1h1.4l2.2,5.6l2.2-5.6h1.4l-3.1,7.4h-1.1L808.1,426.1z"/>
</g>
<g>
	<path d="M1121.1,426.1h2.7c2.3,0,3.9,1.6,3.9,3.6v0c0,2.1-1.6,3.7-3.9,3.7h-2.7V426.1z M1123.9,432.3c1.5,0,2.5-1,2.5-2.5v0
		c0-1.4-1-2.5-2.5-2.5h-1.4v5H1123.9z"/>
	<path d="M1129.3,426.1h5.4v1.2h-4.2v1.9h3.7v1.2h-3.7v2h4.2v1.2h-5.5V426.1z"/>
	<path d="M1136,429.8L1136,429.8c0-2.1,1.6-3.8,3.8-3.8c1.4,0,2.2,0.5,2.9,1.1l-0.8,1c-0.6-0.5-1.2-0.9-2.1-0.9
		c-1.4,0-2.4,1.2-2.4,2.6v0c0,1.4,1,2.6,2.4,2.6c0.9,0,1.5-0.4,2.1-1l0.8,0.8c-0.8,0.8-1.6,1.3-3,1.3
		C1137.6,433.6,1136,431.9,1136,429.8z"/>
</g>
<g>
	<path d="M51.6,216.8h4.2c3.5,0,6,2.4,6,5.6v0c0,3.2-2.4,5.6-6,5.6h-4.2V216.8z M55.8,226.2c2.4,0,3.9-1.6,3.9-3.8v0
		c0-2.2-1.5-3.8-3.9-3.8h-2.2v7.6H55.8z"/>
	<path d="M64.1,216.8h8.3v1.8h-6.3v2.9h5.6v1.8h-5.6v3h6.4v1.8h-8.4V216.8z"/>
	<path d="M74.1,226.4l1.2-1.4c1.1,0.9,2.1,1.5,3.5,1.5c1.2,0,2-0.6,2-1.4v0c0-0.8-0.4-1.2-2.5-1.7c-2.4-0.6-3.7-1.3-3.7-3.3v0
		c0-1.9,1.6-3.2,3.8-3.2c1.6,0,2.9,0.5,4.1,1.4l-1.1,1.5c-1-0.8-2-1.2-3-1.2c-1.2,0-1.8,0.6-1.8,1.3v0c0,0.9,0.5,1.2,2.7,1.8
		c2.4,0.6,3.6,1.4,3.6,3.3v0c0,2.1-1.6,3.3-4,3.3C77,228.1,75.4,227.6,74.1,226.4z"/>
	<path d="M85.2,216.8h2V228h-2V216.8z"/>
	<path d="M89.7,222.4L89.7,222.4c0-3.2,2.4-5.8,5.8-5.8c2,0,3.2,0.5,4.3,1.5l-1.2,1.5c-0.9-0.7-1.7-1.2-3.1-1.2
		c-2.1,0-3.6,1.8-3.6,4v0c0,2.3,1.5,4,3.8,4c1.1,0,2-0.3,2.7-0.8v-2.1h-2.9v-1.7h4.8v4.7c-1.1,0.9-2.7,1.7-4.7,1.7
		C92,228.2,89.7,225.7,89.7,222.4z"/>
	<path d="M102.7,216.8h1.8l6,7.7v-7.7h1.9V228h-1.6l-6.2-8v8h-1.9V216.8z"/>
</g>
<g>
	<polygon opacity="0.4" points="307.7,216.6 147.4,216.9 147.4,229 307.7,228.6 	"/>
	<g>
		<path d="M148,240.4L148,240.4c0-2.1,1.6-3.8,3.8-3.8c1.4,0,2.2,0.5,2.9,1.1l-0.8,1c-0.6-0.5-1.2-0.9-2.1-0.9
			c-1.4,0-2.4,1.2-2.4,2.6v0c0,1.4,1,2.6,2.4,2.6c0.9,0,1.5-0.4,2.1-1l0.8,0.8c-0.8,0.8-1.6,1.3-3,1.3
			C149.6,244.1,148,242.5,148,240.4z"/>
		<path d="M158.6,236.6h1.2l3.2,7.4h-1.4l-0.7-1.8h-3.5l-0.8,1.8h-1.3L158.6,236.6z M160.5,241.1l-1.3-2.9l-1.3,2.9H160.5z"/>
		<path d="M164.3,236.7h2.9c1.7,0,2.8,1,2.8,2.5v0c0,1.6-1.3,2.5-2.9,2.5h-1.5v2.4h-1.3V236.7z M167.1,240.5c1,0,1.6-0.5,1.6-1.3v0
			c0-0.9-0.6-1.3-1.6-1.3h-1.5v2.6H167.1z"/>
		<path d="M173.1,237.9h-2.3v-1.2h6v1.2h-2.3v6.1h-1.3V237.9z"/>
		<path d="M178,240.9v-4.2h1.3v4.2c0,1.4,0.7,2.1,1.9,2.1c1.1,0,1.8-0.7,1.8-2v-4.2h1.3v4.2c0,2.2-1.2,3.3-3.2,3.3
			C179.2,244.1,178,243,178,240.9z"/>
		<path d="M186,236.7h3.3c0.9,0,1.6,0.3,2.1,0.7c0.4,0.4,0.6,0.9,0.6,1.6v0c0,1.2-0.7,1.9-1.8,2.2l2,2.8h-1.5l-1.8-2.6h-1.6v2.6H186
			V236.7z M189.2,240.3c0.9,0,1.5-0.5,1.5-1.2v0c0-0.8-0.6-1.2-1.5-1.2h-1.9v2.5H189.2z"/>
		<path d="M193.6,236.7h5.4v1.2h-4.2v1.9h3.7v1.2h-3.7v2h4.2v1.2h-5.5V236.7z"/>
	</g>
	<g>
		<polygon opacity="0.4" points="636.9,216.9 314,216.6 314,228.6 636.9,229 		"/>
		<g>
			<path d="M315.1,236.3h2.9c1.7,0,2.8,1,2.8,2.5v0c0,1.6-1.3,2.5-2.9,2.5h-1.5v2.4h-1.3V236.3z M317.8,240.1c1,0,1.6-0.5,1.6-1.3v0
				c0-0.9-0.6-1.3-1.6-1.3h-1.5v2.6H317.8z"/>
			<path d="M322.1,236.3h3.3c0.9,0,1.6,0.3,2.1,0.7c0.4,0.4,0.6,0.9,0.6,1.6v0c0,1.2-0.7,1.9-1.8,2.2l2,2.8h-1.5l-1.8-2.6h-1.6v2.6
				h-1.3V236.3z M325.2,239.9c0.9,0,1.5-0.5,1.5-1.2v0c0-0.8-0.6-1.2-1.5-1.2h-1.9v2.5H325.2z"/>
			<path d="M329.3,240L329.3,240c0-2.1,1.6-3.8,3.8-3.8c2.3,0,3.8,1.7,3.8,3.8v0c0,2.1-1.6,3.8-3.8,3.8S329.3,242.1,329.3,240z
				 M335.6,240L335.6,240c0-1.4-1-2.6-2.5-2.6s-2.5,1.2-2.5,2.6v0c0,1.4,1,2.6,2.5,2.6S335.6,241.4,335.6,240z"/>
			<path d="M339.9,237.5h-2.3v-1.2h6v1.2h-2.3v6.1h-1.3V237.5z"/>
			<path d="M344.2,240L344.2,240c0-2.1,1.6-3.8,3.8-3.8c2.3,0,3.8,1.7,3.8,3.8v0c0,2.1-1.6,3.8-3.8,3.8S344.2,242.1,344.2,240z
				 M350.5,240L350.5,240c0-1.4-1-2.6-2.5-2.6s-2.5,1.2-2.5,2.6v0c0,1.4,1,2.6,2.5,2.6S350.5,241.4,350.5,240z"/>
			<path d="M354.8,237.5h-2.3v-1.2h6v1.2h-2.3v6.1h-1.3V237.5z"/>
			<path d="M362,240.7l-2.9-4.4h1.5l2.1,3.2l2.1-3.2h1.5l-2.9,4.4v2.9H362V240.7z"/>
			<path d="M367.3,236.3h2.9c1.7,0,2.8,1,2.8,2.5v0c0,1.6-1.3,2.5-2.9,2.5h-1.5v2.4h-1.3V236.3z M370.1,240.1c1,0,1.6-0.5,1.6-1.3v0
				c0-0.9-0.6-1.3-1.6-1.3h-1.5v2.6H370.1z"/>
			<path d="M374.3,236.3h5.4v1.2h-4.2v1.9h3.7v1.2h-3.7v2h4.2v1.2h-5.5V236.3z"/>
		</g>
	</g>
	<g>
		<rect x="643.1" y="216.9" opacity="0.4" width="488.6" height="12"/>
		<g>
			<path d="M643.7,240.4L643.7,240.4c0-2.1,1.6-3.8,3.8-3.8c1.4,0,2.2,0.5,2.9,1.1l-0.8,1c-0.6-0.5-1.2-0.9-2.1-0.9
				c-1.4,0-2.4,1.2-2.4,2.6v0c0,1.4,1,2.6,2.4,2.6c0.9,0,1.5-0.4,2.1-1l0.8,0.8c-0.8,0.8-1.6,1.3-3,1.3
				C645.3,244.1,643.7,242.5,643.7,240.4z"/>
			<path d="M651.2,240.4L651.2,240.4c0-2.1,1.6-3.8,3.8-3.8c2.3,0,3.8,1.7,3.8,3.8v0c0,2.1-1.6,3.8-3.8,3.8S651.2,242.4,651.2,240.4
				z M657.6,240.4L657.6,240.4c0-1.4-1-2.6-2.5-2.6s-2.5,1.2-2.5,2.6v0c0,1.4,1,2.6,2.5,2.6S657.6,241.8,657.6,240.4z"/>
			<path d="M660.5,236.7h1.2l3.9,5.1v-5.1h1.3v7.3h-1.1l-4-5.2v5.2h-1.3V236.7z"/>
			<path d="M668.3,243l0.8-0.9c0.7,0.6,1.4,1,2.3,1c0.8,0,1.3-0.4,1.3-0.9v0c0-0.5-0.3-0.8-1.7-1.1c-1.6-0.4-2.4-0.8-2.4-2.2v0
				c0-1.3,1-2.1,2.5-2.1c1.1,0,1.9,0.3,2.7,0.9l-0.7,1c-0.7-0.5-1.3-0.8-2-0.8c-0.8,0-1.2,0.4-1.2,0.9v0c0,0.6,0.3,0.8,1.7,1.2
				c1.6,0.4,2.4,0.9,2.4,2.1v0c0,1.4-1.1,2.2-2.6,2.2C670.2,244.1,669.1,243.7,668.3,243z"/>
			<path d="M677.1,237.9h-2.3v-1.2h6v1.2h-2.3v6.1h-1.3V237.9z"/>
			<path d="M682.1,236.7h3.3c0.9,0,1.6,0.3,2.1,0.7c0.4,0.4,0.6,0.9,0.6,1.6v0c0,1.2-0.7,1.9-1.8,2.2l2,2.8h-1.5l-1.8-2.6h-1.6v2.6
				h-1.3V236.7z M685.3,240.3c0.9,0,1.5-0.5,1.5-1.2v0c0-0.8-0.6-1.2-1.5-1.2h-1.9v2.5H685.3z"/>
			<path d="M689.6,240.9v-4.2h1.3v4.2c0,1.4,0.7,2.1,1.9,2.1c1.1,0,1.8-0.7,1.8-2v-4.2h1.3v4.2c0,2.2-1.2,3.3-3.2,3.3
				C690.8,244.1,689.6,243,689.6,240.9z"/>
			<path d="M697.3,240.4L697.3,240.4c0-2.1,1.6-3.8,3.8-3.8c1.4,0,2.2,0.5,2.9,1.1l-0.8,1c-0.6-0.5-1.2-0.9-2.1-0.9
				c-1.4,0-2.4,1.2-2.4,2.6v0c0,1.4,1,2.6,2.4,2.6c0.9,0,1.5-0.4,2.1-1l0.8,0.8c-0.8,0.8-1.6,1.3-3,1.3
				C698.9,244.1,697.3,242.5,697.3,240.4z"/>
			<path d="M707.1,237.9h-2.3v-1.2h6v1.2h-2.3v6.1h-1.3V237.9z"/>
		</g>
	</g>
</g>
<g opacity="0.4">
	<g>
		<rect x="148" y="288.4" opacity="0.4" width="159.8" height="12"/>
		<g>
			<path d="M148.6,311.8L148.6,311.8c0-2.1,1.6-3.8,3.8-3.8c2.3,0,3.8,1.7,3.8,3.8v0c0,2.1-1.6,3.8-3.8,3.8S148.6,313.9,148.6,311.8
				z M154.9,311.8L154.9,311.8c0-1.4-1-2.6-2.5-2.6s-2.5,1.2-2.5,2.6v0c0,1.4,1,2.6,2.5,2.6S154.9,313.3,154.9,311.8z"/>
			<path d="M157.9,308.2h3.3c0.8,0,1.5,0.2,1.9,0.6c0.3,0.3,0.5,0.7,0.5,1.2v0c0,0.9-0.5,1.4-1,1.6c0.9,0.3,1.5,0.8,1.5,1.8v0
				c0,1.3-1.1,2-2.7,2h-3.4V308.2z M160.9,311.3c0.8,0,1.4-0.3,1.4-1v0c0-0.6-0.5-0.9-1.3-0.9h-1.9v1.9H160.9z M161.3,314.4
				c0.9,0,1.4-0.3,1.4-1v0c0-0.6-0.5-1-1.5-1h-2v2H161.3z"/>
			<path d="M164.9,314.4l0.8-0.9c0.7,0.6,1.4,1,2.3,1c0.8,0,1.3-0.4,1.3-0.9v0c0-0.5-0.3-0.8-1.7-1.1c-1.6-0.4-2.4-0.8-2.4-2.2v0
				c0-1.3,1-2.1,2.5-2.1c1.1,0,1.9,0.3,2.7,0.9l-0.7,1c-0.7-0.5-1.3-0.8-2-0.8c-0.8,0-1.2,0.4-1.2,0.9v0c0,0.6,0.3,0.8,1.7,1.2
				c1.6,0.4,2.4,0.9,2.4,2.1v0c0,1.4-1.1,2.2-2.6,2.2C166.9,315.6,165.8,315.2,164.9,314.4z"/>
			<path d="M172.1,308.2h5.4v1.2h-4.2v1.9h3.7v1.2h-3.7v2h4.2v1.2h-5.5V308.2z"/>
			<path d="M179.1,308.2h3.3c0.9,0,1.6,0.3,2.1,0.7c0.4,0.4,0.6,0.9,0.6,1.6v0c0,1.2-0.7,1.9-1.8,2.2l2,2.8h-1.5l-1.8-2.6h-1.6v2.6
				h-1.3V308.2z M182.3,311.8c0.9,0,1.5-0.5,1.5-1.2v0c0-0.8-0.6-1.2-1.5-1.2h-1.9v2.5H182.3z"/>
			<path d="M185.9,308.2h1.4l2.2,5.6l2.2-5.6h1.4l-3.1,7.4h-1.1L185.9,308.2z"/>
			<path d="M194.4,308.2h5.4v1.2h-4.2v1.9h3.7v1.2h-3.7v2h4.2v1.2h-5.5V308.2z"/>
		</g>
	</g>
	<g>
		<rect x="314" y="288.4" opacity="0.4" width="160.8" height="12"/>
		<g>
			<path d="M315,308.2h1.3v7.3H315V308.2z"/>
			<path d="M318.3,308.2h1.2l3.9,5.1v-5.1h1.3v7.3h-1.1l-4-5.2v5.2h-1.3V308.2z"/>
			<path d="M332.3,314.9c-0.6,0.4-1.4,0.7-2.2,0.7c-2.3,0-3.8-1.7-3.8-3.8v0c0-2.1,1.6-3.8,3.8-3.8c2.3,0,3.8,1.7,3.8,3.8v0
				c0,0.8-0.3,1.6-0.7,2.3l0.8,0.7l-0.8,0.9L332.3,314.9z M331.3,314.1l-1.3-1.1l0.8-0.9l1.3,1.2c0.3-0.4,0.4-0.9,0.4-1.4v0
				c0-1.4-1-2.6-2.5-2.6s-2.5,1.2-2.5,2.6v0c0,1.4,1,2.6,2.5,2.6C330.5,314.4,331,314.3,331.3,314.1z"/>
			<path d="M335.3,312.4v-4.2h1.3v4.2c0,1.4,0.7,2.1,1.9,2.1c1.1,0,1.8-0.7,1.8-2v-4.2h1.3v4.2c0,2.2-1.2,3.3-3.2,3.3
				C336.6,315.6,335.3,314.5,335.3,312.4z"/>
			<path d="M343.5,308.2h1.3v7.3h-1.3V308.2z"/>
			<path d="M346.7,308.2h3.3c0.9,0,1.6,0.3,2.1,0.7c0.4,0.4,0.6,0.9,0.6,1.6v0c0,1.2-0.7,1.9-1.8,2.2l2,2.8h-1.5l-1.8-2.6H348v2.6
				h-1.3V308.2z M349.9,311.8c0.9,0,1.5-0.5,1.5-1.2v0c0-0.8-0.6-1.2-1.5-1.2H348v2.5H349.9z"/>
			<path d="M354.3,308.2h5.4v1.2h-4.2v1.9h3.7v1.2h-3.7v2h4.2v1.2h-5.5V308.2z"/>
		</g>
	</g>
	<g>
		<path d="M26.8,298.8l1.2-1.4c1.1,0.9,2.1,1.5,3.5,1.5c1.2,0,2-0.6,2-1.4v0c0-0.8-0.4-1.2-2.5-1.7c-2.4-0.6-3.7-1.3-3.7-3.3v0
			c0-1.9,1.6-3.2,3.8-3.2c1.6,0,2.9,0.5,4.1,1.4l-1.1,1.5c-1-0.8-2-1.2-3-1.2c-1.2,0-1.8,0.6-1.8,1.3v0c0,0.9,0.5,1.2,2.7,1.8
			c2.4,0.6,3.6,1.4,3.6,3.3v0c0,2.1-1.6,3.3-4,3.3C29.8,300.6,28.2,300,26.8,298.8z"/>
		<path d="M40.3,291.1h-3.6v-1.8h9.1v1.8h-3.6v9.4h-2V291.1z"/>
		<path d="M48,289.3h5c1.4,0,2.5,0.4,3.2,1.1c0.6,0.6,0.9,1.4,0.9,2.4v0c0,1.8-1.1,2.9-2.7,3.4l3,4.2h-2.3l-2.8-3.9h-2.5v3.9h-2
			V289.3z M52.8,294.8c1.4,0,2.3-0.7,2.3-1.9v0c0-1.2-0.9-1.9-2.3-1.9h-2.9v3.8H52.8z"/>
		<path d="M63.5,289.2h1.8l4.9,11.3h-2.1l-1.1-2.7h-5.3l-1.2,2.7h-2L63.5,289.2z M66.3,296l-1.9-4.5l-1.9,4.5H66.3z"/>
		<path d="M73.5,291.1h-3.6v-1.8H79v1.8h-3.6v9.4h-2V291.1z"/>
		<path d="M81.1,289.3h8.3v1.8h-6.3v2.9h5.6v1.8h-5.6v3h6.4v1.8h-8.4V289.3z"/>
		<path d="M91.3,294.9L91.3,294.9c0-3.2,2.4-5.8,5.8-5.8c2,0,3.2,0.5,4.3,1.5l-1.2,1.5c-0.9-0.7-1.7-1.2-3.1-1.2
			c-2.1,0-3.6,1.8-3.6,4v0c0,2.3,1.5,4,3.8,4c1.1,0,2-0.3,2.7-0.8v-2.1H97v-1.7h4.8v4.7c-1.1,0.9-2.7,1.7-4.7,1.7
			C93.6,300.7,91.3,298.2,91.3,294.9z"/>
		<path d="M107.2,296l-4.4-6.8h2.3l3.1,5l3.2-5h2.3l-4.4,6.7v4.5h-2V296z"/>
	</g>
	<g>
		<rect x="481.7" y="288" opacity="0.4" width="403.1" height="12"/>
		<g>
			<path d="M482.2,314l0.8-0.9c0.7,0.6,1.4,1,2.3,1c0.8,0,1.3-0.4,1.3-0.9v0c0-0.5-0.3-0.8-1.7-1.1c-1.6-0.4-2.4-0.8-2.4-2.2v0
				c0-1.3,1-2.1,2.5-2.1c1.1,0,1.9,0.3,2.7,0.9l-0.7,1c-0.7-0.5-1.3-0.8-2-0.8c-0.8,0-1.2,0.4-1.2,0.9v0c0,0.6,0.3,0.8,1.7,1.2
				c1.6,0.4,2.4,0.9,2.4,2.1v0c0,1.4-1.1,2.2-2.6,2.2C484.1,315.2,483.1,314.8,482.2,314z"/>
			<path d="M491,308.9h-2.3v-1.2h6v1.2h-2.3v6.1H491V308.9z"/>
			<path d="M496,307.7h3.3c0.9,0,1.6,0.3,2.1,0.7c0.4,0.4,0.6,0.9,0.6,1.6v0c0,1.2-0.7,1.9-1.8,2.2l2,2.8h-1.5l-1.8-2.6h-1.6v2.6
				H496V307.7z M499.2,311.4c0.9,0,1.5-0.5,1.5-1.2v0c0-0.8-0.6-1.2-1.5-1.2h-1.9v2.5H499.2z"/>
			<path d="M506.2,307.7h1.2l3.2,7.4h-1.4l-0.7-1.8H505l-0.8,1.8H503L506.2,307.7z M508,312.1l-1.3-2.9l-1.3,2.9H508z"/>
			<path d="M512.7,308.9h-2.3v-1.2h6v1.2H514v6.1h-1.3V308.9z"/>
			<path d="M517.7,307.7h5.4v1.2H519v1.9h3.7v1.2H519v2h4.2v1.2h-5.5V307.7z"/>
			<path d="M524.4,311.4L524.4,311.4c0-2.1,1.6-3.8,3.8-3.8c1.3,0,2.1,0.4,2.8,1l-0.8,1c-0.6-0.5-1.1-0.8-2.1-0.8
				c-1.4,0-2.4,1.2-2.4,2.6v0c0,1.5,1,2.6,2.5,2.6c0.7,0,1.3-0.2,1.8-0.6v-1.4h-1.9V311h3.1v3.1c-0.7,0.6-1.8,1.1-3.1,1.1
				C525.9,315.2,524.4,313.5,524.4,311.4z"/>
			<path d="M533,307.7h1.3v7.3H533V307.7z"/>
			<path d="M536,314.1l4.3-5.2h-4.2v-1.1h5.9v1l-4.3,5.2h4.3v1.1h-6V314.1z"/>
			<path d="M543.6,307.7h5.4v1.2h-4.2v1.9h3.7v1.2h-3.7v2h4.2v1.2h-5.5V307.7z"/>
		</g>
	</g>
	<g>
		<rect x="1049.6" y="286.9" opacity="0.4" width="82.1" height="12"/>
		<g>
			<path d="M1050.5,306.7h1.3v3h3.5v-3h1.3v7.3h-1.3v-3.1h-3.5v3.1h-1.3V306.7z"/>
			<path d="M1058.4,310.9v-4.2h1.3v4.2c0,1.4,0.7,2.1,1.9,2.1c1.1,0,1.8-0.7,1.8-2v-4.2h1.3v4.2c0,2.2-1.2,3.3-3.2,3.3
				C1059.6,314.1,1058.4,313,1058.4,310.9z"/>
			<path d="M1065.9,312.9l0.8-0.9c0.7,0.6,1.4,1,2.3,1c0.8,0,1.3-0.4,1.3-0.9v0c0-0.5-0.3-0.8-1.7-1.1c-1.6-0.4-2.4-0.8-2.4-2.2v0
				c0-1.3,1-2.1,2.5-2.1c1.1,0,1.9,0.3,2.7,0.9l-0.7,1c-0.7-0.5-1.3-0.8-2-0.8c-0.8,0-1.2,0.4-1.2,0.9v0c0,0.6,0.3,0.8,1.7,1.2
				c1.6,0.4,2.4,0.9,2.4,2.1v0c0,1.4-1.1,2.2-2.6,2.2C1067.9,314.1,1066.8,313.7,1065.9,312.9z"/>
			<path d="M1074.8,307.9h-2.3v-1.2h6v1.2h-2.3v6.1h-1.3V307.9z"/>
			<path d="M1079.8,306.7h1.3v6.2h3.9v1.2h-5.1V306.7z"/>
			<path d="M1086.3,306.7h5.4v1.2h-4.2v1.9h3.7v1.2h-3.7v2h4.2v1.2h-5.5V306.7z"/>
		</g>
	</g>
	<line opacity="0.4" fill="none" stroke="#000000" stroke-miterlimit="10" x1="141.5" y1="294.5" x2="120" y2="294.5"/>
	<line opacity="0.4" fill="none" stroke="#000000" stroke-miterlimit="10" x1="1041" y1="294.5" x2="893.1" y2="294.5"/>
</g>
<line opacity="0.4" fill="none" stroke="#000000" stroke-miterlimit="10" x1="141.5" y1="223" x2="120" y2="223"/>
<g>
	<g>
		<path d="M299.2,202c0-29.2,0-48.8,0-93.7"/>
		<g>
			<path fill="none" stroke="#000000" stroke-width="2" stroke-miterlimit="10" d="M299.2,202c0-29.2,0-48.8,0-93.7"/>
			<g>
				<polygon points="304.2,200.6 299.2,209.2 294.2,200.6 				"/>
			</g>
		</g>
	</g>
	<g>
		<g>
			<g>
				<path d="M318.5,79h3.7c1.1,0,1.9,0.3,2.4,0.8c0.4,0.5,0.7,1.1,0.7,1.8v0c0,1.4-0.8,2.2-2,2.5l2.3,3.2h-1.7l-2.1-2.9H320v2.9
					h-1.5V79z M322.2,83.2c1.1,0,1.7-0.6,1.7-1.4v0c0-0.9-0.6-1.4-1.7-1.4H320v2.8H322.2z"/>
				<path d="M330.2,79h1.4l3.7,8.5h-1.6l-0.9-2h-4l-0.9,2h-1.5L330.2,79z M332.3,84.1l-1.5-3.4l-1.4,3.4H332.3z"/>
				<path d="M335,79h1.6l2,6.2l2.1-6.2h1.2l2.1,6.2l2-6.2h1.5l-2.9,8.5h-1.3l-2.1-6l-2.1,6h-1.3L335,79z"/>
				<path d="M352.6,79h1.6l2.6,4l2.6-4h1.6v8.4h-1.5v-6l-2.7,4h0l-2.6-3.9v6h-1.5V79z"/>
				<path d="M366,79h1.4l3.7,8.5h-1.6l-0.9-2h-4l-0.9,2h-1.5L366,79z M368.1,84.1l-1.5-3.4l-1.4,3.4H368.1z"/>
				<path d="M373.5,80.4h-2.7V79h6.8v1.4H375v7h-1.5V80.4z"/>
				<path d="M379.2,79h6.2v1.3h-4.7v2.2h4.2v1.3h-4.2v2.3h4.8v1.3h-6.3V79z"/>
				<path d="M387.2,79h3.7c1.1,0,1.9,0.3,2.4,0.8c0.4,0.5,0.7,1.1,0.7,1.8v0c0,1.4-0.8,2.2-2,2.5l2.3,3.2h-1.7l-2.1-2.9h-1.8v2.9
					h-1.5V79z M390.9,83.2c1.1,0,1.7-0.6,1.7-1.4v0c0-0.9-0.6-1.4-1.7-1.4h-2.1v2.8H390.9z"/>
				<path d="M396,79h1.5v8.4H396V79z"/>
				<path d="M402.7,79h1.4l3.7,8.5h-1.6l-0.9-2h-4l-0.9,2H399L402.7,79z M404.8,84.1l-1.5-3.4l-1.4,3.4H404.8z"/>
				<path d="M409.2,79h1.5v7.1h4.4v1.3h-5.9V79z"/>
				<path d="M416,86.2l0.9-1.1c0.8,0.7,1.6,1.1,2.7,1.1c0.9,0,1.5-0.4,1.5-1.1v0c0-0.6-0.3-0.9-1.9-1.3c-1.8-0.4-2.8-1-2.8-2.5v0
					c0-1.4,1.2-2.4,2.9-2.4c1.2,0,2.2,0.4,3,1.1l-0.8,1.1c-0.8-0.6-1.5-0.9-2.3-0.9c-0.9,0-1.4,0.4-1.4,1v0c0,0.6,0.4,0.9,2,1.3
					c1.8,0.4,2.7,1.1,2.7,2.5v0c0,1.6-1.2,2.5-3,2.5C418.3,87.6,417.1,87.1,416,86.2z"/>
			</g>
			<g>
				<path d="M318.3,91.5h2.3c1.4,0,2.3,0.7,2.3,1.9v0c0,1.3-1.1,2-2.4,2H319v2.2h-0.7V91.5z M320.5,94.8c1,0,1.7-0.5,1.7-1.3v0
					c0-0.9-0.7-1.3-1.6-1.3H319v2.7H320.5z"/>
				<path d="M324.1,91.5h0.7v2.7h3.5v-2.7h0.7v6.1h-0.7v-2.8h-3.5v2.8h-0.7V91.5z"/>
				<path d="M330.5,94.6L330.5,94.6c0-1.7,1.3-3.2,3.1-3.2c1.9,0,3.1,1.5,3.1,3.1v0c0,1.7-1.3,3.2-3.1,3.2
					C331.8,97.7,330.5,96.3,330.5,94.6z M336,94.6L336,94.6c0-1.4-1-2.5-2.4-2.5s-2.4,1.1-2.4,2.5v0c0,1.4,1,2.5,2.4,2.5
					S336,96,336,94.6z"/>
				<path d="M339.4,92.1h-2.1v-0.6h4.8v0.6h-2.1v5.5h-0.7V92.1z"/>
				<path d="M342.8,94.6L342.8,94.6c0-1.7,1.3-3.2,3.1-3.2c1.9,0,3.1,1.5,3.1,3.1v0c0,1.7-1.3,3.2-3.1,3.2
					C344,97.7,342.8,96.3,342.8,94.6z M348.3,94.6L348.3,94.6c0-1.4-1-2.5-2.4-2.5s-2.4,1.1-2.4,2.5v0c0,1.4,1,2.5,2.4,2.5
					S348.3,96,348.3,94.6z"/>
				<path d="M356.1,90.6h0.6l-4,8.1H352L356.1,90.6z"/>
				<path d="M359.6,91.5h0.8l2.2,5.3l2.2-5.3h0.7l-2.6,6.2h-0.6L359.6,91.5z"/>
				<path d="M366.7,91.5h0.7v6.1h-0.7V91.5z"/>
				<path d="M369.2,91.5h2.1c1.9,0,3.2,1.3,3.2,3v0c0,1.7-1.3,3.1-3.2,3.1h-2.1V91.5z M371.3,97c1.5,0,2.5-1,2.5-2.4v0
					c0-1.4-1-2.4-2.5-2.4h-1.4V97H371.3z"/>
				<path d="M376,91.5h4.4v0.6h-3.7v2.1h3.3v0.6h-3.3V97h3.8v0.6H376V91.5z"/>
				<path d="M381.6,94.6L381.6,94.6c0-1.7,1.3-3.2,3.1-3.2c1.9,0,3.1,1.5,3.1,3.1v0c0,1.7-1.3,3.2-3.1,3.2
					C382.9,97.7,381.6,96.3,381.6,94.6z M387.1,94.6L387.1,94.6c0-1.4-1-2.5-2.4-2.5s-2.4,1.1-2.4,2.5v0c0,1.4,1,2.5,2.4,2.5
					S387.1,96,387.1,94.6z"/>
				<path d="M394.9,90.6h0.6l-4,8.1h-0.6L394.9,90.6z"/>
				<path d="M398.6,96.6l0.5-0.4c0.5,0.6,1,0.9,1.8,0.9c0.7,0,1.3-0.5,1.3-1.2v0c0-0.8-0.7-1.2-1.7-1.2h-0.4l-0.1-0.4l1.9-2.2h-3
					v-0.6h3.9V92l-1.9,2.1c1.1,0.1,2,0.6,2,1.7v0c0,1.1-0.9,1.8-2,1.8C399.8,97.7,399.1,97.3,398.6,96.6z"/>
				<path d="M404.3,91.5h2.1c1.9,0,3.2,1.3,3.2,3v0c0,1.7-1.3,3.1-3.2,3.1h-2.1V91.5z M406.5,97c1.5,0,2.5-1,2.5-2.4v0
					c0-1.4-1-2.4-2.5-2.4H405V97H406.5z"/>
			</g>
		</g>
		
			<use xlink:href="#Photos"  width="34.1" height="23.6" x="-33.3" y="-12" transform="matrix(1 0 0 -1 311.459 87.6677)" overflow="visible"/>
	</g>
</g>
<g>
	<g>
		<path d="M1044,202.4c0-29.2,0-13.5,0-58.5"/>
		<g>
			<path fill="none" stroke="#000000" stroke-width="2" stroke-miterlimit="10" d="M1044,202.4c0-29.2,0-13.5,0-58.5"/>
			<g>
				<polygon points="1049,201 1044,209.6 1039,201 				"/>
			</g>
		</g>
	</g>
	<g>
		
			<use xlink:href="#Desktop"  width="28.5" height="25.6" id="XMLID_1_" x="-27.3" y="-15.6" transform="matrix(1 0 0 -1 1060.2434 124.9599)" overflow="visible"/>
		<g>
			<g>
				<path d="M1067.3,115.4h1.6l2.6,4l2.6-4h1.6v8.4h-1.5v-6l-2.7,4h0l-2.6-3.9v6h-1.5V115.4z"/>
				<path d="M1080.7,115.4h1.4l3.7,8.5h-1.6l-0.9-2h-4l-0.9,2h-1.5L1080.7,115.4z M1082.8,120.5l-1.5-3.4l-1.4,3.4H1082.8z"/>
				<path d="M1087.2,115.4h3.7c1.1,0,1.9,0.3,2.4,0.8c0.4,0.5,0.7,1.1,0.7,1.8v0c0,1.4-0.8,2.2-2,2.5l2.3,3.2h-1.7l-2.1-2.9h-1.8
					v2.9h-1.5V115.4z M1090.8,119.6c1.1,0,1.7-0.6,1.7-1.4v0c0-0.9-0.6-1.4-1.7-1.4h-2.1v2.8H1090.8z"/>
				<path d="M1095.9,115.4h1.5v4.2l4-4.2h1.8l-3.5,3.6l3.6,4.8h-1.8l-2.9-3.8l-1.3,1.3v2.4h-1.5V115.4z"/>
				<path d="M1104.6,115.4h6.2v1.3h-4.7v2.2h4.2v1.3h-4.2v2.3h4.8v1.3h-6.3V115.4z"/>
				<path d="M1114.7,116.8h-2.7v-1.4h6.8v1.4h-2.7v7h-1.5V116.8z"/>
				<path d="M1120.5,115.4h1.5v8.4h-1.5V115.4z"/>
				<path d="M1124.2,115.4h1.4l4.5,5.8v-5.8h1.5v8.4h-1.2l-4.6-6v6h-1.5V115.4z"/>
				<path d="M1133.3,119.6L1133.3,119.6c0-2.4,1.8-4.4,4.3-4.4c1.5,0,2.4,0.4,3.2,1.1l-0.9,1.1c-0.6-0.6-1.3-0.9-2.4-0.9
					c-1.5,0-2.7,1.4-2.7,3v0c0,1.7,1.1,3,2.9,3c0.8,0,1.5-0.3,2-0.6v-1.6h-2.1v-1.3h3.6v3.5c-0.8,0.7-2,1.3-3.5,1.3
					C1135,124,1133.3,122.1,1133.3,119.6z"/>
				<path d="M1146.1,122.6l0.9-1.1c0.8,0.7,1.6,1.1,2.7,1.1c0.9,0,1.5-0.4,1.5-1.1v0c0-0.6-0.3-0.9-1.9-1.3c-1.8-0.4-2.8-1-2.8-2.5
					v0c0-1.4,1.2-2.4,2.9-2.4c1.2,0,2.2,0.4,3,1.1l-0.8,1.1c-0.8-0.6-1.5-0.9-2.3-0.9c-0.9,0-1.4,0.4-1.4,1v0c0,0.6,0.4,0.9,2,1.3
					c1.8,0.4,2.7,1.1,2.7,2.5v0c0,1.6-1.2,2.5-3,2.5C1148.3,123.9,1147.1,123.5,1146.1,122.6z"/>
				<path d="M1154.5,115.4h1.5v8.4h-1.5V115.4z"/>
				<path d="M1160.2,116.8h-2.7v-1.4h6.8v1.4h-2.7v7h-1.5V116.8z"/>
				<path d="M1165.9,115.4h6.2v1.3h-4.7v2.2h4.2v1.3h-4.2v2.3h4.8v1.3h-6.3V115.4z"/>
			</g>
			<g>
				<path d="M1066.6,127.9h0.8l1.7,5.1l1.7-5.1h0.6l1.7,5.1l1.7-5.1h0.7l-2.2,6.2h-0.6l-1.7-5l-1.7,5h-0.6L1066.6,127.9z"/>
				<path d="M1076.8,127.9h4.4v0.6h-3.7v2.1h3.3v0.6h-3.3v2.1h3.8v0.6h-4.5V127.9z"/>
				<path d="M1082.6,127.9h2.6c0.7,0,1.2,0.2,1.6,0.5c0.3,0.3,0.4,0.6,0.4,1v0c0,0.8-0.5,1.2-1,1.4c0.7,0.2,1.3,0.6,1.3,1.5v0
					c0,1-0.9,1.7-2.2,1.7h-2.7V127.9z M1085.1,130.6c0.8,0,1.4-0.4,1.4-1.1v0c0-0.6-0.5-1-1.4-1h-1.9v2.1H1085.1z M1085.3,133.4
					c0.9,0,1.5-0.4,1.5-1.1v0c0-0.7-0.6-1-1.6-1h-1.9v2.2H1085.3z"/>
				<path d="M1094.5,127h0.6l-4,8.1h-0.6L1094.5,127z"/>
				<path d="M1098.6,127.9h0.7l2.2,3.3l2.2-3.3h0.7v6.1h-0.7V129l-2.2,3.3h0l-2.2-3.3v4.9h-0.7V127.9z"/>
				<path d="M1105.9,131L1105.9,131c0-1.7,1.3-3.2,3.1-3.2c1.9,0,3.1,1.5,3.1,3.1v0c0,1.7-1.3,3.2-3.1,3.2
					C1107.2,134.1,1105.9,132.6,1105.9,131z M1111.4,131L1111.4,131c0-1.4-1-2.5-2.4-2.5s-2.4,1.1-2.4,2.5v0c0,1.4,1,2.5,2.4,2.5
					S1111.4,132.3,1111.4,131z"/>
				<path d="M1113.6,127.9h2.6c0.7,0,1.2,0.2,1.6,0.5c0.3,0.3,0.4,0.6,0.4,1v0c0,0.8-0.5,1.2-1,1.4c0.7,0.2,1.3,0.6,1.3,1.5v0
					c0,1-0.9,1.7-2.2,1.7h-2.7V127.9z M1116.1,130.6c0.8,0,1.4-0.4,1.4-1.1v0c0-0.6-0.5-1-1.4-1h-1.9v2.1H1116.1z M1116.3,133.4
					c0.9,0,1.5-0.4,1.5-1.1v0c0-0.7-0.6-1-1.6-1h-1.9v2.2H1116.3z"/>
				<path d="M1120,127.9h0.7v6.1h-0.7V127.9z"/>
				<path d="M1122.4,127.9h0.7v5.5h3.4v0.6h-4.1V127.9z"/>
				<path d="M1127.9,127.9h4.4v0.6h-3.7v2.1h3.3v0.6h-3.3v2.1h3.8v0.6h-4.5V127.9z"/>
			</g>
		</g>
	</g>
</g>
<g>
	<g>
		<path d="M627.9,202.4c0-29.2,0-9.8,0-54.7"/>
		<g>
			<path fill="none" stroke="#000000" stroke-width="2" stroke-miterlimit="10" d="M627.9,202.4c0-29.2,0-9.8,0-54.7"/>
			<g>
				<polygon points="632.9,201 627.9,209.6 622.9,201 				"/>
			</g>
		</g>
	</g>
	<g>
		
			<use xlink:href="#Identity"  width="33.4" height="28.9" x="-34.4" y="-13.4" transform="matrix(1 0 0 -1 645.1701 124.9599)" overflow="visible"/>
		<g>
			<g>
				<path d="M652.2,115.4h3.8c1,0,1.7,0.3,2.2,0.7c0.4,0.4,0.6,0.8,0.6,1.4v0c0,1-0.6,1.5-1.2,1.9c1,0.3,1.7,0.9,1.7,2v0
					c0,1.5-1.2,2.3-3.1,2.3h-3.9V115.4z M655.7,119c0.9,0,1.6-0.4,1.6-1.1v0c0-0.7-0.5-1.1-1.5-1.1h-2.1v2.2H655.7z M656.1,122.5
					c1,0,1.6-0.4,1.6-1.2v0c0-0.7-0.6-1.1-1.7-1.1h-2.3v2.3H656.1z"/>
				<path d="M660.9,115.4h3.7c1.1,0,1.9,0.3,2.4,0.8c0.4,0.5,0.7,1.1,0.7,1.8v0c0,1.4-0.8,2.2-2,2.5l2.3,3.2h-1.7l-2.1-2.9h-1.8v2.9
					h-1.5V115.4z M664.5,119.6c1.1,0,1.7-0.6,1.7-1.4v0c0-0.9-0.6-1.4-1.7-1.4h-2.1v2.8H664.5z"/>
				<path d="M672.6,115.4h1.4l3.7,8.5h-1.6l-0.9-2h-4l-0.9,2h-1.5L672.6,115.4z M674.7,120.5l-1.5-3.4l-1.4,3.4H674.7z"/>
				<path d="M679.1,115.4h1.4l4.5,5.8v-5.8h1.5v8.4h-1.2l-4.6-6v6h-1.5V115.4z"/>
				<path d="M688.5,115.4h3.1c2.6,0,4.5,1.8,4.5,4.2v0c0,2.4-1.8,4.2-4.5,4.2h-3.1V115.4z M691.7,122.5c1.8,0,2.9-1.2,2.9-2.8v0
					c0-1.6-1.2-2.9-2.9-2.9H690v5.7H691.7z"/>
				<path d="M701.6,115.4h1.5v8.4h-1.5V115.4z"/>
				<path d="M705.3,115.4h3.1c2.6,0,4.5,1.8,4.5,4.2v0c0,2.4-1.8,4.2-4.5,4.2h-3.1V115.4z M708.5,122.5c1.8,0,2.9-1.2,2.9-2.8v0
					c0-1.6-1.2-2.9-2.9-2.9h-1.7v5.7H708.5z"/>
				<path d="M714.7,115.4h6.2v1.3h-4.7v2.2h4.2v1.3h-4.2v2.3h4.8v1.3h-6.3V115.4z"/>
				<path d="M722.7,115.4h1.4l4.5,5.8v-5.8h1.5v8.4h-1.2l-4.6-6v6h-1.5V115.4z"/>
				<path d="M734.3,116.8h-2.7v-1.4h6.8v1.4h-2.7v7h-1.5V116.8z"/>
				<path d="M740.1,115.4h1.5v8.4h-1.5V115.4z"/>
				<path d="M745.9,116.8h-2.7v-1.4h6.8v1.4h-2.7v7h-1.5V116.8z"/>
				<path d="M754.1,120.5l-3.3-5.1h1.7l2.4,3.7l2.4-3.7h1.7l-3.3,5v3.3h-1.5V120.5z"/>
			</g>
			<g>
				<path d="M652,127.9h0.7l2.2,3.3l2.2-3.3h0.7v6.1h-0.7V129l-2.2,3.3h0l-2.2-3.3v4.9H652V127.9z"/>
				<path d="M661.9,127.8h0.6l2.8,6.2h-0.7l-0.7-1.6h-3.3l-0.7,1.6h-0.7L661.9,127.8z M663.6,131.8l-1.4-3.1l-1.4,3.1H663.6z"/>
				<path d="M666.5,127.9h2.6c0.8,0,1.4,0.2,1.7,0.6c0.3,0.3,0.5,0.7,0.5,1.2v0c0,1-0.7,1.6-1.7,1.8l1.9,2.5h-0.8l-1.8-2.4h-1.7v2.4
					h-0.7V127.9z M669.1,131c0.9,0,1.6-0.5,1.6-1.3v0c0-0.8-0.6-1.2-1.6-1.2h-1.9v2.5H669.1z"/>
				<path d="M672.8,127.9h0.7v3.6l3.5-3.6h0.9l-2.6,2.7l2.7,3.4h-0.9l-2.3-3l-1.3,1.3v1.6h-0.7V127.9z"/>
				<path d="M683.2,131.2h-1.8v-0.6h1.8v-1.8h0.7v1.8h1.8v0.6h-1.8v1.8h-0.7V131.2z"/>
				<path d="M689.8,127.9h2.3c1.4,0,2.3,0.7,2.3,1.9v0c0,1.3-1.1,2-2.4,2h-1.5v2.2h-0.7V127.9z M692,131.2c1,0,1.7-0.5,1.7-1.3v0
					c0-0.9-0.7-1.3-1.6-1.3h-1.5v2.7H692z"/>
				<path d="M697.3,127.8h0.6l2.8,6.2H700l-0.7-1.6h-3.3l-0.7,1.6h-0.7L697.3,127.8z M699,131.8l-1.4-3.1l-1.4,3.1H699z"/>
				<path d="M702.7,128.5h-2.1v-0.6h4.8v0.6h-2.1v5.5h-0.7V128.5z"/>
				<path d="M708.4,128.5h-2.1v-0.6h4.8v0.6h-2.1v5.5h-0.7V128.5z"/>
				<path d="M712.4,127.9h4.4v0.6h-3.7v2.1h3.3v0.6h-3.3v2.1h3.8v0.6h-4.5V127.9z"/>
				<path d="M718.3,127.9h2.6c0.8,0,1.4,0.2,1.7,0.6c0.3,0.3,0.5,0.7,0.5,1.2v0c0,1-0.7,1.6-1.7,1.8l1.9,2.5h-0.8l-1.8-2.4H719v2.4
					h-0.7V127.9z M720.9,131c0.9,0,1.6-0.5,1.6-1.3v0c0-0.8-0.6-1.2-1.6-1.2H719v2.5H720.9z"/>
				<path d="M724.6,127.9h0.6l3.8,4.9v-4.9h0.7v6.1h-0.5l-3.9-5v5h-0.7V127.9z"/>
				<path d="M734.1,127.9h0.7v5.5h3.4v0.6h-4.1V127.9z"/>
				<path d="M741.8,127.8h0.6l2.8,6.2h-0.7l-0.7-1.6h-3.3l-0.7,1.6H739L741.8,127.8z M743.5,131.8l-1.4-3.1l-1.4,3.1H743.5z"/>
				<path d="M746.4,127.9h0.6l3.8,4.9v-4.9h0.7v6.1h-0.5l-3.9-5v5h-0.7V127.9z"/>
				<path d="M753.1,131L753.1,131c0-1.7,1.2-3.2,3.1-3.2c1,0,1.7,0.3,2.3,0.8l-0.4,0.5c-0.5-0.4-1-0.7-1.9-0.7
					c-1.4,0-2.3,1.1-2.3,2.5v0c0,1.5,0.9,2.5,2.4,2.5c0.7,0,1.3-0.3,1.8-0.6v-1.5h-1.9v-0.6h2.5v2.4c-0.6,0.5-1.4,0.9-2.5,0.9
					C754.3,134.1,753.1,132.7,753.1,131z"/>
				<path d="M760.1,131.4v-3.6h0.7v3.5c0,1.3,0.7,2.1,1.9,2.1c1.1,0,1.8-0.7,1.8-2v-3.6h0.7v3.5c0,1.8-1,2.7-2.5,2.7
					C761.1,134.1,760.1,133.2,760.1,131.4z"/>
				<path d="M768.9,127.8h0.6l2.8,6.2h-0.7l-0.7-1.6h-3.3l-0.7,1.6h-0.7L768.9,127.8z M770.6,131.8l-1.4-3.1l-1.4,3.1H770.6z"/>
				<path d="M772.9,131L772.9,131c0-1.7,1.2-3.2,3.1-3.2c1,0,1.7,0.3,2.3,0.8l-0.4,0.5c-0.5-0.4-1-0.7-1.9-0.7
					c-1.4,0-2.3,1.1-2.3,2.5v0c0,1.5,0.9,2.5,2.4,2.5c0.7,0,1.3-0.3,1.8-0.6v-1.5h-1.9v-0.6h2.5v2.4c-0.6,0.5-1.4,0.9-2.5,0.9
					C774,134.1,772.9,132.7,772.9,131z"/>
				<path d="M780,127.9h4.4v0.6h-3.7v2.1h3.3v0.6h-3.3v2.1h3.8v0.6H780V127.9z"/>
			</g>
		</g>
	</g>
</g>
<g>
	<line opacity="0.4" fill="none" stroke="#000000" stroke-miterlimit="10" x1="148.6" y1="202" x2="148.6" y2="182.7"/>
	<g>
		<path d="M149.5,168h5.2v1.1h-4v1.9h3.5v1.1h-3.5v2.8h-1.2V168z"/>
		<path d="M156.2,168h1.2v7h-1.2V168z"/>
		<path d="M159.3,168h5.2v1.1h-4v1.8h3.5v1.1h-3.5v1.9h4v1.1h-5.2V168z"/>
		<path d="M166,168h1.2v5.9h3.7v1.1H166V168z"/>
		<path d="M172.2,168h2.6c2.2,0,3.7,1.5,3.7,3.5v0c0,2-1.5,3.5-3.7,3.5h-2.6V168z M174.8,173.9c1.5,0,2.4-1,2.4-2.4v0
			c0-1.4-1-2.4-2.4-2.4h-1.4v4.8H174.8z"/>
		<path d="M183,168h5.2v1.1h-4v1.8h3.5v1.1h-3.5v1.9h4v1.1H183V168z"/>
		<path d="M191.7,171.4l-2.4-3.4h1.4l1.7,2.5l1.7-2.5h1.4l-2.4,3.4l2.5,3.6h-1.4l-1.8-2.6l-1.8,2.6h-1.4L191.7,171.4z"/>
		<path d="M197,168h2.8c1.6,0,2.7,0.9,2.7,2.3v0c0,1.6-1.3,2.4-2.8,2.4h-1.4v2.2H197V168z M199.6,171.6c0.9,0,1.5-0.5,1.5-1.2v0
			c0-0.8-0.6-1.2-1.5-1.2h-1.4v2.5H199.6z"/>
		<path d="M203.7,168h5.2v1.1h-4v1.8h3.5v1.1h-3.5v1.9h4v1.1h-5.2V168z"/>
		<path d="M210.4,168h2.6c2.2,0,3.7,1.5,3.7,3.5v0c0,2-1.5,3.5-3.7,3.5h-2.6V168z M213,173.9c1.5,0,2.4-1,2.4-2.4v0
			c0-1.4-1-2.4-2.4-2.4h-1.4v4.8H213z"/>
		<path d="M218.2,168h1.2v7h-1.2V168z"/>
		<path d="M223.1,169.1h-2.2V168h5.7v1.1h-2.2v5.9h-1.2V169.1z"/>
		<path d="M227.9,168h1.2v7h-1.2V168z"/>
		<path d="M230.7,171.5L230.7,171.5c0-2,1.5-3.6,3.7-3.6c2.1,0,3.6,1.6,3.6,3.6v0c0,2-1.5,3.6-3.7,3.6S230.7,173.5,230.7,171.5z
			 M236.7,171.5L236.7,171.5c0-1.4-1-2.5-2.4-2.5s-2.4,1.1-2.4,2.5v0c0,1.4,1,2.5,2.4,2.5S236.7,172.9,236.7,171.5z"/>
		<path d="M239.5,168h1.1l3.7,4.8V168h1.2v7h-1l-3.9-5v5h-1.2V168z"/>
	</g>
</g>
<g>
	<line opacity="0.4" fill="none" stroke="#000000" stroke-miterlimit="10" x1="315.5" y1="201.6" x2="315.5" y2="182.3"/>
	<g>
		<path d="M316.4,167.6h1.3l2.1,3.3l2.1-3.3h1.3v7h-1.2v-5l-2.2,3.3h0l-2.2-3.3v5h-1.2V167.6z"/>
		<path d="M324.8,171.1L324.8,171.1c0-2,1.5-3.6,3.7-3.6c2.1,0,3.6,1.6,3.6,3.6v0c0,2-1.5,3.6-3.7,3.6S324.8,173.1,324.8,171.1z
			 M330.8,171.1L330.8,171.1c0-1.4-1-2.5-2.4-2.5s-2.4,1.1-2.4,2.5v0c0,1.4,1,2.5,2.4,2.5S330.8,172.5,330.8,171.1z"/>
		<path d="M333.3,171.1L333.3,171.1c0-2,1.5-3.6,3.7-3.6c2.1,0,3.6,1.6,3.6,3.6v0c0,2-1.5,3.6-3.7,3.6S333.3,173.1,333.3,171.1z
			 M339.3,171.1L339.3,171.1c0-1.4-1-2.5-2.4-2.5s-2.4,1.1-2.4,2.5v0c0,1.4,1,2.5,2.4,2.5S339.3,172.5,339.3,171.1z"/>
		<path d="M342.1,167.6h2.6c2.2,0,3.7,1.5,3.7,3.5v0c0,2-1.5,3.5-3.7,3.5h-2.6V167.6z M344.7,173.5c1.5,0,2.4-1,2.4-2.4v0
			c0-1.4-1-2.4-2.4-2.4h-1.4v4.8H344.7z"/>
		<path d="M349.9,167.6h3.1c0.8,0,1.4,0.2,1.8,0.6c0.3,0.3,0.5,0.7,0.5,1.2v0c0,0.8-0.5,1.3-1,1.6c0.8,0.3,1.4,0.7,1.4,1.7v0
			c0,1.2-1,1.9-2.6,1.9h-3.2V167.6z M352.8,170.6c0.8,0,1.3-0.3,1.3-0.9v0c0-0.5-0.4-0.9-1.2-0.9h-1.8v1.9H352.8z M353.2,173.5
			c0.8,0,1.3-0.3,1.3-1v0c0-0.6-0.5-0.9-1.4-0.9h-1.9v1.9H353.2z"/>
		<path d="M356.8,171.1L356.8,171.1c0-2,1.5-3.6,3.7-3.6c2.1,0,3.6,1.6,3.6,3.6v0c0,2-1.5,3.6-3.7,3.6S356.8,173.1,356.8,171.1z
			 M362.8,171.1L362.8,171.1c0-1.4-1-2.5-2.4-2.5s-2.4,1.1-2.4,2.5v0c0,1.4,1,2.5,2.4,2.5S362.8,172.5,362.8,171.1z"/>
		<path d="M367.7,167.6h1.1l3.1,7h-1.3l-0.7-1.7h-3.3l-0.7,1.7h-1.3L367.7,167.6z M369.4,171.8l-1.2-2.8l-1.2,2.8H369.4z"/>
		<path d="M373.1,167.6h3.1c0.9,0,1.6,0.3,2,0.7c0.4,0.4,0.6,0.9,0.6,1.5v0c0,1.1-0.7,1.8-1.7,2.1l1.9,2.6h-1.4l-1.7-2.4h-1.5v2.4
			h-1.2V167.6z M376.1,171.1c0.9,0,1.4-0.5,1.4-1.2v0c0-0.7-0.5-1.2-1.4-1.2h-1.8v2.3H376.1z"/>
		<path d="M380.3,167.6h2.6c2.2,0,3.7,1.5,3.7,3.5v0c0,2-1.5,3.5-3.7,3.5h-2.6V167.6z M382.9,173.5c1.5,0,2.4-1,2.4-2.4v0
			c0-1.4-1-2.4-2.4-2.4h-1.4v4.8H382.9z"/>
	</g>
</g>
<g>
	<line opacity="0.4" fill="none" stroke="#000000" stroke-miterlimit="10" x1="399.4" y1="201.6" x2="399.4" y2="182.3"/>
	<g>
		<path d="M400.4,167.6h1.2v7h-1.2V167.6z"/>
		<path d="M403.5,167.6h2.6c2.2,0,3.7,1.5,3.7,3.5v0c0,2-1.5,3.5-3.7,3.5h-2.6V167.6z M406.1,173.5c1.5,0,2.4-1,2.4-2.4v0
			c0-1.4-1-2.4-2.4-2.4h-1.4v4.8H406.1z"/>
		<path d="M411.3,167.6h5.2v1.1h-4v1.8h3.5v1.1h-3.5v1.9h4v1.1h-5.2V167.6z"/>
		<path d="M418,167.6h1.1l3.7,4.8v-4.8h1.2v7h-1l-3.9-5v5H418V167.6z"/>
		<path d="M427.6,168.8h-2.2v-1.1h5.7v1.1h-2.2v5.9h-1.2V168.8z"/>
		<path d="M432.5,167.6h1.2v7h-1.2V167.6z"/>
		<path d="M437.3,168.8h-2.2v-1.1h5.7v1.1h-2.2v5.9h-1.2V168.8z"/>
		<path d="M444.1,171.9l-2.8-4.2h1.4l2,3.1l2-3.1h1.4l-2.8,4.2v2.8h-1.2V171.9z"/>
		<path d="M455.6,166.6h1l-4.5,9.3h-1L455.6,166.6z"/>
		<path d="M462.9,167.6h1.1l3.1,7h-1.3l-0.7-1.7h-3.3l-0.7,1.7h-1.3L462.9,167.6z M464.7,171.8l-1.2-2.8l-1.2,2.8H464.7z"/>
	</g>
</g>
<g>
	<line opacity="0.4" fill="none" stroke="#000000" stroke-miterlimit="10" x1="481.4" y1="201.6" x2="481.4" y2="182.3"/>
	<g>
		<path d="M482.4,167.6h1.2v7h-1.2V167.6z"/>
		<path d="M485.5,167.6h2.6c2.2,0,3.7,1.5,3.7,3.5v0c0,2-1.5,3.5-3.7,3.5h-2.6V167.6z M488.1,173.5c1.5,0,2.4-1,2.4-2.4v0
			c0-1.4-1-2.4-2.4-2.4h-1.4v4.8H488.1z"/>
		<path d="M493.3,167.6h5.2v1.1h-4v1.8h3.5v1.1h-3.5v1.9h4v1.1h-5.2V167.6z"/>
		<path d="M500,167.6h1.1l3.7,4.8v-4.8h1.2v7h-1l-3.9-5v5H500V167.6z"/>
		<path d="M509.7,168.8h-2.2v-1.1h5.7v1.1h-2.2v5.9h-1.2V168.8z"/>
		<path d="M514.5,167.6h1.2v7h-1.2V167.6z"/>
		<path d="M519.3,168.8h-2.2v-1.1h5.7v1.1h-2.2v5.9h-1.2V168.8z"/>
		<path d="M526.1,171.9l-2.8-4.2h1.4l2,3.1l2-3.1h1.4l-2.8,4.2v2.8h-1.2V171.9z"/>
		<path d="M537.6,166.6h1l-4.5,9.3h-1L537.6,166.6z"/>
		<path d="M542.4,167.6h3.1c0.8,0,1.4,0.2,1.8,0.6c0.3,0.3,0.5,0.7,0.5,1.2v0c0,0.8-0.5,1.3-1,1.6c0.8,0.3,1.4,0.7,1.4,1.7v0
			c0,1.2-1,1.9-2.6,1.9h-3.2V167.6z M545.3,170.6c0.8,0,1.3-0.3,1.3-0.9v0c0-0.5-0.4-0.9-1.2-0.9h-1.8v1.9H545.3z M545.7,173.5
			c0.8,0,1.3-0.3,1.3-1v0c0-0.6-0.5-0.9-1.4-0.9h-1.9v1.9H545.7z"/>
	</g>
</g>
<g>
	<line opacity="0.4" fill="none" stroke="#000000" stroke-miterlimit="10" x1="721.2" y1="202" x2="721.2" y2="182.7"/>
	<g>
		<path d="M722.1,168h1.3l2.1,3.3l2.1-3.3h1.3v7h-1.2v-5l-2.2,3.3h0l-2.2-3.3v5h-1.2V168z"/>
		<path d="M733.3,168h1.1l3.1,7h-1.3l-0.7-1.7h-3.3l-0.7,1.7h-1.3L733.3,168z M735.1,172.2l-1.2-2.8l-1.2,2.8H735.1z"/>
		<path d="M738.7,168h3.1c0.9,0,1.6,0.3,2,0.7c0.4,0.4,0.6,0.9,0.6,1.5v0c0,1.1-0.7,1.8-1.7,2.1l1.9,2.6h-1.4l-1.7-2.4h-1.5v2.4
			h-1.2V168z M741.7,171.5c0.9,0,1.4-0.5,1.4-1.2v0c0-0.7-0.5-1.2-1.4-1.2h-1.8v2.3H741.7z"/>
		<path d="M745.9,168h1.2v3.5l3.3-3.5h1.5l-2.9,3l3,4h-1.5l-2.4-3.1l-1.1,1.1v2h-1.2V168z"/>
		<path d="M753.2,168h5.2v1.1h-4v1.8h3.5v1.1h-3.5v1.9h4v1.1h-5.2V168z"/>
		<path d="M761.6,169.1h-2.2V168h5.7v1.1h-2.2v5.9h-1.2V169.1z"/>
		<path d="M766.4,168h1.2v7h-1.2V168z"/>
		<path d="M769.5,168h1.1l3.7,4.8V168h1.2v7h-1l-3.9-5v5h-1.2V168z"/>
		<path d="M777.1,171.5L777.1,171.5c0-2,1.5-3.6,3.6-3.6c1.2,0,2,0.3,2.7,0.9l-0.8,0.9c-0.5-0.5-1.1-0.7-2-0.7
			c-1.3,0-2.3,1.1-2.3,2.5v0c0,1.4,1,2.5,2.4,2.5c0.7,0,1.3-0.2,1.7-0.5v-1.3h-1.8v-1.1h3v2.9c-0.7,0.6-1.7,1.1-2.9,1.1
			C778.6,175.1,777.1,173.6,777.1,171.5z"/>
		<path d="M788.3,168h1.2v3.5l3.3-3.5h1.5l-2.9,3l3,4H793l-2.4-3.1l-1.1,1.1v2h-1.2V168z"/>
		<path d="M795.6,168h1.2v7h-1.2V168z"/>
		<path d="M798.4,171.5L798.4,171.5c0-2,1.5-3.6,3.6-3.6c1.3,0,2.1,0.5,2.7,1.1l-0.8,0.9c-0.6-0.5-1.2-0.9-2-0.9
			c-1.3,0-2.3,1.1-2.3,2.5v0c0,1.4,1,2.5,2.3,2.5c0.9,0,1.4-0.3,2-0.9l0.8,0.8c-0.7,0.8-1.5,1.2-2.8,1.2
			C799.9,175.1,798.4,173.5,798.4,171.5z"/>
		<path d="M806.1,168h1.2v3.5l3.3-3.5h1.5l-2.9,3l3,4h-1.5l-2.4-3.1l-1.1,1.1v2h-1.2V168z"/>
		<path d="M812.5,171.5L812.5,171.5c0-2,1.5-3.6,3.7-3.6s3.6,1.6,3.6,3.6v0c0,2-1.5,3.6-3.7,3.6C814,175.1,812.5,173.5,812.5,171.5z
			 M818.5,171.5L818.5,171.5c0-1.4-1-2.5-2.4-2.5c-1.4,0-2.4,1.1-2.4,2.5v0c0,1.4,1,2.5,2.4,2.5C817.5,174,818.5,172.9,818.5,171.5z
			"/>
		<path d="M821.3,168h5.2v1.1h-4v1.9h3.5v1.1h-3.5v2.8h-1.2V168z"/>
		<path d="M827.9,168h5.2v1.1h-4v1.9h3.5v1.1h-3.5v2.8h-1.2V168z"/>
	</g>
</g>
<g>
	<path d="M1180.3,253.1h1.3v6.2h3.9v1.2h-5.1V253.1z"/>
	<path d="M1189.4,253h1.2l3.2,7.4h-1.4l-0.7-1.8h-3.5l-0.8,1.8h-1.3L1189.4,253z M1191.3,257.5l-1.3-2.9l-1.3,2.9H1191.3z"/>
	<path d="M1194.7,257.3v-4.2h1.3v4.2c0,1.4,0.7,2.1,1.9,2.1c1.1,0,1.8-0.7,1.8-2v-4.2h1.3v4.2c0,2.2-1.2,3.3-3.2,3.3
		C1195.9,260.5,1194.7,259.4,1194.7,257.3z"/>
	<path d="M1202.8,253.1h1.2l3.9,5.1v-5.1h1.3v7.3h-1.1l-4-5.2v5.2h-1.3V253.1z"/>
	<path d="M1210.7,256.8L1210.7,256.8c0-2.1,1.6-3.8,3.8-3.8c1.4,0,2.2,0.5,2.9,1.1l-0.8,1c-0.6-0.5-1.2-0.9-2.1-0.9
		c-1.4,0-2.4,1.2-2.4,2.6v0c0,1.4,1,2.6,2.4,2.6c0.9,0,1.5-0.4,2.1-1l0.8,0.8c-0.8,0.8-1.6,1.3-3,1.3
		C1212.3,260.6,1210.7,258.9,1210.7,256.8z"/>
	<path d="M1218.8,253.1h1.3v3.1h3.5v-3.1h1.3v7.3h-1.3v-3.1h-3.5v3.1h-1.3V253.1z"/>
</g>
<pattern  id="SVGID_1_" xlink:href="#_x31_0_lpi_50_x25_" patternTransform="matrix(0.7071 -0.7071 0.7071 0.7071 1697.7437 -6107.5366)">
</pattern>
<rect x="1140.7" y="212.8" opacity="0.1" fill="url(#SVGID_1_)" width="125.9" height="87.8"/>
<use xlink:href="#Mobile"  width="12.1" height="25.6" x="-11.3" y="-15.6" transform="matrix(1 0 0 -1 1019.9894 124.9241)" overflow="visible"/>
<g>
	<path d="M1026.5,126.1h-2.3v-1.3h2.3v-2.3h1.4v2.3h2.3v1.3h-2.3v2.3h-1.4V126.1z"/>
</g>
</svg>
